<svg xmlns="http://www.w3.org/2000/svg" xmlns:xlink="http://www.w3.org/1999/xlink" viewBox="0 0 652.9 76.7"><defs><style>.cls-1{isolation:isolate;}.cls-2{fill:url(#Naamloos_verloop_75);}.cls-3{fill:url(#Naamloos_verloop_75-2);}.cls-4{fill:url(#Naamloos_verloop_75-3);}.cls-5{fill:url(#Naamloos_verloop_74);}.cls-10,.cls-12,.cls-6,.cls-7{fill:#fff;}.cls-6{opacity:0.34;}.cls-6,.cls-7{mix-blend-mode:soft-light;}.cls-7{opacity:0.56;}.cls-8{fill:#3b5998;}.cls-9{fill:#1da1f2;}.cls-10,.cls-11{opacity:0.38;mix-blend-mode:overlay;}</style><linearGradient id="Naamloos_verloop_75" x1="15.79" y1="12.03" x2="34.35" y2="77.92" gradientUnits="userSpaceOnUse"><stop offset="0" stop-color="#1cffce"/><stop offset="0.59" stop-color="#1da4f1"/><stop offset="0.99" stop-color="#3b5998"/></linearGradient><linearGradient id="Naamloos_verloop_75-2" x1="43.31" y1="4.28" x2="61.86" y2="70.17" xlink:href="#Naamloos_verloop_75"/><linearGradient id="Naamloos_verloop_75-3" x1="70.75" y1="-3.44" x2="89.3" y2="62.45" xlink:href="#Naamloos_verloop_75"/><linearGradient id="Naamloos_verloop_74" x1="46.51" y1="43.53" x2="60.03" y2="80.67" gradientUnits="userSpaceOnUse"><stop offset="0" stop-color="#1da4f1"/><stop offset="0.26" stop-color="#1ca1ee"/><stop offset="1" stop-color="#3b5998"/></linearGradient></defs><g class="cls-1"><g id="Laag_2" data-name="Laag 2"><g id="Laag_1-2" data-name="Laag 1"><path class="cls-2" d="M35.1,28.8V63.3q-7.7-.7-15.3-2.1a45.4,45.4,0,0,1-5.1-.9V28.8A1.3,1.3,0,0,1,16,27.5H33.9A1.2,1.2,0,0,1,35.1,28.8Z"/><path class="cls-3" d="M63,12.7V63.8L52.8,64c-3.4,0-6.8,0-10.1-.2V12.7a1.2,1.2,0,0,1,1.2-1.2H61.8A1.2,1.2,0,0,1,63,12.7Z"/><path class="cls-4" d="M91,1.3v59l-5.2.9c-5.1.9-10.1,1.5-15.2,2V1.3A1.2,1.2,0,0,1,71.8,0H90.2A1.4,1.4,0,0,1,91,1.3Z"/><path class="cls-5" d="M.9,60.2a250.6,250.6,0,0,0,26,5.4,161.3,161.3,0,0,0,25.9,1.9,172.7,172.7,0,0,0,25.9-1.9c8.6-1.3,17.2-3.2,26-5.4a.7.7,0,0,1,1,.6.9.9,0,0,1-.4.9A85.7,85.7,0,0,1,80.3,73a101.9,101.9,0,0,1-27.5,3.7,101.2,101.2,0,0,1-27.4-3.8A84.9,84.9,0,0,1,.3,61.6a.8.8,0,0,1-.2-1A.9.9,0,0,1,.9,60.2Z"/><path class="cls-6" d="M35.1,28.8V51.9a63.6,63.6,0,0,1-20.4-4.4V28.8A1.3,1.3,0,0,1,16,27.5H33.9A1.2,1.2,0,0,1,35.1,28.8Z"/><path class="cls-6" d="M63,12.7V47.2a65.4,65.4,0,0,1-20.3,4.7V12.7a1.2,1.2,0,0,1,1.2-1.2H61.8A1.2,1.2,0,0,1,63,12.7Z"/><path class="cls-6" d="M91,1.3V25A66.9,66.9,0,0,1,70.6,43.5V1.3A1.2,1.2,0,0,1,71.8,0H90.2A1.4,1.4,0,0,1,91,1.3Z"/><path class="cls-7" d="M35.1,28.8V45.6c-2.2.2-4.5.3-6.7.3a68.4,68.4,0,0,1-13.7-1.4V28.8A1.3,1.3,0,0,1,16,27.5H33.9A1.2,1.2,0,0,1,35.1,28.8Z"/><path class="cls-7" d="M63,12.7V35.8a60.8,60.8,0,0,1-20.3,8.5V12.7a1.2,1.2,0,0,1,1.2-1.2H61.8A1.2,1.2,0,0,1,63,12.7Z"/><path class="cls-7" d="M90.2.1A65.1,65.1,0,0,1,70.6,30.2V1.3A1.2,1.2,0,0,1,71.8,0H90.2Z"/><path class="cls-8" d="M159.6,37.5v-.3c3.7-2.2,5.6-5.9,5.6-11.1s-1.4-7.8-4-10.2-6.3-3.5-11.1-3.5H129.7a2.6,2.6,0,0,0-1.9.5,2.7,2.7,0,0,0-.6,2V62.1a2,2,0,0,0,2.5,2.4h20.8c5,0,9-1.2,12-3.7s4.6-6.1,4.6-10.6C167.1,43.5,164.6,39.3,159.6,37.5ZM136.4,21H149c4.5,0,6.8,2.1,6.8,6.4s-2.3,6.5-6.8,6.5H136.4Zm13.9,34.9H136.4V42.3h13.9c4.7,0,7,2.3,7,6.9S155,55.9,150.3,55.9Z"/><path class="cls-8" d="M194.7,25.8a3,3,0,0,0-1.8-.4h-2.4c-5.5.1-10.1.8-13.6,2.2a5.2,5.2,0,0,0-2.4,1.6,5.4,5.4,0,0,0-.5,2.6V62.3a2.5,2.5,0,0,0,.5,1.7,2.3,2.3,0,0,0,1.8.5h4a2.3,2.3,0,0,0,1.8-.5,2.5,2.5,0,0,0,.4-1.7V34.9a.9.9,0,0,1,.8-.9,23.4,23.4,0,0,1,6.9-.8h2.7a2.4,2.4,0,0,0,1.8-.6,2.5,2.5,0,0,0,.5-1.7V27.6A3,3,0,0,0,194.7,25.8Z"/><path class="cls-8" d="M227.4,29.3q-4.5-3.9-12.6-3.9c-5.4,0-9.6,1.3-12.5,3.9s-4.4,6.2-4.4,10.8V50.9c0,4.7,1.5,8.3,4.4,10.9s7.1,3.9,12.5,3.9,9.6-1.3,12.6-3.9,4.4-6.2,4.4-10.9V40.1C231.8,35.5,230.3,31.9,227.4,29.3Zm-4.1,21.6a6.3,6.3,0,0,1-2.3,5.2c-1.4,1.2-3.5,1.8-6.2,1.8s-4.8-.6-6.2-1.8a6.2,6.2,0,0,1-2.2-5.2V40.1a6.2,6.2,0,0,1,2.2-5.2c1.4-1.2,3.5-1.8,6.2-1.8s4.8.6,6.2,1.8a6.3,6.3,0,0,1,2.3,5.2Z"/><path class="cls-8" d="M271.5,61.8,265.1,49c-1.5-3.1-3.3-5.1-5.3-6.1l11.1-13.8c1.4-1.7.9-2.6-1.5-2.6h-3.6a15.2,15.2,0,0,0-2.8.2,3.7,3.7,0,0,0-1.6,1.5l-10,13h-3.8V12.5a2.6,2.6,0,0,0-.5-1.8c-.3-.4-.9-.6-1.9-.6h-3.7a2.4,2.4,0,0,0-1.9.6c-.4.3-.5.9-.5,1.8V62.2c0,.9.1,1.5.5,1.8s1,.5,1.9.5h3.7c1,0,1.6-.1,1.9-.5a2.6,2.6,0,0,0,.5-1.8V49.1H252a6,6,0,0,1,5.9,3.6l4.5,9.8a4.1,4.1,0,0,0,1.3,1.7,7.9,7.9,0,0,0,2.6.3h3.8c1.1,0,1.7-.2,1.9-.6S272,62.8,271.5,61.8Z"/><path class="cls-8" d="M306.2,48.2c2.3,0,3.4-1,3.4-3.1V40.6a15.2,15.2,0,0,0-4.3-11c-2.9-2.8-7.1-4.2-12.7-4.2s-9.8,1.3-12.7,4-4.4,6.7-4.4,11.8v8.7c0,4.8,1.4,8.7,4.2,11.5s7,4.3,12.7,4.3c7.7,0,13-2.4,15.9-7.1,1.1-1.7.8-2.9-.9-3.7l-2.5-1.4a2.7,2.7,0,0,0-2.1-.5c-.6.1-1.1.6-1.7,1.4q-2.6,3.9-8.7,3.9a9,9,0,0,1-6.2-1.9c-1.4-1.2-2.1-3-2.1-5.5V48.2Zm-22.1-8.1a7,7,0,0,1,2.2-5.6c1.4-1.3,3.5-1.9,6.3-1.9s4.9.6,6.3,1.9a7.3,7.3,0,0,1,2.1,5.6v1.6H284.1Z"/><path class="cls-8" d="M336.8,25.8a2.5,2.5,0,0,0-1.7-.4h-2.4A40.5,40.5,0,0,0,319,27.6a5.4,5.4,0,0,0-2.3,1.6,5.4,5.4,0,0,0-.5,2.6V62.3c0,.8.1,1.4.5,1.7s.9.5,1.8.5h4c.8,0,1.4-.1,1.7-.5a2.5,2.5,0,0,0,.5-1.7V34.9a.9.9,0,0,1,.7-.9,24.1,24.1,0,0,1,7-.8h2.7a2.1,2.1,0,0,0,1.7-.6c.4-.3.5-.9.5-1.7V27.6A2.4,2.4,0,0,0,336.8,25.8Z"/><path class="cls-9" d="M372.5,12.9c-.3-.4-1-.5-1.9-.5H336c-.9,0-1.6.1-1.9.5a2.7,2.7,0,0,0-.6,2v3.6a2.5,2.5,0,0,0,.6,1.9,2.4,2.4,0,0,0,1.9.6h12.7V62.1a3.1,3.1,0,0,0,.5,1.9,2.7,2.7,0,0,0,2,.5h4.2a2.7,2.7,0,0,0,2-.5,2.6,2.6,0,0,0,.5-1.9V21h12.7a2.4,2.4,0,0,0,1.9-.6,2.5,2.5,0,0,0,.6-1.9V14.9A2.7,2.7,0,0,0,372.5,12.9Z"/><path class="cls-9" d="M386.2,25.4c-4.9,0-8.7,1-11.5,3.2A13.2,13.2,0,0,0,371,33c-.8,1.5-.4,2.6,1.3,3.3l2.9,1.3a3.1,3.1,0,0,0,1.8.2c.4-.1.8-.5,1.4-1.3a7.2,7.2,0,0,1,4.1-3.1,13.6,13.6,0,0,1,3.6-.5c2.6,0,4.5.6,5.6,1.9a7.1,7.1,0,0,1,1.7,4.4v3.1l-7-.4c-6,0-10.3.9-12.8,2.7s-3.9,4.8-3.9,9.1,1.2,7.1,3.5,9,6.7,3,12.9,3,10.3-.7,13.2-2a4,4,0,0,0,2.1-1.4,5.1,5.1,0,0,0,.6-2.8v-19C402,30.4,396.7,25.4,386.2,25.4ZM393.4,57c0,.5-.2.8-.8,1a34.3,34.3,0,0,1-7.3.6c-2.7,0-4.5-.4-5.5-1.2a4.5,4.5,0,0,1-1.4-3.7,4.3,4.3,0,0,1,1.5-3.6c1-.8,2.9-1.2,5.5-1.2l8,.4Z"/><path class="cls-9" d="M430.3,25.8a2.5,2.5,0,0,0-1.7-.4h-2.4c-5.5.1-10.1.8-13.6,2.2a5.2,5.2,0,0,0-2.4,1.6,5.4,5.4,0,0,0-.5,2.6V62.3a2.5,2.5,0,0,0,.5,1.7c.3.4.9.5,1.8.5h4c.8,0,1.4-.1,1.7-.5s.5-.9.5-1.7V34.9a.9.9,0,0,1,.8-.9,23.4,23.4,0,0,1,6.9-.8h2.7a2.1,2.1,0,0,0,2.3-2.3V27.6A2.4,2.4,0,0,0,430.3,25.8Z"/><path class="cls-9" d="M443.7,26.9a2.5,2.5,0,0,0-1.7-.4h-4.1a2.5,2.5,0,0,0-1.7.4,2.8,2.8,0,0,0-.5,1.8V62.3a2.5,2.5,0,0,0,.5,1.7c.3.4.9.5,1.7.5H442c.8,0,1.4-.1,1.7-.5s.5-.9.5-1.7V28.7A2.3,2.3,0,0,0,443.7,26.9Zm0-13.7c-.6-.7-1.8-1-3.5-1h-.5c-1.7,0-2.9.3-3.6,1a5,5,0,0,0-.9,3.4v.7c0,1.7.3,2.9,1,3.5a5.2,5.2,0,0,0,3.5,1h.5a5,5,0,0,0,3.5-1c.7-.6,1-1.8,1-3.5v-.7C444.7,15,444.4,13.8,443.7,13.2Z"/><path class="cls-9" d="M482.1,48.2c2.2,0,3.3-1,3.3-3.1V40.6a14.8,14.8,0,0,0-4.3-11c-2.9-2.8-7.1-4.2-12.7-4.2s-9.7,1.3-12.7,4-4.3,6.7-4.3,11.8v8.7a19.5,19.5,0,0,0,.7,5.6,14.5,14.5,0,0,0,3.4,5.9c2.8,2.8,7,4.3,12.8,4.3,7.7,0,13-2.4,15.9-7.1.8-1.3.8-2.3,0-3.1l-.9-.6-2.6-1.4a2.7,2.7,0,0,0-2.1-.5,2.9,2.9,0,0,0-1.6,1.4,8.3,8.3,0,0,1-1.5,1.7c-1.7,1.5-4.1,2.2-7.2,2.2s-4.8-.6-6.2-1.9l-.3-.3a6.7,6.7,0,0,1-1.9-5.2V48.2Zm-22.2-8.1a7,7,0,0,1,2.2-5.6,9.3,9.3,0,0,1,6.3-1.9c2.8,0,4.9.6,6.3,1.9a7,7,0,0,1,2.2,5.6v1.6h-17Z"/><path class="cls-9" d="M524,27c-.2-.4-.9-.5-2.1-.5H519a6.1,6.1,0,0,0-2.8.4,3.7,3.7,0,0,0-1.3,1.9l-6.8,17.7-1,3.4c-.2.8-.3,1.5-.5,2.1a3,3,0,0,1-.2,1,3.3,3.3,0,0,1-.3,1.3h-.3v-.6c-.1-.4-.2-.8-.3-1.4h0a13.6,13.6,0,0,0-.4-1.7l-.6-2.1a10.3,10.3,0,0,0-.7-2.1l-6.8-17.6a3.1,3.1,0,0,0-1.2-1.9,6.8,6.8,0,0,0-2.9-.4H490c-1.2,0-1.8.1-2.1.5s-.2,1,.2,2.1l10,24.6,3.6,8.9a2.9,2.9,0,0,0,3,2h2.5a3.2,3.2,0,0,0,3.1-2l5.2-12.8L523.9,29C524.2,28,524.3,27.3,524,27Z"/><path class="cls-9" d="M557.6,48.2c2.2,0,3.3-1,3.3-3.1V40.6a15.5,15.5,0,0,0-2.9-9.4l-1.4-1.6c-2.9-2.8-7.1-4.2-12.7-4.2s-9.7,1.3-12.7,4-4.3,6.7-4.3,11.8v8.7c0,4.8,1.4,8.7,4.1,11.5s7,4.3,12.8,4.3c7.7,0,13-2.4,15.9-7.1,1-1.7.7-2.9-.9-3.7l-2.6-1.4a2.7,2.7,0,0,0-2.1-.5,2.9,2.9,0,0,0-1.6,1.4q-2.6,3.9-8.7,3.9c-2.7,0-4.8-.6-6.2-1.9s-2.2-3-2.2-5.5V48.2Zm-22.2-6.5V40.1a7,7,0,0,1,2.2-5.6,9.3,9.3,0,0,1,6.3-1.9c2.8,0,4.9.6,6.4,1.9l.6.8a7.3,7.3,0,0,1,1.5,4.8v1.6Z"/><path class="cls-9" d="M596.4,29.2c-2.5-2.6-6.4-3.8-11.5-3.8a38.3,38.3,0,0,0-14.5,2.5,5,5,0,0,0-2.3,1.5,4.9,4.9,0,0,0-.6,2.7V62.3A2.5,2.5,0,0,0,568,64a2.4,2.4,0,0,0,1.8.5h4c.9,0,1.5-.1,1.8-.5a2.5,2.5,0,0,0,.5-1.7V34.8c0-.3.1-.5.5-.7a28,28,0,0,1,7-.9c5.4,0,8,2.4,8,7.2V62.3a2.5,2.5,0,0,0,.5,1.7c.3.4.9.5,1.7.5h4.1a2.4,2.4,0,0,0,1.8-.5,2.5,2.5,0,0,0,.5-1.7V40.1C600.2,35.4,598.9,31.7,596.4,29.2Z"/><path class="cls-8" d="M612.6,58.6a3.8,3.8,0,0,0-2.6-.7h-.3a4,4,0,0,0-2.6.7,3.7,3.7,0,0,0-.7,2.6v.4c0,1.3.2,2.2.7,2.6a3.5,3.5,0,0,0,2.6.7h.3c1.3,0,2.2-.2,2.6-.7s.7-1.3.7-2.6v-.4A3.7,3.7,0,0,0,612.6,58.6Z"/><path class="cls-8" d="M638.5,40c-1.7-1.8-4.4-2.6-8-2.6a25.9,25.9,0,0,0-10,1.7,3,3,0,0,0-1.6,1.1,3,3,0,0,0-.4,1.8V63c0,.6.1,1,.4,1.2a1.7,1.7,0,0,0,1.2.3h2.8a1.2,1.2,0,0,0,1.5-1.5V43.9a.5.5,0,0,1,.4-.5,19.9,19.9,0,0,1,4.9-.6c3.7,0,5.5,1.6,5.5,5V63c0,.6.1,1,.4,1.2a1.7,1.7,0,0,0,1.2.3h2.8a1.9,1.9,0,0,0,1.2-.3,1.7,1.7,0,0,0,.3-1.2V47.6C641.1,44.3,640.3,41.8,638.5,40Z"/><path class="cls-8" d="M652.5,27.2c-.2-.3-.6-.4-1.2-.4h-2.8c-.6,0-1,.1-1.2.4a1.7,1.7,0,0,0-.3,1.2V63a1.2,1.2,0,0,0,1.5,1.5h2.8a1.7,1.7,0,0,0,1.2-.3c.3-.2.4-.6.4-1.2V28.4C652.9,27.8,652.8,27.4,652.5,27.2Z"/><path class="cls-10" d="M372.5,12.9a2.7,2.7,0,0,1,.6,2v3.6a2.5,2.5,0,0,1-.6,1.9,2.4,2.4,0,0,1-1.9.6h-6.8c-3.6-2.8-7.1-5.7-10.4-8.6h17.2C371.5,12.4,372.2,12.5,372.5,12.9Z"/><path class="cls-10" d="M402,40.5V43l-8.6-3.8c-3.7-1.8-7.3-3.7-10.9-5.8s-5.3-3.1-7.8-4.8c2.8-2.2,6.6-3.2,11.5-3.2C396.7,25.4,402,30.4,402,40.5Z"/><path class="cls-10" d="M430.3,25.8a2.4,2.4,0,0,1,.6,1.8v3.3a2.1,2.1,0,0,1-2.3,2.3h-2.7a23.4,23.4,0,0,0-6.9.8.9.9,0,0,0-.8.9V48.8c-2.9-.8-5.7-1.8-8.5-2.8V31.8a5.4,5.4,0,0,1,.5-2.6,5.2,5.2,0,0,1,2.4-1.6c3.5-1.4,8.1-2.1,13.6-2.2h2.4A2.5,2.5,0,0,1,430.3,25.8Z"/><path class="cls-10" d="M443.7,26.9a2.3,2.3,0,0,1,.5,1.8V54.6l-8.5-1.4V28.7a2.8,2.8,0,0,1,.5-1.8,2.5,2.5,0,0,1,1.7-.4H442A2.5,2.5,0,0,1,443.7,26.9Z"/><path class="cls-10" d="M443.7,13.2c.7.6,1,1.8,1,3.4v.7c0,1.7-.3,2.9-1,3.5a5,5,0,0,1-3.5,1h-.5a5.2,5.2,0,0,1-3.5-1c-.7-.6-1-1.8-1-3.5v-.7a5,5,0,0,1,.9-3.4c.7-.7,1.9-1,3.6-1h.5C441.9,12.2,443.1,12.5,443.7,13.2Z"/><path class="cls-10" d="M483.3,54.9l.9.6q-4.3.4-8.7.6a8.3,8.3,0,0,0,1.5-1.7,2.9,2.9,0,0,1,1.6-1.4,2.7,2.7,0,0,1,2.1.5Z"/><g class="cls-11"><path class="cls-12" d="M481.1,29.6c-2.9-2.8-7.1-4.2-12.7-4.2s-9.7,1.3-12.7,4-4.3,6.7-4.3,11.8v8.7a19.5,19.5,0,0,0,.7,5.6c3.2.3,6.4.5,9.7.6a6.7,6.7,0,0,1-1.9-5.2V48.2h22.2c2.2,0,3.3-1,3.3-3.1V40.6A14.8,14.8,0,0,0,481.1,29.6Zm-4.2,12.1h-17V40.1a7,7,0,0,1,2.2-5.6,9.3,9.3,0,0,1,6.3-1.9c2.8,0,4.9.6,6.3,1.9a7,7,0,0,1,2.2,5.6Z"/></g><path class="cls-10" d="M505,50.6a13.6,13.6,0,0,1,.4,1.7l-7.3,1.4-10-24.6c-.4-1.1-.4-1.8-.2-2.1s.9-.5,2.1-.5h2.8a6.8,6.8,0,0,1,2.9.4,3.1,3.1,0,0,1,1.2,1.9l6.8,17.6a10.3,10.3,0,0,1,.7,2.1Z"/><path class="cls-10" d="M524,27c.3.3.2,1-.1,2l-8.4,20.8L506.6,52c.2-.6.3-1.3.5-2.1l1-3.4,6.8-17.7a3.7,3.7,0,0,1,1.3-1.9,6.1,6.1,0,0,1,2.8-.4h2.9C523.1,26.5,523.8,26.6,524,27Z"/><path class="cls-10" d="M558,31.2l-7.1,4.1-.6-.8c-1.5-1.3-3.6-1.9-6.4-1.9a9.3,9.3,0,0,0-6.3,1.9,7,7,0,0,0-2.2,5.6v1.6h2.5c-3.6,1.6-7.3,3-11,4.4V41.2c0-5.1,1.4-9,4.3-11.8s7.2-4,12.7-4,9.8,1.4,12.7,4.2Z"/></g></g></g></svg>