<svg width="15" height="18" viewBox="0 0 15 18" fill="none" xmlns="http://www.w3.org/2000/svg">
<path fill-rule="evenodd" clip-rule="evenodd" d="M0.0282009 3.5694C0.0105033 3.46321 0.0451763 3.35502 0.121297 3.2789L3.10237 0.297826C3.16488 0.235314 3.24967 0.200195 3.33807 0.200195H5.39399C5.52025 0.200195 5.63567 0.271529 5.69213 0.384457L6.30787 1.61593C6.36433 1.72886 6.47975 1.8002 6.60601 1.8002H9.39399C9.52025 1.8002 9.63567 1.87153 9.69213 1.98446L11.9079 6.41593C11.9643 6.52886 12.0798 6.60019 12.206 6.60019H13.7333C14.008 6.60019 14.1648 6.91378 14 7.13353L12.018 9.77615C12.006 9.79215 11.9955 9.80919 11.9866 9.82708L11.2352 11.3298C11.212 11.3761 11.2 11.4271 11.2 11.4789V12.9215C11.2 12.9733 11.188 13.0243 11.1648 13.0706L10.4 14.6002L9.6 16.2002L8.89213 17.6159C8.83567 17.7289 8.72025 17.8002 8.59399 17.8002H7.40601C7.27975 17.8002 7.16433 17.7289 7.10787 17.6159L6.43519 16.2706C6.41205 16.2243 6.4 16.1733 6.4 16.1215V11.5383C6.4 11.4499 6.36488 11.3651 6.30237 11.3026L5.65564 10.6558C5.61905 10.6192 5.59148 10.5746 5.57512 10.5255L4.87597 8.42812C4.8306 8.292 4.70322 8.20019 4.55975 8.20019H1.08238C0.919429 8.20019 0.780366 8.08239 0.753578 7.92166L0.0282009 3.5694Z" fill="white"/>
</svg>
