<svg width="24" height="18" viewBox="0 0 24 18" fill="none" xmlns="http://www.w3.org/2000/svg">
<path fill-rule="evenodd" clip-rule="evenodd" d="M1.74907 7.10205C1.66674 7.26671 1.73348 7.46694 1.89814 7.54927L4.50186 8.85112C4.66652 8.93345 4.73326 9.13368 4.65093 9.29834L4.14907 10.3021C4.06674 10.4667 3.86652 10.5335 3.70186 10.4511L2.47038 9.83539C2.4241 9.81224 2.37306 9.80019 2.32131 9.80019H0.333333C0.149238 9.80019 0 9.94943 0 10.1335V11.1599C0 11.3034 0.0918098 11.4308 0.227924 11.4762L1.88833 12.0296C2.12341 12.108 2.19384 12.4064 2.01863 12.5816L1.69763 12.9026C1.63512 12.9651 1.6 13.0499 1.6 13.1383V13.7461C1.6 13.7819 1.60578 13.8175 1.61711 13.8515L2.35634 16.0692C2.38429 16.1531 2.44442 16.2224 2.52349 16.2619L3.78511 16.8927C3.91344 16.9569 4.06843 16.9318 4.16989 16.8303L5.6 15.4002L6.07298 14.9272C6.23386 14.7663 6.18985 14.4951 5.98635 14.3934L4.98426 13.8923C4.87134 13.8359 4.8 13.7204 4.8 13.5942V13.4271C4.8 13.2103 5.0038 13.0511 5.21418 13.1037L7.74751 13.7371C7.8959 13.7742 8 13.9075 8 14.0605V15.2993C8 15.3651 8.01948 15.4294 8.05598 15.4842L9.50105 17.6518C9.56287 17.7445 9.66694 17.8002 9.7784 17.8002H10.1743C10.3106 17.8002 10.4332 17.7172 10.4838 17.5907L11.7243 14.4894C11.8311 14.2223 12.2033 14.2069 12.332 14.4641L12.7758 15.3518C12.7918 15.3839 12.8129 15.4131 12.8383 15.4384L14.3618 16.9619C14.3871 16.9873 14.4163 17.0084 14.4484 17.0244L15.5176 17.559C15.7392 17.6698 16 17.5086 16 17.2609V16.3383C16 16.2499 15.9649 16.1651 15.9024 16.1026L15.4357 15.6359C15.3055 15.5057 15.3055 15.2947 15.4357 15.1645L15.9024 14.6978C15.9649 14.6353 16.0497 14.6002 16.1381 14.6002H17.5213C17.5731 14.6002 17.6241 14.5881 17.6704 14.565L19.0157 13.8923C19.1287 13.8359 19.2 13.7204 19.2 13.5942V12.3383C19.2 12.2499 19.1649 12.1651 19.1024 12.1026L18.6357 11.6359C18.5055 11.5057 18.5055 11.2947 18.6357 11.1645L19.673 10.1272C19.8339 9.96633 20.1051 10.0103 20.2068 10.2138L20.7079 11.2159C20.7643 11.3289 20.8798 11.4002 21.006 11.4002H21.0607C21.3085 11.4002 21.4696 11.1394 21.3588 10.9178L20.9491 10.0983C20.8667 9.93368 20.9335 9.73345 21.0981 9.65112L22.1019 9.14927C22.2665 9.06694 22.3333 8.86671 22.2509 8.70205L21.6618 7.52369C21.6222 7.44462 21.5529 7.38449 21.469 7.35653L19.7117 6.77075C19.4766 6.69239 19.4062 6.39404 19.5814 6.21882L20.7024 5.09783C20.7649 5.03531 20.8497 5.0002 20.9381 5.0002H22.994C23.1203 5.0002 23.2357 4.92886 23.2921 4.81593L23.7816 3.83701C23.8866 3.62705 23.7474 3.37723 23.5136 3.35598L15.9088 2.66463C15.6273 2.63904 15.5034 2.2968 15.7032 2.09696L15.9024 1.89783C15.9649 1.83531 16 1.75053 16 1.66212V0.533529C16 0.349434 15.8508 0.200195 15.6667 0.200195H12.1381C12.0497 0.200195 11.9649 0.235314 11.9024 0.297826L9.66529 2.53491C9.62257 2.57763 9.56904 2.60794 9.51043 2.62259L6.4 3.4002L3.31963 4.17029C3.24243 4.18959 3.16088 4.18063 3.08971 4.14505L2.31978 3.76008C2.05416 3.62728 1.76057 3.88191 1.85448 4.16364L2.35634 5.66921C2.38429 5.75308 2.37779 5.84462 2.33825 5.92369L1.74907 7.10205ZM12.8 17.0002C12.8 17.442 12.4418 17.8002 12 17.8002C11.5582 17.8002 11.2 17.442 11.2 17.0002C11.2 16.5584 11.5582 16.2002 12 16.2002C12.4418 16.2002 12.8 16.5584 12.8 17.0002ZM7.20001 9.80018C7.64184 9.80018 8.00001 9.44201 8.00001 9.00018C8.00001 8.55835 7.64184 8.20018 7.20001 8.20018C6.75819 8.20018 6.40001 8.55835 6.40001 9.00018C6.40001 9.44201 6.75819 9.80018 7.20001 9.80018ZM22.3999 12.2002V13.0002L21.3689 14.0312C21.1589 14.2411 21.3077 14.6002 21.6046 14.6002H22.1939C22.3201 14.6002 22.4356 14.5289 22.492 14.4159L23.1999 13.0002L22.3999 12.2002ZM22.3999 12.2002L22.8421 11.9791C23.1305 11.8349 23.0279 11.4002 22.7055 11.4002C22.5367 11.4002 22.3999 11.537 22.3999 11.7058V12.2002Z" fill="white"/>
</svg>
