<svg width="35" height="46" viewBox="0 0 35 46" fill="none" xmlns="http://www.w3.org/2000/svg">
<path d="M27.8503 29.7604V44.0771C27.8504 44.2614 27.8009 44.4424 27.707 44.6016C27.6131 44.7609 27.4781 44.8927 27.3158 44.9835C27.1535 45.0744 26.9696 45.1211 26.7831 45.1189C26.5966 45.1166 26.4139 45.0655 26.2539 44.9708L17.3061 39.6666L8.35827 44.9708C8.19809 45.0656 8.01529 45.1167 7.82856 45.1189C7.64183 45.121 7.45788 45.0741 7.29551 44.983C7.13313 44.8919 6.99817 44.7598 6.90441 44.6003C6.81065 44.4407 6.76147 44.2594 6.76188 44.075V29.7625C4.03335 27.6043 2.05071 24.6622 1.08795 21.3428C0.125192 18.0233 0.229854 14.4904 1.38747 11.2322C2.54509 7.97404 4.69851 5.15153 7.55013 3.15471C10.4018 1.1579 13.8108 0.0853882 17.3061 0.0853882C20.8014 0.0853882 24.2104 1.1579 27.0621 3.15471C29.9137 5.15153 32.0671 7.97404 33.2247 11.2322C34.3823 14.4904 34.487 18.0233 33.5242 21.3428C32.5615 24.6622 30.5788 27.6043 27.8503 29.7625V29.7604ZM17.3061 29.25C20.6619 29.25 23.8803 27.933 26.2532 25.5888C28.6261 23.2446 29.9592 20.0652 29.9592 16.75C29.9592 13.4348 28.6261 10.2553 26.2532 7.91113C23.8803 5.56693 20.6619 4.24997 17.3061 4.24997C13.9503 4.24997 10.7319 5.56693 8.35903 7.91113C5.98612 10.2553 4.65304 13.4348 4.65304 16.75C4.65304 20.0652 5.98612 23.2446 8.35903 25.5888C10.7319 27.933 13.9503 29.25 17.3061 29.25ZM17.3061 25.0833C15.0689 25.0833 12.9233 24.2053 11.3414 22.6425C9.75945 21.0797 8.87072 18.9601 8.87072 16.75C8.87072 14.5398 9.75945 12.4202 11.3414 10.8574C12.9233 9.29461 15.0689 8.41663 17.3061 8.41663C19.5433 8.41663 21.6889 9.29461 23.2708 10.8574C24.8527 12.4202 25.7415 14.5398 25.7415 16.75C25.7415 18.9601 24.8527 21.0797 23.2708 22.6425C21.6889 24.2053 19.5433 25.0833 17.3061 25.0833Z" fill="#FFD700"/>
</svg>
