<svg width="21" height="21" viewBox="0 0 21 21" fill="none" xmlns="http://www.w3.org/2000/svg">
<path d="M16.4005 15.0844L20.6835 19.4751L19.2685 20.926L14.9865 16.5343C13.3932 17.844 11.4115 18.5563 9.36951 18.5533C4.40151 18.5533 0.369507 14.419 0.369507 9.32486C0.369507 4.23077 4.40151 0.0964355 9.36951 0.0964355C14.3375 0.0964355 18.3695 4.23077 18.3695 9.32486C18.3724 11.4187 17.6777 13.4507 16.4005 15.0844ZM14.3945 14.3236C15.6636 12.9854 16.3724 11.1915 16.3695 9.32486C16.3695 5.35869 13.2365 2.1472 9.36951 2.1472C5.50151 2.1472 2.36951 5.35869 2.36951 9.32486C2.36951 13.29 5.50151 16.5025 9.36951 16.5025C11.1899 16.5055 12.9394 15.7787 14.2445 14.4774L14.3945 14.3236Z" fill="white"/>
</svg>
