<svg xmlns="http://www.w3.org/2000/svg" width="469.061" height="448.4" viewBox="0 0 469.061 448.4">
  <g id="bg_logo_fade" data-name="bg logo fade" transform="translate(-671.674 -737.678)">
    <g id="Group_14" data-name="Group 14" transform="translate(677.688 1040.552)">
      <g id="Group_13" data-name="Group 13">
        <path id="Path_100" data-name="Path 100" d="M816.293,812.524v93.691H790.669v-76l-99.88,99.873-18.122-18.122L771.3,813.33H690.166V787.7H791.251A24.96,24.96,0,0,1,816.293,812.524Z" transform="translate(-672.667 -787.7)" fill="#ebf3ff"/>
      </g>
    </g>
    <g id="Group_15" data-name="Group 15" transform="translate(722.708 814.137)">
      <rect id="Rectangle_4" data-name="Rectangle 4" width="24.222" height="126.022" transform="matrix(0.625, -0.781, 0.781, 0.625, 0, 18.91)" fill="#ebf3ff"/>
    </g>
    <g id="Group_16" data-name="Group 16" transform="translate(770.98 770.241)">
      <rect id="Rectangle_5" data-name="Rectangle 5" width="24.223" height="126.022" transform="matrix(0.828, -0.561, 0.561, 0.828, 0, 13.6)" fill="#ebf3ff"/>
    </g>
    <g id="Group_17" data-name="Group 17" transform="translate(831.636 743.998)">
      <rect id="Rectangle_6" data-name="Rectangle 6" width="24.222" height="126.029" transform="matrix(0.956, -0.292, 0.292, 0.956, 0, 7.074)" fill="#ebf3ff"/>
    </g>
    <g id="Group_18" data-name="Group 18" transform="translate(898.835 737.678)">
      <rect id="Rectangle_7" data-name="Rectangle 7" width="126.022" height="24.219" transform="matrix(0.003, -1, 1, 0.003, 0, 126.021)" fill="#ebf3ff"/>
    </g>
    <g id="Group_19" data-name="Group 19" transform="translate(930.223 744.847)">
      <rect id="Rectangle_8" data-name="Rectangle 8" width="126.023" height="24.222" transform="translate(0 120.285) rotate(-72.644)" fill="#ebf3ff"/>
    </g>
    <g id="Group_20" data-name="Group 20" transform="translate(959.768 771.941)">
      <rect id="Rectangle_9" data-name="Rectangle 9" width="126.025" height="24.218" transform="matrix(0.567, -0.824, 0.824, 0.567, 0, 103.816)" fill="#ebf3ff"/>
    </g>
    <g id="Group_21" data-name="Group 21" transform="translate(984.873 816.541)">
      <rect id="Rectangle_10" data-name="Rectangle 10" width="126.023" height="24.215" transform="translate(0 78.101) rotate(-38.297)" fill="#ebf3ff"/>
    </g>
    <g id="Group_22" data-name="Group 22" transform="translate(1003.267 874.677)">
      <rect id="Rectangle_11" data-name="Rectangle 11" width="126.027" height="24.226" transform="translate(0 45.402) rotate(-21.116)" fill="#ebf3ff"/>
    </g>
    <g id="Group_23" data-name="Group 23" transform="translate(1013.343 941.159)">
      <rect id="Rectangle_12" data-name="Rectangle 12" width="126.024" height="24.217" transform="translate(0 8.677) rotate(-3.948)" fill="#ebf3ff"/>
    </g>
    <g id="Group_24" data-name="Group 24" transform="translate(1008.637 981.222)">
      <rect id="Rectangle_13" data-name="Rectangle 13" width="24.224" height="126.025" transform="translate(0 23.581) rotate(-76.77)" fill="#ebf3ff"/>
    </g>
    <g id="Group_25" data-name="Group 25" transform="translate(993.456 1011.469)">
      <rect id="Rectangle_14" data-name="Rectangle 14" width="24.213" height="126.028" transform="translate(0 20.883) rotate(-59.596)" fill="#ebf3ff"/>
    </g>
    <g id="Group_26" data-name="Group 26" transform="translate(970.816 1037.857)">
      <rect id="Rectangle_15" data-name="Rectangle 15" width="24.224" height="126.022" transform="translate(0 16.342) rotate(-42.423)" fill="#ebf3ff"/>
    </g>
    <g id="Group_27" data-name="Group 27" transform="translate(703.486 865.205)">
      <path id="Path_101" data-name="Path 101" d="M759.923,862.924a21.145,21.145,0,0,1-14.986-6.206l-61.8-61.8A21.189,21.189,0,0,1,713.1,764.952l61.8,61.8a21.189,21.189,0,0,1-14.979,36.171Z" transform="translate(-676.928 -758.74)" fill="#ebf3ff"/>
    </g>
    <g id="Group_28" data-name="Group 28" transform="translate(671.674 922.385)">
      <path id="Path_102" data-name="Path 102" d="M754.669,872.37a21.114,21.114,0,0,1-14.985-6.212l-61.8-61.8a21.189,21.189,0,0,1,29.965-29.966l61.8,61.8a21.2,21.2,0,0,1-14.98,36.179Z" transform="translate(-671.674 -768.184)" fill="#ebf3ff"/>
    </g>
    <g id="Group_29" data-name="Group 29" transform="translate(805.212 972.239)">
      <path id="Path_103" data-name="Path 103" d="M774.725,878.617a21.1,21.1,0,0,1-14.98-6.211L699.936,812.6A21.191,21.191,0,1,1,729.9,782.625l59.809,59.815a21.194,21.194,0,0,1-14.985,36.177Z" transform="translate(-693.729 -776.418)" fill="#ebf3ff"/>
    </g>
    <g id="Group_30" data-name="Group 30" transform="translate(910.42 1072.137)">
      <path id="Path_104" data-name="Path 104" d="M796.738,899.748a21.113,21.113,0,0,1-14.984-6.212L717.312,829.1a21.192,21.192,0,1,1,29.966-29.973l64.447,64.447a21.195,21.195,0,0,1-14.987,36.177Z" transform="translate(-711.105 -792.917)" fill="#ebf3ff"/>
    </g>
    <g id="Group_31" data-name="Group 31" transform="translate(839.192 1092.035)">
      <path id="Path_105" data-name="Path 105" d="M772.195,890.246a21.12,21.12,0,0,1-14.986-6.206l-51.66-51.66a21.189,21.189,0,0,1,29.965-29.965l51.666,51.659a21.189,21.189,0,0,1-14.985,36.172Z" transform="translate(-699.341 -796.203)" fill="#ebf3ff"/>
    </g>
  </g>
</svg>
