<svg width="223" height="36" viewBox="0 0 223 36" fill="none" xmlns="http://www.w3.org/2000/svg">
<g opacity="0.89">
<path d="M36.0302 21.5543C34.5089 21.5543 31.787 21.4735 28.5849 21.4735V0.373767C30.7063 0.373767 34.1087 0.251953 36.8706 0.251953C42.4749 0.251953 44.7565 2.19972 44.7565 5.52721C44.7565 7.55619 43.6358 9.34111 41.5544 10.1528V10.1934C43.8761 10.8427 45.0369 12.628 45.0369 14.9002C45.0369 18.0653 42.8751 21.5543 36.0302 21.5543ZM35.87 3.90386C35.2299 3.90386 34.3891 3.94446 33.7085 3.94446V8.97609C34.309 9.0167 34.9094 9.0167 35.1894 9.0167C37.6313 9.0167 39.2724 8.12423 39.2724 6.29786C39.2728 4.87795 38.4721 3.90386 35.87 3.90386ZM35.4698 12.263C35.0296 12.263 34.2293 12.263 33.7085 12.3036V17.7002C34.309 17.7814 35.1097 17.822 35.91 17.822C38.432 17.822 39.5929 16.6453 39.5929 14.9006C39.5929 13.0336 38.0719 12.263 35.4698 12.263Z" fill="#002F65"/>
<path d="M52.3076 21.4733V0.373535H57.6447V21.4733H52.3076Z" fill="#002F65"/>
<path d="M78.9118 21.4733L72.6674 11.1673C71.9468 9.99014 71.2262 8.48944 70.7058 7.31232H70.6658C70.7459 8.3266 70.7859 9.3819 70.7859 11.0454V21.4733H65.8221V0.373535H72.7471L78.7916 10.4364C79.5924 11.6943 80.3126 13.0334 80.9531 14.4537H80.9931C80.913 13.1958 80.873 11.4511 80.873 9.25967L80.8329 0.373535H85.8364V21.4733H78.9118Z" fill="#002F65"/>
<path d="M101.342 21.7979C94.417 21.7979 90.9345 17.7408 90.9345 11.4107C90.9349 5.44597 94.4571 0.0493164 102.383 0.0493164C103.624 0.0493164 105.305 0.211735 106.626 0.576758L106.186 5.16174C104.865 4.7155 103.464 4.47187 102.103 4.47187C98.5404 4.47187 96.4992 7.0689 96.4992 10.9234C96.4992 15.022 98.7407 17.1317 102.343 17.1317C103.784 17.1317 105.225 16.8479 106.346 16.2799L106.786 20.9055C105.065 21.4735 103.264 21.7979 101.342 21.7979Z" fill="#002F65"/>
<path d="M125.15 21.4733L118.305 11.8973V21.4733H113.141V0.373535H118.305V9.42209L125.15 0.373535H131.475L123.469 10.5176L131.955 21.4729H125.15V21.4733Z" fill="#002F65"/>
<path d="M143.008 21.554C141.727 21.554 139.846 21.5134 138.085 21.4732V0.373446C139.486 0.373446 141.247 0.292236 144.009 0.292236C148.732 0.292236 150.613 2.44261 150.613 5.28284C150.613 7.63624 149.132 9.422 146.611 10.3145V10.3551C149.693 10.9231 151.134 12.9111 151.134 15.2649C151.134 17.4157 149.973 21.554 143.008 21.554ZM143.489 2.0374C142.367 2.0374 141.207 2.078 140.246 2.078V9.66563C141.126 9.70624 142.007 9.70624 142.327 9.70624C146.17 9.70624 148.411 8.32652 148.411 5.52689C148.411 3.57912 147.331 2.0374 143.489 2.0374ZM142.327 11.4104C141.927 11.4104 140.806 11.4104 140.246 11.451V19.6067C140.846 19.7285 141.807 19.8093 143.248 19.8093C147.211 19.8093 148.933 17.9431 148.933 15.3867C148.932 12.222 146.01 11.4104 142.327 11.4104Z" fill="#002F65"/>
<path d="M172.825 21.4736L170.864 16.3612H160.456L158.455 21.4736H156.253L164.659 0.374268H166.941L175.227 21.4736H172.825ZM167.021 6.41975C166.501 5.08064 166.021 3.66073 165.7 2.60543H165.66C165.34 3.74152 164.86 5.12124 164.34 6.50096L161.137 14.6566H170.183L167.021 6.41975Z" fill="#002F65"/>
<path d="M195.491 21.4735L186.044 7.10948C185.083 5.60836 184.163 4.06622 183.443 2.68692H183.402C183.482 4.26924 183.602 6.0952 183.602 8.93543L183.642 21.4735H181.521V0.37371H184.283L193.61 14.6159C194.53 16.0358 195.531 17.5779 196.332 19.0385H196.372C196.252 17.4963 196.172 14.7373 196.172 10.7204L196.132 0.373291H198.293V21.4735H195.491Z" fill="#002F65"/>
<path d="M219.528 21.4733L209.641 10.68V21.4733H207.48V0.373535H209.641V10.68L219.408 0.373535H222.21L212.242 10.5582L222.57 21.4729H219.528V21.4733Z" fill="#002F65"/>
<path d="M32.1355 35.553H31.3749L28.5865 28.52H29.4137L31.1481 33.0778C31.3885 33.6998 31.5884 34.2683 31.7486 34.8091H31.7618C31.9485 34.2683 32.1487 33.7136 32.3755 33.1594L34.2433 28.5204H35.0036L32.1355 35.553Z" fill="#002F65"/>
<path d="M47.012 35.6475C44.7837 35.6475 43.8768 34.1192 43.8768 32.0906C43.8768 29.7372 45.3846 28.4253 47.2123 28.4253C49.2937 28.4253 50.4012 29.7506 50.4012 31.9956C50.4012 34.3632 48.9336 35.6475 47.012 35.6475ZM47.1322 29.0205C45.8112 29.0205 44.6371 30.062 44.6371 31.9956C44.6371 33.6051 45.2243 35.0388 47.0789 35.0388C48.5334 35.0388 49.6273 34.0112 49.6273 32.104C49.6273 30.1026 48.6936 29.0205 47.1322 29.0205Z" fill="#002F65"/>
<path d="M63.0099 35.6475C60.7815 35.6475 59.8746 34.1192 59.8746 32.0906C59.8746 29.7372 61.3824 28.4253 63.2106 28.4253C65.2919 28.4253 66.3995 29.7506 66.3995 31.9956C66.399 34.3632 64.9314 35.6475 63.0099 35.6475ZM63.13 29.0205C61.8094 29.0205 60.6349 30.062 60.6349 31.9956C60.6349 33.6051 61.2221 35.0388 63.0768 35.0388C64.5308 35.0388 65.6251 34.0112 65.6251 32.104C65.6251 30.1026 64.691 29.0205 63.13 29.0205Z" fill="#002F65"/>
<path d="M80.128 35.5526L77.3793 32.2662H77.3529V35.5526H76.6323V28.5201C76.9792 28.5067 77.4999 28.4933 78.287 28.4933C79.8216 28.4933 80.6488 29.1291 80.6488 30.2242C80.6488 31.5361 79.5812 32.267 78.1937 32.267C78.394 32.4558 78.6207 32.7132 78.8474 32.9832L81.0758 35.5535H80.128V35.5526ZM78.1933 29.0613C77.8063 29.0613 77.5796 29.0743 77.3529 29.1015V31.6985C77.5932 31.7253 77.9133 31.7391 78.2333 31.7391C79.2608 31.7391 79.9013 31.1849 79.9013 30.3188C79.9013 29.4531 79.2476 29.0613 78.1933 29.0613Z" fill="#002F65"/>
<path d="M103.824 35.5798C103.397 35.5798 102.77 35.566 102.183 35.5531V28.5201C102.65 28.5201 103.237 28.4933 104.157 28.4933C105.732 28.4933 106.359 29.2099 106.359 30.1568C106.359 30.9409 105.866 31.5361 105.025 31.8338V31.8476C106.052 32.0364 106.532 32.6994 106.532 33.4835C106.532 34.2001 106.146 35.5798 103.824 35.5798ZM103.984 29.0743C103.61 29.0743 103.223 29.0881 102.903 29.0881V31.6169C103.197 31.6307 103.49 31.6307 103.597 31.6307C104.878 31.6307 105.625 31.1703 105.625 30.2376C105.625 29.5884 105.265 29.0743 103.984 29.0743ZM103.597 32.1988C103.464 32.1988 103.09 32.1988 102.903 32.2122V34.9306C103.103 34.9712 103.424 34.998 103.904 34.998C105.225 34.998 105.798 34.3759 105.798 33.5241C105.799 32.4688 104.825 32.1988 103.597 32.1988Z" fill="#002F65"/>
<path d="M117.086 35.5528V28.5203H120.662V29.0883H117.807V31.6309H120.529V32.1985H117.807V34.971H120.662V35.5528H117.086Z" fill="#002F65"/>
<path d="M131.162 35.5528V28.5203H131.883V34.9714H134.592V35.5532H131.162V35.5528Z" fill="#002F65"/>
<path d="M144.411 35.5528V28.5203H147.987V29.0883H145.132V31.6309H147.854V32.1985H145.132V34.971H147.987V35.5528H144.411Z" fill="#002F65"/>
<path d="M161.222 35.6336C159.127 35.6336 157.687 34.3895 157.687 32.158C157.687 30.0482 159.101 28.4382 161.449 28.4382C162.116 28.4382 162.743 28.5333 163.397 28.7359L163.317 29.4119C162.676 29.1687 162.023 29.0197 161.369 29.0197C159.848 29.0197 158.434 29.9933 158.434 32.0491C158.434 33.9697 159.621 35.0246 161.383 35.0246C161.903 35.0246 162.424 34.9433 162.823 34.8077V32.0349H163.544V35.254C162.837 35.4988 162.09 35.6336 161.222 35.6336Z" fill="#002F65"/>
<path d="M177.113 35.6336C175.018 35.6336 173.577 34.3895 173.577 32.158C173.577 30.0482 174.991 28.4382 177.339 28.4382C178.006 28.4382 178.634 28.5333 179.287 28.7359L179.208 29.4119C178.567 29.1687 177.913 29.0197 177.259 29.0197C175.738 29.0197 174.324 29.9933 174.324 32.0491C174.324 33.9697 175.512 35.0246 177.273 35.0246C177.793 35.0246 178.314 34.9433 178.714 34.8077V32.0349H179.434V35.254C178.727 35.4988 177.98 35.6336 177.113 35.6336Z" fill="#002F65"/>
<path d="M190.269 35.5528V28.5203H193.844V29.0883H190.989V31.6309H193.711V32.1985H190.989V34.971H193.844V35.5528H190.269Z" fill="#002F65"/>
<path d="M207.841 35.5526L205.092 32.2662H205.065V35.5526H204.345V28.5201C204.692 28.5067 205.212 28.4933 206 28.4933C207.534 28.4933 208.361 29.1291 208.361 30.2242C208.361 31.5361 207.294 32.267 205.907 32.267C206.107 32.4558 206.333 32.7132 206.56 32.9832L208.789 35.5535H207.841V35.5526ZM205.906 29.0613C205.518 29.0613 205.292 29.0743 205.065 29.1015V31.6985C205.305 31.7253 205.625 31.7391 205.946 31.7391C206.973 31.7391 207.613 31.1849 207.613 30.3188C207.613 29.4531 206.96 29.0613 205.906 29.0613Z" fill="#002F65"/>
<path d="M220.075 35.6474C219.501 35.6474 218.834 35.5662 218.448 35.4582L218.488 34.7005C218.928 34.8901 219.542 35.0115 220.196 35.0115C221.063 35.0115 222.051 34.6461 222.051 33.5644C222.051 31.8469 218.328 32.6175 218.328 30.3994C218.328 29.1959 219.329 28.4248 220.93 28.4248C221.384 28.4248 221.984 28.4792 222.398 28.56L222.357 29.2495C221.957 29.1281 221.316 29.0335 220.876 29.0335C219.648 29.0335 219.061 29.5337 219.061 30.3039C219.061 32.0219 222.797 31.1968 222.797 33.5092C222.797 34.8763 221.476 35.6474 220.075 35.6474Z" fill="#002F65"/>
<path d="M20.902 7.16445C20.6529 6.54408 20.3457 5.95217 19.9802 5.38538L12.5869 8.93138L13.6317 0.704547C12.7682 0.482686 11.8581 0.374268 10.905 0.374268H10.9016C9.94853 0.374268 9.04208 0.482686 8.18105 0.701198L9.22337 8.92761L1.8239 5.37868C1.50137 5.87431 1.22717 6.38878 1.00004 6.92166C0.744825 7.51357 0.544538 8.13017 0.406608 8.76938C0.274873 9.37008 0.191455 9.99338 0.158005 10.6384L8.19674 12.1718L2.58003 18.211C2.80138 18.4789 3.03842 18.7405 3.29033 18.9963C3.53934 19.2483 3.79084 19.4852 4.05266 19.7063C4.45488 20.0462 4.87032 20.3551 5.30063 20.6255C5.83914 20.9621 6.39829 21.245 6.97891 21.4732L10.914 14.1777L14.8459 21.4636C15.476 21.2141 16.0819 20.8993 16.66 20.5192C16.9767 20.3137 17.284 20.0893 17.5817 19.8427C17.8989 19.5815 18.2094 19.2977 18.5105 18.9959C18.7657 18.7334 19.0085 18.4659 19.2357 18.1917L13.6317 12.1714L21.6428 10.6414C21.6056 9.90882 21.5049 9.2018 21.3385 8.52575C21.2253 8.05859 21.0771 7.60315 20.902 7.16445Z" fill="#A0CE67"/>
</g>
</svg>
