<?xml version="1.0" encoding="utf-8"?>
<!-- Generator: Adobe Illustrator 13.0.1, SVG Export Plug-In  -->
<!DOCTYPE svg PUBLIC "-//W3C//DTD SVG 1.1//EN" "http://www.w3.org/Graphics/SVG/1.1/DTD/svg11.dtd" [
	<!ENTITY ns_flows "http://ns.adobe.com/Flows/1.0/">
]>
<svg version="1.1"
	 xmlns="http://www.w3.org/2000/svg" xmlns:xlink="http://www.w3.org/1999/xlink" xmlns:a="http://ns.adobe.com/AdobeSVGViewerExtensions/3.0/"
	 x="0px" y="0px" width="540px" height="86px" viewBox="-0.381 -0.118 540 86" enable-background="new -0.381 -0.118 540 86"
	 xml:space="preserve">
<defs>
</defs>
<path fill="#002F65" d="M86.867,51.373c-3.684,0-10.275-0.193-18.029-0.193V0.775c5.137,0,13.376-0.291,20.064-0.291
	c13.571,0,19.096,4.653,19.096,12.602c0,4.847-2.714,9.111-7.754,11.05v0.097c5.622,1.551,8.433,5.816,8.433,11.244
	C108.677,43.038,103.442,51.373,86.867,51.373z M86.479,9.208c-1.55,0-3.586,0.097-5.234,0.097v12.02
	c1.454,0.097,2.908,0.097,3.586,0.097c5.913,0,9.887-2.132,9.887-6.495C94.719,11.535,92.78,9.208,86.479,9.208z M85.51,29.177
	c-1.066,0-3.004,0-4.265,0.097v12.892c1.454,0.194,3.393,0.291,5.331,0.291c6.107,0,8.918-2.811,8.918-6.979
	C95.494,31.018,91.811,29.177,85.51,29.177z"/>
<path fill="#002F65" d="M126.283,51.18V0.775h12.924V51.18H126.283z"/>
<path fill="#002F65" d="M190.706,51.18l-15.121-24.62c-1.745-2.812-3.49-6.397-4.75-9.209h-0.097
	c0.194,2.423,0.291,4.944,0.291,8.918V51.18h-12.02V0.775h16.769l14.637,24.039c1.939,3.005,3.683,6.204,5.234,9.597h0.097
	c-0.194-3.005-0.291-7.173-0.291-12.408l-0.097-21.228h12.116V51.18H190.706z"/>
<path fill="#002F65" d="M245.021,51.955c-16.769,0-25.202-9.692-25.202-24.814C219.82,12.892,228.349,0,247.542,0
	c3.005,0,7.076,0.388,10.275,1.26l-1.066,10.953c-3.199-1.066-6.591-1.648-9.887-1.648c-8.627,0-13.57,6.204-13.57,15.412
	c0,9.791,5.428,14.831,14.152,14.831c3.489,0,6.979-0.678,9.693-2.035l1.066,11.05C254.037,51.18,249.674,51.955,245.021,51.955z"/>
<path fill="#002F65" d="M302.673,51.18l-16.575-22.876V51.18h-12.505V0.775h12.505v21.616l16.575-21.616h15.315l-19.387,24.233
	l20.55,26.171H302.673z"/>
<path fill="#002F65" d="M345.916,51.373c-3.101,0-7.657-0.097-11.922-0.193V0.775c3.393,0,7.657-0.194,14.346-0.194
	c11.438,0,15.993,5.137,15.993,11.922c0,5.622-3.586,9.888-9.693,12.02v0.097c7.465,1.357,10.954,6.106,10.954,11.729
	C365.593,41.487,362.782,51.373,345.916,51.373z M347.08,4.75c-2.715,0-5.525,0.097-7.852,0.097v18.126
	c2.132,0.097,4.265,0.097,5.04,0.097c9.305,0,14.733-3.296,14.733-9.984C359.001,8.433,356.385,4.75,347.08,4.75z M344.268,27.141
	c-0.97,0-3.684,0-5.04,0.097v19.483c1.454,0.291,3.78,0.484,7.27,0.484c9.596,0,13.765-4.458,13.765-10.565
	C360.262,29.08,353.186,27.141,344.268,27.141z"/>
<path fill="#002F65" d="M418.12,51.18l-4.75-12.213h-25.202l-4.847,12.213h-5.332l20.356-50.404h5.525l20.065,50.404H418.12z
	 M404.065,15.218c-1.261-3.199-2.423-6.591-3.199-9.112h-0.097c-0.775,2.714-1.938,6.01-3.198,9.306l-7.755,19.483h21.906
	L404.065,15.218z"/>
<path fill="#002F65" d="M473.006,51.18L450.13,16.866c-2.327-3.586-4.556-7.27-6.3-10.565h-0.099
	c0.195,3.78,0.485,8.142,0.485,14.927l0.097,29.952h-5.137V0.775h6.688l22.586,34.023c2.229,3.392,4.652,7.076,6.592,10.565h0.096
	c-0.29-3.684-0.483-10.275-0.483-19.871l-0.098-24.718h5.234V51.18H473.006z"/>
<path fill="#002F65" d="M531.211,51.18L507.27,25.396V51.18h-5.234V0.775h5.234v24.621l23.651-24.621h6.785l-24.137,24.33
	l25.009,26.074H531.211z"/>
<path fill="#002F65" d="M77.436,84.813h-1.842l-6.752-16.801h2.003l4.2,10.888c0.582,1.486,1.066,2.844,1.454,4.136h0.032
	c0.452-1.292,0.937-2.617,1.486-3.941l4.523-11.082h1.841L77.436,84.813z"/>
<path fill="#002F65" d="M113.46,85.039c-5.396,0-7.592-3.651-7.592-8.497c0-5.622,3.651-8.756,8.077-8.756
	c5.04,0,7.722,3.166,7.722,8.529C121.667,81.971,118.113,85.039,113.46,85.039z M113.751,69.208c-3.199,0-6.042,2.488-6.042,7.107
	c0,3.845,1.422,7.27,5.913,7.27c3.522,0,6.171-2.455,6.171-7.011C119.793,71.793,117.532,69.208,113.751,69.208z"/>
<path fill="#002F65" d="M152.199,85.039c-5.396,0-7.592-3.651-7.592-8.497c0-5.622,3.651-8.756,8.078-8.756
	c5.04,0,7.722,3.166,7.722,8.529C160.406,81.971,156.852,85.039,152.199,85.039z M152.49,69.208c-3.198,0-6.042,2.488-6.042,7.107
	c0,3.845,1.422,7.27,5.913,7.27c3.521,0,6.171-2.455,6.171-7.011C158.532,71.793,156.27,69.208,152.49,69.208z"/>
<path fill="#002F65" d="M193.651,84.813l-6.656-7.851h-0.064v7.851h-1.745V68.013c0.84-0.032,2.101-0.064,4.007-0.064
	c3.716,0,5.719,1.519,5.719,4.135c0,3.134-2.585,4.88-5.945,4.88c0.485,0.451,1.034,1.066,1.583,1.711l5.396,6.14H193.651z
	 M188.966,69.306c-0.937,0-1.486,0.031-2.035,0.096v6.204c0.582,0.064,1.357,0.097,2.132,0.097c2.488,0,4.039-1.324,4.039-3.393
	C193.102,70.242,191.519,69.306,188.966,69.306z"/>
<path fill="#002F65" d="M251.031,84.878c-1.034,0-2.553-0.033-3.974-0.064V68.013c1.131,0,2.552-0.064,4.781-0.064
	c3.813,0,5.332,1.712,5.332,3.974c0,1.873-1.195,3.295-3.231,4.006v0.033c2.488,0.451,3.65,2.035,3.65,3.908
	C257.589,81.582,256.653,84.878,251.031,84.878z M251.419,69.337c-0.905,0-1.842,0.033-2.617,0.033v6.041
	c0.71,0.033,1.421,0.033,1.679,0.033c3.102,0,4.911-1.1,4.911-3.328C255.393,70.565,254.521,69.337,251.419,69.337z M250.481,76.801
	c-0.322,0-1.228,0-1.679,0.032v6.494c0.484,0.097,1.26,0.161,2.422,0.161c3.199,0,4.588-1.486,4.588-3.521
	C255.813,77.446,253.455,76.801,250.481,76.801z"/>
<path fill="#002F65" d="M283.147,84.813V68.013h8.658v1.357h-6.914v6.074h6.592v1.356h-6.592v6.623h6.914v1.39H283.147z"/>
<path fill="#002F65" d="M317.232,84.813V68.013h1.745v15.411h6.559v1.39H317.232z"/>
<path fill="#002F65" d="M349.314,84.813V68.013h8.659v1.357h-6.914v6.074h6.592v1.356h-6.592v6.623h6.914v1.39H349.314z"/>
<path fill="#002F65" d="M390.023,85.007c-5.073,0-8.562-2.972-8.562-8.303c0-5.04,3.424-8.886,9.111-8.886
	c1.614,0,3.133,0.227,4.716,0.711l-0.193,1.615c-1.551-0.581-3.134-0.937-4.717-0.937c-3.684,0-7.108,2.326-7.108,7.237
	c0,4.588,2.875,7.108,7.141,7.108c1.26,0,2.521-0.194,3.489-0.518v-6.624h1.745v7.69C393.932,84.685,392.123,85.007,390.023,85.007z
	"/>
<path fill="#002F65" d="M428.502,85.007c-5.072,0-8.562-2.972-8.562-8.303c0-5.04,3.425-8.886,9.11-8.886
	c1.616,0,3.135,0.227,4.718,0.711l-0.193,1.615c-1.552-0.581-3.135-0.937-4.718-0.937c-3.684,0-7.108,2.326-7.108,7.237
	c0,4.588,2.876,7.108,7.141,7.108c1.26,0,2.52-0.194,3.49-0.518v-6.624h1.743v7.69C432.412,84.685,430.602,85.007,428.502,85.007z"
	/>
<path fill="#002F65" d="M460.359,84.813V68.013h8.659v1.357h-6.914v6.074h6.591v1.356h-6.591v6.623h6.914v1.39H460.359z"/>
<path fill="#002F65" d="M502.91,84.813l-6.656-7.851h-0.064v7.851h-1.744V68.013c0.84-0.032,2.1-0.064,4.006-0.064
	c3.716,0,5.719,1.519,5.719,4.135c0,3.134-2.585,4.88-5.944,4.88c0.484,0.451,1.033,1.066,1.583,1.711l5.396,6.14H502.91z
	 M498.225,69.306c-0.938,0-1.487,0.031-2.036,0.096v6.204c0.581,0.064,1.357,0.097,2.133,0.097c2.488,0,4.038-1.324,4.038-3.393
	C502.36,70.242,500.777,69.306,498.225,69.306z"/>
<path fill="#002F65" d="M532.537,85.039c-1.39,0-3.005-0.194-3.941-0.452l0.096-1.81c1.066,0.453,2.554,0.743,4.136,0.743
	c2.101,0,4.492-0.873,4.492-3.457c0-4.103-9.015-2.262-9.015-7.561c0-2.875,2.424-4.717,6.301-4.717c1.099,0,2.552,0.13,3.554,0.323
	l-0.097,1.647c-0.97-0.29-2.521-0.516-3.587-0.516c-2.973,0-4.395,1.195-4.395,3.035c0,4.104,9.047,2.133,9.047,7.657
	C539.127,83.197,535.929,85.039,532.537,85.039z"/>
<path fill="#A0CE67" d="M50.232,16.997c-0.603-1.482-1.347-2.896-2.232-4.25l-17.903,8.471l2.53-19.653
	c-2.091-0.53-4.295-0.789-6.603-0.789h-0.008c-2.308,0-4.503,0.259-6.588,0.781l2.524,19.652L4.034,12.731
	c-0.781,1.184-1.445,2.413-1.995,3.686c-0.618,1.414-1.103,2.887-1.437,4.414C0.283,22.266,0.081,23.755,0,25.296l19.466,3.663
	L5.865,43.386c0.536,0.64,1.11,1.265,1.72,1.876c0.603,0.602,1.212,1.168,1.846,1.696c0.974,0.812,1.98,1.55,3.022,2.196
	c1.304,0.804,2.658,1.48,4.064,2.025l9.529-17.428l9.521,17.405c1.526-0.596,2.993-1.348,4.393-2.256
	c0.767-0.491,1.511-1.027,2.232-1.616c0.768-0.624,1.52-1.302,2.249-2.023c0.618-0.627,1.206-1.266,1.756-1.921l-13.57-14.382
	l19.399-3.655c-0.09-1.75-0.334-3.439-0.737-5.054C51.015,19.133,50.656,18.045,50.232,16.997L50.232,16.997z"/>
</svg>
