<svg width="23" height="16" viewBox="0 0 23 16" fill="none" xmlns="http://www.w3.org/2000/svg">
<rect x="0.25" y="0.25" width="21.9" height="15.5" rx="1.75" fill="white" stroke="#F5F5F5" stroke-width="0.5"/>
<mask id="mask0_1403_10733" style="mask-type:alpha" maskUnits="userSpaceOnUse" x="0" y="0" width="23" height="16">
<rect x="0.25" y="0.25" width="21.9" height="15.5" rx="1.75" fill="white" stroke="white" stroke-width="0.5"/>
</mask>
<g mask="url(#mask0_1403_10733)">
<rect x="16" width="6.4" height="16" fill="#FF3131"/>
<path fill-rule="evenodd" clip-rule="evenodd" d="M0 16H6.4V0H0V16Z" fill="#FF3131"/>
<path fill-rule="evenodd" clip-rule="evenodd" d="M13.0453 7.22146C12.8121 7.45467 12.418 7.24379 12.4827 6.92039L12.8001 5.33327L11.7335 5.8666L11.2001 4.2666L10.6668 5.8666L9.60013 5.33327L9.91755 6.92039C9.98223 7.24379 9.5882 7.45467 9.35499 7.22146L9.3025 7.16897C9.17232 7.0388 8.96127 7.0388 8.83109 7.16897L8.53346 7.4666L7.4668 6.93327L8.00013 7.99993L7.7025 8.29757C7.57232 8.42774 7.57232 8.6388 7.7025 8.76897L9.0668 10.1333H10.6668L10.9335 11.7333H11.4668L11.7335 10.1333H13.3335L14.6978 8.76897C14.8279 8.6388 14.8279 8.42774 14.6978 8.29757L14.4001 7.99993L14.9335 6.93327L13.8668 7.4666L13.5692 7.16897C13.439 7.0388 13.2279 7.0388 13.0978 7.16897L13.0453 7.22146Z" fill="#FF3131"/>
</g>
</svg>
