<svg width="23" height="16" viewBox="0 0 23 16" fill="none" xmlns="http://www.w3.org/2000/svg">
<rect width="22.4" height="16" rx="2" fill="white"/>
<mask id="mask0_1403_10392" style="mask-type:alpha" maskUnits="userSpaceOnUse" x="0" y="0" width="23" height="16">
<rect width="22.4" height="16" rx="2" fill="white"/>
</mask>
<g mask="url(#mask0_1403_10392)">
<rect width="22.4" height="16" fill="#FF0000"/>
<path fill-rule="evenodd" clip-rule="evenodd" d="M9.5999 9.6002H6.73324C6.54914 9.6002 6.3999 9.45096 6.3999 9.26686V6.73353C6.3999 6.54943 6.54914 6.4002 6.73324 6.4002H9.5999V3.53353C9.5999 3.34943 9.74914 3.2002 9.93324 3.2002H12.4666C12.6507 3.2002 12.7999 3.34943 12.7999 3.53353V6.4002H15.6666C15.8507 6.4002 15.9999 6.54943 15.9999 6.73353V9.26686C15.9999 9.45096 15.8507 9.6002 15.6666 9.6002H12.7999V12.4669C12.7999 12.651 12.6507 12.8002 12.4666 12.8002H9.93324C9.74914 12.8002 9.5999 12.651 9.5999 12.4669V9.6002Z" fill="white"/>
</g>
</svg>
