<svg width="20" height="20" viewBox="0 0 20 20" fill="none" xmlns="http://www.w3.org/2000/svg">
<path d="M9.20818 18.2857C7.39343 18.297 5.6163 17.769 4.10267 16.7687C2.58903 15.7684 1.40725 14.3411 0.707546 12.6681C0.00783814 10.9952 -0.178203 9.1521 0.173071 7.37323C0.524345 5.59436 1.39707 3.96001 2.68032 2.67791C3.96356 1.39582 5.59938 0.523875 7.37985 0.172916C9.16031 -0.178043 11.005 0.00783071 12.6795 0.706912C14.354 1.40599 15.7826 2.58671 16.7838 4.09899C17.7849 5.61126 18.3135 7.38681 18.3022 9.19993C18.3022 11.6096 17.344 13.9206 15.6386 15.6246C13.9331 17.3285 11.6201 18.2857 9.20818 18.2857ZM9.20818 1.19984C7.62211 1.18852 6.0684 1.64808 4.74411 2.52023C3.41982 3.39238 2.38461 4.63783 1.76978 6.09862C1.15495 7.55942 0.988196 9.16973 1.29067 10.7253C1.59314 12.281 2.35121 13.7118 3.46874 14.8363C4.58626 15.9609 6.0129 16.7285 7.56769 17.0419C9.12249 17.3552 10.7354 17.2001 12.2019 16.5964C13.6684 15.9926 14.9223 14.9672 15.8047 13.6504C16.6871 12.3336 17.1582 10.7846 17.1583 9.19993C17.1583 7.08804 16.3225 5.0618 14.8332 3.56312C13.3439 2.06444 11.3219 1.21493 9.20818 1.19984Z" fill="#3B5998"/>
<path d="M10.9249 19.9998C9.51307 19.9953 8.1217 19.6625 6.86094 19.0278C5.60018 18.393 4.50465 17.4737 3.66113 16.3426L4.57625 15.6568C5.58059 16.9881 6.97873 17.9699 8.57261 18.4632C10.1665 18.9565 11.8753 18.9362 13.457 18.4052C15.0387 17.8742 16.4131 16.8595 17.3855 15.5047C18.3579 14.15 18.8789 12.5239 18.8749 10.8568C18.8821 9.68376 18.6234 8.52432 18.1183 7.4654C17.6131 6.40648 16.8746 5.47556 15.958 4.74242L16.7015 3.82812C18.1429 5.02606 19.1812 6.63742 19.676 8.44422C20.1708 10.251 20.0982 12.1661 19.468 13.9303C18.8378 15.6945 17.6804 17.2228 16.1525 18.3083C14.6245 19.3938 12.7997 19.9843 10.9249 19.9998Z" fill="#3B5998"/>
<path d="M11.4385 12.1147C10.9156 12.4124 10.3245 12.5699 9.7227 12.5719C8.81256 12.5719 7.9397 12.2107 7.29613 11.5677C6.65257 10.9247 6.29101 10.0526 6.29101 9.14327C6.29095 8.69567 6.38009 8.25254 6.55324 7.83972C6.72639 7.4269 6.98008 7.05267 7.29951 6.73884C7.61895 6.42501 7.99773 6.17787 8.41377 6.01183C8.8298 5.8458 9.27477 5.7642 9.7227 5.77178C10.3279 5.74603 10.9265 5.90553 11.4385 6.22893C11.577 6.29488 11.7347 6.30805 11.8822 6.26595C12.0296 6.22386 12.1566 6.12941 12.2393 6.00036C12.3019 5.87053 12.3132 5.72184 12.2708 5.58408C12.2283 5.44632 12.1354 5.32966 12.0105 5.25749C11.3165 4.85062 10.5274 4.6338 9.7227 4.62891C8.60465 4.75439 7.00012 5.28702 6.25029 6.12506C5.50045 6.96309 5.08594 8.04776 5.08594 9.17184C5.08594 10.2959 5.50045 11.3806 6.25029 12.2186C7.00012 13.0567 8.60465 13.5893 9.7227 13.7148C10.5274 13.7099 11.3165 13.4931 12.0105 13.0862C12.0881 13.0565 12.1584 13.0103 12.2163 12.9508C12.2743 12.8912 12.3186 12.8198 12.346 12.7414C12.3735 12.663 12.3836 12.5795 12.3755 12.4969C12.3674 12.4142 12.3414 12.3343 12.2992 12.2627C12.2571 12.1911 12.1998 12.1295 12.1314 12.0823C12.063 12.0351 11.9852 12.0033 11.9032 11.9893C11.8213 11.9752 11.7373 11.9791 11.657 12.0008C11.5768 12.0225 11.5022 12.0613 11.4385 12.1147Z" fill="#3B5998"/>
<path d="M9.20821 7.42897H4.68981C4.61757 7.4209 4.54443 7.4282 4.47522 7.45041C4.40601 7.47262 4.34229 7.50922 4.28825 7.5578C4.23422 7.60638 4.1911 7.66585 4.16173 7.73229C4.13236 7.79872 4.11741 7.87062 4.11786 7.94325C4.10866 8.0205 4.11713 8.09883 4.14262 8.17234C4.16811 8.24585 4.20996 8.31263 4.26503 8.36764C4.32009 8.42265 4.38692 8.46447 4.4605 8.48993C4.53408 8.5154 4.61249 8.52386 4.68981 8.51467H9.20821C9.3599 8.51467 9.50538 8.45447 9.61264 8.3473C9.7199 8.24014 9.78016 8.0948 9.78016 7.94325C9.76593 7.80181 9.69945 7.67074 9.59369 7.57565C9.48793 7.48055 9.35049 7.42825 9.20821 7.42897Z" fill="#3B5998"/>
<path d="M9.20821 9.65723H4.68981C4.53812 9.65723 4.39264 9.71743 4.28538 9.8246C4.17812 9.93177 4.11786 10.0771 4.11786 10.2287C4.10866 10.3059 4.11713 10.3843 4.14262 10.4578C4.16811 10.5313 4.20996 10.5981 4.26503 10.6531C4.32009 10.7081 4.38692 10.7499 4.4605 10.7754C4.53408 10.8009 4.61249 10.8093 4.68981 10.8001H9.20821C9.3599 10.8001 9.50538 10.7399 9.61264 10.6327C9.7199 10.5256 9.78016 10.3802 9.78016 10.2287C9.76727 10.0814 9.70288 9.94345 9.59828 9.83895C9.49368 9.73444 9.35557 9.6701 9.20821 9.65723Z" fill="#3B5998"/>
</svg>
