<svg width="23" height="16" viewBox="0 0 23 16" fill="none" xmlns="http://www.w3.org/2000/svg">
<rect x="0.25" y="0.25" width="21.9" height="15.5" rx="1.75" fill="white" stroke="#F5F5F5" stroke-width="0.5"/>
<mask id="mask0_1403_10320" style="mask-type:alpha" maskUnits="userSpaceOnUse" x="0" y="0" width="23" height="16">
<rect x="0.25" y="0.25" width="21.9" height="15.5" rx="1.75" fill="white" stroke="white" stroke-width="0.5"/>
</mask>
<g mask="url(#mask0_1403_10320)">
<path fill-rule="evenodd" clip-rule="evenodd" d="M2 0C0.895431 0 0 0.895431 0 2V6.4H6.4V0H2ZM9.6 0V6.4H22.4V2C22.4 0.895431 21.5046 0 20.4 0H9.6ZM22.4 9.6H9.6V16H20.4C21.5046 16 22.4 15.1046 22.4 14V9.6ZM6.4 16V9.6H0V14C0 15.1046 0.895428 16 2 16H6.4Z" fill="#EF264D"/>
</g>
</svg>
