<svg width="20" height="19" viewBox="0 0 20 19" fill="none" xmlns="http://www.w3.org/2000/svg">
<path fill-rule="evenodd" clip-rule="evenodd" d="M12.5643 18.3645L11.2556 17.0558C11.2191 17.0192 11.1915 16.9746 11.1751 16.9255L10.476 14.8281C10.4306 14.692 10.3032 14.6002 10.1597 14.6002H10.0269C9.81007 14.6002 9.65095 14.804 9.70354 15.0144L10.3542 17.6171C10.3826 17.7307 10.3493 17.8509 10.2665 17.9336L9.8357 18.3645C9.70553 18.4947 9.49447 18.4947 9.3643 18.3645L8.89763 17.8978C8.83512 17.8353 8.8 17.7505 8.8 17.6621V16.2789C8.8 16.2271 8.78795 16.1761 8.76481 16.1298L8.09213 14.7845C8.03567 14.6715 7.92025 14.6002 7.79399 14.6002H5.67869C5.62694 14.6002 5.5759 14.6122 5.52962 14.6354L4.12349 15.3384C4.04442 15.378 3.98429 15.4473 3.95634 15.5312L3.24366 17.6692C3.21571 17.7531 3.15558 17.8224 3.07651 17.8619L1.74907 18.5257C1.65523 18.5726 1.54477 18.5726 1.45093 18.5257L0.184262 17.8923C0.0713343 17.8359 0 17.7204 0 17.5942V14.9335C0 14.7494 0.149238 14.6002 0.333333 14.6002H2.06667C2.25076 14.6002 2.4 14.451 2.4 14.2669V13.0543C2.4 13.0185 2.40578 12.9829 2.41711 12.9489L3.12403 10.8281C3.1694 10.692 3.29678 10.6002 3.44025 10.6002H4.72131C4.77306 10.6002 4.8241 10.5881 4.87038 10.565L6.32962 9.83538C6.3759 9.81224 6.42694 9.80019 6.47869 9.80019H7.66667C7.85076 9.80019 8 9.65096 8 9.46686V9.13827C8 9.04986 8.03512 8.96508 8.09763 8.90256L8.47298 8.52721C8.63386 8.36633 8.90508 8.41035 9.00683 8.61384L9.50787 9.61593C9.56433 9.72886 9.67975 9.80019 9.80601 9.80019H11.7597C11.9032 9.80019 12.0306 9.70838 12.076 9.57227L12.724 7.62812C12.7694 7.492 12.8968 7.40019 13.0403 7.40019H14.0667C14.2508 7.40019 14.4 7.25096 14.4 7.06686V6.93353C14.4 6.74943 14.2508 6.60019 14.0667 6.60019H13.1333C12.9492 6.60019 12.8 6.45096 12.8 6.26686V5.07888C12.8 5.02714 12.812 4.9761 12.8352 4.92981L13.4926 3.61508C13.5567 3.48675 13.5316 3.33176 13.4301 3.23031L13.0357 2.8359C12.9055 2.70572 12.6945 2.70572 12.5643 2.8359L11.2976 4.10256C11.2351 4.16508 11.2 4.24986 11.2 4.33827V5.7461C11.2 5.78193 11.1942 5.81752 11.1829 5.85151L10.476 7.97227C10.4306 8.10838 10.3032 8.20019 10.1597 8.20019H9.73807C9.64967 8.20019 9.56488 8.16507 9.50237 8.10256L8.89763 7.49783C8.83512 7.43531 8.8 7.35053 8.8 7.26212V7.13954C8.8 6.89175 8.53923 6.73058 8.3176 6.8414L7.41489 7.29275C7.28656 7.35691 7.13157 7.33176 7.03012 7.23031L6.49763 6.69783C6.43512 6.63531 6.4 6.55053 6.4 6.46212V5.13827C6.4 5.04986 6.43512 4.96508 6.49763 4.90256L8 3.40019L10.3444 1.05584C10.381 1.01925 10.4256 0.991676 10.4747 0.975311L12.7487 0.217301C12.7827 0.205971 12.8183 0.200195 12.8541 0.200195H14.194C14.3202 0.200195 14.4357 0.271529 14.4921 0.384457L15.1648 1.72981C15.188 1.7761 15.2 1.82714 15.2 1.87888V4.06212C15.2 4.15053 15.2351 4.23531 15.2976 4.29783L15.8543 4.85452C15.9436 4.9438 15.9748 5.07586 15.9349 5.19563L15.2805 7.15866C15.233 7.30126 15.2868 7.45804 15.4118 7.54142L17.6 9.00019L18.8623 9.63133C19.0416 9.72099 19.1018 9.94755 18.9905 10.1144L17.656 12.1162C17.6195 12.171 17.6 12.2353 17.6 12.3011V14.3599C17.6 14.5034 17.5082 14.6308 17.3721 14.6762L15.331 15.3565C15.2471 15.3845 15.1778 15.4446 15.1383 15.5237L14.4242 16.9518C14.4082 16.9839 14.3871 17.0131 14.3618 17.0384L13.0357 18.3645C12.9055 18.4947 12.6945 18.4947 12.5643 18.3645ZM5.60001 17.8002C6.04183 17.8002 6.40001 17.442 6.40001 17.0002C6.40001 16.5584 6.04183 16.2002 5.60001 16.2002C5.15818 16.2002 4.80001 16.5584 4.80001 17.0002C4.80001 17.442 5.15818 17.8002 5.60001 17.8002ZM3.1999 7.40019C3.1999 7.84202 2.84173 8.20019 2.3999 8.20019C1.95807 8.20019 1.5999 7.84202 1.5999 7.40019C1.5999 6.95837 1.95807 6.60019 2.3999 6.60019C2.84173 6.60019 3.1999 6.95837 3.1999 7.40019Z" fill="white"/>
<path fill-rule="evenodd" clip-rule="evenodd" d="M3.965 7.47038C3.98815 7.4241 4.0002 7.37306 4.0002 7.32131V6.67869C4.0002 6.62694 3.98815 6.5759 3.965 6.52962L3.4414 5.4824C3.33058 5.26077 3.49175 5 3.73954 5H4.46686C4.65096 5 4.8002 5.14924 4.8002 5.33333V7.32131C4.8002 7.37306 4.81224 7.4241 4.83539 7.47038L5.35899 8.5176C5.46981 8.73923 5.30865 9 5.06085 9H3.73954C3.49175 9 3.33058 8.73923 3.4414 8.5176L3.965 7.47038Z" fill="white"/>
</svg>
