<svg width="97" height="70" viewBox="0 0 97 70" fill="none" xmlns="http://www.w3.org/2000/svg">
<path d="M52.7174 25.3875C48.2869 25.3875 45.2734 28.8751 45.2734 38.902C45.2734 48.3479 47.7329 52.644 52.7174 52.644C58.2942 52.644 59.8389 46.7353 59.8389 38.902C59.8389 31.6865 59.3675 25.3875 52.7174 25.3875ZM80.3911 58.5791C79.8618 58.5791 61.6551 58.8834 61.05 58.8834C60.4448 58.8834 60.1423 58.504 60.1423 57.8238V52.4274H59.9139C57.7208 56.7415 54.8435 59.791 47.2741 59.791C37.6616 59.791 30.9268 51.9192 30.9268 38.902C30.9268 25.5047 38.776 17.9369 47.7058 17.9369C54.5206 17.9369 58.1857 20.0236 60.0778 24.9428H60.347V11.7093C60.347 10.7274 60.2711 9.6663 60.1194 9.137C59.8185 7.85004 59.135 7.77419 57.9264 7.69834C57.1679 7.69834 54.2164 7.6225 53.5362 7.6225C53.0061 7.6225 52.7027 7.4708 52.7027 6.79062V1.36222C52.7027 0.682037 52.931 0.301987 53.4595 0.301987C53.9904 0.301987 72.0666 0.0760727 72.6718 0.0760727C73.2786 0.0760727 73.5795 0.377834 73.5795 1.05965V46.2867C73.5795 47.2696 73.5795 48.254 73.7312 48.7844C74.0354 50.0714 74.7156 50.1473 75.9259 50.2227C76.6827 50.2227 79.6359 50.3741 80.3161 50.3741C80.8462 50.3741 81.1488 50.5238 81.1488 51.2062V57.5963C81.1488 58.2771 80.9229 58.5791 80.3911 58.5791Z" fill="#5E9CA8"/>
<path d="M5.34807 67.6626H3.01726C2.95805 67.6626 2.93253 67.6282 2.93253 67.5518V67.1211C2.93253 67.0436 2.95805 67.028 3.01726 67.028C3.09344 67.028 3.29545 67.02 3.38019 67.02C3.51623 67.0108 3.59395 66.9946 3.62771 66.8502C3.6446 66.7907 3.65316 66.6807 3.65316 66.5706V64.6533C3.65316 64.4418 3.60162 64.163 3.45791 63.9932C3.34765 63.8562 3.17785 63.805 2.95805 63.805C2.66943 63.805 2.36391 63.9247 2.17756 64.163C1.9147 64.4918 1.8382 64.8897 1.8382 65.2803V66.5706C1.8382 66.6807 1.84782 66.7907 1.86438 66.8502C1.89717 66.9946 1.97424 67.0108 2.1097 67.02C2.19477 67.02 2.38936 67.028 2.46586 67.028C2.52474 67.028 2.55981 67.0436 2.55981 67.1211V67.5518C2.55981 67.6282 2.53339 67.6626 2.47377 67.6626H0.151368C0.0927287 67.6626 0.0669566 67.6282 0.0669566 67.5518V67.1211C0.0669566 67.0436 0.101619 67.028 0.16091 67.028C0.236432 67.028 0.500511 67.02 0.583046 67.02C0.720061 67.0108 0.79648 66.9946 0.829919 66.8502C0.845822 66.7907 0.855445 66.6807 0.855445 66.5706V62.2538C0.855445 62.1435 0.845822 62.027 0.829919 61.9651C0.79648 61.8214 0.720061 61.8135 0.583046 61.8042C0.500511 61.8042 0.168577 61.7953 0.0927292 61.7953C0.033193 61.7953 0 61.7701 0 61.6944V61.263C0 61.1872 0.0251993 61.1528 0.0844909 61.1528C0.144027 61.1528 1.64393 61.1282 1.71236 61.1282C1.77964 61.1282 1.80476 61.1611 1.80476 61.2385V64.163H1.87327C2.02464 63.7463 2.26262 63.4593 2.61079 63.2895C2.84746 63.1703 3.14343 63.1273 3.33077 63.1273C3.69426 63.1273 3.98232 63.2398 4.22985 63.4504C4.46652 63.6543 4.64489 64.0005 4.64489 64.4918V66.5706C4.64489 66.6807 4.65353 66.7907 4.66854 66.8502C4.70385 66.9946 4.77073 67.0108 4.90774 67.02C4.99061 67.02 5.263 67.028 5.34105 67.028C5.39839 67.028 5.43338 67.0436 5.43338 67.1211V67.5518C5.43338 67.6282 5.40695 67.6626 5.34807 67.6626Z" fill="#5E9CA8"/>
<path d="M8.34901 63.7632C8.2385 63.7027 8.07669 63.6775 7.94253 63.6775C7.30664 63.6775 6.93229 64.171 6.831 65.0003H8.77278C8.83166 65.0003 8.8916 64.9767 8.8916 64.8664C8.8916 64.4163 8.70492 63.9302 8.34901 63.7632ZM9.90943 65.5941H6.80555C6.84282 66.7563 7.31365 67.265 8.00908 67.265C8.73869 67.265 9.2914 66.8223 9.3838 66.028C9.39212 65.9856 9.40835 65.9334 9.50165 65.9334H9.89989C9.94262 65.9334 9.99229 65.9601 9.99229 66.0188C9.99229 66.0783 9.97639 66.2058 9.95885 66.2895C9.76385 67.1886 9.12094 67.8066 7.96741 67.8066C6.48316 67.8066 5.74622 66.7563 5.74622 65.4759C5.74622 64.2892 6.48316 63.127 7.96741 63.127C9.44978 63.127 10.0035 64.3044 10.0035 65.501C10.0035 65.5425 9.98364 65.5941 9.90943 65.5941Z" fill="#5E9CA8"/>
<path d="M13.1621 67.5767C12.9423 67.7298 12.638 67.8066 12.3233 67.8066C11.3653 67.8066 11.0181 67.4087 11.0181 66.7123V63.9066H10.2111C10.1532 63.9066 10.1283 63.8715 10.1283 63.7973V63.5934C10.1283 63.5176 10.2041 63.4752 10.2647 63.4589C10.9161 63.2395 11.4259 62.3471 11.5524 61.7463C11.5788 61.6093 11.6279 61.5848 11.7317 61.5848H11.9244C12.0025 61.5848 12.035 61.6189 12.035 61.6784V63.264H13.4001C13.4606 63.264 13.4855 63.3054 13.4855 63.3812V63.7973C13.4855 63.8715 13.4606 63.9066 13.4001 63.9066H12.035V66.4765C12.035 67.0009 12.2643 67.0946 12.5103 67.0946C12.9343 67.0946 13.1363 66.8656 13.1363 66.4249V65.6282C13.1363 65.5508 13.1717 65.5345 13.2306 65.5345H13.5699C13.6289 65.5345 13.6639 65.5508 13.6639 65.6282V66.4839C13.6639 66.9413 13.4935 67.3402 13.1621 67.5767Z" fill="#5E9CA8"/>
<path d="M70.7487 65.4849C70.4608 65.5174 69.6901 65.6626 69.2994 65.9847C69.129 66.1191 69.0955 66.3061 69.0955 66.5008C69.0955 66.8401 69.3214 67.1721 69.7586 67.1721C70.4021 67.1721 70.7487 66.5515 70.7487 66.0615V65.4849ZM72.3423 66.1022C72.3423 66.0265 72.3766 66.0083 72.4361 66.0083H72.759C72.817 66.0083 72.8504 66.0182 72.8504 66.094V66.3151C72.8504 66.9848 72.6889 67.8223 71.7665 67.8223C71.1565 67.8223 70.8506 67.4502 70.7821 66.9592H70.7487C70.5978 67.3744 69.9274 67.8149 69.2839 67.8149C68.6209 67.8149 68.028 67.425 68.028 66.5948C68.028 66.0615 68.3501 65.7818 68.8419 65.5435C69.3916 65.28 70.1802 65.1217 70.7316 65.0108V64.3138C70.7316 64.1105 70.6818 63.8716 70.5709 63.7451C70.4428 63.6097 70.2487 63.516 69.9445 63.516C69.5115 63.516 69.2154 63.652 69.0874 63.8633V63.8894C69.2228 63.9483 69.3663 64.1529 69.3663 64.432C69.3663 64.7703 69.1722 65.0166 68.7913 65.0166C68.4268 65.0166 68.1299 64.8038 68.1299 64.3714C68.1299 63.6944 68.9504 63.1359 69.978 63.1359C71.2062 63.1359 71.7494 63.5852 71.7494 64.4759V66.8312C71.7494 67.0433 71.8685 67.1118 71.9883 67.1118C72.224 67.1118 72.3423 66.9086 72.3423 66.324V66.1022Z" fill="#5E9CA8"/>
<path d="M88.6577 65.4849C88.3715 65.5174 87.5991 65.6626 87.2101 65.9847C87.0397 66.1191 87.0062 66.3061 87.0062 66.5008C87.0062 66.8401 87.2305 67.1721 87.6676 67.1721C88.3111 67.1721 88.6577 66.5515 88.6577 66.0615V65.4849ZM90.2522 66.1022C90.2522 66.0265 90.2856 66.0083 90.3451 66.0083H90.6681C90.7268 66.0083 90.7603 66.0182 90.7603 66.094V66.3151C90.7603 66.9848 90.5996 67.8223 89.6756 67.8223C89.0655 67.8223 88.7613 67.4502 88.6928 66.9592H88.6577C88.5069 67.3744 87.8365 67.8149 87.1914 67.8149C86.5299 67.8149 85.937 67.425 85.937 66.5948C85.937 66.0615 86.2592 65.7818 86.751 65.5435C87.3023 65.28 88.0909 65.1217 88.6406 65.0108V64.3138C88.6406 64.1105 88.5909 63.8716 88.4816 63.7451C88.3535 63.6097 88.1578 63.516 87.8536 63.516C87.4222 63.516 87.1245 63.652 86.9997 63.8633V63.8894C87.1318 63.9483 87.277 64.1529 87.277 64.432C87.277 64.7703 87.0813 65.0166 86.7004 65.0166C86.3358 65.0166 86.039 64.8038 86.039 64.3714C86.039 63.6944 86.861 63.1359 87.887 63.1359C89.1169 63.1359 89.6601 63.5852 89.6601 64.4759V66.8312C89.6601 67.0433 89.7775 67.1118 89.8958 67.1118C90.1331 67.1118 90.2522 66.9086 90.2522 66.324V66.1022Z" fill="#5E9CA8"/>
<path d="M64.7371 63.6776C63.9151 63.6776 63.6957 64.2972 63.6957 65.476C63.6957 66.6544 63.9917 67.2985 64.7371 67.2985C65.5609 67.2985 65.8651 66.3323 65.8651 65.476C65.8651 64.4759 65.516 63.6776 64.7371 63.6776ZM67.6283 67.6787C67.5696 67.6787 66.069 67.713 66.0005 67.713C65.9336 67.713 65.9001 67.6722 65.9001 67.5945V66.8828H65.8732C65.6277 67.3655 65.3064 67.8149 64.4582 67.8149C63.3817 67.8149 62.6265 66.9341 62.6265 65.476C62.6265 63.9751 63.398 63.1271 64.3979 63.1271C65.1612 63.1271 65.6359 63.5763 65.8479 64.1268H65.9067V62.2535C65.9067 62.1433 65.9001 62.0267 65.883 61.9649C65.848 61.8212 65.7713 61.8133 65.6359 61.804C65.5511 61.804 65.2216 61.7951 65.1433 61.7951C65.0862 61.7951 65.0528 61.7789 65.0528 61.703V61.2707C65.0528 61.1965 65.0764 61.1525 65.1376 61.1525C65.1963 61.1525 66.6953 61.128 66.7638 61.128C66.8307 61.128 66.8658 61.1608 66.8658 61.2382V66.5865C66.8658 66.6967 66.8658 66.8076 66.8813 66.8663C66.9147 67.0105 66.993 67.0198 67.1268 67.0278C67.2124 67.0278 67.5427 67.0433 67.6185 67.0433C67.6797 67.0433 67.7131 67.0622 67.7131 67.137V67.5694C67.7131 67.6451 67.687 67.6787 67.6283 67.6787Z" fill="#5E9CA8"/>
<path d="M93.1482 63.6776C92.3261 63.6776 92.1068 64.2972 92.1068 65.476C92.1068 66.6544 92.4028 67.2985 93.1482 67.2985C93.9703 67.2985 94.2778 66.3323 94.2778 65.476C94.2778 64.4759 93.9287 63.6776 93.1482 63.6776ZM96.041 67.6787C95.9791 67.6787 94.4801 67.713 94.4132 67.713C94.3447 67.713 94.3112 67.6722 94.3112 67.5945V66.8828H94.2843C94.0388 67.3655 93.7167 67.8149 92.8693 67.8149C91.7928 67.8149 91.0392 66.9341 91.0392 65.476C91.0392 63.9751 91.8091 63.1271 92.8106 63.1271C93.5723 63.1271 94.0486 63.5763 94.2607 64.1268H94.3178V62.2535C94.3178 62.1433 94.3112 62.0267 94.2941 61.9649C94.2607 61.8212 94.184 61.8133 94.0486 61.804C93.9622 61.804 93.6327 61.7951 93.556 61.7951C93.4957 61.7951 93.4622 61.7789 93.4622 61.703V61.2707C93.4622 61.1965 93.4875 61.1525 93.5479 61.1525C93.6058 61.1525 95.108 61.128 95.1749 61.128C95.2434 61.128 95.2769 61.1608 95.2769 61.2382V66.5865C95.2769 66.6967 95.2769 66.8076 95.294 66.8663C95.3258 67.0105 95.4041 67.0198 95.5395 67.0278C95.6235 67.0278 95.9554 67.0433 96.0313 67.0433C96.0908 67.0433 96.1242 67.0622 96.1242 67.137V67.5694C96.1242 67.6451 96.0981 67.6787 96.041 67.6787Z" fill="#5E9CA8"/>
<path d="M80.4099 63.6776C79.6294 63.6776 79.2232 64.4759 79.2232 65.476C79.2232 66.3323 79.5862 67.3058 80.4099 67.3058C80.9849 67.3058 81.3674 66.6544 81.3674 65.476C81.3674 64.2972 81.0966 63.6776 80.4099 63.6776ZM80.5436 67.8223C79.7982 67.8223 79.3488 67.5091 78.9859 67.001H78.959L78.6882 67.6279C78.6466 67.7299 78.6116 67.7643 78.5528 67.7643H78.3579C78.2821 67.7643 78.2307 67.7299 78.2307 67.6372V62.2618C78.2307 62.1525 78.2209 62.0324 78.2054 61.9738C78.172 61.8295 78.0953 61.8212 77.9583 61.8133C77.8743 61.8133 77.544 61.804 77.4681 61.804C77.407 61.804 77.3735 61.7788 77.3735 61.703V61.2707C77.3735 61.1965 77.407 61.1608 77.4681 61.1608C77.5285 61.1608 79.0177 61.1353 79.0879 61.1353C79.1547 61.1353 79.1898 61.1697 79.1898 61.2446V64.0519H79.2485C79.4589 63.5004 80.0437 63.1359 80.697 63.1359C81.6968 63.1359 82.4268 63.9751 82.4268 65.476C82.4268 66.9341 81.6202 67.8223 80.5436 67.8223Z" fill="#5E9CA8"/>
<path d="M85.2935 67.6626H82.8933C82.8346 67.6626 82.8085 67.6282 82.8085 67.5518V67.1211C82.8085 67.0436 82.8427 67.028 82.9014 67.028C82.9781 67.028 83.2489 67.02 83.3345 67.02C83.4699 67.0108 83.5466 66.9946 83.5816 66.8502C83.5971 66.7907 83.6053 66.6807 83.6053 66.5706V62.2538C83.6053 62.1435 83.5971 62.027 83.5816 61.9651C83.5466 61.8214 83.4699 61.8135 83.3345 61.8042C83.2489 61.8042 82.9186 61.7953 82.8427 61.7953C82.7832 61.7953 82.7498 61.7701 82.7498 61.6944V61.263C82.7498 61.1872 82.775 61.1528 82.8346 61.1528C82.8933 61.1528 84.4192 61.1282 84.4877 61.1282C84.5546 61.1282 84.588 61.1611 84.588 61.2385V66.5706C84.588 66.6807 84.588 66.7907 84.606 66.8502C84.6411 66.9946 84.7153 67.0108 84.8523 67.02C84.9355 67.02 85.2079 67.028 85.2845 67.028C85.3432 67.028 85.3783 67.0436 85.3783 67.1211V67.5518C85.3783 67.6282 85.3514 67.6626 85.2935 67.6626Z" fill="#5E9CA8"/>
<path d="M33.94 18.5301C30.5821 18.5301 27.7133 16.2889 27.7133 12.582C27.7133 8.98613 31.0877 7.3966 31.9957 7.01736V6.86567C31.3368 6.35594 30.5582 5.73121 28.3609 5.73121C24.0499 5.73121 20.8702 7.60131 20.8702 14.1935V19.1485H28.5894C29.1198 19.1485 29.3464 19.5276 29.3464 20.2077V25.4838C29.3464 26.1655 29.1198 26.4682 28.5894 26.4682H20.8702V46.136C20.8702 47.1192 20.9451 48.1026 21.098 48.633C21.4003 49.9202 22.0805 50.0714 23.293 50.1473C24.0499 50.1473 26.8499 50.2227 27.5308 50.2227C28.0609 50.2227 28.3609 50.3741 28.3609 51.0553V57.4453C28.3609 58.1255 28.1354 58.4297 27.6065 58.4297H0.997162C0.468023 58.4297 0.240562 58.1255 0.240562 57.4453V51.0553C0.240562 50.3741 0.543219 50.2227 1.07358 50.2227C1.75539 50.2227 4.10014 50.1473 4.85805 50.1473C6.07055 50.0714 6.74845 49.9202 7.05339 48.633C7.20467 48.1026 7.27954 47.1192 7.27954 46.136V26.4682H0.922293C0.39185 26.4682 0.164062 26.1655 0.164062 25.4838V20.2077C0.164062 19.5276 0.39185 19.1485 0.922293 19.1485H7.27954V16.1214C7.27954 7.87126 14.1226 0.000244141 25.9869 0.000244141C36.378 0.000244141 40.7015 6.59164 40.7015 10.7551C40.7015 15.948 37.6154 18.5301 33.94 18.5301Z" fill="#231F20"/>
<path d="M96.1576 53.7381C96.1576 50.1174 93.4809 47.7631 90.1828 47.7631C86.8822 47.7631 84.2072 50.1174 84.2072 53.7381C84.2072 57.3571 86.8822 59.7114 90.1828 59.7114C93.4809 59.7114 96.1576 57.3571 96.1576 53.7381Z" fill="#231F20"/>
<path d="M20.1525 67.6626H17.7978C17.7386 67.6626 17.7131 67.6282 17.7131 67.5518V67.1211C17.7131 67.0436 17.7465 67.028 17.8058 67.028C17.8826 67.028 18.0253 67.02 18.1104 67.02C18.2458 67.0108 18.3216 66.9946 18.3563 66.8502C18.3726 66.7907 18.3805 66.6807 18.3805 66.5706V64.3653C18.3805 64.2551 18.3726 64.1344 18.3563 64.0767C18.3216 63.9305 18.2458 63.9069 18.1104 63.9069H16.512V66.5706C16.512 66.6807 16.5194 66.7907 16.5376 66.8502C16.571 66.9946 16.6459 67.0108 16.7829 67.02C16.8673 67.02 17.0281 67.028 17.104 67.028C17.1636 67.028 17.197 67.0436 17.197 67.1211V67.5518C17.197 67.6282 17.1721 67.6626 17.1126 67.6626H14.8242C14.7656 67.6626 14.7395 67.6282 14.7395 67.5518V67.1211C14.7395 67.0436 14.7742 67.028 14.8331 67.028C14.9099 67.028 15.1715 67.02 15.2565 67.02C15.3935 67.0108 15.4687 66.9946 15.5028 66.8502C15.52 66.7907 15.527 66.6807 15.527 66.5706V63.9069H14.8157C14.7567 63.9069 14.7318 63.8719 14.7318 63.7976V63.3815C14.7318 63.3057 14.7567 63.2643 14.8157 63.2643H15.527V63.0856C15.527 62.1623 16.3559 61.1282 17.7717 61.1282C18.8479 61.1282 19.3044 61.7033 19.3044 62.1779C19.3044 62.593 19.0336 62.8549 18.7204 62.8549C18.3216 62.8549 18.1693 62.6364 18.1693 62.3474C18.1693 62.0677 18.3563 61.9155 18.4573 61.8721V61.8565C18.3805 61.7205 18.1358 61.5841 17.7542 61.5841C17.1601 61.5841 16.512 62.0081 16.512 62.8906V63.2643H19.263C19.3312 63.2643 19.3656 63.2968 19.3656 63.3041V66.5011C19.3656 66.6807 19.3656 66.7907 19.3812 66.8502C19.4159 66.9946 19.4908 67.0108 19.6277 67.02C19.7122 67.02 20.0667 67.028 20.1454 67.028C20.2041 67.028 20.2379 67.0436 20.2379 67.1211V67.5518C20.2379 67.6282 20.213 67.6626 20.1525 67.6626Z" fill="#231F20"/>
<path d="M25.8659 67.6626H23.5374C23.4769 67.6626 23.4514 67.6282 23.4514 67.5518V67.1211C23.4514 67.0436 23.4769 67.028 23.5374 67.028C23.6133 67.028 23.8155 67.02 23.9006 67.02C24.0363 67.0108 24.1122 66.9946 24.1466 66.8502C24.1628 66.7907 24.1714 66.6807 24.1714 66.5706V64.5845C24.1714 64.084 24.0194 63.7365 23.4769 63.7365C22.6291 63.7365 22.358 64.6858 22.358 65.3634V66.5706C22.358 66.6807 22.3657 66.7907 22.3835 66.8502C22.4176 66.9946 22.4934 67.0108 22.6291 67.02C22.7148 67.02 22.9067 67.028 22.9841 67.028C23.043 67.028 23.078 67.0436 23.078 67.1211V67.5518C23.078 67.6282 23.0513 67.6626 22.9926 67.6626H20.6696C20.6106 67.6626 20.5861 67.6282 20.5861 67.5518V67.1211C20.5861 67.0436 20.6201 67.028 20.6791 67.028C20.7546 67.028 21.0184 67.02 21.1035 67.02C21.2388 67.0108 21.3147 66.9946 21.3498 66.8502C21.3657 66.7907 21.3752 66.6807 21.3752 66.5706V64.3653C21.3752 64.2551 21.3657 64.1344 21.3498 64.0767C21.3147 63.9305 21.2388 63.924 21.1035 63.9142C21.0184 63.9142 20.7546 63.9069 20.6791 63.9069C20.6201 63.9069 20.5861 63.8807 20.5861 63.8043V63.3726C20.5861 63.2968 20.6106 63.2643 20.6696 63.2643C20.7301 63.2643 22.1627 63.2398 22.2303 63.2398C22.2982 63.2398 22.3246 63.2722 22.3246 63.3484V64.1359H22.3921C22.5874 63.4755 23.2389 63.1273 23.8483 63.1273C24.714 63.1273 25.1622 63.6361 25.1622 64.4918V66.5706C25.1622 66.6807 25.1724 66.7907 25.1886 66.8502C25.2227 66.9946 25.2906 67.0108 25.4259 67.02C25.5107 67.02 25.7821 67.028 25.8583 67.028C25.9185 67.028 25.9516 67.0436 25.9516 67.1211V67.5518C25.9516 67.6282 25.9268 67.6626 25.8659 67.6626Z" fill="#231F20"/>
<path d="M29.131 65.4849C28.8427 65.5174 28.0708 65.6626 27.6812 65.9847C27.5126 66.1191 27.4773 66.3061 27.4773 66.5008C27.4773 66.8401 27.7038 67.1721 28.1409 67.1721C28.7838 67.1721 29.131 66.5515 29.131 66.0615V65.4849ZM30.7229 66.1022C30.7229 66.0265 30.7593 66.0083 30.817 66.0083H31.1397C31.1992 66.0083 31.2337 66.0182 31.2337 66.094V66.3151C31.2337 66.9848 31.0734 67.8223 30.1489 67.8223C29.5372 67.8223 29.233 67.4502 29.1651 66.9592H29.131C28.9785 67.3744 28.3091 67.8149 27.6656 67.8149C27.0036 67.8149 26.4104 67.425 26.4104 66.5948C26.4104 66.0615 26.7321 65.7818 27.2243 65.5435C27.7745 65.28 28.563 65.1217 29.1135 65.0108V64.3138C29.1135 64.1105 29.0632 63.8716 28.9533 63.7451C28.8252 63.6097 28.6302 63.516 28.3267 63.516C27.8933 63.516 27.597 63.652 27.47 63.8633V63.8894C27.605 63.9483 27.7491 64.1529 27.7491 64.432C27.7491 64.7703 27.5547 65.0166 27.1724 65.0166C26.8092 65.0166 26.512 64.8038 26.512 64.3714C26.512 63.6944 27.3343 63.1359 28.3598 63.1359C29.5895 63.1359 30.1313 63.5852 30.1313 64.4759V66.8312C30.1313 67.0433 30.2493 67.1118 30.3687 67.1118C30.6051 67.1118 30.7229 66.9086 30.7229 66.324V66.1022Z" fill="#231F20"/>
<path d="M36.7606 67.6626H34.4305C34.3716 67.6626 34.3464 67.6282 34.3464 67.5518V67.1211C34.3464 67.0436 34.3716 67.028 34.4305 67.028C34.507 67.028 34.7084 67.02 34.7937 67.02C34.9307 67.0108 35.0055 66.9946 35.0406 66.8502C35.0572 66.7907 35.0661 66.6807 35.0661 66.5706V64.5845C35.0661 64.084 34.9126 63.7365 34.3706 63.7365C33.5232 63.7365 33.2518 64.6858 33.2518 65.3634V66.5706C33.2518 66.6807 33.2601 66.7907 33.2773 66.8502C33.3114 66.9946 33.3862 67.0108 33.5232 67.02C33.6067 67.02 33.8023 67.028 33.8771 67.028C33.9386 67.028 33.9721 67.0436 33.9721 67.1211V67.5518C33.9721 67.6282 33.946 67.6626 33.8861 67.6626H31.5646C31.5043 67.6626 31.4789 67.6282 31.4789 67.5518V67.1211C31.4789 67.0436 31.5136 67.028 31.5728 67.028C31.6493 67.028 31.9121 67.02 31.9966 67.02C32.1323 67.0108 32.2091 66.9946 32.2435 66.8502C32.2594 66.7907 32.2677 66.6807 32.2677 66.5706V64.3653C32.2677 64.2551 32.2594 64.1344 32.2435 64.0767C32.2091 63.9305 32.1323 63.924 31.9966 63.9142C31.9121 63.9142 31.6493 63.9069 31.5728 63.9069C31.5136 63.9069 31.4789 63.8807 31.4789 63.8043V63.3726C31.4789 63.2968 31.5043 63.2643 31.5646 63.2643C31.6232 63.2643 33.0562 63.2398 33.1244 63.2398C33.1925 63.2398 33.2183 63.2722 33.2183 63.3484V64.1359H33.2852C33.4812 63.4755 34.1326 63.1273 34.7427 63.1273C35.6092 63.1273 36.0569 63.6361 36.0569 64.4918V66.5706C36.0569 66.6807 36.0655 66.7907 36.0817 66.8502C36.1158 66.9946 36.1859 67.0108 36.3197 67.02C36.4047 67.02 36.6756 67.028 36.752 67.028C36.811 67.028 36.8454 67.0436 36.8454 67.1211V67.5518C36.8454 67.6282 36.8199 67.6626 36.7606 67.6626Z" fill="#231F20"/>
<path d="M39.9994 64.8215C39.9994 64.5078 40.1595 64.3306 40.3975 64.1863C40.2953 63.8381 39.9146 63.7116 39.5087 63.7116C38.8636 63.7116 38.3204 64.2892 38.2869 65.4587C38.3204 66.5263 38.7958 67.1965 39.4918 67.1965C40.2207 67.1965 40.6687 66.8223 40.7627 66.028C40.7712 65.9856 40.7878 65.9334 40.8821 65.9334H41.28C41.3215 65.9334 41.3724 65.9601 41.3724 66.0188C41.3724 66.0783 41.3565 66.2058 41.3389 66.2895C41.143 67.1886 40.6014 67.8066 39.4482 67.8066C37.9652 67.8066 37.2277 66.7563 37.2277 65.4759C37.2277 64.2892 37.9652 63.127 39.4482 63.127C40.8394 63.127 41.2959 64.0837 41.2959 64.6438C41.2959 65.1096 41.008 65.431 40.6181 65.431C40.3562 65.431 39.9994 65.2532 39.9994 64.8215Z" fill="#231F20"/>
<path d="M42.9924 62.5701C42.6101 62.5701 42.3059 62.2716 42.3059 61.8916C42.3059 61.5083 42.6101 61.2041 42.9924 61.2041C43.3731 61.2041 43.6786 61.5083 43.6786 61.8916C43.6786 62.2716 43.3731 62.5701 42.9924 62.5701ZM44.2811 67.6626H41.857C41.7977 67.6626 41.7713 67.6282 41.7713 67.5518V67.1211C41.7713 67.0436 41.8057 67.028 41.8647 67.028C41.9417 67.028 42.2387 67.02 42.3234 67.02C42.4578 67.0108 42.5355 66.9946 42.5687 66.8502C42.5846 66.7907 42.5948 66.6807 42.5948 66.5706V64.3653C42.5948 64.2551 42.5846 64.1344 42.5687 64.0767C42.5355 63.9305 42.4578 63.924 42.3234 63.9142C42.2387 63.9142 41.9076 63.9069 41.8309 63.9069C41.7713 63.9069 41.7372 63.8807 41.7372 63.8043V63.3726C41.7372 63.2968 41.7643 63.2643 41.8229 63.2643C41.8812 63.2643 43.4079 63.2398 43.476 63.2398C43.5433 63.2398 43.5773 63.2722 43.5773 63.2796V66.5011C43.5773 66.6807 43.5773 66.7907 43.5936 66.8502C43.628 66.9946 43.7029 67.0108 43.8398 67.02C43.924 67.02 44.1964 67.028 44.2721 67.028C44.3317 67.028 44.3655 67.0436 44.3655 67.1211V67.5518C44.3655 67.6282 44.34 67.6626 44.2811 67.6626Z" fill="#231F20"/>
<path d="M56.9224 67.6626H54.5238C54.4651 67.6626 54.439 67.6282 54.439 67.5518V67.1211C54.439 67.0436 54.4725 67.028 54.532 67.028C54.6078 67.028 54.8802 67.02 54.9651 67.02C55.1004 67.0108 55.1771 66.9946 55.2105 66.8502C55.226 66.7907 55.2358 66.6807 55.2358 66.5706V62.2538C55.2358 62.1435 55.226 62.027 55.2105 61.9651C55.1771 61.8214 55.1004 61.8135 54.9651 61.8042C54.8802 61.8042 54.5491 61.7953 54.4725 61.7953C54.4121 61.7953 54.3787 61.7701 54.3787 61.6944V61.263C54.3787 61.1872 54.4039 61.1528 54.4651 61.1528C54.5238 61.1528 56.0481 61.1282 56.1183 61.1282C56.1851 61.1282 56.2202 61.1611 56.2202 61.2385V66.5706C56.2202 66.6807 56.2202 66.7907 56.2357 66.8502C56.2691 66.9946 56.3442 67.0108 56.4812 67.02C56.566 67.02 56.8368 67.028 56.9143 67.028C56.9738 67.028 57.0072 67.0436 57.0072 67.1211V67.5518C57.0072 67.6282 56.982 67.6626 56.9224 67.6626Z" fill="#231F20"/>
<path d="M47.3487 63.7632C47.2365 63.7027 47.0779 63.6775 46.9409 63.6775C46.3057 63.6775 45.9329 64.171 45.8319 65.0003H47.7727C47.8317 65.0003 47.8896 64.9767 47.8896 64.8664C47.8896 64.4163 47.7035 63.9302 47.3487 63.7632ZM48.9088 65.5941H45.8055C45.8437 66.7563 46.3127 67.265 47.0094 67.265C47.7393 67.265 48.2904 66.8223 48.3825 66.028C48.3924 65.9856 48.4083 65.9334 48.5022 65.9334H48.8992C48.9422 65.9334 48.9932 65.9601 48.9932 66.0188C48.9932 66.0783 48.9757 66.2058 48.9581 66.2895C48.7638 67.1886 48.12 67.8066 46.9673 67.8066C45.4827 67.8066 44.7462 66.7563 44.7462 65.4759C44.7462 64.2892 45.4827 63.127 46.9673 63.127C48.4503 63.127 49.0012 64.3044 49.0012 65.501C49.0012 65.5425 48.9852 65.5941 48.9088 65.5941Z" fill="#231F20"/>
<path d="M52.1905 63.7632C52.0788 63.7027 51.9189 63.6775 51.7836 63.6775C51.1466 63.6775 50.7739 64.171 50.6736 65.0003H52.6154C52.6725 65.0003 52.7337 64.9767 52.7337 64.8664C52.7337 64.4163 52.5469 63.9302 52.1905 63.7632ZM53.7499 65.5941H50.6483C50.685 66.7563 51.1564 67.265 51.8512 67.265C52.5804 67.265 53.1333 66.8223 53.2255 66.028C53.2336 65.9856 53.2524 65.9334 53.3454 65.9334H53.7401C53.785 65.9334 53.8339 65.9601 53.8339 66.0188C53.8339 66.0783 53.8184 66.2058 53.8004 66.2895C53.6047 67.1886 52.9612 67.8066 51.808 67.8066C50.3261 67.8066 49.5889 66.7563 49.5889 65.4759C49.5889 64.2892 50.3261 63.127 51.808 63.127C53.2923 63.127 53.8437 64.3044 53.8437 65.501C53.8437 65.5425 53.8274 65.5941 53.7499 65.5941Z" fill="#231F20"/>
<path d="M60.0893 63.7632C59.9792 63.7027 59.8185 63.6775 59.6815 63.6775C59.0478 63.6775 58.6735 64.171 58.5715 65.0003H60.5134C60.5737 65.0003 60.6308 64.9767 60.6308 64.8664C60.6308 64.4163 60.4465 63.9302 60.0893 63.7632ZM61.6486 65.5941H58.5454C58.5837 66.7563 59.0551 67.265 59.75 67.265C60.4799 67.265 61.0304 66.8223 61.1251 66.028C61.1308 65.9856 61.1503 65.9334 61.2425 65.9334H61.6389C61.6821 65.9334 61.7335 65.9601 61.7335 66.0188C61.7335 66.0783 61.7172 66.2058 61.7 66.2895C61.5035 67.1886 60.86 67.8066 59.7084 67.8066C58.2257 67.8066 57.4868 66.7563 57.4868 65.4759C57.4868 64.2892 58.2257 63.127 59.7084 63.127C61.1919 63.127 61.7424 64.3044 61.7424 65.501C61.7424 65.5425 61.7253 65.5941 61.6486 65.5941Z" fill="#231F20"/>
<path d="M76.0295 64.6628C76.0295 65.2729 75.8019 65.7142 75.1723 65.7142C74.5468 65.7142 74.2817 65.2802 74.2817 64.6628C74.2817 64.0422 74.5468 63.6099 75.1723 63.6099C75.8019 63.6099 76.0295 64.0521 76.0295 64.6628ZM73.8772 68.2214C73.8772 67.9684 74.1227 67.6202 74.4603 67.5858C74.4603 67.5769 75.7252 67.5769 75.7252 67.5769C76.4022 67.5769 76.6746 67.7049 76.6746 68.086C76.6746 68.5695 76.394 69.013 75.1723 69.013C74.1912 69.013 73.8772 68.6282 73.8772 68.2214ZM76.7447 63.3375C76.7447 63.508 76.8719 63.7364 77.1778 63.7364C77.4738 63.7364 77.7038 63.508 77.7038 63.2193C77.7038 62.7112 77.3384 62.5067 76.9584 62.5067C76.4487 62.5067 76.1347 62.9486 76.0996 63.2789H76.036C75.797 63.1833 75.5165 63.1273 75.1919 63.1273C74.1659 63.1273 73.325 63.5529 73.325 64.6628C73.325 65.1359 73.5191 65.5176 73.8421 65.7393V65.7549C73.511 65.8913 73.1464 66.1537 73.1464 66.6619C73.1464 67.1283 73.6129 67.4342 73.9701 67.4848V67.5189C73.5558 67.5444 73.038 67.833 73.038 68.3313C73.038 68.9178 73.5379 69.46 75.1723 69.46C76.8099 69.46 77.5285 68.7219 77.5285 67.7817C77.5285 66.7645 76.8613 66.7581 76.0376 66.7581C75.5882 66.7581 74.9195 66.7492 74.3763 66.7492C73.9106 66.7492 73.7818 66.4848 73.7818 66.3494C73.7818 66.214 73.9522 66.034 74.1129 65.976C74.4285 66.1276 74.7759 66.1962 75.1919 66.1962C76.2162 66.1962 77.0041 65.7721 77.0041 64.6628C77.0041 64.1939 76.7896 63.7446 76.3655 63.4541C76.3834 63.2031 76.5155 62.9829 76.7113 62.9829C76.8051 62.9829 76.8564 63.0164 76.8719 63.0406V63.0594C76.8051 63.1091 76.7447 63.2193 76.7447 63.3375Z" fill="#5E9CA8"/>
</svg>
