<?xml version="1.0" encoding="utf-8"?>
<!-- Generator: Adobe Illustrator 24.3.0, SVG Export Plug-In . SVG Version: 6.00 Build 0)  -->
<svg version="1.1" id="Isolatiemodus" xmlns="http://www.w3.org/2000/svg" xmlns:xlink="http://www.w3.org/1999/xlink" x="0px"
	 y="0px" viewBox="0 0 1004 284" style="enable-background:new 0 0 1004 284;" xml:space="preserve">
<style type="text/css">
	.st0{fill:#303C50;}
	.st1{fill:url(#Combined-Shape_1_);}
</style>
<g id="Atom_x2F_Logos_x2F_Logo_x2F_Complete_x2F_Colored">
	<path id="Fill-3510" class="st0" d="M462.2,66.7h-16.6v55.8h-19.1V66.7H416v-9.2l10.5-5.1v-5.1c0-8,2-13.8,5.9-17.5
		c3.9-3.7,10.2-5.5,18.9-5.5c6.6,0,12.5,1,17.6,2.9L464,41.2c-3.8-1.2-7.4-1.8-10.7-1.8c-2.7,0-4.7,0.8-5.9,2.4
		c-1.2,1.6-1.8,3.7-1.8,6.2v4.4h16.6V66.7"/>
	<path id="Fill-3511" class="st0" d="M501.3,65.8c-4.1,0-7.2,1.3-9.5,3.9c-2.3,2.6-3.6,6.2-4,10.9h26.8c-0.1-4.7-1.3-8.4-3.7-10.9
		C508.6,67.1,505.4,65.8,501.3,65.8z M504,124.9c-11.3,0-20.1-3.1-26.5-9.3c-6.3-6.2-9.5-15.1-9.5-26.5c0-11.7,2.9-20.8,8.8-27.3
		c5.9-6.4,14-9.6,24.4-9.6c9.9,0,17.6,2.8,23.1,8.5c5.5,5.6,8.3,13.4,8.3,23.4v9.3h-45.2c0.2,5.4,1.8,9.7,4.8,12.7
		c3,3.1,7.2,4.6,12.7,4.6c4.2,0,8.2-0.4,12-1.3c3.8-0.9,7.7-2.3,11.8-4.2v14.8c-3.3,1.7-6.9,2.9-10.7,3.7
		C514.1,124.5,509.5,124.9,504,124.9L504,124.9z"/>
	<path id="Fill-3512" class="st0" d="M577.3,65.8c-4.1,0-7.2,1.3-9.5,3.9c-2.3,2.6-3.6,6.2-4,10.9h26.8c-0.1-4.7-1.3-8.4-3.7-10.9
		C584.6,67.1,581.4,65.8,577.3,65.8z M580,124.9c-11.3,0-20.1-3.1-26.5-9.3c-6.4-6.2-9.5-15.1-9.5-26.5c0-11.7,2.9-20.8,8.8-27.3
		c5.9-6.4,14-9.6,24.4-9.6c9.9,0,17.6,2.8,23.1,8.5c5.5,5.6,8.3,13.4,8.3,23.4v9.3h-45.2c0.2,5.4,1.8,9.7,4.8,12.7
		c3,3.1,7.2,4.6,12.7,4.6c4.2,0,8.2-0.4,12-1.3c3.8-0.9,7.7-2.3,11.8-4.2v14.8c-3.3,1.7-6.9,2.9-10.7,3.7
		C590.1,124.5,585.5,124.9,580,124.9L580,124.9z"/>
	<path id="Fill-3513" class="st0" d="M653.2,107.8c4.9,0,8.5-1.4,10.8-4.3c2.3-2.8,3.5-7.7,3.7-14.5V87c0-7.5-1.2-12.9-3.5-16.2
		c-2.3-3.3-6.1-4.9-11.3-4.9c-4.3,0-7.6,1.8-9.9,5.4c-2.4,3.6-3.5,8.9-3.5,15.8c0,6.9,1.2,12.1,3.6,15.5
		C645.3,106.1,648.7,107.8,653.2,107.8z M646.5,123c-8.2,0-14.7-3.2-19.4-9.6c-4.7-6.4-7.1-15.3-7.1-26.6c0-11.5,2.4-20.5,7.2-26.9
		c4.8-6.4,11.4-9.6,19.8-9.6c8.8,0,15.6,3.4,20.2,10.3h0.6c-1-5.2-1.4-9.9-1.4-14V24.2h19.2v97.6h-14.7l-3.7-9.1h-0.8
		C662,119.6,655.4,123,646.5,123L646.5,123z"/>
	<path id="Fill-3514" class="st0" d="M740.9,65.6c-4.7,0-8.2,1.5-10.3,4.4c-2.2,2.9-3.3,7.7-3.4,14.4v2.1c0,7.5,1.1,12.9,3.4,16.2
		c2.2,3.3,5.8,4.9,10.6,4.9c3.9,0,7.1-1.8,9.4-5.4c2.3-3.6,3.5-8.9,3.5-15.8c0-6.9-1.2-12.1-3.5-15.5
		C748.1,67.4,744.9,65.6,740.9,65.6z M747,50.3c8.3,0,14.8,3.2,19.4,9.7c4.7,6.5,7,15.3,7,26.6c0,11.6-2.4,20.6-7.2,26.9
		c-4.8,6.4-11.4,9.5-19.7,9.5c-8.2,0-14.7-3-19.4-9h-1.3l-3.2,7.7H708V24.2h19.1v22.7c0,2.9-0.3,7.5-0.8,13.9h0.8
		C731.6,53.8,738.2,50.3,747,50.3L747,50.3z"/>
	<path id="Fill-3515" class="st0" d="M827.5,91.3l-7.4,0.2c-5.6,0.2-9.7,1.2-12.4,3c-2.7,1.8-4.1,4.6-4.1,8.4c0,5.4,3.1,8.1,9.3,8.1
		c4.4,0,8-1.3,10.6-3.8c2.7-2.5,4-5.9,4-10.2V91.3z M833.2,123.7l-3.7-9.5H829c-3.2,4.1-6.5,6.9-9.9,8.4c-3.4,1.6-7.9,2.3-13.3,2.3
		c-6.7,0-12-1.9-15.9-5.8c-3.9-3.8-5.8-9.3-5.8-16.4c0-7.4,2.6-12.9,7.8-16.5c5.2-3.5,13.1-5.5,23.6-5.9l12.2-0.4V77
		c0-7.1-3.6-10.7-10.9-10.7c-5.6,0-12.2,1.7-19.8,5.1l-6.3-12.9c8.1-4.2,17-6.3,26.8-6.3c9.4,0,16.6,2,21.6,6.1
		c5,4.1,7.5,10.3,7.5,18.7v46.7H833.2L833.2,123.7z"/>
	<path id="Fill-3516" class="st0" d="M892.7,124.9c-21.8,0-32.7-12-32.7-35.9c0-11.9,3-21,8.9-27.3c5.9-6.3,14.5-9.4,25.5-9.4
		c8.1,0,15.4,1.6,21.8,4.8l-5.6,14.8c-3-1.2-5.8-2.2-8.4-3c-2.6-0.8-5.2-1.2-7.8-1.2c-10,0-14.9,7.1-14.9,21.2
		c0,13.7,5,20.6,14.9,20.6c3.7,0,7.1-0.5,10.2-1.5c3.1-1,6.3-2.5,9.4-4.6v16.4c-3.1,2-6.2,3.3-9.4,4.1
		C901.5,124.5,897.6,124.9,892.7,124.9"/>
	<polyline id="Fill-3517" class="st0" points="950.4,83.6 958.7,73 978.4,51.6 999.9,51.6 972.1,82.1 1001.6,121.8 979.5,121.8 
		959.4,93.4 951.1,99.9 951.1,121.8 932,121.8 932,24.2 951.1,24.2 951.1,67.7 950.1,83.6 950.4,83.6 	"/>
	<path id="Fill-3518" class="st0" d="M451.3,247.4c-10,0-17.7-3.1-23.1-9.2c-5.5-6.1-8.2-14.8-8.2-26c0-11.5,2.8-20.4,8.3-26.7
		c5.5-6.3,13.4-9.4,23.7-9.4c3.3,0,6.6,0.4,9.9,1.1c3.3,0.7,5.9,1.5,7.8,2.5l-3.2,8.8c-2.3-0.9-4.8-1.7-7.5-2.3
		c-2.7-0.6-5.1-0.9-7.2-0.9c-14,0-21,8.9-21,26.7c0,8.4,1.7,14.9,5.1,19.4c3.4,4.5,8.5,6.8,15.1,6.8c5.7,0,11.6-1.2,17.6-3.7v9.2
		C464.1,246.2,458.3,247.4,451.3,247.4"/>
	<path id="Fill-3519" class="st0" d="M490.8,211.7c0,8.8,1.8,15.5,5.3,20.1c3.5,4.6,8.7,6.9,15.5,6.9s12-2.3,15.5-6.9
		c3.5-4.6,5.3-11.3,5.3-20.1c0-8.7-1.8-15.4-5.3-19.9c-3.5-4.5-8.8-6.8-15.7-6.8c-6.8,0-12,2.2-15.4,6.7
		C492.5,196.2,490.8,202.9,490.8,211.7z M543.2,211.7c0,11.2-2.8,20-8.5,26.2c-5.6,6.3-13.5,9.4-23.4,9.4c-6.1,0-11.6-1.4-16.4-4.3
		c-4.8-2.9-8.4-7-11-12.4c-2.6-5.4-3.9-11.7-3.9-18.9c0-11.2,2.8-19.9,8.4-26.2c5.6-6.3,13.4-9.4,23.3-9.4c9.6,0,17.3,3.2,22.9,9.6
		C540.3,192.2,543.2,200.8,543.2,211.7L543.2,211.7z"/>
	<path id="Fill-3520" class="st0" d="M651.6,246.2v-44.7c0-5.5-1.2-9.6-3.5-12.3c-2.3-2.7-6-4.1-10.9-4.1c-6.5,0-11.3,1.9-14.4,5.6
		c-3.1,3.7-4.6,9.5-4.6,17.2v38.4h-10.4v-44.7c0-5.5-1.2-9.6-3.5-12.3c-2.3-2.7-6-4.1-11-4.1c-6.5,0-11.3,2-14.3,5.9
		s-4.6,10.3-4.6,19.2v36.1H564v-68.7h8.5l1.7,9.4h0.5c2-3.3,4.7-6,8.3-7.8c3.6-1.9,7.6-2.8,12-2.8c10.8,0,17.8,3.9,21.1,11.7h0.5
		c2-3.6,5-6.4,8.9-8.5c3.9-2.1,8.3-3.1,13.3-3.1c7.8,0,13.6,2,17.5,6c3.9,4,5.8,10.4,5.8,19.2v44.9H651.6"/>
	<path id="Fill-3521" class="st0" d="M714.5,185c-7,0-12.1,1.9-15.2,5.8c-3.1,3.9-4.8,10.1-4.8,18.6v2.3c0,9.7,1.6,16.6,4.8,20.7
		c3.2,4.2,8.4,6.2,15.5,6.2c5.9,0,10.6-2.4,14-7.2c3.4-4.8,5-11.4,5-19.9c0-8.6-1.7-15.2-5-19.7C725.3,187.3,720.6,185,714.5,185z
		 M716,247.4c-4.5,0-8.6-0.8-12.3-2.5c-3.7-1.7-6.8-4.2-9.3-7.6h-0.8c0.5,4,0.8,7.8,0.8,11.4V277H684v-99.6h8.5l1.4,9.4h0.5
		c2.7-3.8,5.8-6.5,9.3-8.2c3.6-1.7,7.6-2.5,12.2-2.5c9.1,0,16.2,3.1,21.1,9.3c5,6.2,7.4,15,7.4,26.2c0,11.3-2.5,20.1-7.6,26.3
		C731.9,244.3,724.9,247.4,716,247.4L716,247.4z"/>
	<path id="Fill-3522" class="st0" d="M779.9,238.7c6.5,0,11.6-1.8,15.3-5.3c3.7-3.6,5.6-8.5,5.6-14.9v-6.2l-10.4,0.4
		c-8.3,0.3-14.2,1.6-17.9,3.9c-3.7,2.3-5.5,5.8-5.5,10.6c0,3.8,1.1,6.6,3.4,8.6C772.6,237.7,775.8,238.7,779.9,238.7z M803.4,246
		l-2.1-9.8h-0.5c-3.4,4.3-6.8,7.2-10.3,8.7c-3.4,1.5-7.7,2.3-12.8,2.3c-6.8,0-12.2-1.8-16-5.3c-3.9-3.5-5.8-8.5-5.8-15
		c0-13.9,11.1-21.2,33.3-21.8l11.7-0.4v-4.3c0-5.4-1.2-9.4-3.5-11.9c-2.3-2.6-6-3.9-11.1-3.9c-5.7,0-12.2,1.8-19.4,5.3l-3.2-8
		c3.4-1.8,7.1-3.3,11.1-4.3c4-1,8.1-1.6,12.1-1.6c8.2,0,14.3,1.8,18.2,5.5c4,3.6,5.9,9.5,5.9,17.5V246H803.4L803.4,246z"/>
	<path id="Fill-3523" class="st0" d="M879,246.2v-44.5c0-5.6-1.3-9.8-3.8-12.5c-2.6-2.8-6.5-4.1-12-4.1c-7.2,0-12.5,1.9-15.8,5.8
		c-3.3,3.9-5,10.3-5,19.3v36.1H832v-68.7h8.5l1.7,9.4h0.5c2.1-3.4,5.1-6,9-7.9c3.8-1.9,8.1-2.8,12.9-2.8c8.3,0,14.5,2,18.7,6
		c4.2,4,6.3,10.4,6.3,19.2v44.9H879"/>
	<path id="Fill-3524" class="st0" d="M900,180.2h11.2l15.1,39.2c3.3,9,5.3,15.4,6.1,19.4h0.5c0.5-2.1,1.7-5.8,3.4-10.9
		c1.7-5.2,7.4-21,17-47.6h11.2l-29.5,78.3c-2.9,7.7-6.3,13.2-10.3,16.5c-3.9,3.2-8.7,4.9-14.4,4.9c-3.2,0-6.3-0.4-9.4-1.1v-8.3
		c2.3,0.5,4.9,0.8,7.7,0.8c7.2,0,12.3-4,15.3-12l3.8-9.8L900,180.2"/>
	<g id="Atom_x2F_Logos_x2F_Logo_x2F_Mark_x2F_Colored">
		
			<linearGradient id="Combined-Shape_1_" gradientUnits="userSpaceOnUse" x1="203.2993" y1="562.1" x2="204.2785" y2="561.0034" gradientTransform="matrix(299.596 0 0 -282.564 -60913.5859 158773.5469)">
			<stop  offset="0" style="stop-color:#6590FF"/>
			<stop  offset="0.5071" style="stop-color:#4DC9E2"/>
			<stop  offset="1" style="stop-color:#35FFC6"/>
		</linearGradient>
		<path id="Combined-Shape" class="st1" d="M113.5,120.2c4.9,0,8.9,4,8.9,8.9c0,4.9-4,8.9-8.9,8.9H98.7c-4.9,0-8.9,4-8.9,8.9v110.4
			l25.8-17.1c1.5-1,3.2-1.5,4.9-1.5h61.2c4.9,0,8.9-4,8.9-8.9v-42.9c0-4.9,4-8.9,8.9-8.9c4.9,0,8.9,4,8.9,8.9v42.9
			c0,14.7-12,26.7-26.7,26.7h-58.5l-37.3,24.8c-1.5,1-3.2,1.5-4.9,1.5c-1.4,0-2.9-0.4-4.2-1.1c-2.9-1.6-4.7-4.6-4.7-7.8v-127
			c0-14.7,12-26.7,26.7-26.7H113.5z M113,44.2c4.6,0,8.9,3.3,9.3,8c0.5,5.3-3.6,9.8-8.8,9.8H26.7c-4.9,0-8.9,4-8.9,8.9v110.4
			l17.2-11.4c4.5-3,10.7-1.3,13,3.7c1.9,4,0.5,8.7-3.1,11.2l-31,20.5c-1.5,1-3.2,1.5-4.9,1.5c-1.4,0-2.9-0.3-4.2-1.1
			c-2.9-1.5-4.7-4.6-4.7-7.8v-127c0-14.7,11.9-26.7,26.7-26.7H113z M272.9,0.2c14.7,0,26.7,12,26.7,26.7v145.7
			c0,3.3-1.8,6.3-4.7,7.8c-1.3,0.7-2.8,1.1-4.2,1.1c-1.7,0-3.4-0.5-4.9-1.5l-42.4-28.2h-68.7c-14.7,0-26.7-12-26.7-26.7V26.8
			c0-14.7,12-26.7,26.7-26.7H272.9z M272.9,18h-98.3c-4.9,0-8.9,4-8.9,8.9v98.3c0,4.9,4,8.9,8.9,8.9H246c1.7,0,3.5,0.5,4.9,1.5
			l30.9,20.5V26.8C281.8,21.9,277.8,18,272.9,18z"/>
	</g>
</g>
</svg>
