<svg width="21" height="19" viewBox="0 0 21 19" fill="none" xmlns="http://www.w3.org/2000/svg">
<path d="M3.72718 7C3.96829 7 4.19952 7.10536 4.37001 7.29289C4.5405 7.48043 4.63628 7.73478 4.63628 8C6.06459 7.99769 7.45171 8.52627 8.57264 9.5H10.5454C11.7572 9.5 12.8454 10.08 13.5945 11H16.4545C17.3138 10.9997 18.1556 11.2674 18.8822 11.772C19.6089 12.2767 20.1906 12.9975 20.5599 13.851C18.4099 16.972 14.929 19 10.9999 19C8.46355 19 6.31809 18.397 4.58173 17.342C4.51813 17.5351 4.40195 17.7018 4.24902 17.8196C4.09609 17.9374 3.91386 18.0003 3.72718 18H0.999911C0.758805 18 0.527574 17.8946 0.357087 17.7071C0.186599 17.5196 0.0908203 17.2652 0.0908203 17V8C0.0908203 7.73478 0.186599 7.48043 0.357087 7.29289C0.527574 7.10536 0.758805 7 0.999911 7H3.72718ZM4.63718 10L4.63628 15.022L4.67718 15.054C6.309 16.314 8.43446 17 10.9999 17C13.7308 17 16.2717 15.844 18.1226 13.87L18.2435 13.737L18.1345 13.637C17.7052 13.2672 17.1848 13.0477 16.6408 13.007L16.4545 13H14.5354C14.6008 13.322 14.6363 13.656 14.6363 14V15H6.45446V13L12.6272 12.999L12.5963 12.921C12.4221 12.5205 12.1541 12.1783 11.8198 11.9295C11.4856 11.6806 11.0972 11.5341 10.6945 11.505L10.5454 11.5H7.88173C7.45929 11.0247 6.9547 10.6472 6.39766 10.3896C5.84061 10.132 5.24236 9.99952 4.63809 10H4.63718ZM2.81809 9H1.909V16H2.81809V9ZM15.5454 3C16.2687 3 16.9624 3.31607 17.4738 3.87868C17.9853 4.44129 18.2726 5.20435 18.2726 6C18.2726 6.79565 17.9853 7.55871 17.4738 8.12132C16.9624 8.68393 16.2687 9 15.5454 9C14.822 9 14.1284 8.68393 13.6169 8.12132C13.1054 7.55871 12.8181 6.79565 12.8181 6C12.8181 5.20435 13.1054 4.44129 13.6169 3.87868C14.1284 3.31607 14.822 3 15.5454 3ZM15.5454 5C15.3043 5 15.073 5.10536 14.9025 5.29289C14.7321 5.48043 14.6363 5.73478 14.6363 6C14.6363 6.26522 14.7321 6.51957 14.9025 6.70711C15.073 6.89464 15.3043 7 15.5454 7C15.7865 7 16.0177 6.89464 16.1882 6.70711C16.3587 6.51957 16.4545 6.26522 16.4545 6C16.4545 5.73478 16.3587 5.48043 16.1882 5.29289C16.0177 5.10536 15.7865 5 15.5454 5ZM9.18173 0C9.90505 0 10.5987 0.316071 11.1102 0.87868C11.6217 1.44129 11.909 2.20435 11.909 3C11.909 3.79565 11.6217 4.55871 11.1102 5.12132C10.5987 5.68393 9.90505 6 9.18173 6C8.45841 6 7.76472 5.68393 7.25326 5.12132C6.74179 4.55871 6.45446 3.79565 6.45446 3C6.45446 2.20435 6.74179 1.44129 7.25326 0.87868C7.76472 0.316071 8.45841 0 9.18173 0ZM9.18173 2C8.94062 2 8.70939 2.10536 8.53891 2.29289C8.36842 2.48043 8.27264 2.73478 8.27264 3C8.27264 3.26522 8.36842 3.51957 8.53891 3.70711C8.70939 3.89464 8.94062 4 9.18173 4C9.42284 4 9.65407 3.89464 9.82455 3.70711C9.99504 3.51957 10.0908 3.26522 10.0908 3C10.0908 2.73478 9.99504 2.48043 9.82455 2.29289C9.65407 2.10536 9.42284 2 9.18173 2Z" fill="#3B5998"/>
</svg>
