<svg width="21" height="19" viewBox="0 0 21 19" fill="none" xmlns="http://www.w3.org/2000/svg">
<path d="M3.9091 7C4.15021 7 4.38144 7.10536 4.55192 7.29289C4.72241 7.48043 4.81819 7.73478 4.81819 8C6.2465 7.99769 7.63363 8.52627 8.75455 9.5H10.7273C11.9391 9.5 13.0273 10.08 13.7764 11H16.6364C17.4957 10.9997 18.3375 11.2674 19.0641 11.772C19.7908 12.2767 20.3725 12.9975 20.7418 13.851C18.5918 16.972 15.1109 19 11.1818 19C8.64546 19 6.50001 18.397 4.76365 17.342C4.70005 17.5351 4.58386 17.7018 4.43093 17.8196C4.278 17.9374 4.09577 18.0003 3.9091 18H1.18183C0.940721 18 0.70949 17.8946 0.539002 17.7071C0.368515 17.5196 0.272736 17.2652 0.272736 17V8C0.272736 7.73478 0.368515 7.48043 0.539002 7.29289C0.70949 7.10536 0.940721 7 1.18183 7H3.9091ZM4.8191 10L4.81819 15.022L4.8591 15.054C6.49092 16.314 8.61637 17 11.1818 17C13.9127 17 16.4536 15.844 18.3046 13.87L18.4255 13.737L18.3164 13.637C17.8871 13.2672 17.3667 13.0477 16.8227 13.007L16.6364 13H14.7173C14.7827 13.322 14.8182 13.656 14.8182 14V15H6.63637V13L12.8091 12.999L12.7782 12.921C12.604 12.5205 12.336 12.1783 12.0018 11.9295C11.6675 11.6806 11.2791 11.5341 10.8764 11.505L10.7273 11.5H8.06365C7.6412 11.0247 7.13662 10.6472 6.57957 10.3896C6.02253 10.132 5.42428 9.99952 4.82001 10H4.8191ZM3.00001 9H2.09092V16H3.00001V9ZM15.7273 3C16.4506 3 17.1443 3.31607 17.6558 3.87868C18.1672 4.44129 18.4546 5.20435 18.4546 6C18.4546 6.79565 18.1672 7.55871 17.6558 8.12132C17.1443 8.68393 16.4506 9 15.7273 9C15.004 9 14.3103 8.68393 13.7988 8.12132C13.2873 7.55871 13 6.79565 13 6C13 5.20435 13.2873 4.44129 13.7988 3.87868C14.3103 3.31607 15.004 3 15.7273 3ZM15.7273 5C15.4862 5 15.2549 5.10536 15.0845 5.29289C14.914 5.48043 14.8182 5.73478 14.8182 6C14.8182 6.26522 14.914 6.51957 15.0845 6.70711C15.2549 6.89464 15.4862 7 15.7273 7C15.9684 7 16.1996 6.89464 16.3701 6.70711C16.5406 6.51957 16.6364 6.26522 16.6364 6C16.6364 5.73478 16.5406 5.48043 16.3701 5.29289C16.1996 5.10536 15.9684 5 15.7273 5ZM9.36365 0C10.087 0 10.7807 0.316071 11.2921 0.87868C11.8036 1.44129 12.0909 2.20435 12.0909 3C12.0909 3.79565 11.8036 4.55871 11.2921 5.12132C10.7807 5.68393 10.087 6 9.36365 6C8.64033 6 7.94663 5.68393 7.43517 5.12132C6.92371 4.55871 6.63637 3.79565 6.63637 3C6.63637 2.20435 6.92371 1.44129 7.43517 0.87868C7.94663 0.316071 8.64033 0 9.36365 0ZM9.36365 2C9.12254 2 8.89131 2.10536 8.72082 2.29289C8.55033 2.48043 8.45455 2.73478 8.45455 3C8.45455 3.26522 8.55033 3.51957 8.72082 3.70711C8.89131 3.89464 9.12254 4 9.36365 4C9.60475 4 9.83598 3.89464 10.0065 3.70711C10.177 3.51957 10.2727 3.26522 10.2727 3C10.2727 2.73478 10.177 2.48043 10.0065 2.29289C9.83598 2.10536 9.60475 2 9.36365 2Z" fill="white"/>
</svg>
