<?xml version="1.0" encoding="utf-8"?>
<!-- Generator: Adobe Illustrator 24.3.0, SVG Export Plug-In . SVG Version: 6.00 Build 0)  -->
<svg version="1.1" id="Laag_1" xmlns="http://www.w3.org/2000/svg" xmlns:xlink="http://www.w3.org/1999/xlink" x="0px" y="0px"
	 viewBox="0 0 443 443" style="enable-background:new 0 0 443 443;" xml:space="preserve">
<path d="M157.2,135.9v87.9h32v-56c0-4.4,3.6-8,8-8h48c4.4,0,8,3.6,8,8v56h32v-87.9c0-4.4,3.6-8,8-8h8.5l-80.4-61.9l-80.4,61.9h8.5
	C153.6,127.9,157.2,131.5,157.2,135.9z" fill="#d2dbe0"/>
<path d="M205.2,175.9h32v48h-32V175.9z" fill="#d2dbe0"/>
<path d="M221.1,443C251.2,405.4,381,238.8,381,159.9C381,71.6,309.5,0,221.1,0C132.8,0,61.2,71.6,61.2,159.9
	C61.2,238.8,191.1,405.4,221.1,443z M112.3,129.6l103.9-79.9c2.9-2.2,6.9-2.2,9.8,0L330,129.6c2.7,2.1,3.8,5.7,2.7,8.9
	c-1.1,3.2-4.1,5.4-7.5,5.4h-24v87.9c0,4.4-3.6,8-8,8H149.2c-4.4,0-8-3.6-8-8v-87.9h-24c-3.4,0-6.5-2.2-7.6-5.4
	C108.5,135.2,109.6,131.7,112.3,129.6L112.3,129.6z" fill="#d2dbe0"/>
</svg>
