<svg xmlns="http://www.w3.org/2000/svg" width="16" height="16" viewBox="0 0 16 16">
  <path id="form_step2_check_icon_green" d="M1466.623,409.872a8,8,0,1,0,8,8,8,8,0,0,0-8-8Zm4.1,5.789-5.143,5.165h0a.692.692,0,0,1-.446.211.673.673,0,0,1-.45-.219l-2.153-2.154a.153.153,0,0,1,0-.217l0,0,.684-.685a.148.148,0,0,1,.21,0l.005,0,1.708,1.708,4.692-4.728a.153.153,0,0,1,.108-.048h0a.142.142,0,0,1,.108.048l.675.7a.152.152,0,0,1,.016.214l-.01.01Z" transform="translate(-1458.623 -409.872)" fill="#a2cf4d" style="mix-blend-mode: multiply;isolation: isolate"/>
</svg>
