<?xml version="1.0" encoding="utf-8"?>
<!-- Generator: Adobe Illustrator 24.3.0, SVG Export Plug-In . SVG Version: 6.00 Build 0)  -->
<svg version="1.1" id="Laag_1" xmlns="http://www.w3.org/2000/svg" xmlns:xlink="http://www.w3.org/1999/xlink" x="0px" y="0px"
	 viewBox="0 0 512 512" style="enable-background:new 0 0 512 512;" xml:space="preserve">
<path d="M90,186h30v40H90V186z" fill="#d2dbe0"/>
<path d="M0,96v320h512V96H0z M384.4,168.2c5.2,5,14,5,19.2,0l20.8,21.6c-8.4,8.1-19.4,12.1-30.4,12.1s-22-4.1-30.4-12.1
	c-5.2-5-14-5-19.2,0l-20.8-21.6C340.4,152,367.6,152,384.4,168.2z M150,256H60V156h90V256z M442,346H307v-30h135V346z M442,286H307
	v-30h135V286z" fill="#d2dbe0"/>
</svg>
