<svg width="23" height="16" viewBox="0 0 23 16" fill="none" xmlns="http://www.w3.org/2000/svg">
<rect width="22.4" height="16" rx="2" fill="white"/>
<mask id="mask0_1403_10384" style="mask-type:alpha" maskUnits="userSpaceOnUse" x="0" y="0" width="23" height="16">
<rect width="22.4" height="16" rx="2" fill="white"/>
</mask>
<g mask="url(#mask0_1403_10384)">
<rect width="22.4" height="16" fill="#0A17A7"/>
<path fill-rule="evenodd" clip-rule="evenodd" d="M-1.02581 -1.5332L8.53355 4.91467V-1.06672H13.8669V4.91461L23.4262 -1.53319L24.6191 0.235422L17.0612 5.33328H22.4002V10.6666H17.0612L24.6191 15.7645L23.4261 17.5331L13.8669 11.0853V17.0666H8.53355V11.0853L-1.0258 17.5331L-2.21874 15.7645L5.33919 10.6666H0.00021863V5.33328H5.33916L-2.21875 0.23541L-1.02581 -1.5332Z" fill="white"/>
<path d="M14.9346 5.06566L25.0669 -1.6001" stroke="#DB1F35" stroke-width="0.666667" stroke-linecap="round"/>
<path d="M16.0103 10.9578L25.0933 17.0801" stroke="#DB1F35" stroke-width="0.666667" stroke-linecap="round"/>
<path d="M6.40459 5.04824L-3.06982 -1.33691" stroke="#DB1F35" stroke-width="0.666667" stroke-linecap="round"/>
<path d="M7.43219 10.8837L-3.06982 17.8481" stroke="#DB1F35" stroke-width="0.666667" stroke-linecap="round"/>
<path fill-rule="evenodd" clip-rule="evenodd" d="M0 9.6H9.6V16H12.8V9.6H22.4V6.4H12.8V0H9.6V6.4H0V9.6Z" fill="#E6273E"/>
</g>
</svg>
