<svg width="21" height="21" viewBox="0 0 21 21" fill="none" xmlns="http://www.w3.org/2000/svg">
<path d="M20.3791 6.96168C20.3791 6.96168 20.3791 6.96168 20.3791 6.90902C19.6378 4.88315 18.2927 3.13406 16.5258 1.89836C14.7589 0.662668 12.6555 0 10.5 0C8.34454 0 6.24108 0.662668 4.47418 1.89836C2.70728 3.13406 1.3622 4.88315 0.620896 6.90902C0.620896 6.90902 0.620896 6.90902 0.620896 6.96168C-0.206965 9.24779 -0.206965 11.7522 0.620896 14.0383C0.620896 14.0383 0.620896 14.0383 0.620896 14.091C1.3622 16.1168 2.70728 17.8659 4.47418 19.1016C6.24108 20.3373 8.34454 21 10.5 21C12.6555 21 14.7589 20.3373 16.5258 19.1016C18.2927 17.8659 19.6378 16.1168 20.3791 14.091C20.3791 14.091 20.3791 14.091 20.3791 14.0383C21.207 11.7522 21.207 9.24779 20.3791 6.96168ZM2.3358 12.6061C1.97096 11.2258 1.97096 9.77421 2.3358 8.39386H4.29268C4.12438 9.7929 4.12438 11.2071 4.29268 12.6061H2.3358ZM3.19851 14.7123H4.67143C4.91838 15.6515 5.27135 16.5594 5.72352 17.4187C4.69174 16.7152 3.82923 15.7907 3.19851 14.7123ZM4.67143 6.28771H3.19851C3.82016 5.21262 4.67164 4.28842 5.69196 3.58132C5.25067 4.44193 4.9083 5.34987 4.67143 6.28771ZM9.42687 18.6087C8.13466 17.6595 7.22711 16.2763 6.8703 14.7123H9.42687V18.6087ZM9.42687 12.6061H6.4179C6.22157 11.2089 6.22157 9.79107 6.4179 8.39386H9.42687V12.6061ZM9.42687 6.28771H6.8703C7.22711 4.72366 8.13466 3.3405 9.42687 2.39135V6.28771ZM17.7594 6.28771H16.2865C16.0395 5.34854 15.6866 4.44056 15.2344 3.58132C16.2662 4.28484 17.1287 5.2093 17.7594 6.28771ZM11.531 2.39135C12.8233 3.3405 13.7308 4.72366 14.0876 6.28771H11.531V2.39135ZM11.531 18.6087V14.7123H14.0876C13.7308 16.2763 12.8233 17.6595 11.531 18.6087ZM14.54 12.6061H11.531V8.39386H14.54C14.7363 9.79107 14.7363 11.2089 14.54 12.6061ZM15.266 17.4187C15.7181 16.5594 16.0711 15.6515 16.318 14.7123H17.791C17.1602 15.7907 16.2977 16.7152 15.266 17.4187ZM18.6221 12.6061H16.6652C16.7508 11.9074 16.793 11.204 16.7915 10.5C16.7926 9.79602 16.7505 9.09264 16.6652 8.39386H18.6221C18.987 9.77421 18.987 11.2258 18.6221 12.6061Z" fill="#3B5998"/>
</svg>
