<svg width="23" height="16" viewBox="0 0 23 16" fill="none" xmlns="http://www.w3.org/2000/svg">
<rect x="0.25" y="0.25" width="21.9" height="15.5" rx="1.75" fill="white" stroke="#F5F5F5" stroke-width="0.5"/>
<mask id="mask0_1403_10336" style="mask-type:alpha" maskUnits="userSpaceOnUse" x="0" y="0" width="23" height="16">
<rect x="0.25" y="0.25" width="21.9" height="15.5" rx="1.75" fill="white" stroke="white" stroke-width="0.5"/>
</mask>
<g mask="url(#mask0_1403_10336)">
<path fill-rule="evenodd" clip-rule="evenodd" d="M4.26667 0H0V4.26667H4.26667V0ZM10.6667 0H6.4V4.26667H10.6667V0ZM10.6667 0H22.4001V2.13333H10.6667V0ZM22.4001 4.26667H10.6667V6.4H22.4001V4.26667ZM10.6667 8.53333H22.4001V10.6667H10.6667V8.53333ZM22.4 12.8H0V14.9333H22.4V12.8ZM6.4 6.4H10.6667V10.6667H6.4V6.4ZM4.26667 6.4H0V10.6667H4.26667V6.4Z" fill="#1C6DC1"/>
</g>
</svg>
