<svg xmlns="http://www.w3.org/2000/svg" xmlns:xlink="http://www.w3.org/1999/xlink" width="110" height="60" viewBox="0 0 110 60">
  <defs>
    <linearGradient id="linear-gradient" x1="0.5" x2="0.5" y2="1" gradientUnits="objectBoundingBox">
      <stop offset="0" stop-color="#b4dd66"/>
      <stop offset="1" stop-color="#a2ce4f"/>
    </linearGradient>
  </defs>
  <g id="green_label_mobile" transform="translate(-188 -70)">
    <path id="label" d="M0,0H110a0,0,0,0,1,0,0V56a4,4,0,0,1-4,4H4a4,4,0,0,1-4-4V0A0,0,0,0,1,0,0Z" transform="translate(188 70)" fill="url(#linear-gradient)"/>
    <g id="Group_470" data-name="Group 470" transform="translate(193.931 85.558)">
      <g id="Group_38" data-name="Group 38">
        <g id="Group_60" data-name="Group 60" transform="translate(0 0)">
          <g id="Group_55" data-name="Group 55">
            <g id="Group_52" data-name="Group 52">
              <g id="Group_51" data-name="Group 51">
                <path id="Path_22" data-name="Path 22" d="M-1287.725,1396.441a14.164,14.164,0,0,1-14.033,14.29,14.164,14.164,0,0,1-14.035-14.289,14.164,14.164,0,0,1,14.034-14.291,13.909,13.909,0,0,1,9.924,4.185A14.373,14.373,0,0,1-1287.725,1396.441Z" transform="translate(1315.794 -1382.152)" fill="#fff"/>
              </g>
            </g>
          </g>
        </g>
      </g>
      <path id="Icon_feather-check" data-name="Icon feather-check" d="M16.184,9l-2.97,3.024-4.031,4.1L6,12.889" transform="translate(2.943 1.725)" fill="none" stroke="#b4dd66" stroke-linecap="round" stroke-linejoin="round" stroke-width="3"/>
    </g>
  </g>
</svg>
