<svg xmlns="http://www.w3.org/2000/svg" width="484.395" height="571.923" viewBox="0 0 484.395 571.923">
  <g id="holland" transform="translate(-1207.087 -2765.837)">
    <g id="holland_illustration" data-name="holland illustration" transform="translate(1208.087 2766.837)">
      <path id="NL-DR" d="M3740.931,725.4l3.413,1.261,1.584-4.17.922-.284.292-2.656,2.12-6.472,2.664-2.908.387-2.01,3.965-2.16,1.1-1.056.071-.734,4.217-1.1,2.168-.252,4.257,1.521.788,2.034.473.015,1.845,3.224.9,2.508,1.884-.639.93,3.232h1.041l2.791,2.452.835,2.3,1.372,1.679.032,1.427,7.291-2.924,5.18.276.985.662,23.474,25.169,10.019,14.669,1.206,1.049,2.633.7-3.54,8.6,2.963.316.387,1.458.465-.04,1.845,2.7.812.82.985-.1-.427,2.144,2.507-.126h0l-2.609,5.912-2.089,34.29-1.734,2.049-3.705-.922-.961-.922-1.514.1-2.128-1.088-2.673,1.64-2.1.2-2.324-.694-.355-1.253-2.31-.8-1.971.2-.89-.741-1.333.82-1.418.142-1.852-.694-1.79.9-4.643-1.025-1.647.575-.41.654-1.135-.409-2.049.615-3.839,3.981h0l-1.435-.087,1.2-4.525-11.847-5.092-7.961,1.79-4.754,3.65.741,7.709-1.75-1.64-3.539-.252-1.191-1.333-.883,1.948-2.1.291-1.166-1.009-.434-1.593-1.546,1.947-1.126-.575-.395.717-1.189-.039-1.435,1.127-1.057-1.23-.315-2.136-1.4-3.011-4.6-3.327.3-1.332-.425-.733-3.248.835-.868.718-1.127-1.246-1.348.693-1.056-.985-.891-.063-1.4-1.663-2.121-.568-1.253-1.174-1.664.394-.669.923-1.9-.537-.962.394-2.365-2.813-4.571-11.793.835-1.175,5.289-1.908.149-.993,4.067-4.5-8.489-9.719-1.852-2.861h0l10.491-7.426,3.318-4.619,3.066-2.948,5.912.433,3.917,4.02,7.387-5.281,4.351-8.237-8.159-12.675.544-7.039-7.441-2.815Z" transform="translate(-3372.141 -628.011)" fill="#f7faff" stroke="#c1d9ff" stroke-linecap="round" stroke-linejoin="round" stroke-width="2"/>
      <path id="NL-FL" d="M2688.427,1401.708l-.535-.591,2.183-5.77,3.035-1.963.237-.883-1.435-4.422-6.921-11.146h0l.283-.2h0l6.977,11.146,1.474,4.769-.315,1-3.082,1.923-1.656,4.028Zm35.5-63.463,1.246.244.985.97.851-.347-.773-2.325,2.5.765,4.517,4.572.773,2.987.465-.268h0l2.822,3.846h2.286l2.83.985,8.056,6.582,2.593,7.339.875.449,1.625,2.956-.3,1.253-2.271,1.7-1.41,1.6.046.7,4.58,1.254,1.987,1.742,2.034.552,1.8,1.986-.624,1.064-2.805,1.868-4.131.9-3.058,2.073-1.845.229-1.624-1.065-7.346,1.616-.985.82-7.394-.024-.048,5.407,4.092.166,5.313,5.667,1.371,6.795h0l-2.735,9.459-1.458.126-1.742,3.326.67,1.269-1.632,2.8-2.428,2.389-6.188,5.021-1.064-.386.135.67-1.837,1.671-2.42,1.569-2.333.323-3.4,2.917-1.049-.773-3.941,2.16-1-.773-2.12.694-1.458,2.261-5.423,15.695-15.7,4.674h0l-8.758-8.34h0l-3-2.972-3.666-2.42-7.67-1.931-8.671,1.482-1.758-1.632h0l.812-1.324-1.671-1.1.52-.977-.212-3.949-1.285-2.443.023-1.206,4.265-2.57.638-1.467,5.66-3.342,2.042-.346,1.151-1.608,18.634-12.9,2.034-.63,4.824-4.336.237-.78-.473-1.656-.773.166.11-1.088.583.181,1.308-1.025,1.924-3.642,4.32-.45,4.225-4.036-.379-.757.434-.433.41.678,3.531-3.626,8.348-2.42,2.767-2.279-3.941-6.353-2.231-1.64.41-.346-.583-.757-.789.142.213-21.055,8.333-13.558Z" transform="translate(-2430.595 -1187.892)" fill="#f7faff" stroke="#c1d9ff" stroke-linecap="round" stroke-linejoin="round" stroke-width="2"/>
      <path id="NL-FR" d="M2443.538,241.284l2.01,1.325,1.087,2.8-2.4-.165-1.088-1.923-.276-1.845Zm-4.383.126.047.867-4.524.993-10.24,9.026-.063.536-1.309.622,1.112-.023-1.246.166-4.43,3.847h0l-.511-.685h0l4.343-3.807-.071-.457.575-.308-.386.662,11.658-10.287,3.768-1.309Zm-32.705-48.478,3.3.622.323,1.041-.962.9-.56-.252.236.433-1.5-.253-1.861.521-2.5,2.042-8.907,3.681.583,2.452-1.159.686.04,2.018-3.043,1.246-1.695,1.829-3.508.418-2.286,1.245-1.033-.291-.6-1.766,7.063-4.47,5.613-5.6,7.331-5Zm8.774,3.626-1.585,1.521-1.545-.039.725-.773-.859-.749,3.185-3.248,1.175-.316.284,1.372Zm130.89-25.012-2.908,4.241.733,4.525,1.325,1.419,4.65,1.419,1.357,2.688,2.332-1.127,4.352,1.5-.662,5.769,1.545.963-1.822,1.245-.969,2.665-1.159-.15-.922.544.134,4.351-.646.316-.56-.394-1.009,2.16-.757.292.363.52-.639.773.126,1.6-2.16.354,2.1,3.847-.165.93-1.175,2.2-1.261,1.372-1.119.331-.174,1.1-2.617,4.4-.552,7.425,3.808,4.17,4.107.623,3.445-.142,1.821.977,1.648,2.049,2.994,1.2h0l-1.009,2.775,7.433,2.814-.536,7.039L2575.73,263l-4.351,8.237-7.386,5.282-3.917-4.02-5.912-.433-3.067,2.948-3.319,4.619-10.491,7.418h0l-4.817,3.169-2.183-.079-1.411.576.165,2.514-2.94,1.585-.559-1.135-3.256.883-1.647-.78-1.7-4.241-2.23.741-.016,1.088-1.159-.473-1.9.41-.56.678.015,1.608-3.319,3.13-2.609,1.238-4.627-1.238-.789.449-.276-.843-1.711-1.174-2.979,2.081h0l-.465.268-.772-2.987-4.517-4.572-2.5-.764.772,2.325-.851.347-.985-.97-1.246-.244h0l.087-.883-1.151.45-.552-1.175-3.145-.166.087-.78-.725,1.34-1.325-.229-.575-.662.237-1.647-1.4-1.033-3.334,1.939-1.742-.244-2.23.513-.836,2.183-3.271,1.238-11.713-4.494-4.281,1.3-3.428-1.735-3.515-3.232-1.971-2.87,2.2-2.68,3.571-1.671.686-.97.126-2.1-.662-3.263-.686-.828,1.411-.678-.472-.331.851.023.339-1.545-.434-1.1-.6.024.922-.229.126-.954-1.356-4.257-.449-3.492,1.087-1.837.04-2.129-1.1-.307-.2-1.135.575-.228.087-.867.339.244-.166-3.105-.434,3-.472.331-.859-1.986-1.222-1.348-.2-1.222.962-.165.646.559v-.536l.528-.039.386.623.575-.079-1.395-2.712-.237-2.467-1.348-2.57-4.674,3.855-.725-1.2,1.632-.583,3.484-3.374.4-2.712,2.018-1.222,1.064-1.387,1.443-8.939-.04-.875-.836-.828,1.5-1.387,2.049-6.275,1.269-2.033,4.327-4.446,5.628-3.516,3.484-3.578.757-2.121,3.469-3.5,3.515-1.813,9.356-2.94,9.144-5.542,12.761-5.88,2.61-1.506-1.261-2.128.346.481.276-.292.773,1.8,3.595-.023,6.787-2.341.338.354,1.861-.331,3.318-1.065,6.59-.859,2.01.544.221-.544.252.544.528-.812,5.478,1.151,4.951-2.341.836-.063Zm-82.972-7.441-1.584.378,4.044-.15-.086,2-2.507,1.277-1.631-.1-3.642,2.254-1.821-.772.229,1.773-2.893-1.151,1.6,1.522,1.932.733-.946.126-.386.749-7.969.2-1.948.5-4.824,3.839-2.593,1.19-1.474-.543-.3.583-1.458.386-.473,1-4.611-.457-1.947,1.71-.584-.441-2.057.252-.52.71.071,1.5-1.418-.315-2.72,2.609-1.474-.354-2.1-1.522-.347-2.585,2.68-2.625,1.719-3.067.22.607.52-1.75,15.671-3.066.986.213,12.139-3.95,10.554-4.3,2.459-.457,2.136.418-.26.749Zm66.775-2.649.212,1.671-.316-.544-1.711,1.466-.686-.331-.26-1.167.725-1.064Zm-42.213-.047,15.1-1.23,15.269.04,1.371.67-.71.749-1.261.268-6.66-.165-2.334,1.293-10.515,2.885-3.658-.024-.323,1-.016-1.34-6.045-.646-2.61,2.61-4.5,1.214-.386.985-4.288-2.23-2.041-2.838.5-3.886,1.884-1.647,8.229,2.073Zm53.312-10.287,1.119.213,1.222,1.151,3.555.378,14.205-1.734,4.555-.189.229.355-2.184,1.545-6.834,2.365-.835,1.048-3.122,1.466-6.165.9.583.985-.883-.875h-3.334l-.252.836-.126-.8-.852.165-.56.694.324.441-1.4.126.45,1.592-2.53-.213-1.3,1.253-.536-.379.521-2.633,1.308-3.177,1.12-1.632,3.058-2.428-4.879-1.38-.922,2.341-.812-.126.087-.757.859-1.986Z" transform="translate(-2192.885 -140.315)" fill="#f7faff" stroke="#c1d9ff" stroke-linecap="round" stroke-linejoin="round" stroke-width="2"/>
      <path id="NL-GE" d="M2622.473,1901.492l1.7-.631,1.938,1.718,2.531,3.555,1.695,4.028.946-.433.489.449,2.317-1.364,1.08,1.553,5.431-5.62,1.347-.473.875-1.04,3.658,2.372,1.435,2.9,2.878,1.655,1.064,1.285.362,5.147,3.319,4.1.781,2.8-1.553,6.274-2.609,1.245-2.476.473-.5.686.2,1.206,1.845,1.222-2.262,1.49-.008,4.052-.717,2.459,1.238.166.5,3.153,2.137.283.26.472,1,2.05.1,1.971,2.239,3.626-.718,1.829,2.12.828,1.546-.142-.151,1.12-1.135,1.238.34,1.3,1.908.875.566,1.482.253-.607-.686-1.2.489.205.126-.915.568.608.465-1.995,3.256.024,1.821,1.363,3.981.829,2.854.2.063-.591.819.283,1.735-.788.953,1.1,2.579.023,2.1-.331.071-1.726,1.576-1.175,3.744-.733,4.352.489-.04,1.017,1.387,2.7,2.515,2.633,1.024,2.074,1.814.567.74,2.665,2.034,1.536,2.807-.709,4.958.812,4.572-1.119,1.986,1.75-.315,1.158,1.049.97,2.089-1.868,1.268,1.056.615-1.073.52.04,2.57,1.356.575.993-.426,1.08.323,3.161-1.324,2.128,6.692,2.349,5.62-.039h0l-.535,4.194-.433.686-.426-.4-.725.685.725,1.664-1.545,1.924-5.305.89.206,1.136-1.261,2.609.173,2.586h3.405l4.848,2.324,1.623,1.908,5.092,3.815.237,1.009,2.254.347.449,5.194-.363.64-1.655.063-1.923,1.048-.323,4.3-3,4.075-2.285.946-.277.97-1.844.646-.6,1.1-1.175.568-2.065-1.632-1.49-2.262-1.83-.2-4.966,2.356-.8.828-1.064-.182-5.77,1.932-2.42,1.915-.915-.725-.946.386-4.753,3.2-.915,1.68-3.6,1.308-2.483-2.4-2.207,1.317-.623-1.451-4.366-1.7-.576,2.294,2.9,2.1-.954,1.333.552,1.932-.536.015.409,1.4-.512.458-2.1-1.387-2.727-.417-.3-1.735-.9-.8-6.022-.268-.812-3.681-2.4-1.151-.945-.142-2.1,1.254-5.455-.087-3.287-2.7-.087-.8.954-.182-.268-.788-2.673-2.034-.165.379-1.481-.93-2.845.489-.844.647-.922-.725-1.671,1.915,1.931.039,2.191,1.348.765,3.027,2.427,1.955.228,3.981-4.54-1.363-3.752-.284-4.406-3.146-.686,1.269-.812.347.174,1.1-2.531,1.8-.409-.425-1.474.543-.638,1.269-1.466.742-1.813.2-3.153-1.167-2.019,2.5,1.656,1.285-.4.521-.993-.237-.149.662,2.12,1.143,1.743,1.813-.584,1.79.4.827,1.853.442-.819.827-.135,1.064.86.985-.063.583-4.234,2.957-.268,1.34h0l-2.309.622-1.064-1.363-1.42-.441-.409-2.255-2.357-3.012-3.373.2.63,2.94-.7.741h0l-1.869-.339-8.648,1.4-2.679-.2-1.758-1.127-1.8-2.712-2.956-.725-2.436-3.019-2.333-.4-1.332-.843-2.42-4.367-2.2-.142-4.383-2.033-3.721.465-1.482,2.01-.8.244-2.594-.646-1.916-1.907-1.237-.4-1.214.521-1.167,2.775-2.246.867-2.546-.039-1.246-.52-1.545-1.892-1.025.016-4.651,7.024-1.371,6.053-7.079,4-3.642-.686-2.64,1.372-3.815-1.97-2.932.638-4.091-.535-4.407,1.119-.047-1.467,1.994-2.025-.812-1.024.339-2.452-2.846-1.388-1.883-1.631-1.482.2-1.214,1.292-1.332-.063-2.546-3.657-3.342-1.53-2.365-3h0l1.869.039.811-3.925-2.68-.363-.748-1.246.268-1.112-.457-1.466.323-.339,1.419,1.246,3.161-.079,1.206.481,2.286-1.467-.859-.528-.118-1.372,3.405-1.009,1.316-2.5,2.893.346.513-2.262,1.726-3.2.591.276-.078-1.269,5.463-9.767h0l1.711,1.112,2.27.182,2.522-3.572.946-.244,3.831,2.845,3.6.686,1.931,1.292,1.064.063,1.521-.772,2.222-2.278,4.06.142,3.918-1.5,2.459-1.836,3.405.671,2.916-.063,2.522,1.781,4.028,1.49,1.8,2.145,4.2,1.246,2.112,1.418,1.253-1.112.718.4-.055-1.032.74-.182-.559-3.066.457-1.356-1.261-1.49-.812-2.491-1.782-1.087-.835-2.184-1.907-1.435.685-.016.166-3.539-2.373-.891.165-1.395-.953-.41.977-5.943-.2-1.584-.757-.5-.1-1.458-.474-.323.024-1.726-1.048.567-.323-.379-1.112.284,1.048,2.711-.086.4-1.009-.3-.4.709.828.34-1.2,1.276-2.145-.142-.323,1.1-2.522.386-2.956-2.05,1.348-1.719,1.8-1.135-.165-2.1,1.151-1.442-.875-.568,2.578.269-.5-1.262-1.183-.906.458-1.08,1.364-.2.607-1.175-1.679-.835.15-1.482-2.294-.481.173-1.363-1.151-1.2-6.748-1.356-.513-2.357,1.987-.568.284-2.759-5.1-4.162,1.435-6.172h0l15.7-4.674,5.432-15.695,1.458-2.262,2.121-.694.993.78,3.942-2.16,1.048.772,3.406-2.917,2.333-.323,2.42-1.569,1.837-1.671-.142-.678,1.064.386,6.188-5.013,2.428-2.388,1.64-2.8-.678-1.269,1.75-3.326,1.459-.118Z" transform="translate(-2310.131 -1686.082)" fill="#f7faff" stroke="#c1d9ff" stroke-linecap="round" stroke-linejoin="round" stroke-width="2"/>
      <path id="NL-GR" d="M3844.715,83.566l1.095.268,2.011-1.632,2.167.875.26.733-.316,1.024-2.167-.442-.086.394,1.946.481-.134.568-1.135.149,3.429.544.086-.418-1.213-.418.528-2,2.443.773,2.759,2.633-1.048,3.76-.134,2.924,1.806,2.61-.339.543.615.559-.166,2.192,1.371,6.235,4.47,3.232-.733,1.459,7.986,3,1.75,1.309,4.777,1.332,3.689-.087.52-.749,2.224-.788.023.544-1.837,1.687-.039,3.334-1,2.767.939,2.018,1.931,1.308,4.313.316,1.269.937,1.474.394.86-.331,1.157.875,4.266,1.308.434-1.6,1.056,9.168-1.175,2.057,2.333,2.16-2.98.914-1.694,3.7-.048,1.994-1.221,1.742.5,3.461,2.247,1.656-.26,6.9,1.624,13.684.638,1.632-1.008,1.261-3.279,12.028-9.57,15.868-2.072,2.656-.276.6.623,2.326h0l-2.506.126.425-2.144-.984.1-.813-.828-1.844-2.7-.465.039-.387-1.466-2.972-.308,3.54-8.6-2.633-.7-1.214-1.048-10.019-14.662-23.475-25.177-.985-.662-5.179-.268-7.3,2.925-.023-1.427-1.372-1.679-.836-2.3-2.791-2.444h-1.032l-.938-3.24-1.883.647-.9-2.515-1.845-3.216-.472-.023-.789-2.034-4.256-1.513-2.168.252-4.217,1.1-.071.725-1.1,1.057-3.964,2.16-.386,2.01-2.673,2.908-2.12,6.472-.283,2.657-.923.291-1.584,4.162-3.42-1.261h0l-3-1.2-1.647-2.049-1.821-.978-3.445.142-4.107-.623-3.808-4.17.552-7.425,2.617-4.4.173-1.1,1.119-.331,1.261-1.372,1.174-2.2.174-.938-2.1-3.847,2.16-.355-.125-1.6.638-.773-.363-.52.757-.292,1.009-2.16.56.394.646-.316-.134-4.351.922-.544,1.159.15.969-2.665,1.821-1.245-1.544-.963.662-5.77-4.352-1.5-2.333,1.127-1.356-2.688-4.65-1.419-1.325-1.419-.732-4.525,2.909-4.241h0l1.1-.315.04.8.5.024,5.951-1.482,5.14,2.609,1.86,1.987,3.232-2.4,7.322-3.09,20.747-2.648,17.264-6.33,6.976-.694Zm-47.824-13.211.583.1-.063.52L3794.2,70.5l.922-.418Zm22.269-1.214.875.15-.52.985-2.011-1.065.947-.441Zm3.7-3.563-.087.418-1.757-.228.621,1.53-2.553-1.214-2.018.189-.3-.394.789-1.214.8-.229,2.7.292Zm-15.355-.5,2.018.457,2.1,2.073-2.53-.378-.8-.773-.259,1.632-1.861-.2-.67.457.386,1-.616.418-1.1-.316-.56-.457-.276-1.655-1.986-1.821.615-3.515.473.063.536,1.821Z" transform="translate(-3416.781 -61.992)" fill="#f7faff" stroke="#c1d9ff" stroke-linecap="round" stroke-linejoin="round" stroke-width="2"/>
      <path id="NL-NH" d="M2079.99,835.515l6.794,3.019,5.589,5.912h0l-.284.2h0l-5.525-5.849-6.487-2.83h-2.192Zm-74.4-57.236-6.5.8-1.332.725.638.638-.433.434-1.1-.079-.685-1.056.709-1.325,3.255-1.923,2.656.37,2.7.97ZM2049.263,785l-1.687,1.363-.3,1.963,1.159-.2,8.158,15.962-1.2,14.409.962.063.528.922.686,2.862,3.492,3.555.922.307,1.4.024,1.111-.741,1.987-2.917,3.516.205,2.672,1.395,2.791-.551.339.394-1.222.434,1.7-.1,1.458.969.536,5.629,2.444,1.5-.946-.078-.174,1.088-2.317,1.317.4,1.024-4.564,1.167-1.3,5.762-.623.922-2.909,1.624-1.182,1.7-3.09.8-1.837,1.947-3.981.693-.922-2.625-1.695.126-2.073-2.192-1.735.513-.923.946-.165-.536-1.072.165.087.757-.852-1.537-.733.024-.915.985-2.167.985-.347.8.638,5.675-.338.8,1.521,4.241-.2,1.308,1.506,1.411,1.506,3.358-.087,1.206,1.971,4.067.551.024-.134.8.851.694.52,1.734-1.844,2.782-.875-.063-.37.489.063,2.144.914,1.065-.079.875-2.144-.1-1.506.757-.552-.323,1.033,1.632.622-.836.852.205-.639,1.309.016,2.9,3.768.717,1.3-.323.236-2.57,1.151-1.514-1-6.085,1.435,4.147,1.072,1.309,2.956.221-2.956,1.269-.859.9h-.922l-.371,2.53-.843,1.309-.552.268-.063-.717-.906.82-1.183,3.429-1.631-.079-.962,1.411-1.734,1.159-.962,2.688-1.687.9.339.528-.5,1.466-1.434-1-2.23.938-2.082-1.877-.56.654.371.977,2.01,1.041-.962,1.1-.371-.836-.67.568,2.593,1.671,1.908,2.3,1.844.371,1.718-.812.883.859-.773,1.08.347.757.583-.063-.127-.552,1.119.426,3.169-.165,1.009-.733,1.8.268,2.357,1.773,3.271.835h0l1.758,1.632,8.671-1.482,7.67,1.931,3.666,2.419,3,2.972h0l-3.729,2.664-3.642-.654-1.182,1.08-.733-.323-1.994,4.107-2.735,2.436-.386,6.259-3.445,6.881-8.529-.465-.22-.891,2.309-1.545.662-1.175-1.569-3.129-1.5-.835-.386.748-5.352.143-4.13-1.687-.5-1.726,2.61-1.175-1.719-1.687-.449-2.255-1.072.449-1.182-3.7,3.192-.954.134-.9,1.009-.528.946.733-.6-1.569-1.324.1-.969,1.158-1.183-.993-.56.166-1.687,2.112h-.552l-1.072-2.523-.772-.323-1.931.142-2.074,2.072-3.507-.733-.946.411.166,1.765-1.837,1.34-.922,1.766-5.337.1-4.367,4.146-2.349,1.08h-1.947l-1.3-.284-1.221.529-.725,1.056-3.752,2.089-.97,1.223-.725-.552-.189-4.406-2.436-.386-2.1,1.443-2.845.221-4.044,2.356-2.554.182-3.626-.954-1.324.449-1.837-.426-.852-.693-.126-1.033,1.1-1.664.985-5.163-.229-1.608,2.467-2.5,3-6.653-3.389-1.284-1.687.465-.788,1.466-8.466-3.823h0l8.332-21.646.669-4.753.639-.875-.473-1.348,2.42-6.133,3.192-17.8,3.666-30.814,1.119-5.281,1.8-3.973,2.1-7.142,2.893-11.556.646-2.987.552-11.146,1.324-3.531,1.119-1.034,5.5-.5-.1.457.788-.039-.623.52.938,1.442.914-.245.434-1.009-.764-.678,1.214-.244.316,1.608-1.561,4.32,2.05,4.374,8.505,5.156,4.052-1.072,3.917-1.979,1.907-2.412.536-1.837,1.183-1.056,4.28-1.237,1.451.41,1.947-.639,1.049.741,15.695-13.905h0l.513.686h0ZM2027.5,739.914l1.009.206,2.4,4.107-.638,1.325-.252-.686-.1,9.822-.489,1.489-3.035,2.673-.11,2.136-1.333,2.4-1.324.686-1.009,1.49-3.058.741-3.358,4.367.56.7-.363.52-5.092-1.616-.323.268.473.788,1.451.575,1.135,1.222-1.2-.371-1.348.788.339.457-2.286.245-1.269.867-2.12-3.161-.433-2.255.2-3.846,1.434-6.227,3.571-7.37L2020,737.952l3.208-3.405,1.151-.434.788.331,1.955,3.09Z" transform="translate(-1837.693 -655.61)" fill="#f7faff" stroke="#c1d9ff" stroke-linecap="round" stroke-linejoin="round" stroke-width="2"/>
      <path id="NL-OV" d="M3392.743,1318.431l1.852,2.861,8.49,9.719-4.068,4.5-.149.994-5.29,1.908-.835,1.175,4.571,11.793,2.365,2.813.962-.394,1.9.537.67-.923,1.664-.394,1.253,1.174,2.121.568,1.4,1.663.89.063,1.056.985,1.348-.693,1.127,1.245.868-.717,3.248-.835.426.733-.3,1.332,4.6,3.326,1.4,3.011.316,2.136,1.055,1.23,1.435-1.127,1.19.039.395-.717,1.127.575,1.546-1.947.433,1.592,1.167,1.009,2.1-.291.883-1.948,1.191,1.333,3.539.252,1.749,1.64-.74-7.709,4.753-3.649,7.962-1.79,11.848,5.092-1.2,4.525,1.434.087h0l1.734,2.317-.851,5.486,5.912,5.219-2.42.678-2.743-.615-1.318,2.932-4.343-.882,3.106,6.487-.883,7.047,7.843,5.084,2.058.615,9.538-.016-.008,1.916,1.285-.268,9.744,3.168,2.6-2.025,1.837-3.878,1.387-.977,1.719,3.775,1.025,4.265,1.4,1.269,1.757,4.445,2.863.323,1.867,5.321-.086,4.343-2.1,2.933-1.112,2.7-.212,1.994-2.4,5.029.19,3.335,1.994,3.7,2.5,2.791-.552,1.277-2.7,1.75-2.46.441-1.884-.748-2.271.551-.692.954-.49,2.822-3.058,5.217-5.416,1.049-.355,1.34-2.8,2.6-1.182,5.29-2.1,2.025-11.84.465h0l-5.62.039-6.692-2.349,1.324-2.128-.323-3.161.425-1.08-.575-.993-2.571-1.356-.52-.04-.615,1.072-1.269-1.056-2.089,1.868-1.049-.97.316-1.158-1.987-1.75-4.572,1.119-4.958-.812-2.806.709-2.034-1.536-.741-2.665-1.814-.567-1.024-2.074-2.515-2.633-1.387-2.7.04-1.017-4.352-.489-3.744.733-1.577,1.174-.07,1.726-2.1.331-2.578-.023-.953-1.1-1.735.788-.819-.283-.063.591-2.854-.2-3.98-.828-1.821-1.363-3.255-.024-.466,1.995-.567-.608-.126.915-.488-.2.685,1.2-.253.608-.567-1.482-1.907-.875-.34-1.3,1.136-1.238.149-1.119-1.545.142-2.12-.828.718-1.828-2.239-3.627-.1-1.971-1-2.05-.26-.473-2.137-.283-.5-3.153-1.238-.166.718-2.459.008-4.052,2.262-1.489-1.844-1.222-.2-1.206.5-.686,2.476-.473,2.609-1.245,1.553-6.274-.781-2.8-3.319-4.1-.363-5.147-1.064-1.285-2.877-1.655-1.435-2.9-3.657-2.372-.875,1.04-1.347.473-5.432,5.62-1.08-1.553-2.317,1.364-.49-.449-.946.433-1.7-4.028-2.531-3.555-1.938-1.718-1.695.631h0l-1.372-6.787-5.313-5.675-4.09-.158.047-5.407,7.4.016.985-.82,7.346-1.616,1.624,1.064,1.844-.229,3.05-2.065,4.131-.907,2.806-1.86.623-1.072-1.8-1.987-2.027-.551-1.985-1.742-4.581-1.254-.047-.7,1.412-1.6,2.27-1.7.3-1.253-1.623-2.956-.876-.449-2.593-7.339-8.056-6.582-2.83-.985h-2.286l-2.822-3.846h0l2.988-2.081,1.7,1.175.276.844.788-.45,4.627,1.23,2.61-1.23,3.318-3.129-.016-1.608.56-.678,1.9-.409,1.159.472.016-1.1,2.231-.741,1.694,4.241,1.647.788,3.257-.891.559,1.135,2.94-1.584-.157-2.515,1.411-.576,2.184.079Z" transform="translate(-3048.357 -1171.68)" fill="#f7faff" stroke="#c1d9ff" stroke-linecap="round" stroke-linejoin="round" stroke-width="2"/>
      <path id="NL-UT" d="M2295.089,2318.566h1.947l2.341-1.079,4.367-4.146,5.337-.1.922-1.766,1.836-1.339-.165-1.774.954-.4,3.5.725,2.073-2.074,1.931-.141.773.331,1.072,2.515h.552l1.687-2.113.56-.157,1.182.993.977-1.159,1.317-.1.6,1.568-.947-.733-1.009.528-.141.891-3.193.962,1.19,3.7,1.072-.45.449,2.255,1.719,1.686-2.61,1.182.505,1.727,4.122,1.686,5.352-.141.387-.757,1.5.835,1.576,3.13-.662,1.174-2.31,1.545.221.892,8.537.465,3.445-6.882.386-6.258,2.727-2.436,1.995-4.107.741.323,1.182-1.072,3.641.646,3.729-2.664h0l8.757,8.34h0l-1.435,6.172,5.1,4.161-.283,2.759-1.987.568.512,2.357,6.748,1.356,1.151,1.2-.173,1.364,2.294.48-.15,1.482,1.679.835-.607,1.174-1.364.2-.457,1.081,1.182.906.5,1.262-2.577-.269.874.569-1.151,1.442.166,2.1-1.8,1.135-1.348,1.719,2.956,2.049,2.522-.385.323-1.1,2.145.141,1.2-1.276-.828-.339.4-.709,1.009.3.086-.4-1.049-2.711,1.112-.284.323.379,1.048-.567-.023,1.726.473.323.1,1.458.757.5.2,1.584-.977,5.943.954.41-.165,1.395,2.373.891-.165,3.539-.686.016,1.908,1.434.835,2.184,1.781,1.087.812,2.491,1.262,1.49-.458,1.356.56,3.066-.742.181.056,1.032-.718-.4-1.253,1.112-2.112-1.419-4.2-1.246-1.8-2.144-4.028-1.49-2.523-1.781-2.916.063-3.406-.67-2.459,1.836-3.918,1.5-4.059-.142-2.222,2.278-1.522.772-1.064-.063-1.931-1.293-3.6-.686-3.831-2.845-.946.244-2.523,3.571-2.27-.182-1.71-1.111h0l-3.925-1.434-1.222-4-2.869-1.419-2.373-.379-3.7,1.554-3.452,3.271-.97,1.86-1.26.142-1.924-1.514-1.442-.086-3.469,3.461-3.532-.812-2.633,4.075-4.887,1.174-1.017-3.98-3.586-4.06-1.608-3.145-.953-.323-1.1-1.474,5-1.238-.907-2.223-5.029,1.033-.347-1.136v-.725l1.1-.789-.214-1.521,2.507-3.168,2.057-1.561,2.61-.954.63-1.293-5.108.347.047-1.08-.922-1.837-.142-4.918-4.265-3.067.2-.828,1.53-.686.962-2.657,1-.425,1.892-.607.291,1.19.694.552,3.334.181.623-.488-.465-3.186,2.593-1.276-4.177-2.9-1.884-.67-3.816-4.564-.843.039-.182-3.066-.883-1.459Z" transform="translate(-2115.995 -2044.314)" fill="#f7faff" stroke="#c1d9ff" stroke-linecap="round" stroke-linejoin="round" stroke-width="2"/>
      <path id="NL-LI" d="M3160.317,3199.849l.7-.742-.631-2.941,3.374-.2,2.357,3.012.409,2.255,1.419.441,1.064,1.363,2.31-.622h0l.221,1.126,4.753.118,4.067,2.176,1.119,1.687,1.127.4-.166.9h-1.27l-.772.961.8,2.53-.56,1.427.513,2.791,5.809,2.648.75-.26.283.56,3.659.638-1.412,4.9-.945,2.262-.474-.22-.338,3.168,3.744,2.926.78,1.5,3.375,3.263,2.94,5.849,2.672,2.1,1.781,3.121-.023,4.17,1.269,3.9-.543,5.006-.655.282-.047,3.611-.937,5.486,2.475-.117-1.475,2.75,1.475,5.084-4.43,4.083.307,1.175-3.019.655-1.805,4.919-3.106,4.3-.788,2.31-4.737,5.226-1.656,1.017,1.766,3.768-2.247.819.788,7.268,1.112,2.16,2.121.315,2.845-2.222,5.336-2.578,2.074,1.608-5.282,2.617,4.39,3-1.529,1.056-.062.827-4.265.639-2.672,1.742-1.9.338-.693,2.121-.646-.378-.961,1.427-1.947.811-.166,1.01-1.545,1.789-1.442,1.1-1.387.418-.552-.339-.75.559-1.97,1.884-.749,1.5-1.159.417.206.638-1.349,1.64-.252,3.208-1.395.646.235,1.112-2.782.118-2.885-6.172-2.774,2.571-3.3.456.221,1.23,1.49,1.821-.7,1.38.8,2.017,2.057,1.545-.032,1.167,1.158.512-.172,2.806-1.285,1.428.583,1.143.9.054,3.626-2.089,2.458-.552,1.672,1.759,1.812-.773,5.408-.182-1.246,4.036-1.238,1.221,1.435.891.362,3.633,3.3,1.182.67-.236.544.512-.142.969,2.546-.181,1.774,1.1.732-.8-1.608,2.4-.852,3.232,1.734,3.886-1.5,2.585-.371,2.657-2.034-1.025-.251-.828-4.588,1.995-.087,2.735,1.27,2.365-.662.354.213.607-2.121,2.381-.6.157-2.333-1.474-1.23,1.435-.1,1.183,1.6.473,1.482,1.868,3.468,2.128-1.237,2.3.535,1.278-4.95.331-1.071-1.513-1.333-.316-5.557,2.325-.346-.867-1.072.118-.553.67-1.521-1.1-.458-2.435-2.972,1.53-1.308,1.355-.757-1.963-1.647,1.065-2.893.608-2.033-2.87-1.088.45-1.056-2.79-1.253.212-3.216,4.17h-1.419l-1.048-.725-.662.828-2.1.9-1.861-.5,2.286-4.785-1.135-2.736.82-1.947-.709-1.119-1.671-.142-.2-.789-2.743-.726-.1-.906-.8-.458.237-1.04-1.372-2.657.158-3.57.9-.765-.473-.591.324-.432,2.822-1.5h1.048l.449-1.324,1.529-1.617.663-2.845.946-.2,1.3.748.647-.331.749-3.279,1.5-1.892.7-2.207,1.355-.678-.78-1.915-.875-.158-1.947,1.112-.852-.457-.11-1.009,5.651-7.015.009-2.39,1.229-2.633-2.263-2.113,1.672-3.381.292-2.263,2.191.8,1.064-.56-.418-2.231,1.041-1.387-1.159-2.342,1.679-.946,1.836.733.985-1.072.174-1.127-.513-.757-2.467-.591.024-1.49,1.773-2.176,2.08-.417.577-1.806,1.221-.851-2.326-1.8.166-.694-1.624-2.223-1.261,1.727-1.206-.678-3.366,2.144-.3-.732.5-1.428-.985-.417-.134-.591.922-.781-.614-.134.315-1.072-1.159-1.19-2.648-.953-.607.693-2.735.142-.969.75-2.506-.867-1.537.449-.646-.592-1.671.094-.789-1.268-.024-1.246-10.957-4.627h0l3.642-1.111-.023.433,3.169-1.592.764-8.284,5.55-7.9,25.335-7.906,7.322-6.274-7.559-12.888-1.466-8.332-.954-2.436-1.837-12.659,6.622,1.3,2.1,1.663,4.106-.426,8.206-3.035,3.066,3.138.725-.7,1.285-.117-.9-1.719-.016-3.365-1.679-2.845-.5-4.588-3.138-3.067-3.105-2.081-.2-1,.97-2.829-2.6-.82.93-2.208-1.135-5.881-2.278-1.206-3.452-.465-2.089-.843-.867-1.1-.844-4.462Z" transform="translate(-2847.722 -2829.923)" fill="#f7faff" stroke="#c1d9ff" stroke-linecap="round" stroke-linejoin="round" stroke-width="2"/>
      <path id="NL-ZE" d="M864.847,3284.019l.488-.2.575,1.237-1.45.276-1.924-1.119.938-.614Zm-73.483-7.851,2.318.741-.016.575,1.159.039,1.237,1.459,2.759.5,1.111.953,8.758,1.8,4.044,4.224,2.168-.2,3.059.616-.449,1.537,1.308.694.528-.2-.134-2.428,2.4.063,1.356,1.056,1.2.182-.386.757.914,1.774.063-2.413.474.978.646-.938,2.247,1.316,3.185-.079,1.111-1.812,1.86-.56,2.767-2.231,5.076-1.671.615.481.536-3.192.686-.741-.4-2.428,1.3-1.836,5.439,1.08-.253.418,1.545,1.134.45,2.476h.512l1.687,2.932,5.179.5,6.385,5.873-2.034-3.248,2.136-.56.773,1.08,1.261.395.851,1.371.323-.5-.812-1.081,1.955.1-2.317-.938,3.776.08-.52-.521-3.492-.355-1.033-1.773.063-.915,1.332-.079,1.238-.756.339,2.428,2.68,1.213-2.42-1.971.26-1.237.473,1.1.639-2.27,2.254.339.883.678.512,1.695,2.1,2.751-8.159,10.949-12.872,9.23-.426.756-2.294.536-.749-.835-1.451.8-.449-.757-.82.023-3.366,2.341-.236-.3-1.112,1.844-1.781.316-.56,1.529-2.83.812-.97-1.553-.378.639-.725.039-.228,1.529-.836.694-2.971,1.009-.97-1.451,1.805-1.829-.733-1.229-3.618,2.365-.875-.536-1.175.433-.725-.3-1.718.875-2.231-.812-.071.915-1.585-1.229-.2-5.984.765-2.1-2.255-1.553-.56-.236-.749.733-1.8-2.049-3.579-.481-.8.316-2.759-.8-.733-1.034-1.324-.023-2.633-1.892-2.16.395-6.172-3.445-1.238,1.474.6,1.072-.488,1.253-2.468-1.568-.962.954-1.411-.182-.638,1.356-.686.1-.938-.937-1.222.236,1.513,8.174-9.4.93-3.035-.717-.56-2.127-.9-.852-.9.576-2.554-3.319-1.545-.835.749-.615-.024-1.135L769.537,3298l-.489-1.238,1.119-.6L768,3293.321l3.145-3.563-.229-1.79-1.072-1.4.079-2.089-1.033-1.994,1.7-1.656.236.3,5.226-2.672,1.033-.158.71.8,2.255-1.356,3.657-.859,2.759-1.813,4.044.3Zm17.973-26.659.426-.8.11.521Zm8.955-2.042,1.435.323-2.972.182.213-.756Zm1.844-.465-.733-.544.907.159Zm-1.08-.56.134.662-1.695-.48Zm-10.539-.181,1.269,1.285-.623,1.663-.985-2.459Zm-1.836-1.955.323.418-.788-.141Zm20.889-39.374,1.032,1.009,3.571,1.126,1.269-.244,2.53-3.216,4.312-1.766,2.309.324,1.774,1.608,4.761,1.064.852,2.672,2.058,2.916.189,3.894,1.5,3.516,6.385.8,2.357.843,4.178.143,9.782,7.141,2.333.765h0l-1.324,2.483-3.429,1.506-1.419,1.4-1.056,3.744.584,2.042,4.114,5.044,1.111,2.2-.071,2-2.1,6.362.023,1.538,6.976,15.639-1.5,1.891.639,3.911-.52,1.8.41.9.788.1.426,1.253h0l-4.493.2.315-1.514-1.537-2.554-2.27-1.04-.82.157-.812-1.276-6.148,2.214-8.908-2.475-3.405-2.57-.615-1.2.433-.678-2.01-.623-.126-.859-.457.236-3.129-1.576-3.579-3.571-5.116,2.672-1.159-.377.134,1.017-.56.119.552,1.939-3.13,7.858-.874.418-2.783-.836-1.687,1.214-5.376,1.293-5.053-4.146.213-.86-1.537-.1-1.348-.874-1.175.654-1.584-.182-.726-.6-.662-2.318-.623.063-1.884-2.53-2.791-2.018-3.831-.158-1.505,1.694-3.3.324-.922-.741-.063-1.529-.433.063-.078,1.655-.623-.181v-.654l-.26.536-.26-.7-.165.5,1.285.954-3.389.063-1.411-1.8-.733.063-3.153-2.7-3.571-5.873-5.4-3.878-2.633-3.019.733-3.161,7.363-4.982,9.12-5.187,3.744.04,3.319,1.222,6.125-2.2.764-4.067-.67-.82.9-.158,2.98-3.326-.189-.378.615-.159.757-1.663-.4-.505.615-.181.024-2.271-1.844-.583-1.435-1.182-1.75-3.311-.134-2.594,1.995-4.1,1.45-1.1,7.757-2.514,6.511.646.536-2.491Zm-3.941,13.2-.773-.78-.575.1-.56.4-.26,1.388-3.69,2.506-4.343,1.7-.039,2.223.623.079-.236.844-.686.023-1.033,2.507.71-.143-1.135,1.246,1.151.6-1.246-.363-.489,1.742-.7-1.207-1.151,1-.961,4.77.19.378.662-.481.023.4,1.237-.26,2.082,1.506,1.45.024,4.414-1.522,1.5.324.8-.757,2.83-.678,2.31.442,2.034-.481.488.623,2.4.441,1.332,1.419,2.058,3.586.41-.363-.386.56,1.3,2.018-.15.623-2.956,1.12-1.4,1.884-1,.323-2.735-2.522-2.168.5-1.474,1.2L818,3245.631l-3.334,1.938-3.815,3.863-.623-1.4.346-1.2.788,1.5.04-.536-2.333-4.359,1.5-1.963-1.9,1.8-3.129-2.522-.97-.158-.985-2.5.228-1.041-2.4,1,.221,1.86,2.073,2.964,2.94,1.742,1.86,4.541,2.16,3.342.2-.363.426.78-.275-.718,1.994-.322-1.474-.04-.363-.481,2.822-1.419-.426-.819.946-2.4,1.4-.9.6.04-.339.8.536-.583,5.542.284,1.623-.961,2.869-.5,1.569.639.662,1.08,1.482.3.733-1.017.465.663,1.971-.544,1.75.338,1.506-.9,1.774.3,1.868,3.657,1.931-.844,1.45.26,4.265,1.538.126,1.615h.386l-.134-1.6,1.545.638.52,1.057,2.7,2.081.922-.284,1.025,3.177-.473,1.34,2.94,4.414.646.024,1.12,2.436,5.612,2.876,1.908-.322,3.531-2.058,2.4.418,1.222.757,1.371-.1-.812-10.264-5.36-2.419-.5-1.238.7-1.443-1.2-1.379-1.884-.323-.922.583-.97-.883-4.067.284-3.476-.639-.134-.757-.922-.417-.449-2.019-1.3-.82-.071-.938-2.909-.843.339-.938-.8-1.183-2.593-1.639-1.711-.261-.686-.922.852-2.261,4.052-.781,3.815-2.468,2.743-.842,3.193.544.772,1.481,1.356.765-.166-.56,3.516-.418,1.608.4.213-.583,1.45-.221.063-.442-.584-.157.82-.458-.047-.725-2.192.543-3.689-.1-1.206-2.428-1.955-1.246-.1-2.081.725-.079v-.639l1.868-1.647,3.54.7,5.4,3.067-.623-1.987-3.807-1.687.126-1.1-.852.781-1.671-.584-.087-.583,2.593.063-.615-.82-2.057.4,1.947-.78.56.284.37-.5-1.2-2.27-5.14,1.143-1.71,1.183,1.348,1.623-.212.6h-.583l-.473,1.82-1.71,1.064-1.474,1.947-1.482.726-1.174-.521-4.974,2.649-4.855.685-2.846-2.144-1.072-1.868-1.6,1.261-3.492-.859,3.6-3.146-1.033.26-3.444,2.728.063-1.908-.8-2.664-1.1-1.348.063-.883-2.184-2.065-1.348.158-3.082-1.584.087-1.207-.647-.961-1.348-.418-.8.1.063.481Z" transform="translate(-768 -2835.11)" fill="#f7faff" stroke="#c1d9ff" stroke-linecap="round" stroke-linejoin="round" stroke-width="2"/>
      <path id="NL-ZH" d="M1341.5,2361.967l2.483,1.845-3.13-.119-.859-.946Zm-9.333-6.267,4.177.8,6.125,2.515.749,1-2.885,1.127-3.571-.466-6.165-4.177.623-.883Zm28.007-116.45,8.466,3.823.788-1.466,1.687-.465,3.389,1.284-3,6.653-2.468,2.5.229,1.609-.985,5.163-1.1,1.663.126,1.034.851.694,1.837.426,1.324-.45,3.626.954,2.554-.182,4.044-2.356,2.846-.221,2.1-1.443,2.436.386.189,4.406.725.552.969-1.221,3.752-2.089.725-1.056,1.222-.528,1.3.283h0l.048,1.34.883,1.459.173,3.066.852-.039,3.815,4.564,1.884.67,4.178,2.9-2.594,1.277.465,3.186-.623.488-3.334-.181-.7-.544-.284-1.2-1.9.606-1,.426-.961,2.656-1.537.686-.2.828,4.264,3.058.134,4.919.922,1.844-.047,1.072,5.116-.347-.639,1.292-2.609.955-2.057,1.56-2.507,3.177.213,1.514-1.1.788v.725l.346,1.135,5.03-1.032.906,2.224-5.006,1.229,1.112,1.475.946.323,1.608,3.153,3.594,4.059,1.009,3.974,4.887-1.167,2.633-4.075,3.532.812,3.468-3.453,1.45.079,1.923,1.513,1.261-.142.97-1.861,3.453-3.271,3.7-1.553,2.372.386,2.87,1.411,1.222,4,3.925,1.434h0l-5.462,9.767.079,1.269-.583-.283-1.734,3.208-.513,2.254-2.893-.339-1.309,2.5-3.4,1.008.11,1.372.859.528-2.286,1.474-1.206-.481-3.153.079-1.419-1.246-.323.339.465,1.474-.276,1.111.749,1.246,2.68.363-.812,3.926-1.868-.039h0l-7.844-1.427-3.452.323-2.94,1.465-2.254,2.334-2.672,1.687-6.235-.08-3.6,1.569-1.931,2.294-1.774,4.525-4.344,4.2-3.776,2.672-7.859,2.247-1.971,1.584-9.357,2.57-2.743-.283-9.364-3.13-2.531,2.128-.347.906-.7.024-1.924,2.349-1.151,2.711-2.2,1.782-2.594,1.206-7.157,1.987-3.382-.4h0l-2.333-.764-9.782-7.141-4.178-.142-2.357-.844-6.385-.8-1.5-3.516-.189-3.894-2.057-2.917-.851-2.672-4.761-1.064L1293.31,2352l-2.309-.323-4.312,1.765-2.53,3.216-1.269.245-3.571-1.128-1.032-1.009h0l2.285-1.466,1.136-2.956.252-1.466-1.308-4.343,2.073-2.357,5.463-1.245,8.8-3.5,2.57.039,1.245.583.536.5-1.119-.22-.173.883,3.035,2.191-.237-1.048h1.175l1.175-1.892,1.907-1.19-.5-2.033-4.02-6.243.2-1.529,2.444-4.233-.087-.623-1.647-1.127-.433,1.631-1.8-.827-2.294.827-.67-.623,1.923-7.386.039-1.655-.623.079v-1.088l.765-1.773,1.419-.26,1.222-1.435,1.159.528,1.151-.181,3.153,1.8,6.834-5.778,2.972-4.533,12.336-14.891.835.363.584-.867-.647.5-.3-.591,5.463-5.47,9.294-12.612,8.308-14.891Zm-55.9,101.339-.323,2.176.788-.544,14.141,8.112,3.894,1.388,2.72,2.971,3.145,2.451,2.444,3.3,3.343,2.271,5.391,2.53,6.212.544,1.245-.442,1.411-3.792-10.5-5.723-8.552-2.593-2.294-2.634.047-1.852-1.9-2.113-1.782-.985-2.223-.023-3.366-3.784-3.776.4-.859-1.167-.252.828-.473-.607-2.972-1.048-1.868-2.357-2.4,1.206Z" transform="translate(-1218.685 -1984.947)" fill="#f7faff" stroke="#c1d9ff" stroke-linecap="round" stroke-linejoin="round" stroke-width="2"/>
      <path id="NL-NB" d="M1755.507,3104.9l2.372,3,3.342,1.53,2.546,3.657,1.332.063,1.214-1.285,1.482-.2,1.884,1.631,2.845,1.388-.339,2.451.812,1.025L1771,3120.18l.047,1.467,4.406-1.127,4.092.543,2.932-.646,3.815,1.971,2.641-1.364,3.641.686,7.071-4,1.371-6.053,4.651-7.024,1.025-.024,1.545,1.892,1.245.521,2.547.039,2.247-.867,1.175-2.775,1.214-.521,1.238.4,1.923,1.916,2.594.646.8-.244,1.482-2.01,3.72-.465,4.39,2.034,2.2.142,2.42,4.367,1.332.843,2.333.4,2.428,3.019,2.956.726,1.8,2.712,1.758,1.127,2.68.2,8.647-1.411,1.868.339h0l1.6,1.505.836,4.462.875,1.1,2.082.844,3.453.465,2.285,1.206,1.136,5.881-.938,2.208,2.61.819-.97,2.83.2,1,3.106,2.08,3.129,3.068.5,4.588,1.686,2.845.015,3.365.9,1.719-1.284.118-.725.7-3.067-3.145-8.206,3.043-4.107.418-2.1-1.664-6.622-1.3,1.837,12.66.961,2.436,1.459,8.331,7.56,12.889-7.324,6.275-25.334,7.906-5.55,7.9-.756,8.292-3.169,1.592.024-.434-3.642,1.111h0l-.473-.417-.56-3.878.111-4.548-3.642-3.4-1.387-2.427-3.192-.9-.749-.063-2.254,2.987-3.035.575-.386,1.175-.7.079-2.049,2.727-8.915-2.388-1.238,2.427-5.305.276-3.768-.954-3.477.8-1.135-1.1,1.687-7.5-4.879-3.16-3.256,1.071-1.4,1.1-3.516-1.072-.323-6.512-7.512-9.088,4.067-7.756-3.271-7.749-4.115-.26-.883-1.521.063-1.318-.56-.236-3.145,3.035-.71,5.432-4.9,4.154-4.375,5.5-.426-.654.237.781-.8.363-.9-.26,1.261-.339-1.687-1.159-1.238-2.231-.734.442-1.008-.678.149-.48-.473.378-1.088-.276-1.112,1.538-1.986-1.175-.638.536-.922-.418-5.888,1.175-2.184-1.2-.536-2.632.733-.74,1.356-.119.323.638,4.966,1.6.97.875,1.009-.024-.4-.442.788-.677h-2.136l-.812-4.706,1.324-2.294.662.521.686-.623-1.237-.937.67-3.556-2.483-.6-.67-2.255-5.455-1.821-2.5.938-.883,1.994-2.01,1.056-1.719,3.035-1.522.362-1.285,3.034-3.232,1.475.3,3.492-1.285.417-.923-.338-1.5.781-1.372-.7-6.637-1.238-4.974,1.853-.67-5.187,2.144-4.69-1.324-1.939-7.961.938-1.245,1.3-2.7.481-7.308,3.87-.575.718,1.781.22.788,2.112-.725.442.276.954-1.387,1.34,1.064,2.608,4.887,6.441-.686.82.646,1.356-1.135-.221-3.445,1.734-2.136.2-4.375-.6-.962-3.744-7.244.221h0l-.426-1.253-.788-.1-.41-.9.52-1.8-.638-3.909,1.5-1.892-6.976-15.639-.024-1.537,2.1-6.362.071-2-1.111-2.2-4.115-5.045-.583-2.042,1.057-3.744,1.419-1.4,3.429-1.506,1.324-2.482h0l3.382.4,7.157-1.987,2.594-1.206,2.2-1.781,1.151-2.711,1.923-2.35.7-.023.346-.906,2.531-2.129,9.364,3.13,2.743.284,9.357-2.57,1.97-1.585,7.859-2.246,3.776-2.672,4.344-4.2,1.773-4.525,1.931-2.294,3.6-1.568,6.235.078,2.672-1.687,2.255-2.333,2.94-1.466,3.453-.323Zm-8.309,74.831-1.064,1.552-.111-1.3-.4.339v-.741l-.686.418.465.559-.212,1.215-.71.362,2.83,1.238.434-.614-.3-.5.773-.536-1.119-.3-.15-.638.765.079-.489-.875,1.182-.6.174.417.772-.915-.276-.457-.583.576-2.309.039Zm1.971.638-.56-.457-.323.339Zm-7.165,3.808-.316.418.339-.08Zm5.3,2.917-1.261.362.465.457-.521.442,1.45-.236Z" transform="translate(-1550.629 -2747.725)" fill="#fff" stroke="#3786f7" stroke-linecap="round" stroke-linejoin="round" stroke-width="2"/>
    </g>
    <path id="location-sharp" d="M17.464,2.25C11.549,2.25,6.75,6.57,6.75,11.893c0,8.571,10.714,20.357,10.714,20.357S28.179,20.464,28.179,11.893C28.179,6.57,23.38,2.25,17.464,2.25Zm0,15a4.286,4.286,0,1,1,4.286-4.286A4.286,4.286,0,0,1,17.464,17.25Z" transform="translate(1503.869 3285.99)" fill="#f4ac4d" stroke="#ef941c" stroke-width="2"/>
    <path id="location-sharp-2" data-name="location-sharp" d="M17.464,2.25C11.549,2.25,6.75,6.57,6.75,11.893c0,8.571,10.714,20.357,10.714,20.357S28.179,20.464,28.179,11.893C28.179,6.57,23.38,2.25,17.464,2.25Zm0,15a4.286,4.286,0,1,1,4.286-4.286A4.286,4.286,0,0,1,17.464,17.25Z" transform="translate(1245.994 3157.477)" fill="#f4ac4d" stroke="#ef941c" stroke-width="2"/>
    <path id="location-sharp-3" data-name="location-sharp" d="M17.464,2.25C11.549,2.25,6.75,6.57,6.75,11.893c0,8.571,10.714,20.357,10.714,20.357S28.179,20.464,28.179,11.893C28.179,6.57,23.38,2.25,17.464,2.25Zm0,15a4.286,4.286,0,1,1,4.286-4.286A4.286,4.286,0,0,1,17.464,17.25Z" transform="translate(1327.252 3070.585)" fill="#f4ac4d" stroke="#ef941c" stroke-width="2"/>
    <path id="location-sharp-4" data-name="location-sharp" d="M17.464,2.25C11.549,2.25,6.75,6.57,6.75,11.893c0,8.571,10.714,20.357,10.714,20.357S28.179,20.464,28.179,11.893C28.179,6.57,23.38,2.25,17.464,2.25Zm0,15a4.286,4.286,0,1,1,4.286-4.286A4.286,4.286,0,0,1,17.464,17.25Z" transform="translate(1368.526 2938.782)" fill="#f4ac4d" stroke="#ef941c" stroke-width="2"/>
    <path id="location-sharp-5" data-name="location-sharp" d="M17.464,2.25C11.549,2.25,6.75,6.57,6.75,11.893c0,8.571,10.714,20.357,10.714,20.357S28.179,20.464,28.179,11.893C28.179,6.57,23.38,2.25,17.464,2.25Zm0,15a4.286,4.286,0,1,1,4.286-4.286A4.286,4.286,0,0,1,17.464,17.25Z" transform="translate(1419.724 3044.777)" fill="#f4ac4d" stroke="#ef941c" stroke-width="2"/>
    <path id="location-sharp-6" data-name="location-sharp" d="M17.464,2.25C11.549,2.25,6.75,6.57,6.75,11.893c0,8.571,10.714,20.357,10.714,20.357S28.179,20.464,28.179,11.893C28.179,6.57,23.38,2.25,17.464,2.25Zm0,15a4.286,4.286,0,1,1,4.286-4.286A4.286,4.286,0,0,1,17.464,17.25Z" transform="translate(1458.248 2965.149)" fill="#f4ac4d" stroke="#ef941c" stroke-width="2"/>
    <path id="location-sharp-7" data-name="location-sharp" d="M17.464,2.25C11.549,2.25,6.75,6.57,6.75,11.893c0,8.571,10.714,20.357,10.714,20.357S28.179,20.464,28.179,11.893C28.179,6.57,23.38,2.25,17.464,2.25Zm0,15a4.286,4.286,0,1,1,4.286-4.286A4.286,4.286,0,0,1,17.464,17.25Z" transform="translate(1503.869 3060.744)" fill="#f4ac4d" stroke="#ef941c" stroke-width="2"/>
    <path id="location-sharp-8" data-name="location-sharp" d="M17.464,2.25C11.549,2.25,6.75,6.57,6.75,11.893c0,8.571,10.714,20.357,10.714,20.357S28.179,20.464,28.179,11.893C28.179,6.57,23.38,2.25,17.464,2.25Zm0,15a4.286,4.286,0,1,1,4.286-4.286A4.286,4.286,0,0,1,17.464,17.25Z" transform="translate(1581.504 2981.117)" fill="#f4ac4d" stroke="#ef941c" stroke-width="2"/>
    <path id="location-sharp-9" data-name="location-sharp" d="M17.464,2.25C11.549,2.25,6.75,6.57,6.75,11.893c0,8.571,10.714,20.357,10.714,20.357S28.179,20.464,28.179,11.893C28.179,6.57,23.38,2.25,17.464,2.25Zm0,15a4.286,4.286,0,1,1,4.286-4.286A4.286,4.286,0,0,1,17.464,17.25Z" transform="translate(1589.029 2893.676)" fill="#f4ac4d" stroke="#ef941c" stroke-width="2"/>
    <path id="location-sharp-10" data-name="location-sharp" d="M17.464,2.25C11.549,2.25,6.75,6.57,6.75,11.893c0,8.571,10.714,20.357,10.714,20.357S28.179,20.464,28.179,11.893C28.179,6.57,23.38,2.25,17.464,2.25Zm0,15a4.286,4.286,0,1,1,4.286-4.286A4.286,4.286,0,0,1,17.464,17.25Z" transform="translate(1611.839 2811.558)" fill="#f4ac4d" stroke="#ef941c" stroke-width="2"/>
    <path id="location-sharp-11" data-name="location-sharp" d="M17.464,2.25C11.549,2.25,6.75,6.57,6.75,11.893c0,8.571,10.714,20.357,10.714,20.357S28.179,20.464,28.179,11.893C28.179,6.57,23.38,2.25,17.464,2.25Zm0,15a4.286,4.286,0,1,1,4.286-4.286A4.286,4.286,0,0,1,17.464,17.25Z" transform="translate(1499.307 2827.525)" fill="#f4ac4d" stroke="#ef941c" stroke-width="2"/>
    <g id="Group_399" data-name="Group 399" transform="translate(-89 -140)">
      <g id="Ellipse_43" data-name="Ellipse 43" transform="translate(1517.972 3273.837)" fill="#fff" stroke="#707070" stroke-width="1">
        <circle cx="11.5" cy="11.5" r="11.5" stroke="none"/>
        <circle cx="11.5" cy="11.5" r="11" fill="none"/>
      </g>
      <path id="location-sharp-12" data-name="location-sharp" d="M25.836,2.25C15.3,2.25,6.75,9.945,6.75,19.427,6.75,34.7,25.836,55.69,25.836,55.69S44.922,34.7,44.922,19.427C44.922,9.945,36.373,2.25,25.836,2.25Zm0,26.72a7.634,7.634,0,1,1,7.634-7.634A7.634,7.634,0,0,1,25.836,28.97Z" transform="translate(1503.869 3262.55)" fill="#f4ac4d" stroke="#ef941c" stroke-width="2"/>
    </g>
  </g>
</svg>
