<svg xmlns="http://www.w3.org/2000/svg" xmlns:xlink="http://www.w3.org/1999/xlink" version="1.0" enable-background="new 0 0 35.23 38.9" xml:space="preserve" width="35.23" height="38.9"><rect id="backgroundrect" width="100%" height="100%" x="0" y="0" fill="none" stroke="none"/>

<g class="currentLayer" style=""><title>Layer 1</title><g id="svg_1" class="" fill-opacity="1" fill="#61c3ff">
	<path d="M23.6,31H2V6h21.6v2.79h2V3c0.06-1.6-1.2-2.94-2.8-3c-0.07,0-0.14,0-0.2,0H3C1.34,0,0,1.34,0,3v32.9c0,1.66,1.34,3,3,3   h19.6c1.6,0.06,2.94-1.2,3-2.8c0-0.07,0-0.14,0-0.2v-7.7h-2V31z M2,3c0.05-0.53,0.47-0.95,1-1h19.6c0.55,0,1,0.45,1,1v1H2V3z    M23.6,35.9c0.06,0.49-0.29,0.94-0.79,1c-0.07,0.01-0.14,0.01-0.21,0H3c-0.55,0-1-0.45-1-1V33h21.6V35.9z" id="svg_2" fill="#61c3ff"/>
	<path d="M24.51,29.18c-5.91,0-10.73-4.81-10.73-10.73S18.59,7.73,24.51,7.73c5.91,0,10.72,4.81,10.72,10.72   S30.42,29.18,24.51,29.18z M24.51,9.73c-4.81,0-8.73,3.91-8.73,8.72c0,4.81,3.91,8.73,8.73,8.73c4.81,0,8.72-3.91,8.72-8.73   C33.23,13.65,29.32,9.73,24.51,9.73z" id="svg_3" fill="#61c3ff"/>
	<path d="M23.16,22.36c-0.26,0-0.51-0.1-0.71-0.29l-3.11-3.11c-0.39-0.39-0.39-1.02,0-1.41s1.02-0.39,1.41,0l2.4,2.4l5.11-5.11   c0.39-0.39,1.02-0.39,1.41,0s0.39,1.02,0,1.41l-5.81,5.81C23.67,22.27,23.41,22.36,23.16,22.36z" id="svg_4" fill="#61c3ff"/>
</g></g></svg>