<svg width="22" height="22" viewBox="0 0 22 22" fill="none" xmlns="http://www.w3.org/2000/svg">
<path d="M21 11C21 12.9778 20.4135 14.9112 19.3147 16.5557C18.2159 18.2002 16.6541 19.4819 14.8268 20.2388C12.9996 20.9957 10.9889 21.1937 9.0491 20.8078C7.10929 20.422 5.32746 19.4696 3.92894 18.0711C2.53041 16.6725 1.578 14.8907 1.19215 12.9509C0.8063 11.0111 1.00433 9.00043 1.76121 7.17316C2.51809 5.3459 3.79981 3.78412 5.4443 2.6853C7.08879 1.58649 9.02219 1 11 1C13.6522 1 16.1957 2.05357 18.0711 3.92893C19.9464 5.8043 21 8.34783 21 11V11Z" stroke="#3B5998" stroke-width="1.5" stroke-linecap="round" stroke-linejoin="round"/>
<path d="M11 15V11" stroke="#3B5998" stroke-width="1.5" stroke-linecap="round" stroke-linejoin="round"/>
<path d="M11 7.73353C11.3682 7.73353 11.6666 7.43504 11.6666 7.06684C11.6666 6.69863 11.3682 6.40015 11 6.40015C10.6318 6.40015 10.3333 6.69863 10.3333 7.06684C10.3333 7.43504 10.6318 7.73353 11 7.73353Z" fill="#3B5998"/>
</svg>
