<svg width="17" height="18" viewBox="0 0 17 18" fill="none" xmlns="http://www.w3.org/2000/svg">
<path d="M4.17125 17.4985H1.0134C0.90731 17.5046 0.800983 17.4906 0.700994 17.4572C0.601005 17.4238 0.509478 17.3718 0.432071 17.3044C0.354665 17.2369 0.293023 17.1555 0.250957 17.0652C0.20889 16.9749 0.187294 16.8775 0.187501 16.7791V11.2487C0.187501 11.046 0.274516 10.8516 0.429402 10.7083C0.584288 10.5649 0.794359 10.4844 1.0134 10.4844H4.17125C4.39029 10.4844 4.60036 10.5649 4.75525 10.7083C4.91014 10.8516 4.99715 11.046 4.99715 11.2487V16.7791C4.99736 16.8775 4.97576 16.9749 4.9337 17.0652C4.89163 17.1555 4.82999 17.2369 4.75258 17.3044C4.67517 17.3718 4.58365 17.4238 4.48366 17.4572C4.38367 17.4906 4.27734 17.5046 4.17125 17.4985ZM1.15915 16.5993H4.0255V11.3836H1.15915V16.5993Z" fill="#3B5998"/>
<path d="M10.1466 17.498H7.03729C6.92883 17.498 6.82143 17.4782 6.72123 17.4398C6.62103 17.4014 6.52998 17.3451 6.45329 17.2741C6.3766 17.2031 6.31576 17.1188 6.27426 17.0261C6.23275 16.9334 6.21139 16.834 6.21139 16.7336V9.71948C6.20476 9.61538 6.22122 9.51113 6.25975 9.41315C6.29827 9.31516 6.35806 9.2255 6.43542 9.14969C6.51278 9.07388 6.60609 9.01352 6.70959 8.97233C6.8131 8.93113 6.92462 8.90998 7.03729 8.91016H10.1466C10.3785 8.91016 10.6009 8.99542 10.7649 9.1472C10.9289 9.29898 11.021 9.50483 11.021 9.71948V16.7336C11.0086 16.9404 10.911 17.1348 10.7483 17.277C10.5857 17.4192 10.3703 17.4983 10.1466 17.498ZM7.18304 16.5987H10.0494V9.8094H7.18304V16.5987Z" fill="#3B5998"/>
<path d="M16.1227 17.4984H13.1106C12.9917 17.5045 12.8727 17.4881 12.761 17.4502C12.6492 17.4123 12.547 17.3536 12.4606 17.2779C12.3741 17.2021 12.3053 17.1108 12.2584 17.0095C12.2114 16.9083 12.1873 16.7992 12.1875 16.6891V7.1121C12.1875 6.88553 12.2848 6.66824 12.4579 6.50803C12.631 6.34782 12.8658 6.25781 13.1106 6.25781H16.1227C16.359 6.26934 16.5815 6.36441 16.7442 6.52338C16.9069 6.68236 16.9975 6.89311 16.9971 7.1121V16.6891C16.9971 16.9037 16.905 17.1096 16.741 17.2614C16.577 17.4131 16.3546 17.4984 16.1227 17.4984ZM13.1591 16.5991H16.0255V7.15706H13.1591V16.5991Z" fill="#3B5998"/>
<path d="M16.5113 4.86418C16.3862 4.85405 16.2688 4.80343 16.18 4.7212C16.0911 4.63897 16.0364 4.5304 16.0255 4.41456V1.40208H12.6733C12.5445 1.40208 12.4209 1.35471 12.3298 1.27039C12.2387 1.18607 12.1875 1.0717 12.1875 0.952456C12.1875 0.833208 12.2387 0.718845 12.3298 0.634524C12.4209 0.550203 12.5445 0.502833 12.6733 0.502833H16.5113C16.577 0.495602 16.6436 0.502257 16.7061 0.522297C16.7686 0.542336 16.8254 0.575237 16.8721 0.618523C16.9189 0.661808 16.9545 0.71435 16.9761 0.772192C16.9978 0.830034 17.005 0.891669 16.9971 0.952456V4.41456C16.9971 4.5338 16.946 4.64817 16.8549 4.73249C16.7637 4.81681 16.6402 4.86418 16.5113 4.86418Z" fill="#3B5998"/>
<path d="M0.478952 9.81043C0.415059 9.81232 0.351495 9.80123 0.292738 9.77792C0.233981 9.75462 0.18146 9.71967 0.138876 9.67555C0.0498601 9.5915 0 9.4785 0 9.36081C0 9.24312 0.0498601 9.13012 0.138876 9.04607L6.01734 4.05525L6.35741 3.96533H12.4788L16.171 0.638116C16.2723 0.571118 16.3957 0.538947 16.5199 0.547156C16.644 0.555365 16.7612 0.603438 16.8512 0.683079C16.9402 0.767126 16.9901 0.880125 16.9901 0.997815C16.9901 1.11551 16.9402 1.2285 16.8512 1.31255L13.0132 4.72969C12.9706 4.77381 12.9181 4.80876 12.8593 4.83206C12.8006 4.85537 12.737 4.86647 12.6731 4.86458H6.55174L0.819028 9.72051L0.478952 9.81043Z" fill="#3B5998"/>
</svg>
