<svg width="17" height="16" viewBox="0 0 17 16" fill="none" xmlns="http://www.w3.org/2000/svg">
<path d="M15.5835 11.5413H1.41683C1.22897 11.5413 1.0488 11.616 0.915962 11.7488C0.783124 11.8816 0.708496 12.0618 0.708496 12.2497C0.708496 12.4375 0.783124 12.6177 0.915962 12.7505C1.0488 12.8834 1.22897 12.958 1.41683 12.958H15.5835C15.7714 12.958 15.9515 12.8834 16.0844 12.7505C16.2172 12.6177 16.2918 12.4375 16.2918 12.2497C16.2918 12.0618 16.2172 11.8816 16.0844 11.7488C15.9515 11.616 15.7714 11.5413 15.5835 11.5413ZM15.5835 14.3747H1.41683C1.22897 14.3747 1.0488 14.4493 0.915962 14.5821C0.783124 14.715 0.708496 14.8951 0.708496 15.083C0.708496 15.2709 0.783124 15.451 0.915962 15.5839C1.0488 15.7167 1.22897 15.7913 1.41683 15.7913H15.5835C15.7714 15.7913 15.9515 15.7167 16.0844 15.5839C16.2172 15.451 16.2918 15.2709 16.2918 15.083C16.2918 14.8951 16.2172 14.715 16.0844 14.5821C15.9515 14.4493 15.7714 14.3747 15.5835 14.3747ZM4.25016 4.45801C4.11007 4.45801 3.97312 4.49955 3.85663 4.57738C3.74015 4.65522 3.64936 4.76584 3.59575 4.89527C3.54214 5.0247 3.52811 5.16713 3.55544 5.30453C3.58277 5.44193 3.65023 5.56815 3.7493 5.66721C3.84836 5.76627 3.97457 5.83373 4.11197 5.86106C4.24938 5.8884 4.3918 5.87437 4.52123 5.82076C4.65066 5.76714 4.76129 5.67635 4.83912 5.55987C4.91695 5.44339 4.9585 5.30644 4.9585 5.16634C4.9585 4.97848 4.88387 4.79831 4.75103 4.66547C4.61819 4.53264 4.43802 4.45801 4.25016 4.45801ZM14.1668 0.208008H2.8335C2.26991 0.208008 1.72941 0.431891 1.33089 0.830406C0.932379 1.22892 0.708496 1.76942 0.708496 2.33301V7.99967C0.708496 8.56326 0.932379 9.10376 1.33089 9.50228C1.72941 9.90079 2.26991 10.1247 2.8335 10.1247H14.1668C14.7304 10.1247 15.2709 9.90079 15.6694 9.50228C16.0679 9.10376 16.2918 8.56326 16.2918 7.99967V2.33301C16.2918 1.76942 16.0679 1.22892 15.6694 0.830406C15.2709 0.431891 14.7304 0.208008 14.1668 0.208008ZM14.8752 7.99967C14.8752 8.18754 14.8005 8.3677 14.6677 8.50054C14.5349 8.63338 14.3547 8.70801 14.1668 8.70801H2.8335C2.64563 8.70801 2.46547 8.63338 2.33263 8.50054C2.19979 8.3677 2.12516 8.18754 2.12516 7.99967V2.33301C2.12516 2.14515 2.19979 1.96498 2.33263 1.83214C2.46547 1.6993 2.64563 1.62467 2.8335 1.62467H14.1668C14.3547 1.62467 14.5349 1.6993 14.6677 1.83214C14.8005 1.96498 14.8752 2.14515 14.8752 2.33301V7.99967ZM8.50016 3.04134C8.07988 3.04134 7.66903 3.16597 7.31958 3.39947C6.97012 3.63297 6.69775 3.96485 6.53692 4.35314C6.37608 4.74143 6.334 5.1687 6.41599 5.58091C6.49799 5.99312 6.70037 6.37176 6.99756 6.66894C7.29475 6.96613 7.67339 7.16852 8.0856 7.25051C8.49781 7.3325 8.92507 7.29042 9.31336 7.12959C9.70166 6.96875 10.0335 6.69638 10.267 6.34693C10.5005 5.99747 10.6252 5.58663 10.6252 5.16634C10.6252 4.60276 10.4013 4.06225 10.0028 3.66374C9.60425 3.26522 9.06375 3.04134 8.50016 3.04134ZM8.50016 5.87467C8.36007 5.87467 8.22312 5.83313 8.10663 5.7553C7.99015 5.67747 7.89936 5.56684 7.84575 5.43741C7.79214 5.30798 7.77811 5.16556 7.80544 5.02815C7.83277 4.89075 7.90023 4.76454 7.9993 4.66547C8.09836 4.56641 8.22457 4.49895 8.36197 4.47162C8.49938 4.44429 8.6418 4.45831 8.77123 4.51193C8.90066 4.56554 9.01129 4.65633 9.08912 4.77281C9.16695 4.8893 9.2085 5.02625 9.2085 5.16634C9.2085 5.3542 9.13387 5.53437 9.00103 5.66721C8.86819 5.80005 8.68802 5.87467 8.50016 5.87467ZM12.7502 4.45801C12.6101 4.45801 12.4731 4.49955 12.3566 4.57738C12.2401 4.65522 12.1494 4.76584 12.0957 4.89527C12.0421 5.0247 12.0281 5.16713 12.0554 5.30453C12.0828 5.44193 12.1502 5.56815 12.2493 5.66721C12.3484 5.76627 12.4746 5.83373 12.612 5.86106C12.7494 5.8884 12.8918 5.87437 13.0212 5.82076C13.1507 5.76714 13.2613 5.67635 13.3391 5.55987C13.417 5.44339 13.4585 5.30644 13.4585 5.16634C13.4585 4.97848 13.3839 4.79831 13.251 4.66547C13.1182 4.53264 12.938 4.45801 12.7502 4.45801Z" fill="#3B5998"/>
</svg>
