<svg xmlns="http://www.w3.org/2000/svg" width="66.7" height="66.9"><rect id="backgroundrect" width="100%" height="100%" x="0" y="0" fill="none" stroke="none"/><defs><style>.cls-1{isolation:isolate;}</style></defs><g class="currentLayer" style=""><title>Layer 1</title><g id="Laag_2" data-name="Laag 2" class="" fill-opacity="1" fill="#3b5998"><g id="Laag_1-2" data-name="Laag 1" fill="#3b5998"><g id="Group_1521" data-name="Group 1521" fill="#3b5998"><g id="Icon_ionic-ios-chatbubbles" data-name="Icon ionic-ios-chatbubbles" fill="#3b5998"><path d="M62.6,59l-.7-.2-9.8-3.5a4.5,4.5,0,0,0-3.4-.1,39.5,39.5,0,0,1-4.4,1.4,36.9,36.9,0,0,1-8.2,1.3,29.7,29.7,0,0,1-21-8.6A28.7,28.7,0,0,1,6.7,28.9,29.5,29.5,0,0,1,7.3,23,29.3,29.3,0,0,1,17.6,6.6,31.1,31.1,0,0,1,36.7,0a30.6,30.6,0,0,1,12,2.4,29,29,0,0,1,9.7,6.5,28,28,0,0,1,8.3,19.9,27.6,27.6,0,0,1-4.8,15.6l-.4.5a4.2,4.2,0,0,0-.6,2.1l2.9,10.5v.2a1.4,1.4,0,0,1-1.1,1.2ZM50.4,52.5a8.6,8.6,0,0,1,2.7.5L61,55.8l-2.4-8.6a6.8,6.8,0,0,1,.9-3.5l.4-.6a25.5,25.5,0,0,0-3.2-32.5,27.4,27.4,0,0,0-8.9-6,27.7,27.7,0,0,0-11-2.2,28.1,28.1,0,0,0-17.5,6,26.5,26.5,0,0,0-9.5,15,24.8,24.8,0,0,0-.6,5.4A26.5,26.5,0,0,0,17,47.6a27,27,0,0,0,19.3,7.9,32.6,32.6,0,0,0,7.5-1.2L47.9,53A7,7,0,0,1,50.4,52.5Z" id="svg_1" fill="#3b5998"/><path d="M3.9,66.9H3.6L3,66.5,2.6,66v-.8c.8-4.1,2-10.4,2.1-10.7s-.3-.9-.5-1.4A25.5,25.5,0,0,1,8.9,19.6l.3.4a2,2,0,0,1-.1,2.8A23.2,23.2,0,0,0,2.4,39,22.5,22.5,0,0,0,6.3,51.8a4.2,4.2,0,0,1,.9,3.3c-.1.3-.9,4.8-1.7,8.7l7.9-3.1a5.8,5.8,0,0,1,1.8-.4,5.8,5.8,0,0,1,2,.4A24.7,24.7,0,0,0,45.5,54l1.9,1.6a27.2,27.2,0,0,1-20.7,9.5A28.5,28.5,0,0,1,16.2,63a2.7,2.7,0,0,0-1-.2l-1,.2Z" id="svg_2" fill="#3b5998"/></g><g class="cls-1" id="svg_3" fill="#3b5998"><path d="M27.7,22.4h.4c.1.1.1.2.1.4v.8c0,.2,0,.3-.1.4H21v4.5h6.1c.1.1.1.2.1.4V30c0,.2,0,.3-.1.4H21v5.6c0,.2,0,.3-.1.4H19.2c-.1-.1-.1-.2-.1-.4V23c0-.2,0-.3.1-.4h8.5Z" id="svg_4" fill="#3b5998"/><path d="M42.1,36.2c.1.4,0,.5-.4.5H40.2l-.3-.4-1.2-3.3h-6l-1.2,3.4-.3.4H29.8c-.4,0-.5-.2-.4-.5l5.2-13.4c.1-.3.3-.4.7-.4h.8a.7.7,0,0,1,.7.4Zm-6-10.1a7.2,7.2,0,0,1-.4-1.9h-.1v.3a2,2,0,0,1-.1.7c-.1.3-.1.6-.2.9l-2,5.3h4.9Z" id="svg_5" fill="#3b5998"/><path d="M56.1,36.8a.5.5,0,0,1-.1.8l-.6.5c-.3.2-.5.2-.7-.1l-1.4-1.6a5.7,5.7,0,0,1-3.1.7A6.1,6.1,0,0,1,46,35.7a4.9,4.9,0,0,1-1.5-3.8V27.3A4.9,4.9,0,0,1,46,23.5a6.1,6.1,0,0,1,4.2-1.4,6.1,6.1,0,0,1,4.2,1.4,4.9,4.9,0,0,1,1.5,3.8v4.6a5.3,5.3,0,0,1-1.1,3.4Zm-9.5-4.9a3,3,0,0,0,1,2.5,3.7,3.7,0,0,0,2.7.9,3.7,3.7,0,0,0,2.7-.9,3.4,3.4,0,0,0,1-2.5V27.3a3,3,0,0,0-1-2.5,3.7,3.7,0,0,0-2.7-.9,3.7,3.7,0,0,0-2.7.9,3.4,3.4,0,0,0-1,2.5Z" id="svg_6" fill="#3b5998"/></g></g></g></g></g></svg>