<svg xmlns="http://www.w3.org/2000/svg" width="34.8" height="34.8"><rect id="backgroundrect" width="100%" height="100%" x="0" y="0" fill="none" stroke="none"/><g class="currentLayer" style=""><title>Layer 1</title><g id="Laag_2" data-name="Laag 2" class="" fill-opacity="1" fill="#61c3ff"><g id="Laag_1-2" data-name="Laag 1" fill="#61c3ff"><path d="M15.9,32.587401556968686 A15.9,15.9 0 1 1 31.8,16.687401556968688 A15.9,15.9 0 0 1 15.9,32.587401556968686 zM15.9,2.787401556968689 A13.9,13.9 0 1 0 29.8,16.687401556968688 A13.9,13.9 0 0 0 15.9,2.787401556968689 z" id="svg_1" fill="#61c3ff"/><path d="M18.9,35.587401556968686 A15.7,15.7 0 0 1 6.2,29.28740155696869 l1.6,-1.2 a13.9,13.9 0 0 0 25,-8.4 A13.8,13.8 0 0 0 27.7,8.887401556968689 L29,7.387401556968689 A15.9,15.9 0 0 1 18.9,35.587401556968686 z" id="svg_2" fill="#61c3ff"/><path d="M19.8,21.88740155696869 a6.1,6.1 0 0 1 -3,0.8 a6,6 0 0 1 0,-12 a6.1,6.1 0 0 1 3,0.8 a1.1,1.1 0 0 0 1.4,-0.30000000000000004 A1.1,1.1 0 0 0 20.8,9.787401556968689 a8,8 0 1 0 0,13.8 a1.1,1.1 0 0 0 0.4,-1.4 A1,1 0 0 0 19.8,21.88740155696869 z" id="svg_3" fill="#61c3ff"/><path d="M15.9,13.58740155696869 H8 a1,1 0 0 0 -1,1 a0.9,0.9 0 0 0 1,1 h7.9 a1,1 0 0 0 1,-1 A1.1,1.1 0 0 0 15.9,13.58740155696869 z" id="svg_4" fill="#61c3ff"/><path d="M15.9,17.58740155696869 H8 a0.9,0.9 0 0 0 -1,1 a1,1 0 0 0 1,1 h7.9 a1.1,1.1 0 0 0 1,-1 A1,1 0 0 0 15.9,17.58740155696869 z" id="svg_5" fill="#61c3ff"/></g></g></g></svg>