<svg width="16" height="16" viewBox="0 0 16 16" fill="none" xmlns="http://www.w3.org/2000/svg">
<path d="M7.13387 0.565549L5.18872 4.70157L0.819017 5.36691C0.642322 5.39384 0.476361 5.47184 0.339893 5.5921C0.203424 5.71236 0.101888 5.87009 0.0467603 6.04745C-0.00836766 6.22481 -0.0148897 6.41473 0.0279312 6.59576C0.0707521 6.77679 0.161209 6.9417 0.289078 7.07186L3.45799 10.2882L2.70291 14.8337C2.67318 15.0172 2.69312 15.2058 2.7605 15.3782C2.82787 15.5505 2.93999 15.6998 3.08424 15.8092C3.22848 15.9186 3.39911 15.9837 3.5769 15.9973C3.7547 16.0109 3.93259 15.9724 4.09055 15.8861L7.99923 13.7397L11.9095 15.8861C12.0674 15.9724 12.2453 16.0109 12.4231 15.9973C12.6009 15.9837 12.7715 15.9186 12.9158 15.8092C13.06 15.6998 13.1721 15.5505 13.2395 15.3782C13.3069 15.2058 13.3268 15.0172 13.2971 14.8337L12.5497 10.2882L15.7109 7.07186C15.8388 6.9417 15.9292 6.77679 15.9721 6.59576C16.0149 6.41473 16.0084 6.22481 15.9532 6.04745C15.8981 5.87009 15.7966 5.71236 15.6601 5.5921C15.5236 5.47184 15.3577 5.39384 15.181 5.36691L10.8098 4.70157L8.85847 0.565549C8.78025 0.396111 8.65784 0.253157 8.50531 0.153114C8.35277 0.0530709 8.1763 0 7.99617 0C7.81604 0 7.63957 0.0530709 7.48704 0.153114C7.3345 0.253157 7.21209 0.396111 7.13387 0.565549Z" fill="#F99819"/>
</svg>
