<svg width="18" height="20" viewBox="0 0 18 20" fill="none" xmlns="http://www.w3.org/2000/svg">
<path d="M13.3909 4.47352V1.54319C13.3982 1.33872 13.3627 1.13497 13.2864 0.9446C13.2101 0.754234 13.0948 0.581335 12.9476 0.436664C12.8004 0.291994 12.6245 0.178649 12.4308 0.103684C12.2371 0.0287183 12.0297 -0.00626239 11.8217 0.000918665H1.56925C1.15306 0.000918665 0.753916 0.163408 0.459624 0.45264C0.165332 0.741873 0 1.13416 0 1.54319V18.4568C0 18.8658 0.165332 19.2581 0.459624 19.5474C0.753916 19.8366 1.15306 19.9991 1.56925 19.9991H11.8217C12.0297 20.0063 12.2371 19.9713 12.4308 19.8963C12.6245 19.8213 12.8004 19.708 12.9476 19.5633C13.0948 19.4187 13.2101 19.2458 13.2864 19.0554C13.3627 18.865 13.3982 18.6613 13.3909 18.4568V14.4983C14.6545 14.3724 15.8255 13.79 16.677 12.8639C17.5286 11.9378 18 10.7341 18 9.48591C18 8.23772 17.5286 7.03397 16.677 6.10791C15.8255 5.18186 14.6545 4.59944 13.3909 4.47352ZM1.04617 1.54319C1.04617 1.40685 1.10128 1.27609 1.19937 1.17968C1.29747 1.08326 1.43052 1.0291 1.56925 1.0291H11.8217C11.8924 1.02083 11.9641 1.02844 12.0314 1.05136C12.0987 1.07427 12.1598 1.11189 12.2102 1.16138C12.2605 1.21087 12.2988 1.27095 12.3221 1.33708C12.3454 1.40322 12.3532 1.47369 12.3448 1.54319V2.05729H1.04617V1.54319ZM12.3448 18.4568C12.3532 18.5263 12.3454 18.5968 12.3221 18.6629C12.2988 18.7291 12.2605 18.7891 12.2102 18.8386C12.1598 18.8881 12.0987 18.9257 12.0314 18.9486C11.9641 18.9716 11.8924 18.9792 11.8217 18.9709H1.56925C1.43052 18.9709 1.29747 18.9167 1.19937 18.8203C1.10128 18.7239 1.04617 18.5932 1.04617 18.4568V16.9659H12.3448V18.4568ZM12.3448 15.9378H1.04617V3.08547H12.3448V4.47352C11.0812 4.59944 9.91024 5.18186 9.0587 6.10791C8.20717 7.03397 7.73572 8.23772 7.73572 9.48591C7.73572 10.7341 8.20717 11.9378 9.0587 12.8639C9.91024 13.79 11.0812 14.3724 12.3448 14.4983V15.9378ZM13.3909 13.4701H12.3448C11.3691 13.3354 10.4744 12.8625 9.82224 12.1367C9.17003 11.4108 8.80317 10.4798 8.78781 9.51161C8.78101 8.5372 9.14015 7.59457 9.79645 6.86418C10.4527 6.1338 11.3601 5.66698 12.3448 5.55311H13.3909C14.3803 5.65586 15.2945 6.11943 15.953 6.85229C16.6115 7.58516 16.9665 8.53405 16.9479 9.51161C16.9434 10.4829 16.5803 11.4196 15.9261 12.1476C15.2719 12.8757 14.3711 13.3456 13.3909 13.4701Z" fill="#3B5998"/>
<path d="M15.4833 8.68904L13.391 10.7454L12.6586 11.5165L12.3448 11.6194H12.2402L11.874 11.5165L10.2525 9.92286C10.1532 9.81817 10.098 9.68039 10.098 9.53729C10.098 9.39419 10.1532 9.2564 10.2525 9.15172C10.3592 9.0764 10.4872 9.03588 10.6186 9.03588C10.75 9.03588 10.8781 9.0764 10.9848 9.15172L12.2402 10.3855L14.751 7.96931C14.7959 7.91038 14.8533 7.86164 14.9191 7.82639C14.9849 7.79113 15.0576 7.77019 15.1324 7.76497C15.2071 7.75974 15.2821 7.77037 15.3523 7.79613C15.4226 7.82188 15.4863 7.86216 15.5393 7.91425C15.5923 7.96633 15.6333 8.02899 15.6595 8.098C15.6857 8.167 15.6965 8.24074 15.6912 8.31421C15.6859 8.38768 15.6646 8.45917 15.6287 8.52384C15.5928 8.58851 15.5432 8.64484 15.4833 8.68904Z" fill="#3B5998"/>
</svg>
