<svg width="17" height="18" viewBox="0 0 17 18" fill="none" xmlns="http://www.w3.org/2000/svg">
<path d="M7.8271 16.0429C6.28453 16.0525 4.77394 15.6036 3.48733 14.7534C2.20072 13.9031 1.19619 12.6899 0.601425 11.2679C0.00666254 9.84586 -0.151475 8.27927 0.147113 6.76724C0.445702 5.2552 1.18753 3.866 2.27831 2.77622C3.36909 1.68644 4.75956 0.945293 6.27298 0.646979C7.78641 0.348664 9.35443 0.506656 10.7778 1.10087C12.2011 1.69509 13.4154 2.6987 14.2665 3.98413C15.1175 5.26957 15.5667 6.77878 15.5571 8.31993C15.5571 10.3682 14.7427 12.3325 13.293 13.7809C11.8434 15.2292 9.87723 16.0429 7.8271 16.0429ZM7.8271 1.51986C6.47891 1.51024 5.15824 1.90087 4.03257 2.64219C2.9069 3.38352 2.02696 4.44215 1.50434 5.68382C0.981726 6.92549 0.839982 8.29426 1.09709 9.61653C1.3542 10.9388 1.99857 12.155 2.94848 13.1109C3.8984 14.0667 5.11105 14.7192 6.43266 14.9856C7.75426 15.2519 9.12526 15.1201 10.3718 14.6069C11.6183 14.0937 12.6842 13.2221 13.4343 12.1028C14.1843 10.9835 14.5848 9.66691 14.5848 8.31993C14.5848 6.52482 13.8744 4.80252 12.6085 3.52865C11.3426 2.25477 9.62381 1.53268 7.8271 1.51986Z" fill="#3B5998"/>
<path d="M9.28561 17.4998C8.08557 17.496 6.90288 17.2131 5.83121 16.6736C4.75954 16.134 3.82833 15.3526 3.11133 14.3912L3.88919 13.8083C4.7429 14.9399 5.93133 15.7744 7.28616 16.1937C8.64098 16.613 10.0935 16.5957 11.438 16.1444C12.7824 15.6931 13.9507 14.8306 14.7772 13.679C15.6038 12.5275 16.0467 11.1453 16.0433 9.72826C16.0494 8.73118 15.8295 7.74566 15.4001 6.84559C14.9707 5.94551 14.3429 5.15422 13.5639 4.53106L14.1959 3.75391C15.4211 4.77215 16.3037 6.1418 16.7242 7.67758C17.1448 9.21336 17.0831 10.8411 16.5474 12.3407C16.0117 13.8403 15.028 15.1393 13.7292 16.062C12.4304 16.9847 10.8792 17.4866 9.28561 17.4998Z" fill="#3B5998"/>
<path d="M9.72306 10.7975C9.27857 11.0506 8.77613 11.1844 8.26456 11.1861C7.49093 11.1861 6.74898 10.8791 6.20194 10.3325C5.6549 9.78597 5.34758 9.0447 5.34758 8.27177C5.34752 7.89131 5.42329 7.51465 5.57047 7.16376C5.71765 6.81286 5.93329 6.49476 6.20482 6.22801C6.47634 5.96125 6.79831 5.75118 7.15195 5.61006C7.50559 5.46893 7.88381 5.39957 8.26456 5.40601C8.77899 5.38413 9.28784 5.5197 9.72306 5.79459C9.84071 5.85065 9.97481 5.86184 10.1001 5.82606C10.2255 5.79028 10.3334 5.71 10.4037 5.6003C10.457 5.48995 10.4665 5.36356 10.4305 5.24647C10.3944 5.12937 10.3154 5.03021 10.2092 4.96886C9.6193 4.62303 8.94853 4.43873 8.26456 4.43457C7.3142 4.54123 5.95033 4.99397 5.31296 5.7063C4.67559 6.41862 4.32324 7.3406 4.32324 8.29606C4.32324 9.25152 4.67559 10.1735 5.31296 10.8858C5.95033 11.5981 7.3142 12.0509 8.26456 12.1575C8.94853 12.1534 9.6193 11.9691 10.2092 11.6233C10.2752 11.598 10.3349 11.5588 10.3842 11.5081C10.4335 11.4575 10.4711 11.3968 10.4944 11.3301C10.5178 11.2635 10.5264 11.1926 10.5195 11.1223C10.5126 11.0521 10.4905 10.9841 10.4547 10.9233C10.4188 10.8624 10.3702 10.8101 10.312 10.77C10.2539 10.7298 10.1877 10.7028 10.1181 10.6909C10.0484 10.6789 9.97699 10.6822 9.90878 10.7007C9.84056 10.7191 9.77718 10.7521 9.72306 10.7975Z" fill="#3B5998"/>
<path d="M7.82701 6.81423H3.9863C3.92489 6.80737 3.86273 6.81358 3.80389 6.83246C3.74506 6.85133 3.6909 6.88244 3.64497 6.92374C3.59904 6.96504 3.56239 7.01558 3.53742 7.07205C3.51246 7.12852 3.49975 7.18964 3.50013 7.25137C3.49231 7.31703 3.49951 7.38362 3.52118 7.4461C3.54285 7.50858 3.57842 7.56534 3.62523 7.6121C3.67203 7.65886 3.72884 7.6944 3.79138 7.71605C3.85393 7.7377 3.92057 7.74489 3.9863 7.73708H7.82701C7.95595 7.73708 8.07961 7.6859 8.17078 7.59482C8.26195 7.50373 8.31318 7.38019 8.31318 7.25137C8.30108 7.13114 8.24457 7.01974 8.15467 6.93891C8.06478 6.85808 7.94795 6.81363 7.82701 6.81423Z" fill="#3B5998"/>
<path d="M7.82701 8.70898H3.9863C3.85736 8.70898 3.7337 8.76016 3.64253 8.85125C3.55136 8.94234 3.50013 9.06589 3.50013 9.19471C3.49231 9.26038 3.49951 9.32697 3.52118 9.38945C3.54285 9.45194 3.57842 9.5087 3.62523 9.55546C3.67203 9.60222 3.72884 9.63777 3.79138 9.65941C3.85393 9.68106 3.92057 9.68825 3.9863 9.68044H7.82701C7.95595 9.68044 8.07961 9.62927 8.17078 9.53818C8.26195 9.44708 8.31318 9.32354 8.31318 9.19471C8.30222 9.06957 8.24748 8.95228 8.15857 8.86345C8.06966 8.77462 7.95227 8.71993 7.82701 8.70898Z" fill="#3B5998"/>
</svg>
