<svg xmlns="http://www.w3.org/2000/svg" width="29.6" height="29.6"><rect id="backgroundrect" width="100%" height="100%" x="0" y="0" fill="none" stroke="none"/><g class="currentLayer" style=""><title>Layer 1</title><g id="Laag_2" data-name="Laag 2" class="selected" fill-opacity="1" fill="#61c3ff"><g id="Laag_1-2" data-name="Laag 1" fill="#61c3ff"><path d="M28.3,14.7V10.9a3,3,0,0,0-2.5-3L22.1,1.5A3.1,3.1,0,0,0,20.3.1,3.1,3.1,0,0,0,18,.4L5.2,7.9H3a2.9,2.9,0,0,0-3,3V26.6a2.9,2.9,0,0,0,3,3H25.3a2.9,2.9,0,0,0,3-3V22.8a2.3,2.3,0,0,0,1.3-2.1V16.8A2.3,2.3,0,0,0,28.3,14.7ZM22.4,6.3l.9,1.6H19.7ZM21.1,4l.3.5L15.6,7.9H14.5ZM19,2.2a.9.9,0,0,1,.7-.1H20L10.4,7.9H9.3Zm7.2,24.4a1,1,0,0,1-.9,1H3a1,1,0,0,1-.9-1V10.9a1,1,0,0,1,.9-1H25.3a1,1,0,0,1,.9,1v3.5H22.7a4.4,4.4,0,0,0,0,8.7h3.5Zm1.4-5.9a.3.3,0,0,1-.3.3H22.7a2.3,2.3,0,1,1,0-4.5h4.6a.3.3,0,0,1,.3.3Z" id="svg_1" fill="#61c3ff"/><path d="M24.4,18.7a1.7,1.7,0,0,1-3.4,0,1.7,1.7,0,0,1,3.4,0Z" id="svg_2" fill="#61c3ff"/></g></g></g></svg>