<svg width="17" height="18" viewBox="0 0 17 18" fill="none" xmlns="http://www.w3.org/2000/svg">
<path d="M16.2533 8.94184V6.75949C16.2591 6.3482 16.1175 5.94843 15.8542 5.63244C15.5909 5.31645 15.2232 5.10509 14.8176 5.03658L12.6928 1.36103C12.4628 0.971419 12.0932 0.683942 11.659 0.557007C11.213 0.441348 10.7396 0.503105 10.3382 0.729299L2.98731 5.03658H1.72388C1.49547 5.02856 1.26786 5.06763 1.0552 5.15138C0.842546 5.23513 0.649403 5.36175 0.487793 5.52336C0.326183 5.68497 0.199567 5.87812 0.115824 6.09079C0.032081 6.30345 -0.00699565 6.53107 0.00102623 6.75949V15.7761C-0.00699565 16.0045 0.032081 16.2321 0.115824 16.4448C0.199567 16.6574 0.326183 16.8506 0.487793 17.0122C0.649403 17.1738 0.842546 17.3004 1.0552 17.3842C1.26786 17.4679 1.49547 17.507 1.72388 17.499H14.5305C14.7589 17.507 14.9865 17.4679 15.1991 17.3842C15.4118 17.3004 15.6049 17.1738 15.7666 17.0122C15.9282 16.8506 16.0548 16.6574 16.1385 16.4448C16.2223 16.2321 16.2613 16.0045 16.2533 15.7761V13.5937C16.4796 13.4845 16.67 13.313 16.8022 13.0994C16.9345 12.8858 17.003 12.6389 16.9999 12.3877V10.1479C17.003 9.89667 16.9345 9.64977 16.8022 9.43615C16.67 9.22253 16.4796 9.05106 16.2533 8.94184ZM12.865 4.11769L13.3819 5.03658H11.3145L12.865 4.11769ZM12.1185 2.79679L12.2907 3.08394L8.95989 5.03658H8.32818L12.1185 2.79679ZM10.9125 1.76305C10.9721 1.72683 11.0385 1.70307 11.1076 1.6932C11.1767 1.68333 11.2471 1.68755 11.3145 1.70562H11.4867L5.9736 5.03658H5.34189L10.9125 1.76305ZM15.0473 15.7761C15.048 15.9189 14.9955 16.0569 14.8999 16.1631C14.8043 16.2693 14.6726 16.3361 14.5305 16.3504H1.72388C1.58174 16.3361 1.45001 16.2693 1.35444 16.1631C1.25887 16.0569 1.20631 15.9189 1.20703 15.7761V6.75949C1.20631 6.61662 1.25887 6.47862 1.35444 6.37242C1.45001 6.26623 1.58174 6.19947 1.72388 6.18519H14.5305C14.6726 6.19947 14.8043 6.26623 14.8999 6.37242C14.9955 6.47862 15.048 6.61662 15.0473 6.75949V8.76955H13.0373C12.4399 8.8604 11.8947 9.16239 11.5008 9.62073C11.1069 10.0791 10.8903 10.6634 10.8903 11.2678C10.8903 11.8721 11.1069 12.4565 11.5008 12.9148C11.8947 13.3732 12.4399 13.6751 13.0373 13.766H15.0473V15.7761ZM15.8513 12.3877C15.8513 12.4334 15.8332 12.4772 15.8009 12.5095C15.7686 12.5418 15.7247 12.56 15.679 12.56H13.0373C12.8449 12.6008 12.6458 12.5981 12.4545 12.5521C12.2633 12.5061 12.0847 12.4179 11.9319 12.2941C11.779 12.1702 11.6558 12.0138 11.5711 11.8363C11.4865 11.6587 11.4425 11.4645 11.4425 11.2678C11.4425 11.0711 11.4865 10.8768 11.5711 10.6993C11.6558 10.5217 11.779 10.3653 11.9319 10.2415C12.0847 10.1176 12.2633 10.0295 12.4545 9.9835C12.6458 9.9375 12.8449 9.9348 13.0373 9.97559H15.679C15.7247 9.97559 15.7686 9.99374 15.8009 10.0261C15.8332 10.0584 15.8513 10.1022 15.8513 10.1479V12.3877Z" fill="#3B5998"/>
</svg>
