<svg xmlns="http://www.w3.org/2000/svg" width="17.695" height="15.424"><rect id="backgroundrect" width="100%" height="100%" x="0" y="0" fill="none" stroke="none"/>
  
<g class="currentLayer" style=""><title>Layer 1</title><path id="Icon_payment-ideal" data-name="Icon payment-ideal" d="M17.69400023651123,7.678999618530273 q0,4.207 -2.27,6.076 a7.865,7.865 0 0 1 -5.208,1.669 H2.365112301561112e-7 V-3.8146972514141453e-7 H10.216000236511231 a7.489,7.489 0 0 1 5.208,1.8 a5.763,5.763 0 0 1 1.669,2.4 a9.141,9.141 0 0 1 0.6000000000000001,3.472 zm-1,0 A6.553,6.553 0 0 0 14.752000236511229,2.536999618530274 a6.9,6.9 0 0 0 -4.741,-1.536 H1.0010002365112314 V14.421999618530272 h9.014 q6.676,0 6.6770000000000005,-6.744 zM3.4050002365112313,4.7409996185302745 a1.6,1.6 0 1 0 1.135,0.467 a1.548,1.548 0 0 0 -1.135,-0.467 zm-1.469,8.68 h2.871 V8.679999618530275 H1.93600023651123 v4.741 zM13.752000236511229,7.878999618530273 h2 q0,5.543 -6.21,5.542 H6.143000236511231 V7.878999618530273 h0.3340000000000001 a1.3900000000000001,1.3900000000000001 0 0 0 0.534,-0.06700000000000002 a1.533,1.533 0 0 0 0.4,-0.2 a1.572,1.572 0 0 0 0.3340000000000001,-0.534 a1.6750000000000003,1.6750000000000003 0 0 0 0.06700000000000002,-0.6000000000000001 a2.141,2.141 0 0 0 -0.03300000000000001,-0.3340000000000001 a1.8920000000000001,1.8920000000000001 0 0 1 -0.03300000000000001,-0.267 a1.831,1.831 0 0 0 -0.16700000000000004,-0.267 a0.405,0.405 0 0 1 -0.1,-0.2 a0.7360000000000001,0.7360000000000001 0 0 0 -0.467,-0.267 a1.408,1.408 0 0 0 -0.534,-0.06700000000000002 h-0.3340000000000001 v-2.8 H9.55200023651123 q5.875,0 6.21,5.008 H14.489000236511231 v-2.2 H13.752000236511229 v2.8 zm-6.6770000000000005,-1.4 v0.467 l-0.134,0.2 c-0.09000000000000002,0.09000000000000002 -0.15700000000000003,0.134 -0.2,0.134 h-0.6000000000000001 v-1.6 h0.534 a0.38700000000000007,0.38700000000000007 0 0 1 0.267,0.134 c0,0.04500000000000001 0.04400000000000001,0.11100000000000002 0.134,0.2 v0.468 zm3.4050000000000002,0.8 H8.952000236511232 v-0.534 h1.335 v-0.6000000000000001 H8.952000236511232 v-0.467 h1.469 v-0.6000000000000001 H8.27900023651123 v2.8 h2.2 v-0.6000000000000001 zm3,0.6000000000000001 l-1.068,-2.8 h-0.7350000000000001 l-1.068,2.8 H11.35200023651123 l0.2,-0.6000000000000001 h1 a3.971,3.971 0 0 0 0.2,0.6000000000000001 zm-1.669,-1.2 l0.134,-0.4 a1.115,1.115 0 0 0 0.06700000000000002,-0.3340000000000001 a2.121,2.121 0 0 1 0.267,0.7340000000000001 z" class="" fill-opacity="1" fill="#3b5998"/></g></svg>