<svg width="20" height="20" viewBox="0 0 20 20" fill="none" xmlns="http://www.w3.org/2000/svg">
<path d="M19.1215 9.88735V7.32549C19.1241 6.84017 18.9457 6.37123 18.621 6.00987C18.2963 5.64852 17.8485 5.42057 17.3648 5.37037L14.9323 1.05565C14.6342 0.580803 14.1807 0.223503 13.6486 0.044381C13.1444 -0.0560818 12.6209 0.0151352 12.1621 0.246634L3.51349 5.30296H2.02701C1.48942 5.30296 0.973839 5.51604 0.5937 5.89534C0.213561 6.27464 0 6.78908 0 7.32549V17.9775C0 18.5139 0.213561 19.0283 0.5937 19.4076C0.973839 19.7869 1.48942 20 2.02701 20H17.0945C17.6267 19.9831 18.1325 19.7646 18.5091 19.3889C18.8856 19.0132 19.1046 18.5085 19.1215 17.9775V15.4156C19.3877 15.2874 19.6117 15.0861 19.7673 14.8353C19.9229 14.5846 20.0036 14.2947 19.9999 13.9998V11.3031C20.0036 11.0082 19.9229 10.7184 19.7673 10.4676C19.6117 10.2169 19.3877 10.0156 19.1215 9.88735ZM15.135 4.22427L15.7431 5.30296H13.3107L15.135 4.22427ZM14.2567 2.74109L14.4594 3.01076L10.4729 5.30296H9.79724L14.2567 2.74109ZM12.8378 1.46015H13.3107L13.5134 1.59499L7.02698 5.30296H6.21618L12.8378 1.46015ZM17.7026 17.9775C17.7026 18.1384 17.6385 18.2927 17.5245 18.4065C17.4104 18.5203 17.2558 18.5842 17.0945 18.5842H2.02701C1.85893 18.5851 1.69657 18.5234 1.57163 18.4112C1.44669 18.299 1.36815 18.1443 1.35134 17.9775V7.32549C1.36815 7.15861 1.44669 7.00398 1.57163 6.89178C1.69657 6.77959 1.85893 6.71789 2.02701 6.71873H17.0945C17.2558 6.71873 17.4104 6.78265 17.5245 6.89644C17.6385 7.01023 17.7026 7.16456 17.7026 7.32549V9.75252H15.3377C14.5672 9.75252 13.8282 10.0579 13.2833 10.6016C12.7385 11.1453 12.4324 11.8826 12.4324 12.6515C12.4324 13.4203 12.7385 14.1577 13.2833 14.7014C13.8282 15.245 14.5672 15.5504 15.3377 15.5504H17.7026V17.9775ZM18.581 13.9998C18.581 14.0672 18.5134 14.2021 18.4458 14.2021H15.3377C14.9256 14.2021 14.5303 14.0387 14.2389 13.7479C13.9474 13.4571 13.7837 13.0627 13.7837 12.6515C13.7835 12.4509 13.8241 12.2524 13.903 12.0679C13.9818 11.8834 14.0974 11.7168 14.2427 11.5781C14.388 11.4395 14.5599 11.3317 14.7481 11.2612C14.9363 11.1908 15.1369 11.1592 15.3377 11.1683H18.4458C18.4817 11.1683 18.516 11.1825 18.5414 11.2078C18.5667 11.2331 18.581 11.2674 18.581 11.3031V13.9998Z" fill="#3B5998"/>
<path d="M16.4864 12.6515C16.4701 12.9502 16.3439 13.2324 16.1319 13.4439C15.9199 13.6555 15.6371 13.7814 15.3377 13.7976C15.0331 13.7976 14.741 13.6768 14.5255 13.4619C14.3101 13.247 14.1891 12.9554 14.1891 12.6515C14.1891 12.3475 14.3101 12.056 14.5255 11.8411C14.741 11.6261 15.0331 11.5054 15.3377 11.5054C15.6371 11.5216 15.9199 11.6475 16.1319 11.859C16.3439 12.0706 16.4701 12.3528 16.4864 12.6515Z" fill="#3B5998"/>
</svg>
