<svg width="17" height="18" viewBox="0 0 17 18" fill="none" xmlns="http://www.w3.org/2000/svg">
<path d="M15.4986 0.5H1.50142C1.10322 0.5 0.721329 0.669278 0.439757 0.970594C0.158185 1.27191 0 1.68058 0 2.10671V12.4726C0 12.8987 0.158185 13.3074 0.439757 13.6087C0.721329 13.91 1.10322 14.0793 1.50142 14.0793H6.2963L5.95727 16.4116H5.2792C5.15442 16.4233 5.03746 16.4816 4.94889 16.5764C4.86032 16.6712 4.80578 16.7963 4.79487 16.9299C4.79432 17.0725 4.84375 17.2102 4.93342 17.3157C5.02308 17.4213 5.14646 17.487 5.2792 17.5H11.6724C11.7403 17.5004 11.8075 17.4854 11.8696 17.4562C11.9318 17.427 11.9875 17.3841 12.0332 17.3303C12.0788 17.2766 12.1134 17.2132 12.1347 17.1442C12.156 17.0752 12.1635 17.0022 12.1567 16.9299C12.1567 16.7924 12.1057 16.6606 12.0148 16.5634C11.924 16.4662 11.8008 16.4116 11.6724 16.4116H11.0427L10.6553 14.0793H15.4986C15.6957 14.0793 15.891 14.0377 16.0731 13.957C16.2553 13.8762 16.4208 13.7579 16.5602 13.6087C16.6997 13.4595 16.8103 13.2824 16.8857 13.0874C16.9612 12.8925 17 12.6836 17 12.4726V2.10671C17 1.89571 16.9612 1.68678 16.8857 1.49185C16.8103 1.29691 16.6997 1.11979 16.5602 0.970594C16.4208 0.821397 16.2553 0.703048 16.0731 0.622303C15.891 0.541559 15.6957 0.5 15.4986 0.5ZM10.0256 16.4116H6.97436L7.31339 14.0793H9.63818L10.0256 16.4116ZM15.9829 12.4726C15.9907 12.5426 15.9835 12.6137 15.9619 12.6804C15.9404 12.747 15.9049 12.8076 15.8583 12.8575C15.8117 12.9074 15.7551 12.9453 15.6928 12.9684C15.6304 12.9915 15.5641 12.9992 15.4986 12.9908H1.50142C1.43387 12.9981 1.36565 12.9901 1.30117 12.9673C1.2367 12.9446 1.17743 12.9075 1.12719 12.8587C1.07695 12.8098 1.03688 12.7502 1.00957 12.6836C0.982258 12.6171 0.968321 12.5452 0.968661 12.4726V2.10671C0.968661 1.9555 1.02479 1.81049 1.1247 1.70357C1.22462 1.59665 1.36013 1.53659 1.50142 1.53659H7.99145V2.15854C7.99145 2.296 8.04248 2.42783 8.13331 2.52502C8.22414 2.62222 8.34733 2.67683 8.47578 2.67683C8.54334 2.68409 8.61156 2.67608 8.67603 2.65331C8.74051 2.63054 8.79978 2.59351 8.85002 2.54464C8.90026 2.49577 8.94033 2.43614 8.96764 2.36962C8.99495 2.30311 9.00889 2.23119 9.00855 2.15854V1.53659H15.4986C15.5665 1.53622 15.6337 1.55114 15.6958 1.58036C15.758 1.60959 15.8137 1.65247 15.8594 1.70623C15.905 1.75999 15.9396 1.82342 15.9609 1.89242C15.9822 1.96141 15.9897 2.03442 15.9829 2.10671V12.4726Z" fill="#3B5998"/>
<path d="M6.8773 7.28946C6.74455 7.30243 6.62117 7.36817 6.53151 7.47372C6.44185 7.57926 6.39241 7.71694 6.39297 7.85958V9.56994H5.27901V6.14922C5.27935 6.07657 5.26541 6.00465 5.2381 5.93813C5.21079 5.87162 5.17072 5.81199 5.12048 5.76312C5.07024 5.71425 5.01097 5.67722 4.94649 5.65445C4.88202 5.63168 4.8138 5.62366 4.74624 5.63093C4.61779 5.63093 4.4946 5.68553 4.40377 5.78273C4.31294 5.87993 4.26192 6.01176 4.26192 6.14922V9.56994H3.14796V4.43886C3.14796 4.3014 3.09693 4.16957 3.0061 4.07237C2.91527 3.97517 2.79208 3.92057 2.66363 3.92057C2.59608 3.9133 2.52785 3.92131 2.46338 3.94409C2.39891 3.96686 2.33963 4.00388 2.28939 4.05276C2.23916 4.10163 2.19908 4.16126 2.17177 4.22777C2.14446 4.29429 2.13053 4.36621 2.13087 4.43886V10.1401C2.14298 10.2821 2.20442 10.4141 2.30305 10.5101C2.40168 10.606 2.53033 10.6589 2.66363 10.6584H6.8773C7.01059 10.6589 7.13925 10.606 7.23788 10.5101C7.33651 10.4141 7.39794 10.2821 7.41006 10.1401V7.85958C7.41006 7.70838 7.35393 7.56336 7.25401 7.45645C7.1541 7.34953 7.01859 7.28946 6.8773 7.28946Z" fill="#3B5998"/>
<path d="M11.9628 4.17969C11.1921 4.17969 10.4529 4.50732 9.90796 5.09052C9.36298 5.67371 9.05681 6.46469 9.05681 7.28945C9.04857 7.68543 9.11753 8.07891 9.25929 8.44478C9.40105 8.81066 9.61251 9.1409 9.88018 9.41446C9.88018 9.46629 9.88018 9.46629 9.92861 9.46629C10.1934 9.75417 10.5105 9.98088 10.8604 10.1324C11.2103 10.284 11.5855 10.3571 11.9628 10.3474C12.7207 10.3474 13.4475 10.0252 13.9834 9.45174C14.5193 8.87827 14.8204 8.10047 14.8204 7.28945C14.8205 6.47359 14.521 5.69037 13.9864 5.10864C13.4519 4.52691 12.7251 4.19329 11.9628 4.17969ZM13.7548 6.71933H12.4471V5.31994C12.7589 5.41366 13.043 5.5916 13.272 5.83666C13.501 6.08172 13.6672 6.38567 13.7548 6.71933ZM11.43 5.31994V7.08214L10.3161 8.27421C10.1725 8.00835 10.0874 7.71097 10.0672 7.40465C10.0471 7.09833 10.0924 6.79113 10.1998 6.50636C10.3072 6.2216 10.4738 5.96675 10.6869 5.76118C10.9001 5.5556 11.1542 5.4047 11.43 5.31994ZM10.9941 9.05165L12.1565 7.80775H13.7548C13.6813 8.10739 13.5444 8.38495 13.3548 8.61898C13.1651 8.85301 12.9276 9.03725 12.6608 9.15747C12.394 9.27769 12.105 9.33067 11.816 9.31232C11.527 9.29398 11.2458 9.20479 10.9941 9.05165Z" fill="#3B5998"/>
</svg>
