<svg xmlns="http://www.w3.org/2000/svg" width="35" height="37.8"><rect id="backgroundrect" width="100%" height="100%" x="0" y="0" fill="none" stroke="none"/><g class="currentLayer" style=""><title>Layer 1</title><g id="Laag_2" data-name="Laag 2" class="" fill-opacity="1" fill="#61c3ff"><g id="Laag_1-2" data-name="Laag 1" fill="#61c3ff"><path d="M8.6,37.8H2.1A1.6,1.6,0,0,1,.4,36.2V23.9a1.7,1.7,0,0,1,1.7-1.7H8.6a1.7,1.7,0,0,1,1.7,1.7V36.2A1.6,1.6,0,0,1,8.6,37.8Zm-6.2-2H8.3V24.2H2.4Z" id="svg_1" fill="#61c3ff"/><path d="M20.9,37.8H14.5a1.7,1.7,0,0,1-1.7-1.7V20.5a1.7,1.7,0,0,1,1.7-1.8h6.4a1.8,1.8,0,0,1,1.8,1.8V36.1A1.8,1.8,0,0,1,20.9,37.8Zm-6.1-2h5.9V20.7H14.8Z" id="svg_2" fill="#61c3ff"/><path d="M33.2,37.8H27A1.8,1.8,0,0,1,25.1,36V14.7A1.9,1.9,0,0,1,27,12.8h6.2A1.9,1.9,0,0,1,35,14.7V36A1.8,1.8,0,0,1,33.2,37.8Zm-6.1-2H33v-21H27.1Z" id="svg_3" fill="#61c3ff"/><path d="M34,9.7a1.1,1.1,0,0,1-1-1V2H26.1a1,1,0,0,1,0-2H34a.9.9,0,0,1,1,1V8.7A1,1,0,0,1,34,9.7Z" id="svg_4" fill="#61c3ff"/><path d="M1,20.7a.9.9,0,0,1-.7-.3A1,1,0,0,1,.3,19L12.4,7.9l.7-.2H25.7L33.3.3a1.1,1.1,0,0,1,1.4.1,1,1,0,0,1,0,1.4L26.8,9.4a.9.9,0,0,1-.7.3H13.5L1.7,20.5Z" id="svg_5" fill="#61c3ff"/></g></g></g></svg>