<svg xmlns="http://www.w3.org/2000/svg" width="29.25" height="29.25" viewBox="0 0 29.25 29.25">
  <g id="Icon_ionic-ios-arrow-dropup" data-name="Icon ionic-ios-arrow-dropup" transform="translate(-3.375 -3.375)">
    <path id="Path_15" data-name="Path 15" d="M10.378,21.185a1.362,1.362,0,0,1,0-1.92l6.729-6.708a1.356,1.356,0,0,1,1.87-.042l6.63,6.609a1.355,1.355,0,1,1-1.912,1.92L18,15.434l-5.7,5.759A1.356,1.356,0,0,1,10.378,21.185Z" fill="#40527a"/>
    <path id="Path_16" data-name="Path 16" d="M18,32.625A14.625,14.625,0,1,0,3.375,18,14.623,14.623,0,0,0,18,32.625Zm0-2.25A12.37,12.37,0,0,1,9.253,9.253,12.37,12.37,0,1,1,26.747,26.747,12.269,12.269,0,0,1,18,30.375Z" fill="#40527a"/>
  </g>
</svg>
