<svg xmlns="http://www.w3.org/2000/svg" xmlns:xlink="http://www.w3.org/1999/xlink" viewBox="0 0 174.5 153.4"><defs><style>.cls-1{isolation:isolate;}.cls-2{fill:url(#Naamloos_verloop_9);}.cls-3{fill:url(#Naamloos_verloop_15);}.cls-4{mix-blend-mode:multiply;}.cls-5{fill:url(#Naamloos_verloop_8);}.cls-6{fill:#fff;}</style><linearGradient id="Naamloos_verloop_9" x1="-4383.05" y1="-2260.39" x2="-4381.85" y2="-2258.84" gradientTransform="matrix(68.62, 0, 0, -9.65, 300763.75, -21804.39)" gradientUnits="userSpaceOnUse"><stop offset="0" stop-color="#a9d25f"/><stop offset="1" stop-color="#eaf2f8"/></linearGradient><linearGradient id="Naamloos_verloop_15" x1="-4394.51" y1="-1998.8" x2="-4393.31" y2="-1997.25" gradientTransform="matrix(85.83, 0, 0, -96.49, 377176.4, -192715.16)" gradientUnits="userSpaceOnUse"><stop offset="0" stop-color="#43aedf"/><stop offset="1" stop-color="#a9d5ea"/></linearGradient><linearGradient id="Naamloos_verloop_8" x1="-4387.37" y1="-2007.04" x2="-4387.51" y2="-2005.77" gradientTransform="matrix(75.37, 0, 0, -75.37, 330804.39, -151117.46)" gradientUnits="userSpaceOnUse"><stop offset="0" stop-color="#306ba1"/><stop offset="1" stop-color="#31a8dd"/></linearGradient></defs><g class="cls-1"><g id="Laag_2" data-name="Laag 2"><g id="Laag_1-2" data-name="Laag 1"><g id="Group_6" data-name="Group 6"><g id="Group_3" data-name="Group 3"><g id="Group_2" data-name="Group 2"><g id="ios-business"><path id="Path_15" data-name="Path 15" class="cls-2" d="M17.7,12.8H95.8A6.4,6.4,0,0,0,95.9,0H17.7a6.5,6.5,0,0,0-6.3,6.5A6.5,6.5,0,0,0,17.7,12.8Z"/><path id="Path_16" data-name="Path 16" class="cls-3" d="M107.1,19.9H6.4A6.4,6.4,0,0,0,0,26.3a6.3,6.3,0,0,0,5.7,6.3V139a8.5,8.5,0,0,0,8.5,8.5H45.4a2.8,2.8,0,0,0,2.8-2.8V130.5a2.8,2.8,0,0,1,2.9-2.8H62.4a2.8,2.8,0,0,1,2.9,2.8v14.2a2.8,2.8,0,0,0,2.8,2.8H99.3a8.5,8.5,0,0,0,8.5-8.5V32.6a6.3,6.3,0,0,0,5.7-7,6.2,6.2,0,0,0-6.4-5.7ZM34,113.5a2.8,2.8,0,0,1-2.8,2.8H25.5a2.9,2.9,0,0,1-2.8-2.8v-5.7a2.8,2.8,0,0,1,2.8-2.8h5.7a2.7,2.7,0,0,1,2.8,2.8Zm0-22.7a2.8,2.8,0,0,1-2.8,2.8H25.5a2.9,2.9,0,0,1-2.8-2.8V85.1a2.8,2.8,0,0,1,2.8-2.8h5.7A2.7,2.7,0,0,1,34,85.1Zm0-22.7a2.7,2.7,0,0,1-2.8,2.8H25.5a2.8,2.8,0,0,1-2.8-2.8V62.4a2.8,2.8,0,0,1,2.8-2.8h5.7A2.7,2.7,0,0,1,34,62.4Zm0-22.7a2.7,2.7,0,0,1-2.8,2.8H25.5a2.8,2.8,0,0,1-2.8-2.8V39.7a2.9,2.9,0,0,1,2.8-2.8h5.7A2.8,2.8,0,0,1,34,39.7Zm28.4,68.1a2.9,2.9,0,0,1-2.8,2.8H53.9a2.8,2.8,0,0,1-2.8-2.8v-5.7a2.7,2.7,0,0,1,2.8-2.8h5.7a2.8,2.8,0,0,1,2.8,2.8Zm0-22.7a2.9,2.9,0,0,1-2.8,2.8H53.9a2.8,2.8,0,0,1-2.8-2.8V85.1a2.7,2.7,0,0,1,2.8-2.8h5.7a2.8,2.8,0,0,1,2.8,2.8Zm0-22.7a2.8,2.8,0,0,1-2.8,2.8H53.9a2.7,2.7,0,0,1-2.8-2.8V62.4a2.7,2.7,0,0,1,2.8-2.8h5.7a2.8,2.8,0,0,1,2.8,2.8Zm0-22.7a2.8,2.8,0,0,1-2.8,2.8H53.9a2.7,2.7,0,0,1-2.8-2.8V39.7a2.8,2.8,0,0,1,2.8-2.8h5.7a2.9,2.9,0,0,1,2.8,2.8Zm28.4,68.1a2.9,2.9,0,0,1-2.9,2.8H82.3a2.9,2.9,0,0,1-2.9-2.8v-5.7a2.8,2.8,0,0,1,2.9-2.8h5.6a2.8,2.8,0,0,1,2.9,2.8Zm0-22.7a2.9,2.9,0,0,1-2.9,2.8H82.3a2.9,2.9,0,0,1-2.9-2.8V85.1a2.8,2.8,0,0,1,2.9-2.8h5.6a2.8,2.8,0,0,1,2.9,2.8Zm0-22.7a2.8,2.8,0,0,1-2.9,2.8H82.3a2.8,2.8,0,0,1-2.9-2.8V62.4a2.8,2.8,0,0,1,2.9-2.8h5.6a2.8,2.8,0,0,1,2.9,2.8Zm0-22.7a2.8,2.8,0,0,1-2.9,2.8H82.3a2.8,2.8,0,0,1-2.9-2.8V39.7a2.9,2.9,0,0,1,2.9-2.8h5.6a2.9,2.9,0,0,1,2.9,2.8Z"/></g></g><g class="cls-4"><path class="cls-5" d="M83.9,150a8.2,8.2,0,0,1-8.2-8.2,7.7,7.7,0,0,1,2.5-5.7,7.2,7.2,0,0,1,3.2-2V113.6a8.2,8.2,0,0,1,8.1-8.2,8,8,0,0,1,5.7,2.4,7.8,7.8,0,0,1,2.5,5.8v20.1h11.9V113.6a7.8,7.8,0,0,1,2.4-5.8,8.1,8.1,0,0,1,5.8-2.4h11.3a8,8,0,0,1,5.8,2.4,8.3,8.3,0,0,1,2.3,5.8v20.1h12V113.6a7.8,7.8,0,0,1,2.4-5.8,8,8,0,0,1,5.8-2.4,7.8,7.8,0,0,1,5.7,2.4,7.7,7.7,0,0,1,2.4,5.8v20.5a7.2,7.2,0,0,1,3.2,2,7.7,7.7,0,0,1,2.5,5.7,8.4,8.4,0,0,1-2.4,5.8A8,8,0,0,1,163,150Zm73.5-45.2a13.8,13.8,0,0,1-9.8-4,9,9,0,0,1-1.5-1.9,14.6,14.6,0,0,1-1.6,1.9,14.3,14.3,0,0,1-4.4,3,14,14,0,0,1-5.4,1,13.7,13.7,0,0,1-9.7-4,14.6,14.6,0,0,1-1.6-1.9,9,9,0,0,1-1.5,1.9,13.8,13.8,0,0,1-9.8,4,13.5,13.5,0,0,1-9.7-4,14.6,14.6,0,0,1-1.6-1.9,9,9,0,0,1-1.5,1.9,13.8,13.8,0,0,1-9.8,4A13.8,13.8,0,0,1,75.7,91c0-2.4,1-5.5,3-9.5l8.1-21A8.7,8.7,0,0,1,90,56.3a7.4,7.4,0,0,1,4.8-1.7h57.6a8.1,8.1,0,0,1,4.9,1.7,8.3,8.3,0,0,1,3.1,4.3l7.8,21v.2a8.5,8.5,0,0,0,.7,1.6l1,2.3a25,25,0,0,1,.8,2.5,14.5,14.5,0,0,1,.4,2.8,13.4,13.4,0,0,1-4.1,9.8,14.3,14.3,0,0,1-4.4,3A13.9,13.9,0,0,1,157.4,104.8Z"/><path class="cls-6" d="M152.4,57.1a5.6,5.6,0,0,1,3.4,1.2,6.4,6.4,0,0,1,2.3,3.1l7.7,21.1c.2.3.4.9.9,1.9s.8,1.7,1,2.3.4,1.3.7,2.1a8.9,8.9,0,0,1,.3,2.2,10.9,10.9,0,0,1-3.3,8,14.2,14.2,0,0,1-3.7,2.5,12.2,12.2,0,0,1-4.3.8,10.8,10.8,0,0,1-8-3.3,10.9,10.9,0,0,1-3.3-8,11,11,0,0,1-3.4,8,10.4,10.4,0,0,1-8,3.3A11.4,11.4,0,0,1,123.4,91a10.9,10.9,0,0,1-3.3,8,10.8,10.8,0,0,1-8,3.3h0A11.3,11.3,0,0,1,100.8,91a11.3,11.3,0,0,1-11.3,11.3h0A11.3,11.3,0,0,1,78.2,91c0-2,1-4.8,2.8-8.5l8.2-21.1a5.8,5.8,0,0,1,2.3-3.1,5.6,5.6,0,0,1,3.3-1.2h57.6m5,50.8a5.4,5.4,0,0,1,3.9,1.7,5.1,5.1,0,0,1,1.7,4v22.6a5.6,5.6,0,0,1,4,1.7,5.2,5.2,0,0,1,1.7,3.9,5.4,5.4,0,0,1-1.7,4,5.2,5.2,0,0,1-4,1.7H83.9a5.1,5.1,0,0,1-4-1.7,5.4,5.4,0,0,1-1.7-4,5.2,5.2,0,0,1,1.7-3.9,5.4,5.4,0,0,1,4-1.7V113.6a5.4,5.4,0,0,1,1.6-4,5.8,5.8,0,0,1,4-1.7h0a5.6,5.6,0,0,1,4,1.7,5.4,5.4,0,0,1,1.7,4v22.6h16.9V113.6a5.8,5.8,0,0,1,5.7-5.7h11.3a5.4,5.4,0,0,1,4,1.7,5.4,5.4,0,0,1,1.6,4v22.6h17V113.6a5.8,5.8,0,0,1,5.7-5.7h0m-5-55.8H94.8a11.4,11.4,0,0,0-10.3,7.6l-8,20.8c-2.3,4.3-3.3,7.7-3.3,10.5A16,16,0,0,0,78,102.5a17.1,17.1,0,0,0,4.4,3.2l-.3.3a10.3,10.3,0,0,0-3.2,7.6v18.9a7.2,7.2,0,0,0-2.5,1.8,10.1,10.1,0,0,0-3.2,7.5,10.8,10.8,0,0,0,10.7,10.7H163a10.8,10.8,0,0,0,10.7-10.7,10.1,10.1,0,0,0-3.2-7.5,8.3,8.3,0,0,0-2.5-1.8V113.6a10.3,10.3,0,0,0-3.2-7.6l-.3-.3a17.1,17.1,0,0,0,4.4-3.2A16,16,0,0,0,173.7,91a15.5,15.5,0,0,0-.5-3.5q-.4-1.5-.9-2.7c-.3-.7-.6-1.5-1.1-2.5l-.6-1.5v-.2l-7.7-20.9a11.8,11.8,0,0,0-4-5.4,10.1,10.1,0,0,0-6.4-2.2Zm-29.2,50.8.2-.2.3.2Zm14.4,4.2a21.9,21.9,0,0,0,3.4-1,15.7,15.7,0,0,0,5.1-3.4,14.9,14.9,0,0,0,4.1,3l-.3.3a10.3,10.3,0,0,0-3.2,7.6v17.6h-7V113.6a10.5,10.5,0,0,0-2.1-6.5Zm-41-1.4a14,14,0,0,0,4.2-3,15.9,15.9,0,0,0,8.5,4.4,10.6,10.6,0,0,0-2.2,6.5v17.6h-6.9V113.6A10.2,10.2,0,0,0,97,106l-.4-.3Z"/></g><path class="cls-6" d="M168.8,132V113.6a11.3,11.3,0,0,0-2.9-7.7,19.3,19.3,0,0,0,3.6-2.8,16.8,16.8,0,0,0,5-12.1,16.4,16.4,0,0,0-.5-3.7c-.3-1.1-.6-2-.9-2.8L172,82a11.3,11.3,0,0,0-.7-1.5v-.2l-7.7-20.8a12,12,0,0,0-4.3-5.9,11.5,11.5,0,0,0-6.9-2.4H94.8A11.1,11.1,0,0,0,88,53.6a12.2,12.2,0,0,0-4.3,5.8l-8,20.7C73.4,84.6,72.4,88,72.4,91a16.8,16.8,0,0,0,5,12.1,19.3,19.3,0,0,0,3.6,2.8,11,11,0,0,0-3,7.7V132a8.7,8.7,0,0,0-2.2,1.7,11.3,11.3,0,0,0-3.4,8.1,11.1,11.1,0,0,0,3.4,8.2,11.3,11.3,0,0,0,8.1,3.4H163a11.3,11.3,0,0,0,8.1-3.4,11.5,11.5,0,0,0,3.4-8.2,11.3,11.3,0,0,0-3.4-8.1A9.1,9.1,0,0,0,168.8,132ZM78.2,91c0-2,1-4.8,2.8-8.5l8.2-21.1a5.8,5.8,0,0,1,2.3-3.1,5.6,5.6,0,0,1,3.3-1.2h57.6a5.6,5.6,0,0,1,3.4,1.2,6.4,6.4,0,0,1,2.3,3.1l7.7,21.1c.2.3.4.9.9,1.9s.8,1.7,1,2.3.4,1.3.7,2.1a8.9,8.9,0,0,1,.3,2.2,10.9,10.9,0,0,1-3.3,8,14.2,14.2,0,0,1-3.7,2.5,12.2,12.2,0,0,1-4.3.8,10.8,10.8,0,0,1-8-3.3,10.9,10.9,0,0,1-3.3-8,11,11,0,0,1-3.4,8,10.4,10.4,0,0,1-8,3.3A11.4,11.4,0,0,1,123.4,91a10.9,10.9,0,0,1-3.3,8,10.8,10.8,0,0,1-8,3.3h0A11.3,11.3,0,0,1,100.8,91a11.3,11.3,0,0,1-11.3,11.3h0A11.3,11.3,0,0,1,78.2,91Zm57,16.5a8.6,8.6,0,0,0-6.1-2.5H117.8a8.5,8.5,0,0,0-6.1,2.5,8.2,8.2,0,0,0-2.5,6.1v19.7H98.1V113.6a8.2,8.2,0,0,0-2.6-6.1,8.3,8.3,0,0,0-4.5-2.4,13.2,13.2,0,0,0,8.6-4.1l1.2-1.4a8.6,8.6,0,0,0,1.3,1.4,13.4,13.4,0,0,0,10,4.2,13.8,13.8,0,0,0,10.1-4.2,8.1,8.1,0,0,0,1.2-1.4,8.6,8.6,0,0,0,1.3,1.4,13.6,13.6,0,0,0,10,4.2,13.2,13.2,0,0,0,10.1-4.2,8.6,8.6,0,0,0,1.3-1.4,8.1,8.1,0,0,0,1.2,1.4,13.2,13.2,0,0,0,8.6,4.1,8.9,8.9,0,0,0-4.6,2.4,8.6,8.6,0,0,0-2.5,6.1v19.7H137.7V113.6A8.5,8.5,0,0,0,135.2,107.5ZM167,145.8a5.2,5.2,0,0,1-4,1.7H83.9a5.1,5.1,0,0,1-4-1.7,5.4,5.4,0,0,1-1.7-4,5.2,5.2,0,0,1,1.7-3.9,5.4,5.4,0,0,1,4-1.7V113.6a5.4,5.4,0,0,1,1.6-4,5.8,5.8,0,0,1,4-1.7h0a5.6,5.6,0,0,1,4,1.7,5.4,5.4,0,0,1,1.7,4v22.6h16.9V113.6a5.8,5.8,0,0,1,5.7-5.7h11.3a5.4,5.4,0,0,1,4,1.7,5.4,5.4,0,0,1,1.6,4v22.6h17V113.6a5.8,5.8,0,0,1,5.7-5.7h0a5.4,5.4,0,0,1,3.9,1.7,5.1,5.1,0,0,1,1.7,4v22.6a5.6,5.6,0,0,1,4,1.7,5.2,5.2,0,0,1,1.7,3.9A5.4,5.4,0,0,1,167,145.8Z"/><path class="cls-6" d="M147.3,101a8.1,8.1,0,0,1-1.2-1.4,8.6,8.6,0,0,1-1.3,1.4,13.2,13.2,0,0,1-10.1,4.2,13.6,13.6,0,0,1-10-4.2,8.6,8.6,0,0,1-1.3-1.4,8.1,8.1,0,0,1-1.2,1.4,13.8,13.8,0,0,1-10.1,4.2,13.4,13.4,0,0,1-10-4.2,8.6,8.6,0,0,1-1.3-1.4L99.6,101a13.2,13.2,0,0,1-8.6,4.1,8.3,8.3,0,0,1,4.5,2.4,8.2,8.2,0,0,1,2.6,6.1v19.7h11.1V113.6a8.2,8.2,0,0,1,2.5-6.1,8.5,8.5,0,0,1,6.1-2.5h11.3a8.6,8.6,0,0,1,6.1,2.5,8.5,8.5,0,0,1,2.5,6.1v19.7h11.1V113.6a8.6,8.6,0,0,1,2.5-6.1,8.9,8.9,0,0,1,4.6-2.4A13.2,13.2,0,0,1,147.3,101Zm-41,12.6v16.8H101V113.6a11,11,0,0,0-3-7.7,20,20,0,0,0,2.8-2,16.7,16.7,0,0,0,7.1,3.7A12.2,12.2,0,0,0,106.3,113.6Zm39.6,0v16.8h-5.3V113.6a12.2,12.2,0,0,0-1.6-6l2.3-.7a24.1,24.1,0,0,0,4.8-3,26.9,26.9,0,0,0,2.7,2A11.3,11.3,0,0,0,145.9,113.6Z"/></g></g></g></g></g></svg>