<svg width="18" height="18" viewBox="0 0 18 18" fill="none" xmlns="http://www.w3.org/2000/svg">
<g clip-path="url(#clip0_531_14966)">
<path d="M16.3302 15.9454L16.1476 15.8934L13.5911 14.9831C13.3102 14.8591 12.9918 14.8497 12.7041 14.9571C12.329 15.1007 11.9457 15.2223 11.5563 15.3212C10.8583 15.5138 10.1407 15.6272 9.41718 15.6594C7.36612 15.6661 5.39607 14.8617 3.93892 13.4226C3.24068 12.726 2.68758 11.8986 2.31149 10.988C1.9354 10.0774 1.74377 9.10154 1.74762 8.11675C1.74796 7.6013 1.8004 7.08719 1.90414 6.58222C2.28898 4.89785 3.23641 3.39383 4.59109 2.31675C6.014 1.20752 7.76748 0.603417 9.5737 0.600159C10.6487 0.595954 11.7135 0.808271 12.7041 1.22437C13.6539 1.61102 14.5148 2.18621 15.2346 2.91496C15.9207 3.5922 16.4653 4.39832 16.8369 5.28672C17.2086 6.17512 17.3999 7.12817 17.3998 8.09074C17.4022 9.53814 16.9657 10.9525 16.1476 12.1481L16.0433 12.2782C15.9437 12.4433 15.8897 12.6317 15.8867 12.8244L16.6433 15.5553V15.6073C16.634 15.6827 16.6014 15.7533 16.55 15.8092C16.4985 15.8652 16.4308 15.9037 16.3563 15.9194L16.3302 15.9454ZM13.1476 14.2549C13.3879 14.2603 13.6257 14.3042 13.852 14.3849L15.9128 15.1132L15.2867 12.8764C15.2812 12.5574 15.3623 12.2428 15.5215 11.9661L15.6259 11.81C16.5007 10.5263 16.8963 8.97737 16.7437 7.43285C16.5912 5.88834 15.9002 4.44606 14.7911 3.35711C14.1279 2.68941 13.3389 2.15905 12.4694 1.79657C11.562 1.41271 10.5854 1.21798 9.59979 1.22437C7.945 1.2159 6.33602 1.7659 5.03457 2.78491C3.7831 3.76255 2.90786 5.14037 2.55631 6.68626C2.4527 7.14729 2.40021 7.61828 2.39979 8.09074C2.39898 8.99926 2.57834 9.89897 2.92755 10.7381C3.27675 11.5773 3.78891 12.3393 4.43457 12.9804C5.09524 13.6386 5.8806 14.1592 6.74496 14.512C7.60932 14.8647 8.53542 15.0426 9.46935 15.0351C10.1315 15.0075 10.7881 14.9027 11.4259 14.723L12.4954 14.3849C12.703 14.3021 12.9241 14.258 13.1476 14.2549Z" fill="white"/>
<path d="M1.0173 18H0.939035L0.782513 17.896L0.678165 17.7659V17.5578C0.886861 16.4915 1.1999 14.8529 1.22599 14.7749C1.25208 14.6969 1.14773 14.5408 1.09556 14.4108C0.196595 13.06 -0.17504 11.4277 0.050864 9.82237C0.276768 8.21702 1.08457 6.74974 2.32164 5.69775L2.3999 5.80179C2.4921 5.90239 2.54102 6.03505 2.53614 6.17123C2.53126 6.30741 2.47298 6.43625 2.37382 6.53004C1.26091 7.65256 0.633461 9.16515 0.625992 10.7435C0.618648 11.9304 0.973473 13.0915 1.64338 14.0726C1.74072 14.1913 1.81193 14.329 1.85238 14.4769C1.89283 14.6248 1.90162 14.7795 1.87817 14.9309C1.85208 15.009 1.64338 16.1794 1.43469 17.1937L3.49556 16.3874C3.64551 16.328 3.80404 16.2929 3.96512 16.2834C4.14383 16.2871 4.32048 16.3223 4.48686 16.3874C5.74409 16.913 7.13609 17.0274 8.46267 16.7143C9.78925 16.4011 10.982 15.6766 11.8695 14.6448L12.3651 15.061C11.6976 15.8375 10.8692 16.4605 9.93701 16.8871C9.00477 17.3136 7.99085 17.5336 6.96512 17.5318C6.02567 17.524 5.09622 17.3386 4.22599 16.9856C4.14314 16.9519 4.0546 16.9343 3.96512 16.9336L3.70425 16.9856L1.0173 18Z" fill="white"/>
<path d="M7.2259 6.42627H7.33025C7.35634 6.45228 7.35634 6.47829 7.35634 6.53031V6.73838C7.35634 6.7904 7.35634 6.8164 7.33025 6.84241H5.47807V8.01282H7.06938C7.09547 8.03883 7.09547 8.06483 7.09547 8.11685V8.40295C7.09547 8.45497 7.09547 8.48098 7.06938 8.50699H5.47807V9.96349C5.47807 10.0155 5.47807 10.0415 5.45199 10.0675H5.00851C4.98242 10.0415 4.98242 10.0155 4.98242 9.96349V6.58232C4.98242 6.53031 4.98242 6.5043 5.00851 6.47829H7.2259V6.42627Z" fill="white"/>
<path d="M10.9824 10.0157C11.0085 10.1197 10.9824 10.1457 10.878 10.1457H10.4867L10.4085 10.0417L10.0954 9.18341H8.53019L8.21715 10.0677L8.13889 10.1718H7.77367C7.66932 10.1718 7.64323 10.1197 7.66932 10.0417L9.02584 6.55651C9.05193 6.47848 9.1041 6.45247 9.20845 6.45247H9.41715C9.45463 6.44893 9.49229 6.45702 9.52498 6.47565C9.55767 6.49427 9.58379 6.52251 9.59976 6.55651L10.9824 10.0157ZM9.41715 7.3888C9.36014 7.22953 9.32504 7.06329 9.3128 6.89463H9.28671V6.97265C9.28893 7.0344 9.2801 7.09605 9.26063 7.15472C9.23454 7.23274 9.23454 7.31077 9.20845 7.3888L8.68671 8.76727H9.96497L9.41715 7.3888Z" fill="white"/>
<path d="M14.6346 10.1715C14.6495 10.1855 14.6609 10.2028 14.6678 10.222C14.6747 10.2413 14.677 10.2618 14.6745 10.2821C14.6719 10.3023 14.6646 10.3217 14.6532 10.3387C14.6417 10.3556 14.6264 10.3696 14.6086 10.3795L14.452 10.5096C14.3738 10.5616 14.3216 10.5616 14.2694 10.4836L13.9042 10.0674C13.6574 10.2033 13.3769 10.2665 13.0955 10.2495C12.6974 10.2692 12.3065 10.1393 11.9999 9.88537C11.8672 9.75839 11.7635 9.60436 11.696 9.43379C11.6284 9.26323 11.5986 9.08013 11.6086 8.89702V7.70061C11.5986 7.5175 11.6284 7.33441 11.696 7.16384C11.7635 6.99327 11.8672 6.83924 11.9999 6.71227C12.3065 6.45838 12.6974 6.32844 13.0955 6.34814C13.4936 6.32844 13.8846 6.45838 14.1912 6.71227C14.3239 6.83924 14.4275 6.99327 14.4951 7.16384C14.5626 7.33441 14.5924 7.5175 14.5825 7.70061V8.89702C14.5924 9.21603 14.491 9.52857 14.2955 9.78133L14.6346 10.1715ZM12.1564 8.89702C12.146 9.01818 12.1642 9.14006 12.2095 9.25296C12.2548 9.36585 12.326 9.46663 12.4173 9.54725C12.5133 9.63069 12.6251 9.69433 12.7459 9.73451C12.8668 9.77469 12.9945 9.7906 13.1216 9.78133C13.2487 9.7906 13.3764 9.77469 13.4973 9.73451C13.6181 9.69433 13.7299 9.63069 13.8259 9.54725C13.9115 9.46229 13.9788 9.36079 14.0237 9.24898C14.0686 9.13717 14.09 9.01741 14.0868 8.89702V7.70061C14.0972 7.57946 14.079 7.45757 14.0337 7.34468C13.9884 7.23179 13.9172 7.13101 13.8259 7.05039C13.7299 6.96695 13.6181 6.9033 13.4973 6.86313C13.3764 6.82295 13.2487 6.80704 13.1216 6.81631C12.9945 6.80704 12.8668 6.82295 12.7459 6.86313C12.6251 6.9033 12.5133 6.96695 12.4173 7.05039C12.3317 7.13535 12.2644 7.23685 12.2195 7.34866C12.1746 7.46047 12.1532 7.58023 12.1564 7.70061V8.89702Z" fill="white"/>
</g>
<defs>
<clipPath id="clip0_531_14966">
<rect width="17.4" height="17.4" fill="white" transform="translate(0 0.600098)"/>
</clipPath>
</defs>
</svg>
