<svg width="17" height="16" viewBox="0 0 17 16" fill="none" xmlns="http://www.w3.org/2000/svg">
<path d="M16.2665 9.29136C16.2637 9.2497 16.257 9.20839 16.2465 9.16797L14.614 4.82087C14.9111 4.6287 15.1555 4.36529 15.3248 4.0546C15.4941 3.74392 15.583 3.39582 15.5835 3.04199C15.5835 2.85413 15.5089 2.67396 15.376 2.54113C15.2432 2.40829 15.063 2.33366 14.8752 2.33366C14.6873 2.33366 14.5071 2.40829 14.3743 2.54113C14.2415 2.67396 14.1668 2.85413 14.1668 3.04199C14.1668 3.19984 14.114 3.35315 14.0169 3.47761C13.9198 3.60206 13.7839 3.69053 13.6308 3.72898C13.4778 3.76744 13.3162 3.75367 13.1718 3.68987C13.0274 3.62607 12.9085 3.51588 12.8339 3.37679C12.6521 3.05416 12.3863 2.78679 12.0648 2.60312C11.7432 2.41945 11.3779 2.32633 11.0077 2.33366H9.2085V1.62533C9.2085 1.43746 9.13387 1.2573 9.00103 1.12446C8.86819 0.99162 8.68802 0.916992 8.50016 0.916992C8.3123 0.916992 8.13213 0.99162 7.9993 1.12446C7.86646 1.2573 7.79183 1.43746 7.79183 1.62533V2.33366H5.99266C5.62242 2.32633 5.25711 2.41945 4.93556 2.60312C4.61401 2.78679 4.34823 3.05416 4.16647 3.37679C4.09183 3.51588 3.97288 3.62607 3.8285 3.68987C3.68412 3.75367 3.52257 3.76744 3.36948 3.72898C3.21638 3.69053 3.08051 3.60206 2.98341 3.47761C2.88632 3.35315 2.83355 3.19984 2.8335 3.04199C2.8335 2.85413 2.75887 2.67396 2.62603 2.54113C2.49319 2.40829 2.31302 2.33366 2.12516 2.33366C1.9373 2.33366 1.75713 2.40829 1.6243 2.54113C1.49146 2.67396 1.41683 2.85413 1.41683 3.04199C1.41729 3.39582 1.50623 3.74392 1.67555 4.0546C1.84487 4.36529 2.08919 4.6287 2.38629 4.82087L0.753829 9.16797C0.74335 9.20839 0.736665 9.2497 0.733862 9.29136C0.721422 9.33233 0.712928 9.3744 0.708496 9.41699C0.708496 9.42357 0.710402 9.42962 0.710444 9.43619C0.710657 9.44552 0.712569 9.45413 0.713206 9.46342C0.724235 10.2063 1.0271 10.9151 1.55637 11.4366C2.08564 11.9581 2.79882 12.2504 3.54183 12.2504C4.28484 12.2504 4.99802 11.9581 5.52729 11.4366C6.05656 10.9151 6.35942 10.2063 6.37045 9.46342C6.37105 9.45413 6.373 9.44552 6.37321 9.43619C6.37326 9.42962 6.37516 9.42357 6.37516 9.41699C6.37074 9.3744 6.36226 9.33233 6.34983 9.29136C6.34702 9.2497 6.34034 9.20839 6.32986 9.16797L4.69546 4.81581C4.99563 4.62425 5.24264 4.36009 5.41366 4.04777C5.47547 3.95163 5.56155 3.87351 5.66321 3.82128C5.76487 3.76906 5.87852 3.74458 5.99266 3.75033H7.79183V13.667H5.66683C5.47897 13.667 5.2988 13.7416 5.16596 13.8745C5.03312 14.0073 4.9585 14.1875 4.9585 14.3753C4.9585 14.5632 5.03312 14.7434 5.16596 14.8762C5.2988 15.009 5.47897 15.0837 5.66683 15.0837H11.3335C11.5214 15.0837 11.7015 15.009 11.8344 14.8762C11.9672 14.7434 12.0418 14.5632 12.0418 14.3753C12.0418 14.1875 11.9672 14.0073 11.8344 13.8745C11.7015 13.7416 11.5214 13.667 11.3335 13.667H9.2085V3.75033H11.0077C11.1218 3.74459 11.2354 3.76907 11.3371 3.82129C11.4388 3.87351 11.5248 3.95164 11.5866 4.04777C11.7577 4.36009 12.0047 4.62425 12.3048 4.81581L10.6705 9.16797C10.66 9.20839 10.6533 9.2497 10.6505 9.29136C10.6381 9.33233 10.6296 9.3744 10.6252 9.41699C10.6252 9.42357 10.6271 9.42962 10.6271 9.43619C10.6273 9.44552 10.6292 9.45413 10.6299 9.46342C10.6409 10.2063 10.9438 10.9151 11.473 11.4366C12.0023 11.9581 12.7155 12.2504 13.4585 12.2504C14.2015 12.2504 14.9147 11.9581 15.444 11.4366C15.9732 10.9151 16.2761 10.2063 16.2871 9.46342C16.2877 9.45413 16.2897 9.44552 16.2899 9.43619C16.2899 9.42962 16.2918 9.42357 16.2918 9.41699C16.2874 9.3744 16.2789 9.33233 16.2665 9.29136ZM3.54183 5.77299L4.64428 8.70866H2.43938L3.54183 5.77299ZM4.76205 10.1253C4.63704 10.3386 4.45897 10.516 4.24515 10.6401C4.03134 10.7642 3.78905 10.8309 3.54183 10.8337C3.29323 10.8336 3.04903 10.7681 2.83375 10.6437C2.61847 10.5194 2.4397 10.3406 2.31539 10.1253H4.76205ZM13.4585 5.77299L14.5609 8.70866H12.356L13.4585 5.77299ZM13.4585 10.8337C13.2099 10.8336 12.9657 10.7681 12.7504 10.6437C12.5351 10.5194 12.3564 10.3406 12.2321 10.1253H14.6787C14.5537 10.3386 14.3756 10.516 14.1618 10.6401C13.948 10.7642 13.7057 10.8309 13.4585 10.8337Z" fill="#3B5998"/>
</svg>
