<svg xmlns="http://www.w3.org/2000/svg" width="24.47" height="24.47" viewBox="0 0 24.47 24.47">
  <g id="Group_1523" data-name="Group 1523" transform="translate(-50.773 -116.837)">
    <path id="Icon_awesome-phone-alt" data-name="Icon awesome-phone-alt" d="M22.784,16.573l-5.13-2.2a1.1,1.1,0,0,0-1.283.316L14.1,17.466A16.979,16.979,0,0,1,5.982,9.35L8.758,7.078A1.1,1.1,0,0,0,9.074,5.8L6.876.665A1.107,1.107,0,0,0,5.616.028L.852,1.127A1.1,1.1,0,0,0,0,2.2,21.252,21.252,0,0,0,21.254,23.453a1.1,1.1,0,0,0,1.072-.852l1.1-4.764a1.113,1.113,0,0,0-.642-1.264Z" transform="translate(51.273 117.354)" fill="none" stroke="#3B5998" stroke-width="1"/>
  </g>
</svg>
