<svg width="24" height="24" viewBox="0 0 24 24" fill="none" xmlns="http://www.w3.org/2000/svg">
<path d="M23.2122 17.525V21.945C23.2123 22.2615 23.0924 22.5662 22.8766 22.7977C22.6609 23.0293 22.3654 23.1703 22.0497 23.1925C21.5034 23.23 21.0572 23.25 20.7122 23.25C9.66591 23.25 0.712158 14.2963 0.712158 3.25C0.712158 2.905 0.730908 2.45875 0.769658 1.9125C0.791811 1.59681 0.932885 1.30126 1.16441 1.08551C1.39594 0.869759 1.70069 0.749857 2.01716 0.75H6.43716C6.59221 0.749843 6.74178 0.807324 6.85682 0.911276C6.97186 1.01523 7.04415 1.15823 7.05966 1.3125C7.08841 1.6 7.11466 1.82875 7.13966 2.0025C7.38808 3.73615 7.89716 5.42229 8.64966 7.00375C8.76841 7.25375 8.69091 7.5525 8.46591 7.7125L5.76841 9.64C7.41773 13.4831 10.4803 16.5457 14.3234 18.195L16.2484 15.5025C16.3271 15.3925 16.4419 15.3136 16.5728 15.2796C16.7037 15.2455 16.8424 15.2585 16.9647 15.3162C18.5459 16.0673 20.2316 16.5751 21.9647 16.8225C22.1384 16.8475 22.3672 16.875 22.6522 16.9025C22.8062 16.9183 22.9489 16.9907 23.0526 17.1057C23.1563 17.2207 23.2136 17.3701 23.2134 17.525H23.2122Z" fill="white"/>
</svg>
