<svg width="18" height="19" viewBox="0 0 18 19" fill="none" xmlns="http://www.w3.org/2000/svg">
<path d="M10.88 17.12L8.99996 19L7.11996 17.12C3.42496 16.2666 0.666626 12.9533 0.666626 8.99996C0.666626 4.39996 4.39996 0.666626 8.99996 0.666626C13.6 0.666626 17.3333 4.39996 17.3333 8.99996C17.3333 12.9533 14.575 16.2666 10.88 17.12ZM4.01913 11.8466C5.24246 13.6716 7.07913 14.8333 9.13329 14.8333C11.1866 14.8333 13.0241 13.6725 14.2466 11.8466C12.8597 10.5505 11.0316 9.83063 9.13329 9.83329C7.23472 9.83042 5.40622 10.5503 4.01913 11.8466ZM8.99996 8.16663C9.663 8.16663 10.2989 7.90323 10.7677 7.43439C11.2366 6.96555 11.5 6.32967 11.5 5.66663C11.5 5.00358 11.2366 4.3677 10.7677 3.89886C10.2989 3.43002 9.663 3.16663 8.99996 3.16663C8.33692 3.16663 7.70103 3.43002 7.23219 3.89886C6.76335 4.3677 6.49996 5.00358 6.49996 5.66663C6.49996 6.32967 6.76335 6.96555 7.23219 7.43439C7.70103 7.90323 8.33692 8.16663 8.99996 8.16663Z" fill="#1DA1F2"/>
</svg>
