<svg width="18" height="17" viewBox="0 0 18 17" fill="none" xmlns="http://www.w3.org/2000/svg">
<path d="M11.0416 13.8333L8.99996 16.75L6.95829 13.8333H1.49996C1.27895 13.8333 1.06698 13.7455 0.910704 13.5893C0.754423 13.433 0.666626 13.221 0.666626 13V1.33333C0.666626 1.11232 0.754423 0.900358 0.910704 0.744078C1.06698 0.587797 1.27895 0.5 1.49996 0.5H16.5C16.721 0.5 16.9329 0.587797 17.0892 0.744078C17.2455 0.900358 17.3333 1.11232 17.3333 1.33333V13C17.3333 13.221 17.2455 13.433 17.0892 13.5893C16.9329 13.7455 16.721 13.8333 16.5 13.8333H11.0416Z" fill="#1DA1F2"/>
</svg>
