<svg xmlns="http://www.w3.org/2000/svg" width="35.1" height="32.8"><rect id="backgroundrect" width="100%" height="100%" x="0" y="0" fill="none" stroke="none"/><g class="currentLayer" style=""><title>Layer 1</title><g id="Laag_2" data-name="Laag 2" class="" fill-opacity="1" fill="#61c3ff"><g id="Laag_1-2" data-name="Laag 1" fill="#61c3ff"><path d="M32,0H3.1A3.1,3.1,0,0,0,0,3.1v20a3.1,3.1,0,0,0,3.1,3.1H13l-.7,4.5H11a1.1,1.1,0,0,0-1.1,1A1.1,1.1,0,0,0,11,32.8H24.1a1.1,1.1,0,0,0,1.1-1.1,1.1,1.1,0,0,0-1.1-1H22.8l-.7-4.5H32a3.1,3.1,0,0,0,3.1-3.1V3.1A3.1,3.1,0,0,0,32,0ZM20.7,30.7H14.4l.7-4.5H20ZM33,23.1a.9.9,0,0,1-1,1H3.1a.9.9,0,0,1-1-1V3.1a.9.9,0,0,1,1-1H16.5V3.2a1.1,1.1,0,0,0,1.1,1.1,1.1,1.1,0,0,0,1-1.1V2.1H32a.9.9,0,0,1,1,1Z" id="svg_1" fill="#61c3ff"/><path d="M14.3,13.2a1,1,0,0,0-1.1,1v3.4H10.9V10.9a1,1,0,0,0-1-1,1,1,0,0,0-1.1,1v6.7H6.5V7.6a.9.9,0,0,0-1-1,.9.9,0,0,0-1,1v11a1,1,0,0,0,1,1h8.8a1.1,1.1,0,0,0,1-1V14.2A1,1,0,0,0,14.3,13.2Z" id="svg_2" fill="#61c3ff"/><path d="M24.7,7.1a6,6,0,0,0-6,6,6.3,6.3,0,0,0,1.7,4.2h.1a6.3,6.3,0,0,0,4.2,1.7,5.9,5.9,0,0,0,5.9-6A5.9,5.9,0,0,0,24.7,7.1Zm3.7,5H25.7V9.3A3.8,3.8,0,0,1,28.4,12.1ZM23.7,9.3v3.4L21.3,15A3.9,3.9,0,0,1,23.7,9.3Zm-1,7.2,2.4-2.4h3.3A3.8,3.8,0,0,1,22.7,16.5Z" id="svg_3" fill="#61c3ff"/></g></g></g></svg>