<svg width="33" height="30" viewBox="0 0 33 30" fill="none" xmlns="http://www.w3.org/2000/svg">
<g clip-path="url(#clip0_653_4553)">
<rect x="2.61438" y="1.53857" width="29.4329" height="26.9231" fill="white"/>
<path d="M30.5111 0H3.33303C2.70877 0 2.11007 0.233322 1.66865 0.648637C1.22724 1.06395 0.979248 1.62724 0.979248 2.21458V27.7854C0.979248 28.3728 1.22724 28.9361 1.66865 29.3514C2.11007 29.7667 2.70877 30 3.33303 30H30.5111C31.1354 30 31.7341 29.7667 32.1755 29.3514C32.6169 28.9361 32.8649 28.3728 32.8649 27.7854V2.21458C32.8649 1.62724 32.6169 1.06395 32.1755 0.648637C31.7341 0.233322 31.1354 0 30.5111 0ZM10.4829 25.5563H5.68902V11.2292H10.4829V25.5563ZM8.08266 9.24375C7.53888 9.24087 7.00818 9.0865 6.55756 8.80011C6.10693 8.51373 5.75657 8.10816 5.55069 7.63461C5.34481 7.16106 5.29264 6.64074 5.40077 6.13932C5.50889 5.6379 5.77246 5.17785 6.15822 4.81723C6.54397 4.45661 7.03462 4.21158 7.56824 4.11308C8.10186 4.01457 8.65454 4.06699 9.15652 4.26373C9.65851 4.46047 10.0873 4.79271 10.3888 5.21852C10.6903 5.64432 10.8509 6.14461 10.8505 6.65625C10.8556 6.99879 10.7874 7.3388 10.6499 7.65601C10.5124 7.97321 10.3084 8.26113 10.0501 8.50258C9.79186 8.74404 9.48454 8.9341 9.14652 9.06144C8.8085 9.18877 8.44669 9.25078 8.08266 9.24375ZM28.1529 25.5688H23.3612V17.7417C23.3612 15.4333 22.3183 14.7208 20.972 14.7208C19.5504 14.7208 18.1554 15.7292 18.1554 17.8V25.5688H13.3615V11.2396H17.9716V13.225H18.0336C18.4964 12.3438 20.1173 10.8375 22.5906 10.8375C25.2655 10.8375 28.1551 12.3313 28.1551 16.7063L28.1529 25.5688Z" fill="#0A66C2"/>
</g>
<defs>
<clipPath id="clip0_653_4553">
<rect width="31.8856" height="30" fill="white" transform="translate(0.979248)"/>
</clipPath>
</defs>
</svg>
