<svg xmlns="http://www.w3.org/2000/svg" xmlns:xlink="http://www.w3.org/1999/xlink" width="89.867" height="25.357" viewBox="0 0 89.867 25.357">
  <defs>
    <linearGradient id="linear-gradient" x1="-0.124" y1="-0.105" x2="0.855" y2="0.992" gradientUnits="objectBoundingBox">
      <stop offset="0" stop-color="#6590ff"/>
      <stop offset="0.507" stop-color="#4dc9e2"/>
      <stop offset="1" stop-color="#35ffc6"/>
    </linearGradient>
  </defs>
  <g id="Logo-" transform="translate(0 -0.324)">
    <g id="Atom_Logos_Logo_Complete_Colored" data-name="Atom/Logos/Logo/Complete/Colored" transform="translate(0 0.324)">
      <path id="Fill-3510" d="M787.67,49.352h-1.486v5h-1.716v-5h-.945v-.827l.945-.462V47.6a2.063,2.063,0,0,1,.529-1.57,2.424,2.424,0,0,1,1.694-.5,4.414,4.414,0,0,1,1.582.264l-.439,1.261a3.2,3.2,0,0,0-.957-.163.619.619,0,0,0-.529.216.9.9,0,0,0-.163.555v.394h1.486v1.289" transform="translate(-746.198 -43.382)" fill="#303c50"/>
      <path id="Fill-3511" d="M884.451,99.5a1.087,1.087,0,0,0-.855.346,1.6,1.6,0,0,0-.354.982h2.408a1.433,1.433,0,0,0-.332-.982A1.124,1.124,0,0,0,884.451,99.5Zm.242,5.3a3.25,3.25,0,0,1-2.376-.839,3.179,3.179,0,0,1-.855-2.376,3.494,3.494,0,0,1,.791-2.446,2.813,2.813,0,0,1,2.187-.864,2.771,2.771,0,0,1,2.077.76,2.876,2.876,0,0,1,.743,2.1v.833H883.2a1.65,1.65,0,0,0,.433,1.143,1.525,1.525,0,0,0,1.137.411,4.7,4.7,0,0,0,1.074-.118,5.377,5.377,0,0,0,1.058-.377v1.328a4.037,4.037,0,0,1-.962.335,6.067,6.067,0,0,1-1.249.109Z" transform="translate(-839.473 -93.615)" fill="#303c50"/>
      <path id="Fill-3512" d="M1027.594,99.5a1.088,1.088,0,0,0-.855.346,1.6,1.6,0,0,0-.355.982h2.409a1.431,1.431,0,0,0-.332-.982A1.124,1.124,0,0,0,1027.594,99.5Zm.242,5.3a3.247,3.247,0,0,1-2.375-.839,3.176,3.176,0,0,1-.855-2.376,3.494,3.494,0,0,1,.791-2.446,2.814,2.814,0,0,1,2.186-.864,2.772,2.772,0,0,1,2.077.76,2.876,2.876,0,0,1,.743,2.1v.833h-4.058a1.652,1.652,0,0,0,.433,1.143,1.525,1.525,0,0,0,1.137.411,4.711,4.711,0,0,0,1.075-.118,5.391,5.391,0,0,0,1.058-.377v1.328a4.04,4.04,0,0,1-.962.335,6.073,6.073,0,0,1-1.25.109Z" transform="translate(-975.797 -93.615)" fill="#303c50"/>
      <path id="Fill-3513" d="M1170.726,53.039a1.164,1.164,0,0,0,.965-.383,2.231,2.231,0,0,0,.335-1.3V51.17a2.575,2.575,0,0,0-.312-1.452,1.16,1.16,0,0,0-1.016-.439,1.008,1.008,0,0,0-.892.487,2.6,2.6,0,0,0-.318,1.416,2.462,2.462,0,0,0,.321,1.393A1.048,1.048,0,0,0,1170.726,53.039Zm-.6,1.368a2.043,2.043,0,0,1-1.742-.861,4.826,4.826,0,0,1,.011-4.8,2.092,2.092,0,0,1,1.776-.864,2.052,2.052,0,0,1,1.812.923h.057a7,7,0,0,1-.13-1.255V45.535h1.722v8.759h-1.317l-.332-.816h-.073a1.965,1.965,0,0,1-1.784.928Z" transform="translate(-1112.122 -43.382)" fill="#303c50"/>
      <path id="Fill-3514" d="M1336.443,49.256a1.083,1.083,0,0,0-.928.391,2.245,2.245,0,0,0-.3,1.291v.186a2.653,2.653,0,0,0,.3,1.452,1.075,1.075,0,0,0,.954.439.956.956,0,0,0,.841-.487,2.63,2.63,0,0,0,.313-1.416,2.5,2.5,0,0,0-.315-1.393A.989.989,0,0,0,1336.443,49.256Zm.552-1.373a2.034,2.034,0,0,1,1.744.87,3.989,3.989,0,0,1,.631,2.383,3.921,3.921,0,0,1-.651,2.415,2.27,2.27,0,0,1-3.509.051h-.118l-.287.692h-1.311V45.535h1.717v2.038q0,.388-.068,1.244h.068a1.985,1.985,0,0,1,1.784-.934Z" transform="translate(-1269.971 -43.382)" fill="#303c50"/>
      <path id="Fill-3515" d="M1480.543,101.789l-.664.022a2.126,2.126,0,0,0-1.114.27.849.849,0,0,0-.366.755q0,.726.833.726a1.319,1.319,0,0,0,.954-.343,1.206,1.206,0,0,0,.357-.912Zm.506,2.916-.332-.856h-.045a2.534,2.534,0,0,1-.892.757,2.889,2.889,0,0,1-1.2.211,1.933,1.933,0,0,1-1.427-.518,1.987,1.987,0,0,1-.521-1.475,1.66,1.66,0,0,1,.7-1.478,4.059,4.059,0,0,1,2.113-.526l1.092-.034v-.275a.856.856,0,0,0-.979-.957,4.456,4.456,0,0,0-1.773.456l-.568-1.16a5.116,5.116,0,0,1,2.409-.568,3,3,0,0,1,1.942.552,2.039,2.039,0,0,1,.675,1.678V104.7Z" transform="translate(-1406.296 -93.615)" fill="#303c50"/>
      <path id="Fill-3516" d="M1622.719,104.805q-2.938,0-2.938-3.225a3.442,3.442,0,0,1,.8-2.452,3,3,0,0,1,2.291-.847,4.369,4.369,0,0,1,1.958.427l-.507,1.328q-.4-.163-.754-.267a2.435,2.435,0,0,0-.7-.1q-1.339,0-1.339,1.9,0,1.846,1.339,1.846a3.05,3.05,0,0,0,.917-.132,3.3,3.3,0,0,0,.844-.414v1.469a2.761,2.761,0,0,1-.841.366,4.718,4.718,0,0,1-1.072.1" transform="translate(-1542.621 -93.615)" fill="#303c50"/>
      <path id="Fill-3517" d="M1757.039,50.872l.748-.957L1759.55,48h1.936l-2.5,2.73,2.651,3.563h-1.981l-1.812-2.55-.738.591v1.959h-1.717V45.535h1.717v3.906l-.09,1.43h.022" transform="translate(-1671.77 -43.382)" fill="#303c50"/>
      <path id="Fill-3518" d="M793.865,338.268a2.633,2.633,0,0,1-2.074-.825,3.392,3.392,0,0,1-.735-2.334,3.5,3.5,0,0,1,.746-2.392,2.683,2.683,0,0,1,2.125-.845,4.21,4.21,0,0,1,.889.1,2.942,2.942,0,0,1,.7.225l-.287.794a4.458,4.458,0,0,0-.675-.206,3.029,3.029,0,0,0-.647-.081q-1.88,0-1.88,2.4a2.853,2.853,0,0,0,.459,1.745,1.6,1.6,0,0,0,1.359.608,4.147,4.147,0,0,0,1.581-.332v.828a3.369,3.369,0,0,1-1.559.321" transform="translate(-753.373 -316.08)" fill="#303c50"/>
      <path id="Fill-3519" d="M905.032,335.065a2.929,2.929,0,0,0,.473,1.8,1.876,1.876,0,0,0,2.783,0,2.915,2.915,0,0,0,.475-1.8,2.869,2.869,0,0,0-.475-1.788,1.673,1.673,0,0,0-1.4-.611,1.646,1.646,0,0,0-1.385.6A2.9,2.9,0,0,0,905.032,335.065Zm4.7,0a3.4,3.4,0,0,1-.76,2.355,2.674,2.674,0,0,1-2.1.847,2.782,2.782,0,0,1-1.469-.388,2.564,2.564,0,0,1-.99-1.115,3.881,3.881,0,0,1-.349-1.7,3.4,3.4,0,0,1,.755-2.35,2.666,2.666,0,0,1,2.093-.842,2.609,2.609,0,0,1,2.057.861,3.392,3.392,0,0,1,.763,2.33Z" transform="translate(-860.998 -316.08)" fill="#303c50"/>
      <path id="Fill-3520" d="M1070.138,338.155v-4.013a1.666,1.666,0,0,0-.315-1.106,1.22,1.22,0,0,0-.98-.369,1.581,1.581,0,0,0-1.289.5,2.378,2.378,0,0,0-.417,1.542v3.445h-.934v-4.013a1.665,1.665,0,0,0-.315-1.106,1.226,1.226,0,0,0-.985-.369,1.526,1.526,0,0,0-1.286.527,2.848,2.848,0,0,0-.408,1.725v3.237h-.934v-6.169h.76l.152.844h.045a1.834,1.834,0,0,1,.746-.7,2.279,2.279,0,0,1,1.077-.253,1.833,1.833,0,0,1,1.891,1.047h.045a1.967,1.967,0,0,1,.8-.766,2.482,2.482,0,0,1,1.193-.281,2.088,2.088,0,0,1,1.567.537,2.4,2.4,0,0,1,.521,1.72v4.025h-.934" transform="translate(-1011.672 -316.08)" fill="#303c50"/>
      <path id="Fill-3521" d="M1291.026,332.667a1.655,1.655,0,0,0-1.368.524,2.692,2.692,0,0,0-.434,1.666v.208a3.087,3.087,0,0,0,.434,1.86,1.647,1.647,0,0,0,1.39.56,1.445,1.445,0,0,0,1.252-.648,3.071,3.071,0,0,0,.453-1.784,2.956,2.956,0,0,0-.453-1.77A1.489,1.489,0,0,0,1291.026,332.667Zm.135,5.6a2.667,2.667,0,0,1-1.1-.222,2.072,2.072,0,0,1-.836-.684h-.067a8.3,8.3,0,0,1,.067,1.024v2.539h-.934v-8.939h.76l.13.844h.045a2.174,2.174,0,0,1,.839-.732,2.552,2.552,0,0,1,1.1-.225,2.28,2.28,0,0,1,1.894.839,4.466,4.466,0,0,1-.011,4.714,2.284,2.284,0,0,1-1.883.842Z" transform="translate(-1226.922 -316.08)" fill="#303c50"/>
      <path id="Fill-3522" d="M1426.045,337.485a1.9,1.9,0,0,0,1.37-.479,1.769,1.769,0,0,0,.5-1.34v-.557l-.934.039a3.4,3.4,0,0,0-1.607.346,1.043,1.043,0,0,0-.492.954.962.962,0,0,0,.306.771A1.273,1.273,0,0,0,1426.045,337.485Zm2.11.659-.186-.878h-.045a2.589,2.589,0,0,1-.92.785,2.8,2.8,0,0,1-1.145.206,2.057,2.057,0,0,1-1.438-.473,1.724,1.724,0,0,1-.521-1.345q0-1.868,2.989-1.959l1.047-.034v-.383a1.561,1.561,0,0,0-.313-1.072,1.282,1.282,0,0,0-1-.346,4.069,4.069,0,0,0-1.744.473l-.287-.715a4.4,4.4,0,0,1,1-.388,4.324,4.324,0,0,1,1.09-.141,2.349,2.349,0,0,1,1.635.49,2.044,2.044,0,0,1,.532,1.57v4.21Z" transform="translate(-1356.071 -316.08)" fill="#303c50"/>
      <path id="Fill-3523" d="M1571.265,338.155v-3.991a1.613,1.613,0,0,0-.343-1.126,1.4,1.4,0,0,0-1.075-.372,1.774,1.774,0,0,0-1.419.524,2.643,2.643,0,0,0-.45,1.728v3.237h-.934v-6.169h.76l.152.844H1568a1.909,1.909,0,0,1,.805-.706,2.61,2.61,0,0,1,1.153-.251,2.344,2.344,0,0,1,1.677.537,2.29,2.29,0,0,1,.563,1.72v4.025h-.934" transform="translate(-1492.396 -316.08)" fill="#303c50"/>
      <path id="Fill-3524" d="M1695.12,339.409h1l1.351,3.518a13.486,13.486,0,0,1,.551,1.74h.045q.073-.287.307-.982t1.528-4.275h1l-2.651,7.025a3.5,3.5,0,0,1-.92,1.477,1.955,1.955,0,0,1-1.292.436,3.752,3.752,0,0,1-.844-.1V347.5a3.268,3.268,0,0,0,.692.067,1.426,1.426,0,0,0,1.373-1.081l.344-.878-2.488-6.2" transform="translate(-1614.37 -323.256)" fill="#303c50"/>
      <g id="Atom_Logos_Logo_Mark_Colored" data-name="Atom/Logos/Logo/Mark/Colored" transform="translate(0 0)">
        <path id="Combined-Shape" d="M10.182,11.092a.8.8,0,1,1,0,1.6H8.853a.8.8,0,0,0-.8.8V23.4l2.313-1.534a.8.8,0,0,1,.441-.133H16.3a.8.8,0,0,0,.8-.8V17.078a.8.8,0,1,1,1.6,0v3.854A2.4,2.4,0,0,1,16.3,23.325H11.049L7.7,25.548a.8.8,0,0,1-1.239-.665v-11.4a2.4,2.4,0,0,1,2.393-2.393Zm-.045-6.82a.828.828,0,0,1,.839.715.8.8,0,0,1-.793.881H2.393a.8.8,0,0,0-.8.8v9.911l1.54-1.022a.8.8,0,1,1,.882,1.33L1.239,18.727A.8.8,0,0,1,0,18.063V6.666A2.393,2.393,0,0,1,2.393,4.272ZM24.487.324A2.4,2.4,0,0,1,26.88,2.717V15.789a.8.8,0,0,1-1.239.665l-3.808-2.526H15.671a2.4,2.4,0,0,1-2.393-2.393V2.717A2.4,2.4,0,0,1,15.671.324Zm0,1.6H15.671a.8.8,0,0,0-.8.8v8.817a.8.8,0,0,0,.8.8h6.4a.8.8,0,0,1,.441.133L25.285,14.3V2.717A.8.8,0,0,0,24.487,1.92Z" transform="translate(0 -0.324)" fill="url(#linear-gradient)"/>
      </g>
    </g>
  </g>
</svg>
