<svg width="32" height="26" viewBox="0 0 32 26" fill="none" xmlns="http://www.w3.org/2000/svg">
<path d="M10.1209 25.1883C22.1533 25.1883 28.7345 15.8091 28.7345 7.67553C28.7345 7.40913 28.7345 7.14393 28.7153 6.87993C29.9956 6.00862 31.1008 4.92978 31.9792 3.69393C30.7853 4.19193 29.5187 4.51837 28.2217 4.66233C29.5875 3.89319 30.6096 2.68331 31.0978 1.25793C29.8137 1.97494 28.4088 2.48021 26.9438 2.75193C25.9574 1.76515 24.6529 1.11173 23.2321 0.892784C21.8113 0.673837 20.3534 0.901571 19.084 1.54074C17.8146 2.17992 16.8045 3.1949 16.21 4.42861C15.6155 5.66233 15.4697 7.04601 15.7953 8.36553C13.1944 8.24278 10.65 7.60682 8.32725 6.49893C6.00451 5.39105 3.95534 3.836 2.31275 1.93473C1.47618 3.28972 1.21996 4.89376 1.59625 6.42026C1.97254 7.94675 2.95304 9.28092 4.33812 10.1511C3.29699 10.1224 2.27853 9.85817 1.36893 9.38073V9.45873C1.36935 10.8798 1.89219 12.257 2.84879 13.3567C3.80538 14.4564 5.13683 15.2109 6.61731 15.4923C5.6542 15.7395 4.64369 15.7756 3.66342 15.5979C4.08162 16.8208 4.89552 17.8902 5.99134 18.6566C7.08716 19.423 8.41011 19.848 9.77526 19.8723C8.4189 20.8754 6.86564 21.6171 5.20434 22.0548C3.54305 22.4926 1.80632 22.6179 0.0935059 22.4235C3.08522 24.2298 6.56619 25.1879 10.1209 25.1835" fill="white"/>
</svg>
