<svg width="15" height="16" viewBox="0 0 15 16" fill="none" xmlns="http://www.w3.org/2000/svg">
<path d="M13.9245 11.4214L12.4582 9.91976C12.1429 9.61995 11.745 9.42131 11.3159 9.34937C10.8867 9.27742 10.4458 9.33545 10.0499 9.51601L9.41241 8.87851C10.1636 7.87474 10.5067 6.62365 10.3726 5.3771C10.2385 4.13054 9.63708 2.98108 8.68951 2.16011C7.74194 1.33913 6.51854 0.9076 5.26559 0.952386C4.01264 0.997172 2.82317 1.51495 1.93664 2.40148C1.05011 3.28802 0.532329 4.47748 0.487542 5.73043C0.442756 6.98338 0.874286 8.20678 1.69526 9.15435C2.51624 10.1019 3.6657 10.7033 4.91225 10.8374C6.15881 10.9716 7.40989 10.6285 8.41366 9.87726L9.04408 10.5077C8.84227 10.9041 8.76994 11.3538 8.83729 11.7935C8.90464 12.2332 9.10828 12.6407 9.41949 12.9585L10.9212 14.4602C11.3196 14.8581 11.8597 15.0816 12.4228 15.0816C12.986 15.0816 13.5261 14.8581 13.9245 14.4602C14.1269 14.2623 14.2877 14.0259 14.3975 13.765C14.5073 13.5041 14.5639 13.2239 14.5639 12.9408C14.5639 12.6577 14.5073 12.3775 14.3975 12.1166C14.2877 11.8557 14.1269 11.6193 13.9245 11.4214ZM7.91783 8.41809C7.42216 8.9125 6.79108 9.24893 6.10431 9.38486C5.41754 9.52079 4.70589 9.45013 4.05925 9.1818C3.41262 8.91348 2.86002 8.45953 2.47125 7.8773C2.08248 7.29507 1.87499 6.61068 1.87499 5.91059C1.87499 5.21049 2.08248 4.5261 2.47125 3.94387C2.86002 3.36164 3.41262 2.9077 4.05925 2.63937C4.70589 2.37105 5.41754 2.30039 6.10431 2.43632C6.79108 2.57225 7.42216 2.90867 7.91783 3.40309C8.24765 3.73208 8.50933 4.12291 8.68787 4.55318C8.86642 4.98346 8.95833 5.44474 8.95833 5.91059C8.95833 6.37644 8.86642 6.83772 8.68787 7.26799C8.50933 7.69827 8.24765 8.0891 7.91783 8.41809ZM12.9257 13.426C12.8599 13.4924 12.7816 13.5451 12.6952 13.5811C12.6089 13.617 12.5163 13.6355 12.4228 13.6355C12.3293 13.6355 12.2367 13.617 12.1504 13.5811C12.0641 13.5451 11.9858 13.4924 11.9199 13.426L10.4182 11.9243C10.3519 11.8585 10.2992 11.7801 10.2632 11.6938C10.2272 11.6075 10.2087 11.5149 10.2087 11.4214C10.2087 11.3279 10.2272 11.2353 10.2632 11.149C10.2992 11.0627 10.3519 10.9844 10.4182 10.9185C10.4841 10.8521 10.5624 10.7994 10.6488 10.7635C10.7351 10.7275 10.8277 10.709 10.9212 10.709C11.0147 10.709 11.1073 10.7275 11.1936 10.7635C11.2799 10.7994 11.3582 10.8521 11.4241 10.9185L12.9257 12.4202C12.9921 12.486 13.0448 12.5644 13.0808 12.6507C13.1168 12.737 13.1353 12.8296 13.1353 12.9231C13.1353 13.0166 13.1168 13.1092 13.0808 13.1955C13.0448 13.2818 12.9921 13.3602 12.9257 13.426Z" fill="#3B5998"/>
</svg>
