<svg width="20" height="20" viewBox="0 0 20 20" fill="none" xmlns="http://www.w3.org/2000/svg">
<path d="M18.2336 0H1.76638C1.29791 0 0.848622 0.19915 0.517361 0.55364C0.1861 0.908129 0 1.38892 0 1.89024V14.0854C0 14.5867 0.1861 15.0675 0.517361 15.422C0.848622 15.7765 1.29791 15.9756 1.76638 15.9756H7.40741L7.00855 18.7195H6.21083C6.06402 18.7332 5.92643 18.8019 5.82222 18.9134C5.71802 19.0249 5.65386 19.1722 5.64103 19.3293C5.64038 19.4971 5.69853 19.659 5.80402 19.7832C5.90951 19.9074 6.05466 19.9847 6.21083 20H13.7322C13.8121 20.0004 13.8911 19.9829 13.9643 19.9485C14.0374 19.9141 14.1029 19.8637 14.1567 19.8004C14.2104 19.7372 14.2511 19.6625 14.2761 19.5814C14.3012 19.5002 14.31 19.4143 14.302 19.3293C14.302 19.1675 14.242 19.0124 14.1351 18.8981C14.0282 18.7837 13.8833 18.7195 13.7322 18.7195H12.9915L12.5356 15.9756H18.2336C18.4656 15.9756 18.6953 15.9267 18.9096 15.8317C19.1239 15.7367 19.3186 15.5975 19.4826 15.422C19.6467 15.2464 19.7768 15.0381 19.8655 14.8087C19.9543 14.5794 20 14.3336 20 14.0854V1.89024C20 1.64201 19.9543 1.39621 19.8655 1.16688C19.7768 0.937544 19.6467 0.729165 19.4826 0.55364C19.3186 0.378114 19.1239 0.23888 18.9096 0.143886C18.6953 0.0488927 18.4656 0 18.2336 0ZM11.7949 18.7195H8.20513L8.60399 15.9756H11.339L11.7949 18.7195ZM18.8034 14.0854C18.8126 14.1678 18.8041 14.2514 18.7788 14.3298C18.7534 14.4083 18.7117 14.4795 18.6568 14.5382C18.602 14.5969 18.5354 14.6415 18.4621 14.6687C18.3888 14.6959 18.3107 14.7049 18.2336 14.6951H1.76638C1.68691 14.7037 1.60664 14.6942 1.53079 14.6674C1.45495 14.6407 1.38521 14.5971 1.32611 14.5396C1.267 14.4821 1.21986 14.412 1.18773 14.3337C1.1556 14.2554 1.1392 14.1708 1.1396 14.0854V1.89024C1.1396 1.71235 1.20564 1.54175 1.32318 1.41596C1.44073 1.29018 1.60015 1.21951 1.76638 1.21951H9.40171V1.95122C9.40171 2.11294 9.46174 2.26803 9.5686 2.38238C9.67546 2.49673 9.82039 2.56097 9.97151 2.56097C10.051 2.56952 10.1312 2.5601 10.2071 2.5333C10.2829 2.50651 10.3527 2.46296 10.4118 2.40546C10.4709 2.34796 10.518 2.27781 10.5502 2.19956C10.5823 2.1213 10.5987 2.03669 10.5983 1.95122V1.21951H18.2336C18.3135 1.21908 18.3926 1.23663 18.4657 1.27101C18.5388 1.3054 18.6044 1.35585 18.6581 1.41909C18.7118 1.48234 18.7525 1.55697 18.7776 1.63814C18.8026 1.7193 18.8114 1.8052 18.8034 1.89024V14.0854Z" fill="#3B5998"/>
<path d="M8.09112 7.9877C7.93495 8.00296 7.7898 8.0803 7.68432 8.20447C7.57883 8.32865 7.52067 8.49062 7.52132 8.65843V10.6706H6.21078V6.64624C6.21118 6.56077 6.19479 6.47616 6.16266 6.39791C6.13053 6.31965 6.08338 6.2495 6.02428 6.192C5.96518 6.13451 5.89544 6.09095 5.81959 6.06416C5.74374 6.03737 5.66348 6.02794 5.584 6.03649C5.43288 6.03649 5.28795 6.10073 5.1811 6.21508C5.07424 6.32943 5.0142 6.48453 5.0142 6.64624V10.6706H3.70367V4.63405C3.70367 4.47234 3.64363 4.31724 3.53678 4.20289C3.42992 4.08854 3.28499 4.0243 3.13387 4.0243C3.05439 4.01575 2.97413 4.02518 2.89828 4.05197C2.82243 4.07876 2.75269 4.12232 2.69359 4.17981C2.63449 4.23731 2.58734 4.30746 2.55521 4.38572C2.52308 4.46397 2.50669 4.54858 2.50709 4.63405V11.3414C2.52134 11.5085 2.59362 11.6638 2.70965 11.7767C2.82569 11.8896 2.97705 11.9518 3.13387 11.9511H8.09112C8.24794 11.9518 8.3993 11.8896 8.51533 11.7767C8.63137 11.6638 8.70365 11.5085 8.7179 11.3414V8.65843C8.7179 8.48054 8.65187 8.30994 8.53432 8.18416C8.41678 8.05837 8.25735 7.9877 8.09112 7.9877Z" fill="#3B5998"/>
<path d="M14.0741 4.32935C13.1673 4.32935 12.2977 4.7148 11.6566 5.40091C11.0154 6.08702 10.6552 7.01759 10.6552 7.98789C10.6455 8.45375 10.7267 8.91666 10.8934 9.34711C11.0602 9.77755 11.309 10.1661 11.6239 10.4879C11.6239 10.5489 11.6239 10.5489 11.6809 10.5489C11.9924 10.8876 12.3655 11.1543 12.7771 11.3326C13.1887 11.5109 13.6301 11.5969 14.0741 11.5855C14.9657 11.5855 15.8208 11.2064 16.4512 10.5318C17.0817 9.85709 17.4359 8.94203 17.4359 7.98789C17.436 7.02806 17.0836 6.10662 16.4548 5.42223C15.8259 4.73785 14.9709 4.34534 14.0741 4.32935ZM16.1823 7.31716H14.6439V5.67081C15.0107 5.78108 15.3448 5.99041 15.6142 6.27872C15.8837 6.56703 16.0793 6.92462 16.1823 7.31716ZM13.4473 5.67081V7.74399L12.1367 9.14643C11.9678 8.83365 11.8677 8.48379 11.844 8.12342C11.8203 7.76305 11.8736 7.40163 11.9999 7.06661C12.1263 6.73159 12.3223 6.43177 12.573 6.18992C12.8238 5.94807 13.1228 5.77054 13.4473 5.67081ZM12.9344 10.0611L14.302 8.59765H16.1823C16.0958 8.95018 15.9348 9.27671 15.7116 9.55204C15.4885 9.82737 15.2092 10.0441 14.8953 10.1856C14.5814 10.327 14.2413 10.3893 13.9013 10.3677C13.5613 10.3462 13.2305 10.2412 12.9344 10.0611Z" fill="#3B5998"/>
</svg>
