<svg width="20" height="20" viewBox="0 0 20 20" fill="none" xmlns="http://www.w3.org/2000/svg">
<path d="M15.3056 2.22222V2.47222H15.5556H17.7778C18.8619 2.47222 19.75 3.36029 19.75 4.44444V5.55556C19.75 8.25878 17.7146 10.4671 15.0911 10.7964L14.9477 10.8144L14.8917 10.9476C14.2233 12.5391 12.7904 13.7383 11.0615 14.0883L10.8611 14.1289V14.3333V17.7778V18.0278H11.1111H15.3056V19.75H4.69444V18.0278H8.88889H9.13889V17.7778V14.3333V14.1289L8.9385 14.0883C7.20964 13.7383 5.77668 12.5391 5.10827 10.9476L5.05231 10.8144L4.90891 10.7964C2.28543 10.4671 0.25 8.25878 0.25 5.55556V4.44444C0.25 3.36029 1.13807 2.47222 2.22222 2.47222H4.44444H4.69444V2.22222V0.25H15.3056V2.22222ZM2.22222 4.19444H1.97222V4.44444V5.55556C1.97222 7.1114 2.97739 8.4236 4.35933 8.92395L4.69444 9.04529V8.68889V4.44444V4.19444H4.44444H2.22222ZM6.66667 1.97222H6.41667V2.22222V8.88889C6.41667 10.8603 8.0286 12.4722 10 12.4722C11.9714 12.4722 13.5833 10.8603 13.5833 8.88889V2.22222V1.97222H13.3333H6.66667ZM15.3056 8.68889V9.04529L15.6407 8.92395C17.0226 8.4236 18.0278 7.1114 18.0278 5.55556V4.44444V4.19444H17.7778H15.5556H15.3056V4.44444V8.68889Z" fill="#1DA1F2" stroke="white" stroke-width="0.5"/>
</svg>
