<svg xmlns="http://www.w3.org/2000/svg" xmlns:xlink="http://www.w3.org/1999/xlink" width="87" height="87" viewBox="0 0 87 87">
  <defs>
    <linearGradient id="linear-gradient" x1="0.222" x2="0.681" y2="1" gradientUnits="objectBoundingBox">
      <stop offset="0" stop-color="#b5d8f6"/>
      <stop offset="1" stop-color="#1c5fa8"/>
    </linearGradient>
  </defs>
  <g id="icon_step2" transform="translate(-1054 -697)">
    <circle id="Ellipse_2" data-name="Ellipse 2" cx="43.5" cy="43.5" r="43.5" transform="translate(1054 697)" fill="url(#linear-gradient)"/>
    <path id="Icon_awesome-hand-holding" data-name="Icon awesome-hand-holding" d="M46.26,23.163a2.709,2.709,0,0,0-3.486,0L35.212,29.21a5.21,5.21,0,0,1-3.273,1.146H22.258a1.309,1.309,0,1,1,0-2.619h6.407a2.724,2.724,0,0,0,2.725-2.177A2.622,2.622,0,0,0,28.8,22.5H15.712a9.631,9.631,0,0,0-6.064,2.152L5.843,27.737H1.309A1.313,1.313,0,0,0,0,29.047V36.9a1.313,1.313,0,0,0,1.309,1.309h29.2a5.244,5.244,0,0,0,3.273-1.146l12.373-9.9A2.617,2.617,0,0,0,46.26,23.163Z" transform="translate(1073.626 725.905)" fill="#fff"/>
    <path id="Icon_awesome-info" data-name="Icon awesome-info" d="M1.211,25.686H2.422V16.939H1.211A1.211,1.211,0,0,1,0,15.728V12.836a1.211,1.211,0,0,1,1.211-1.211H7.992A1.211,1.211,0,0,1,9.2,12.836v12.85h1.211A1.211,1.211,0,0,1,11.625,26.9v2.892A1.211,1.211,0,0,1,10.414,31h-9.2A1.211,1.211,0,0,1,0,29.789V26.9A1.211,1.211,0,0,1,1.211,25.686ZM5.813,0a4.359,4.359,0,1,0,4.359,4.359A4.359,4.359,0,0,0,5.813,0Z" transform="translate(1091.688 711.5)" fill="#fff"/>
  </g>
</svg>
