<svg width="20" height="20" viewBox="0 0 20 20" fill="none" xmlns="http://www.w3.org/2000/svg">
<path d="M4.91652 20.0002H1.14564C0.898067 19.9867 0.665452 19.886 0.49548 19.7188C0.325509 19.5516 0.231055 19.3305 0.231485 19.1009V12.594C0.231485 12.3695 0.327799 12.1542 0.499235 11.9955C0.670672 11.8367 0.90319 11.7476 1.14564 11.7476H4.91652C5.16452 11.7472 5.40329 11.8346 5.58389 11.992C5.76448 12.1494 5.87322 12.3648 5.8878 12.594V19.1009C5.87409 19.3353 5.76736 19.5567 5.58809 19.7227C5.40883 19.8887 5.16966 19.9875 4.91652 20.0002ZM1.37418 18.9422H4.74511V12.8056H1.37418V18.9422Z" fill="#3B5998"/>
<path d="M11.944 20H8.28745C8.02431 20.0003 7.77103 19.9073 7.57973 19.74C7.38842 19.5727 7.27365 19.3439 7.25903 19.1006V10.7951C7.27365 10.5518 7.38842 10.323 7.57973 10.1557C7.77103 9.98841 8.02431 9.89538 8.28745 9.89575H11.944C12.1972 9.90845 12.4363 10.0073 12.6156 10.1733C12.7949 10.3392 12.9016 10.5607 12.9153 10.7951V19.1006C12.9016 19.335 12.7949 19.5565 12.6156 19.7225C12.4363 19.8884 12.1972 19.9873 11.944 20ZM8.40172 18.9419H11.7726V10.9538H8.40172V18.9419Z" fill="#3B5998"/>
<path d="M18.9144 20H15.3721C15.2321 20.0002 15.0935 19.9739 14.9649 19.9228C14.8362 19.8717 14.7202 19.7968 14.6239 19.7027C14.5276 19.6086 14.4531 19.4972 14.4049 19.3755C14.3567 19.2538 14.3359 19.1243 14.3437 18.9949V7.72688C14.3437 7.47434 14.452 7.23214 14.6449 7.05356C14.8378 6.87498 15.0993 6.77466 15.3721 6.77466H18.9144C19.1927 6.7743 19.4605 6.87291 19.6625 7.05011C19.8646 7.22731 19.9854 7.46958 20 7.72688V18.9949C20 19.2614 19.8856 19.5171 19.6821 19.7056C19.4785 19.8941 19.2024 20 18.9144 20ZM15.4864 18.942H18.8573V7.83269H15.4864V18.942Z" fill="#3B5998"/>
<path d="M19.4286 5.08188C19.3514 5.09039 19.2731 5.08256 19.1996 5.05898C19.1261 5.03541 19.0593 4.99669 19.0043 4.94577C18.9493 4.89484 18.9075 4.83302 18.882 4.76496C18.8566 4.69691 18.8481 4.62439 18.8573 4.55287V1.06136H14.915C14.7635 1.06136 14.6182 1.00563 14.511 0.906419C14.4039 0.807209 14.3437 0.672652 14.3437 0.532348C14.3345 0.460828 14.3429 0.38831 14.3684 0.320255C14.3939 0.252199 14.4357 0.190379 14.4907 0.139451C14.5457 0.0885219 14.6124 0.0498113 14.6859 0.0262337C14.7595 0.00265605 14.8378 -0.00517417 14.915 0.00333266H19.4286C19.5802 0.00333266 19.7255 0.0590681 19.8326 0.158278C19.9398 0.257488 20 0.392045 20 0.532348V4.55287C20 4.69317 19.9398 4.82773 19.8326 4.92694C19.7255 5.02615 19.5802 5.08188 19.4286 5.08188Z" fill="#3B5998"/>
<path d="M0.574259 10.9527C0.490491 10.9558 0.406897 10.9433 0.3284 10.9161C0.249902 10.8888 0.178085 10.8473 0.117181 10.794C0.032046 10.6837 -0.00883313 10.5493 0.00159791 10.4141C0.012029 10.2789 0.0731169 10.1513 0.174317 10.0533L7.08758 4.18126C7.13766 4.12935 7.19943 4.08823 7.26853 4.06081C7.33763 4.03339 7.41238 4.02033 7.48752 4.02256H14.6865L19.0287 0.160744C19.1355 0.0638145 19.2791 0.00952148 19.4286 0.00952148C19.5782 0.00952148 19.7218 0.0638145 19.8286 0.160744C19.937 0.268467 19.9973 0.410248 19.9973 0.557506C19.9973 0.704764 19.937 0.846546 19.8286 0.954268L15.3149 4.92189C15.2063 5.01719 15.0645 5.07347 14.915 5.08059H7.71606L0.917064 10.794C0.829154 10.8858 0.706346 10.9426 0.574259 10.9527Z" fill="#3B5998"/>
</svg>
