<svg width="21" height="21" viewBox="0 0 21 21" fill="none" xmlns="http://www.w3.org/2000/svg">
<path d="M18.7935 18.3532L18.5946 18.2944L15.8114 17.2649C15.5056 17.1247 15.159 17.1141 14.8458 17.2355C14.4373 17.3979 14.0201 17.5354 13.5962 17.6473C12.8362 17.8651 12.055 17.9933 11.2673 18.0296C9.03434 18.0373 6.88957 17.1277 5.30319 15.5002C4.54302 14.7125 3.94087 13.7768 3.53143 12.7471C3.12199 11.7173 2.91335 10.6138 2.91754 9.50015C2.91791 8.91726 2.975 8.33588 3.08795 7.76484C3.50692 5.86009 4.53838 4.15928 6.0132 2.94126C7.5623 1.6869 9.4713 1.00375 11.4377 1.00007C12.608 0.995314 13.7672 1.23541 14.8458 1.70596C15.8797 2.1432 16.817 2.79364 17.6006 3.61774C18.3476 4.38359 18.9405 5.2952 19.3451 6.29984C19.7497 7.30448 19.958 8.38222 19.9579 9.47074C19.9605 11.1075 19.4853 12.7069 18.5946 14.059L18.481 14.2061C18.3726 14.3928 18.3139 14.6059 18.3106 14.8237L19.1343 17.912V17.9708C19.1242 18.056 19.0887 18.1359 19.0327 18.1992C18.9767 18.2624 18.903 18.306 18.8219 18.3238L18.7935 18.3532ZM15.3286 16.4414C15.5901 16.4476 15.849 16.4972 16.0954 16.5885L18.339 17.412L17.6574 14.8826C17.6514 14.5218 17.7397 14.1661 17.913 13.8531L18.0266 13.6767C18.979 12.225 19.4097 10.4734 19.2436 8.72677C19.0776 6.98017 18.3253 5.34918 17.1178 4.11775C16.3959 3.36268 15.5368 2.76293 14.5902 2.35302C13.6023 1.91894 12.5392 1.69873 11.4661 1.70596C9.66456 1.69637 7.91288 2.31834 6.49601 3.47068C5.13355 4.57623 4.18068 6.13434 3.79796 7.88249C3.68516 8.40385 3.62802 8.93646 3.62756 9.47074C3.62668 10.4981 3.82194 11.5156 4.20212 12.4645C4.58229 13.4135 5.13988 14.2752 5.8428 15.0002C6.56206 15.7445 7.41707 16.3333 8.35809 16.7322C9.29911 17.1311 10.3073 17.3322 11.3241 17.3238C12.045 17.2925 12.7598 17.174 13.4541 16.9708L14.6186 16.5885C14.8446 16.4948 15.0852 16.445 15.3286 16.4414Z" fill="#1DA1F2" stroke="#1DA1F2" stroke-width="0.5"/>
<path d="M2.1224 20.6768H2.0372L1.8668 20.5591L1.75319 20.412V20.1768C1.9804 18.9709 2.3212 17.1179 2.3496 17.0297C2.37801 16.9414 2.2644 16.765 2.2076 16.6179C1.22891 15.0904 0.82432 13.2446 1.07026 11.4292C1.3162 9.61378 2.19564 7.95452 3.54243 6.76489L3.62763 6.88254C3.728 6.99631 3.78125 7.14632 3.77594 7.30032C3.77063 7.45432 3.70718 7.60002 3.59923 7.70608C2.38763 8.97547 1.70452 10.686 1.69639 12.4708C1.6884 13.813 2.07469 15.126 2.80401 16.2355C2.90999 16.3697 2.98751 16.5255 3.03155 16.6927C3.07558 16.8599 3.08515 17.0348 3.05962 17.2061C3.03122 17.2944 2.80401 18.6179 2.57681 19.765L4.82045 18.8532C4.9837 18.786 5.15629 18.7463 5.33166 18.7356C5.52622 18.7397 5.71853 18.7796 5.89967 18.8532C7.26839 19.4475 8.78385 19.5769 10.2281 19.2228C11.6723 18.8687 12.9709 18.0494 13.937 16.8826L14.4766 17.3532C13.75 18.2313 12.8481 18.9358 11.8332 19.4182C10.8182 19.9006 9.71441 20.1493 8.59772 20.1473C7.57495 20.1384 6.56307 19.9288 5.61566 19.5297C5.52546 19.4916 5.42908 19.4716 5.33166 19.4709L5.04765 19.5297L2.1224 20.6768Z" fill="#1DA1F2" stroke="#1DA1F2" stroke-width="0.5"/>
<path d="M8.88168 7.58838H8.99528C9.02368 7.61779 9.02368 7.6472 9.02368 7.70603V7.94133C9.02368 8.00015 9.02368 8.02957 8.99528 8.05898H6.97882V9.38254H8.71127C8.73967 9.41195 8.73967 9.44137 8.73967 9.50019V9.73549C8.73967 9.79432 8.73967 9.82373 8.71127 9.85314H6.97882V11.5002C6.97882 11.5591 6.97882 11.5885 6.95042 11.6179H6.46761C6.43921 11.5885 6.43921 11.5591 6.43921 11.5002V7.76485C6.43921 7.70603 6.43921 7.67662 6.46761 7.6472H8.88168V7.58838Z" fill="#1DA1F2" stroke="#1DA1F2" stroke-width="0.5"/>
<path d="M12.9713 11.6471C12.9997 11.7647 12.9713 11.7942 12.8577 11.7942H12.4317L12.3465 11.6765L12.0057 10.7059H10.3017L9.9609 11.6765L9.8757 11.7942H9.47809C9.36449 11.7942 9.33609 11.7353 9.36449 11.6471L10.8413 7.70597C10.8697 7.61773 10.9265 7.58832 11.0401 7.58832H11.2673C11.3081 7.58432 11.3491 7.59347 11.3847 7.61453C11.4203 7.63559 11.4487 7.66753 11.4661 7.70597L12.9713 11.6471ZM11.2673 8.67654C11.2053 8.49644 11.167 8.30846 11.1537 8.11773H11.1253V8.20596C11.1277 8.27579 11.1181 8.34551 11.0969 8.41184C11.0685 8.50008 11.0685 8.58831 11.0401 8.67654L10.4721 10.2354H11.8637L11.2673 8.67654Z" fill="#1DA1F2" stroke="#1DA1F2" stroke-width="0.5"/>
<path d="M16.9474 11.8237C16.9636 11.8396 16.976 11.8592 16.9835 11.8809C16.9911 11.9027 16.9936 11.9259 16.9908 11.9488C16.988 11.9718 16.9801 11.9937 16.9676 12.0128C16.9552 12.032 16.9385 12.0478 16.919 12.059L16.7486 12.2061C16.6634 12.2649 16.6066 12.2649 16.5498 12.1767L16.1522 11.7061C15.8836 11.8598 15.5782 11.9312 15.2718 11.912C14.8385 11.9343 14.4128 11.7873 14.079 11.5002C13.9346 11.3566 13.8217 11.1824 13.7482 10.9895C13.6747 10.7967 13.6422 10.5896 13.653 10.3825V9.02957C13.6422 8.8225 13.6747 8.61546 13.7482 8.42257C13.8217 8.22968 13.9346 8.05549 14.079 7.91191C14.4128 7.62479 14.8385 7.47785 15.2718 7.50013C15.7052 7.47785 16.1309 7.62479 16.4646 7.91191C16.6091 8.05549 16.722 8.22968 16.7955 8.42257C16.869 8.61546 16.9015 8.8225 16.8906 9.02957V10.3825C16.9014 10.7433 16.791 11.0967 16.5782 11.3826L16.9474 11.8237ZM14.2494 10.3825C14.2382 10.5195 14.258 10.6574 14.3073 10.785C14.3566 10.9127 14.434 11.0267 14.5334 11.1178C14.638 11.2122 14.7597 11.2842 14.8913 11.3296C15.0229 11.375 15.1619 11.393 15.3002 11.3826C15.4386 11.393 15.5776 11.375 15.7092 11.3296C15.8408 11.2842 15.9624 11.2122 16.067 11.1178C16.1602 11.0218 16.2335 10.907 16.2823 10.7806C16.3312 10.6541 16.3545 10.5187 16.351 10.3825V9.02957C16.3623 8.89257 16.3425 8.75473 16.2932 8.62707C16.2439 8.4994 16.1664 8.38544 16.067 8.29427C15.9624 8.19991 15.8408 8.12793 15.7092 8.0825C15.5776 8.03707 15.4386 8.01907 15.3002 8.02956C15.1619 8.01907 15.0229 8.03707 14.8913 8.0825C14.7597 8.12793 14.638 8.19991 14.5334 8.29427C14.4402 8.39035 14.367 8.50512 14.3182 8.63156C14.2693 8.758 14.2459 8.89344 14.2494 9.02957V10.3825Z" fill="#1DA1F2" stroke="#1DA1F2" stroke-width="0.5"/>
</svg>
