<svg width="116" height="75" viewBox="0 0 116 75" fill="none" xmlns="http://www.w3.org/2000/svg">
<path d="M0 13.7444H12.665V61.0223H0V13.7444ZM55.9131 24.8982V13.7444H23.4591V60.9503H55.9131V49.8685H36.0521V42.8163H50.0844V32.0943H36.0521V24.8982H55.9131ZM77.7171 13.7444H62.9653L77.7891 36.9156L85.129 25.33L77.7171 13.7444ZM85.129 48.4292L93.1166 60.9503H107.797L92.469 36.9156L85.129 48.4292Z" fill="black"/>
<path d="M116 0H101.248L85.129 25.33L92.469 36.9156L116 0ZM53.6824 74.6948H68.3623L85.129 48.4293L77.7891 36.9156L53.6824 74.6948Z" fill="#007BFF"/>
<path d="M85.129 25.33L77.7891 36.9156L85.129 48.4293L92.469 36.9156L85.129 25.33Z" fill="#004FA3"/>
</svg>
