<svg width="23" height="16" viewBox="0 0 23 16" fill="none" xmlns="http://www.w3.org/2000/svg">
<rect x="0.25" y="0.25" width="21.9" height="15.5" rx="1.75" fill="white" stroke="#F5F5F5" stroke-width="0.5"/>
<mask id="mask0_1403_11851" style="mask-type:alpha" maskUnits="userSpaceOnUse" x="0" y="0" width="23" height="16">
<rect x="0.25" y="0.25" width="21.9" height="15.5" rx="1.75" fill="white" stroke="white" stroke-width="0.5"/>
</mask>
<g mask="url(#mask0_1403_11851)">
<path fill-rule="evenodd" clip-rule="evenodd" d="M11.2001 11.7335C13.262 11.7335 14.9335 10.062 14.9335 8.00018C14.9335 5.93832 13.262 4.26685 11.2001 4.26685C9.13827 4.26685 7.4668 5.93832 7.4668 8.00018C7.4668 10.062 9.13827 11.7335 11.2001 11.7335Z" fill="#E01B41"/>
<mask id="mask1_1403_11851" style="mask-type:alpha" maskUnits="userSpaceOnUse" x="7" y="4" width="8" height="8">
<path fill-rule="evenodd" clip-rule="evenodd" d="M11.2001 11.7335C13.262 11.7335 14.9335 10.062 14.9335 8.00018C14.9335 5.93832 13.262 4.26685 11.2001 4.26685C9.13827 4.26685 7.4668 5.93832 7.4668 8.00018C7.4668 10.062 9.13827 11.7335 11.2001 11.7335Z" fill="white"/>
</mask>
<g mask="url(#mask1_1403_11851)">
<path fill-rule="evenodd" clip-rule="evenodd" d="M7.46675 8.5335C8.53342 9.5335 10.1334 10.1335 11.2001 8.5335C12.2667 6.9335 14.4001 6.9335 14.9334 8.5335C15.4668 10.1335 14.9334 11.7335 14.9334 11.7335H7.46675C7.46675 11.7335 6.40008 7.5335 7.46675 8.5335Z" fill="#0E4B9C"/>
</g>
<path opacity="0.75" fill-rule="evenodd" clip-rule="evenodd" d="M16.6931 2.98104C16.5336 3.07309 16.479 3.27695 16.5711 3.43638L17.8377 5.63031C17.9298 5.78975 18.1336 5.84437 18.2931 5.75232L18.6395 5.55232C18.7989 5.46028 18.8535 5.25641 18.7615 5.09698L17.4948 2.90305C17.4028 2.74362 17.1989 2.68899 17.0395 2.78104L16.6931 2.98104ZM15.3075 3.78104C15.1481 3.87309 15.0935 4.07695 15.1855 4.23638L16.4522 6.43031C16.5442 6.58975 16.7481 6.64437 16.9075 6.55232L17.2539 6.35232C17.4134 6.26028 17.468 6.05641 17.3759 5.89698L16.1093 3.70305C16.0172 3.54362 15.8134 3.48899 15.6539 3.58104L15.3075 3.78104ZM3.63846 10.9031C3.54642 10.7437 3.60104 10.5398 3.76047 10.4478L4.10688 10.2478C4.26631 10.1557 4.47018 10.2104 4.56222 10.3698L5.82889 12.5637C5.92094 12.7231 5.86631 12.927 5.70688 13.0191L5.36047 13.2191C5.20104 13.3111 4.99718 13.2565 4.90513 13.097L3.63846 10.9031ZM5.14604 9.64777C4.98661 9.73982 4.93198 9.94368 5.02403 10.1031L6.2907 12.297C6.38275 12.4565 6.58661 12.5111 6.74604 12.4191L7.09245 12.2191C7.25188 12.127 7.30651 11.9231 7.21446 11.7637L5.94779 9.56978C5.85574 9.41035 5.65188 9.35573 5.49245 9.44777L5.14604 9.64777ZM16.4522 9.56985C16.5442 9.41042 16.7481 9.35579 16.9075 9.44784L17.2539 9.64784C17.4134 9.73989 17.468 9.94375 17.3759 10.1032L16.1093 12.2971C16.0172 12.4565 15.8134 12.5112 15.6539 12.4191L15.3075 12.2191C15.1481 12.1271 15.0935 11.9232 15.1855 11.7638L16.4522 9.56985ZM18.2931 10.2478C18.1336 10.1558 17.9298 10.2104 17.8377 10.3698L16.5711 12.5638C16.479 12.7232 16.5336 12.9271 16.6931 13.0191L17.0395 13.2191C17.1989 13.3112 17.4028 13.2565 17.4948 13.0971L18.7615 10.9032C18.8535 10.7438 18.7989 10.5399 18.6395 10.4478L18.2931 10.2478ZM4.90513 2.90312C4.99718 2.74368 5.20104 2.68906 5.36047 2.78111L5.70688 2.98111C5.86631 3.07315 5.92094 3.27702 5.82889 3.43645L4.56222 5.63038C4.47018 5.78981 4.26631 5.84444 4.10688 5.75239L3.76047 5.55239C3.60104 5.46034 3.54642 5.25648 3.63846 5.09705L4.90513 2.90312ZM6.74604 3.58111C6.58661 3.48906 6.38274 3.54368 6.2907 3.70312L5.02403 5.89705C4.93198 6.05648 4.98661 6.26034 5.14604 6.35239L5.49245 6.55239C5.65188 6.64444 5.85574 6.58981 5.94779 6.43038L7.21446 4.23645C7.30651 4.07702 7.25188 3.87315 7.09245 3.78111L6.74604 3.58111Z" fill="#262626"/>
</g>
</svg>
