<svg width="100" height="100" viewBox="0 0 100 100" fill="none" xmlns="http://www.w3.org/2000/svg">
<path d="M50 93.75C50 97.2018 47.1909 100.04 43.7661 99.6099C35.0672 98.5169 26.7691 95.1495 19.7325 89.798C11.0301 83.1796 4.73691 73.8912 1.81661 63.3552C-1.10369 52.8192 -0.490103 41.6164 3.56342 31.4624C7.61693 21.3083 14.8869 12.7628 24.2601 7.13442C33.6333 1.50603 44.5929 -0.894978 55.4607 0.299092C66.3286 1.49316 76.5054 6.21648 84.433 13.7457C92.3605 21.275 97.6016 31.1952 99.3538 41.9871C100.771 50.7132 99.843 59.6203 96.7196 67.8124C95.4899 71.0377 91.6643 72.1832 88.6174 70.561C85.5706 68.9388 84.4715 65.1619 85.5658 61.8881C87.4815 56.1568 87.9936 50.016 87.0153 43.9903C85.7012 35.8964 81.7704 28.4563 75.8247 22.8093C69.8791 17.1624 62.2464 13.6199 54.0956 12.7243C45.9447 11.8288 37.725 13.6295 30.6951 17.8508C23.6652 22.0721 18.2127 28.4813 15.1726 36.0968C12.1324 43.7123 11.6722 52.1144 13.8625 60.0164C16.0527 67.9184 20.7726 74.8847 27.2994 79.8485C32.1584 83.5439 37.8195 85.9778 43.7787 86.9804C47.1827 87.5531 50 90.2982 50 93.75Z" fill="url(#paint0_linear_1403_9588)"/>
<defs>
<linearGradient id="paint0_linear_1403_9588" x1="50" y1="0" x2="50" y2="100" gradientUnits="userSpaceOnUse">
<stop stop-color="#1DA1F2"/>
<stop offset="1" stop-color="#3B5998"/>
</linearGradient>
</defs>
</svg>
