<svg width="153" height="32" viewBox="0 0 153 32" fill="none" xmlns="http://www.w3.org/2000/svg">
<path d="M29.9715 22.947C29.2946 22.947 28.6212 22.9254 27.9513 22.8858C27.2467 22.8385 26.5464 22.7386 25.8563 22.5868V10.4847C26.4751 10.3702 27.0995 10.2897 27.7269 10.2434C28.4038 10.1894 29.0345 10.1606 29.6152 10.1606C30.3408 10.1568 31.0655 10.2147 31.7815 10.3335C32.4406 10.4451 33.0072 10.6432 33.481 10.917C33.9394 11.1777 34.3236 11.5536 34.5962 12.0083C34.8635 12.4585 34.9953 13.0132 34.9953 13.6723C34.9953 14.67 34.5214 15.4588 33.5701 16.0315C34.354 16.3341 34.8884 16.7423 35.1734 17.2562C35.4585 17.7748 35.601 18.3547 35.601 19.003C35.601 20.3141 35.1295 21.2986 34.1865 21.9565C33.2435 22.6145 31.8385 22.9446 29.9715 22.947ZM28.5642 15.2031H29.9181C30.7732 15.2031 31.3848 15.0927 31.753 14.8717C32.12 14.6484 32.3053 14.2919 32.3053 13.7984C32.3053 13.305 32.1164 12.9412 31.7352 12.7359C31.354 12.5306 30.7981 12.4297 30.0606 12.4297L29.2946 12.4405C29.0202 12.4441 28.7779 12.4621 28.5642 12.4837V15.2031ZM28.5642 17.3462V20.5698C28.7673 20.595 28.9846 20.613 29.2233 20.6238C29.462 20.6347 29.7221 20.6419 30.0072 20.6419C30.8373 20.6419 31.5107 20.523 32.0202 20.2817C32.5297 20.0404 32.7863 19.5973 32.7863 18.949C32.7863 18.3727 32.5725 17.9621 32.1449 17.7172C31.7174 17.4723 31.1057 17.3486 30.31 17.3462H28.5642Z" fill="white"/>
<path d="M42.7625 15.6896C42.5238 15.6319 42.2459 15.5671 41.9252 15.5023C41.5852 15.4327 41.2389 15.3989 40.892 15.4014C40.6929 15.4043 40.4941 15.42 40.297 15.4482C40.1189 15.4663 39.9426 15.4989 39.7696 15.5455V22.7852H37.1152V13.8166C37.6676 13.6259 38.2303 13.4671 38.8005 13.3412C39.4454 13.1899 40.1687 13.1143 40.9632 13.1143C41.1057 13.1143 41.2768 13.1251 41.4799 13.1431C41.6829 13.1611 41.8825 13.1827 42.0856 13.2151C42.2886 13.2475 42.4882 13.2799 42.6913 13.3232C42.8682 13.3554 43.0413 13.4061 43.2079 13.4744L42.7625 15.6896Z" fill="white"/>
<path d="M52.6853 18.0301C52.6853 18.7757 52.5784 19.46 52.3646 20.0759C52.1678 20.6634 51.8523 21.203 51.4383 21.6607C51.0319 22.0998 50.5375 22.446 49.9882 22.6764C49.4216 22.9178 48.791 23.0366 48.0891 23.0366C47.3872 23.0366 46.7744 22.9178 46.2114 22.6764C45.6605 22.447 45.1648 22.1006 44.7578 21.6607C44.3415 21.2015 44.0205 20.6626 43.8136 20.0759C43.5879 19.4564 43.4751 18.7745 43.4751 18.0301C43.4751 17.2881 43.5927 16.6074 43.8243 15.9951C44.0559 15.3828 44.3765 14.8605 44.7863 14.4283C45.1985 13.9931 45.6961 13.6496 46.2471 13.4198C46.8307 13.1751 47.4573 13.0526 48.0891 13.0596C48.7278 13.0526 49.3614 13.175 49.9525 13.4198C50.5003 13.6498 50.9943 13.9934 51.4026 14.4283C51.8185 14.881 52.1396 15.4139 52.3468 15.9951C52.5713 16.6074 52.6853 17.2881 52.6853 18.0301ZM49.9775 18.0301C49.9775 17.2017 49.8148 16.551 49.4893 16.0779C49.1639 15.6049 48.6972 15.3672 48.0891 15.3648C47.4834 15.3648 47.0131 15.6025 46.6817 16.0779C46.3504 16.5534 46.1829 17.2017 46.1829 18.0301C46.1829 18.8585 46.3504 19.5177 46.6817 20.0039C47.0131 20.4901 47.4834 20.7315 48.0891 20.7315C48.6948 20.7315 49.1616 20.4901 49.4893 20.0039C49.8171 19.5177 49.9775 18.8585 49.9775 18.0301Z" fill="white"/>
<path d="M56.8539 16.7162L57.6626 15.8193C57.9405 15.5096 58.2113 15.2034 58.475 14.8973L59.2125 14.0293C59.4441 13.7555 59.6436 13.5178 59.8075 13.3125H62.9643C62.3336 14.0437 61.7208 14.7388 61.1223 15.4051C60.5237 16.0715 59.8645 16.7558 59.1519 17.4653C59.5443 17.8289 59.9132 18.2175 60.2565 18.6287C60.6377 19.0789 61.0047 19.5472 61.361 20.0262C61.7173 20.5052 62.045 20.9879 62.3408 21.4705C62.6365 21.9531 62.8859 22.389 63.089 22.7852H60.0356C59.8467 22.4718 59.6294 22.126 59.3871 21.7478C59.1448 21.3697 58.8883 20.9879 58.6139 20.6097C58.3396 20.2315 58.0546 19.8677 57.7517 19.5184C57.4776 19.198 57.1772 18.9016 56.8539 18.6323V22.7852H54.1995V9.24251L56.8539 8.8103V16.7162Z" fill="white"/>
<path d="M62.8931 18.12C62.8931 17.282 63.0201 16.5472 63.2743 15.9156C63.5273 15.2853 63.8658 14.7594 64.2826 14.338C64.6906 13.9243 65.178 13.5995 65.7149 13.3835C66.2456 13.1703 66.8113 13.0603 67.3824 13.0593C68.7125 13.0593 69.7636 13.4711 70.5356 14.2948C71.3076 15.1184 71.6935 16.3275 71.6935 17.9219C71.6935 18.0804 71.6864 18.2497 71.6757 18.437C71.665 18.6243 71.6508 18.7864 71.6401 18.9304H65.6187C65.6793 19.4851 65.9323 19.921 66.3848 20.2451C66.8372 20.5693 67.4429 20.7314 68.2019 20.7314C68.6823 20.732 69.1619 20.6874 69.6342 20.5981C70.1045 20.5081 70.4893 20.3964 70.785 20.2631L71.1413 22.4423C70.9575 22.5302 70.7668 22.6025 70.5712 22.6584C70.31 22.7365 70.0447 22.8002 69.7767 22.8493C69.4881 22.9033 69.1745 22.9466 68.8432 22.9826C68.5118 23.0186 68.1788 23.0367 67.8456 23.0366C67.0023 23.0366 66.2684 22.9106 65.6437 22.6584C65.019 22.4063 64.5023 22.0617 64.0938 21.6247C63.6811 21.1787 63.3709 20.6462 63.1852 20.065C62.9905 19.4671 62.8931 18.8188 62.8931 18.12ZM69.1282 17.0935C69.1178 16.8671 69.0782 16.6431 69.0106 16.4271C68.9491 16.2138 68.8445 16.0156 68.7034 15.8452C68.5624 15.6747 68.388 15.5356 68.1912 15.4366C67.9845 15.3285 67.728 15.2745 67.418 15.2745C67.108 15.2745 66.8658 15.3249 66.652 15.4294C66.4475 15.5239 66.2653 15.6615 66.1175 15.8328C65.972 16.006 65.8596 16.2051 65.7862 16.4199C65.7108 16.639 65.6547 16.8644 65.6187 17.0935H69.1282Z" fill="white"/>
<path d="M78.855 15.6896C78.6163 15.6319 78.3384 15.5671 78.0178 15.5023C77.6777 15.4327 77.3314 15.3989 76.9845 15.4014C76.7842 15.4045 76.5843 15.4201 76.3859 15.4482C76.209 15.466 76.0338 15.4985 75.8622 15.5455V22.7852H73.2078V13.8166C73.7589 13.6259 74.3204 13.4671 74.8895 13.3412C75.5379 13.1899 76.26 13.1143 77.0558 13.1143C77.1983 13.1143 77.3693 13.1251 77.5724 13.1431C77.7755 13.1611 77.975 13.1827 78.1781 13.2151C78.3812 13.2475 78.5807 13.2799 78.7838 13.3232C78.9607 13.3554 79.1338 13.4061 79.3004 13.4744L78.855 15.6896Z" fill="white"/>
<path d="M91.1829 16.5357C91.1829 17.6163 91.0167 18.5587 90.6841 19.3632C90.3516 20.1676 89.8789 20.8339 89.2661 21.3622C88.6556 21.8929 87.911 22.2891 87.0321 22.5508C86.152 22.8138 85.1687 22.947 84.0748 22.947C83.576 22.947 82.9953 22.9254 82.329 22.8858C81.6706 22.8434 81.0159 22.7556 80.3694 22.6229V10.4666C81.0313 10.3447 81.7 10.2641 82.3718 10.2252C83.0665 10.182 83.6651 10.1604 84.1639 10.1604C85.2221 10.1604 86.1805 10.2829 87.0392 10.5206C87.8979 10.7583 88.6425 11.1401 89.2589 11.6552C89.8753 12.1702 90.3528 12.833 90.6841 13.6362C91.0155 14.4394 91.1829 15.4083 91.1829 16.5357ZM83.1485 20.4978C83.2803 20.5122 83.43 20.5194 83.601 20.5266L84.2174 20.5338C85.6069 20.5338 86.6366 20.1796 87.3064 19.4712C87.9763 18.7617 88.3112 17.7855 88.3148 16.5357C88.3148 15.2294 87.9941 14.2389 87.3528 13.5642C86.7114 12.8942 85.696 12.5556 84.3064 12.5556L83.7186 12.5664C83.5279 12.57 83.3375 12.5844 83.1485 12.6097V20.4978Z" fill="white"/>
<path d="M96.1532 13.0593C96.9371 13.0593 97.5903 13.1494 98.1128 13.3295C98.6366 13.5096 99.0535 13.7689 99.367 14.1039C99.6867 14.4501 99.9168 14.8708 100.037 15.3286C100.169 15.8113 100.233 16.3444 100.233 16.9315V22.5147C99.8516 22.6012 99.3242 22.6984 98.6473 22.8137C97.9703 22.9289 97.1508 22.983 96.1888 22.983C95.6349 22.9867 95.0821 22.9324 94.5392 22.8209C94.0475 22.7128 93.6235 22.5363 93.2672 22.2914C92.9145 22.0484 92.6318 21.7154 92.4478 21.326C92.2589 20.9298 92.1627 20.4435 92.1627 19.8672C92.1627 19.2909 92.2732 18.8478 92.4905 18.4624C92.7056 18.0873 93.0092 17.7717 93.3741 17.5439C93.7646 17.3073 94.1925 17.1403 94.639 17.0504C95.1249 16.9449 95.6206 16.893 96.1176 16.8955C96.4235 16.8931 96.7292 16.9087 97.0333 16.9423C97.2534 16.9626 97.4714 17.0012 97.6853 17.0576V16.8055C97.6853 16.3516 97.5499 15.9842 97.2755 15.7068C97.0012 15.4295 96.5273 15.2926 95.8504 15.2926C95.4031 15.2919 94.9565 15.3256 94.5143 15.3935C94.1261 15.4479 93.7443 15.5408 93.3741 15.6708L93.0356 13.5096C93.19 13.464 93.3824 13.4135 93.6128 13.3583C93.8444 13.3043 94.0974 13.2539 94.3717 13.2142C94.6461 13.1746 94.9311 13.135 95.234 13.1062C95.5394 13.0744 95.8462 13.0588 96.1532 13.0593ZM96.367 20.9118C96.6271 20.9118 96.8765 20.9082 97.1152 20.8938C97.3061 20.8867 97.4964 20.8686 97.6853 20.8398V18.8046C97.5784 18.783 97.4181 18.7578 97.2043 18.7326C97.0092 18.7091 96.8129 18.697 96.6164 18.6965C96.3805 18.696 96.1448 18.7116 95.9109 18.7434C95.7109 18.7688 95.5162 18.826 95.3337 18.9127C95.1763 18.991 95.0414 19.1088 94.9418 19.2549C94.8456 19.3989 94.7993 19.579 94.7993 19.7952C94.7993 20.2178 94.9383 20.5096 95.2162 20.6705C95.4976 20.8326 95.8789 20.9118 96.367 20.9118Z" fill="white"/>
<path d="M102.014 10.9534L104.669 10.5212V13.3126H107.858V15.5456H104.669V18.8772C104.669 19.4427 104.765 19.8929 104.961 20.2279C105.157 20.5629 105.552 20.7321 106.147 20.7321C106.442 20.7327 106.737 20.7062 107.027 20.6529C107.311 20.6049 107.589 20.5289 107.858 20.426L108.232 22.515C107.885 22.6576 107.527 22.7721 107.163 22.8572C106.771 22.9544 106.29 23.0012 105.72 23.0012C104.996 23.0012 104.394 22.904 103.92 22.7059C103.447 22.5078 103.065 22.2305 102.78 21.8775C102.495 21.5245 102.296 21.0923 102.182 20.5881C102.067 20.0374 102.011 19.476 102.014 18.9133V10.9534Z" fill="white"/>
<path d="M112.489 13.0593C113.273 13.0593 113.926 13.1494 114.449 13.3295C114.973 13.5096 115.39 13.7689 115.703 14.1039C116.023 14.4501 116.253 14.8708 116.373 15.3286C116.505 15.8113 116.569 16.3444 116.569 16.9315V22.5147C116.188 22.6012 115.66 22.6984 114.983 22.8137C114.306 22.9289 113.487 22.983 112.525 22.983C111.971 22.9867 111.418 22.9324 110.875 22.8209C110.384 22.7128 109.96 22.5363 109.603 22.2914C109.251 22.0484 108.968 21.7154 108.784 21.326C108.595 20.9298 108.499 20.4435 108.499 19.8672C108.499 19.2909 108.609 18.8478 108.827 18.4624C109.042 18.0873 109.345 17.7717 109.71 17.5439C110.101 17.3073 110.529 17.1403 110.975 17.0504C111.461 16.9449 111.957 16.893 112.454 16.8955C112.76 16.8931 113.065 16.9087 113.369 16.9423C113.589 16.9626 113.808 17.0012 114.021 17.0576V16.8055C114.021 16.3516 113.886 15.9842 113.612 15.7068C113.337 15.4295 112.863 15.2926 112.186 15.2926C111.739 15.2919 111.293 15.3256 110.85 15.3935C110.462 15.4479 110.08 15.5408 109.71 15.6708L109.372 13.5096C109.526 13.464 109.718 13.4135 109.949 13.3583C110.18 13.3043 110.433 13.2539 110.708 13.2142C110.982 13.1746 111.267 13.135 111.57 13.1062C111.875 13.0744 112.182 13.0588 112.489 13.0593ZM112.703 20.9118C112.963 20.9118 113.213 20.9082 113.451 20.8938C113.642 20.8867 113.832 20.8686 114.021 20.8398V18.8046C113.914 18.783 113.754 18.7578 113.54 18.7326C113.345 18.7091 113.149 18.697 112.952 18.6965C112.717 18.696 112.481 18.7116 112.247 18.7434C112.047 18.7688 111.852 18.826 111.67 18.9127C111.512 18.991 111.377 19.1088 111.278 19.2549C111.182 19.3989 111.135 19.579 111.135 19.7952C111.135 20.2178 111.274 20.5096 111.552 20.6705C111.834 20.8326 112.215 20.9118 112.703 20.9118Z" fill="white"/>
<path d="M120.363 22.0104C120.363 22.2876 120.278 22.5216 120.103 22.7125C119.929 22.9033 119.694 23.0005 119.384 23.0005C119.074 23.0005 118.835 22.9033 118.66 22.7125C118.495 22.5168 118.404 22.2678 118.404 22.0104C118.404 21.7529 118.495 21.5039 118.66 21.3083C118.835 21.1175 119.074 21.0203 119.384 21.0203C119.694 21.0203 119.932 21.1175 120.103 21.3083C120.276 21.4998 120.369 21.7513 120.363 22.0104Z" fill="white"/>
<path d="M123.659 13.4746H127.329V14.4651H123.659V19.4173C123.659 19.9468 123.702 20.3754 123.791 20.7067C123.88 21.0381 124.008 21.2902 124.176 21.4703C124.337 21.6501 124.548 21.7758 124.782 21.8305C125.038 21.8928 125.301 21.923 125.565 21.9205C126.05 21.9205 126.442 21.8629 126.741 21.7512C126.98 21.6619 127.212 21.556 127.436 21.4343L127.721 22.4067C127.553 22.5148 127.261 22.6372 126.848 22.7777C126.41 22.9178 125.953 22.987 125.494 22.983C124.924 22.983 124.447 22.9074 124.058 22.7597C123.691 22.6258 123.37 22.3883 123.132 22.0754C122.9 21.7692 122.736 21.3875 122.644 20.93C122.551 20.4726 122.501 19.936 122.501 19.3093V10.7373L123.659 10.5212V13.4746Z" fill="white"/>
<path d="M128.38 18.1206C128.38 17.3066 128.494 16.5934 128.726 15.9883C128.957 15.3832 129.26 14.8753 129.634 14.4647C129.99 14.0694 130.428 13.7593 130.917 13.557C131.389 13.3596 131.895 13.2581 132.406 13.2581C133.532 13.2581 134.433 13.6327 135.103 14.3746C135.773 15.1166 136.112 16.2656 136.112 17.8144C136.112 17.9117 136.108 18.0089 136.101 18.1026C136.094 18.1962 136.087 18.2899 136.076 18.3727H129.609C129.645 19.5145 129.923 20.3934 130.447 21.0021C130.97 21.6108 131.8 21.9206 132.941 21.9206C133.568 21.9206 134.066 21.863 134.437 21.7405C134.808 21.618 135.071 21.5208 135.239 21.4343L135.452 22.4429C135.285 22.5401 134.975 22.6554 134.515 22.7851C134.056 22.9147 133.521 22.9832 132.905 22.9832C132.097 22.9832 131.409 22.8631 130.838 22.623C130.268 22.3852 129.798 22.0467 129.431 21.6144C129.054 21.1686 128.78 20.6431 128.629 20.0764C128.463 19.4833 128.38 18.8314 128.38 18.1206ZM134.918 17.3822C134.894 16.4097 134.669 15.6533 134.241 15.113C133.814 14.5727 133.208 14.3026 132.424 14.3026C132.038 14.2954 131.655 14.3819 131.309 14.5547C130.984 14.724 130.694 14.9537 130.454 15.2319C130.208 15.5219 130.015 15.8536 129.884 16.2116C129.747 16.5878 129.667 16.9822 129.645 17.3822H134.918Z" fill="white"/>
<path d="M141.973 22.9831C141.26 22.9831 140.631 22.8691 140.084 22.641C139.558 22.4296 139.091 22.0936 138.72 21.6613C138.346 21.2121 138.065 20.6916 137.893 20.1305C137.701 19.5362 137.608 18.8771 137.608 18.1567C137.608 17.4363 137.704 16.7592 137.9 16.1577C138.096 15.5562 138.378 15.0411 138.748 14.6089C139.114 14.1791 139.571 13.8381 140.084 13.6112C140.605 13.3771 141.192 13.2582 141.848 13.2582C142.317 13.2551 142.784 13.2974 143.245 13.3843C143.679 13.4707 144.014 13.5788 144.253 13.7084L143.95 14.717C143.695 14.5906 143.426 14.494 143.149 14.4288C142.849 14.3568 142.454 14.3208 141.955 14.3208C140.932 14.3208 140.159 14.6557 139.628 15.3221C139.097 15.9884 138.837 16.9321 138.837 18.1567C138.83 18.6702 138.89 19.1825 139.016 19.6803C139.12 20.114 139.317 20.5196 139.593 20.8689C139.872 21.2061 140.226 21.4715 140.626 21.6433C141.05 21.8269 141.563 21.9206 142.169 21.9206C142.668 21.9206 143.084 21.863 143.423 21.7513C143.761 21.6397 144.007 21.5388 144.164 21.4524L144.413 22.4609C144.2 22.5833 143.865 22.6986 143.405 22.8138C142.936 22.9276 142.455 22.9844 141.973 22.9831Z" fill="white"/>
<path d="M145.821 22.7852V9.02641L146.979 8.8103V13.7447C147.354 13.6 147.742 13.4891 148.137 13.4134C148.524 13.3343 148.918 13.2944 149.312 13.2945C150.025 13.2945 150.616 13.399 151.094 13.6007C151.544 13.7843 151.938 14.0865 152.234 14.4759C152.519 14.8541 152.715 15.3079 152.829 15.8337C152.946 16.4083 153.004 16.9939 153 17.5806V22.7852H151.842V17.9588C151.842 17.2997 151.796 16.7414 151.707 16.284C151.618 15.8265 151.468 15.4556 151.261 15.1674C151.055 14.8799 150.767 14.6635 150.435 14.5479C150.089 14.4219 149.654 14.357 149.134 14.357C148.916 14.3571 148.698 14.3752 148.482 14.411C148.251 14.4471 148.033 14.4867 147.834 14.5299C147.634 14.5731 147.449 14.6163 147.289 14.6632C147.185 14.6956 147.078 14.7316 146.979 14.7712V22.7852H145.821Z" fill="white"/>
<path d="M16.3254 8.96509C17.2839 7.37314 17.8824 5.54347 17.8753 3.90469C17.8539 0.821625 15.6413 -0.352532 12.9905 1.1962L4.44299 6.18457V29.7037L13.076 24.6649V24.6397C13.2364 24.5605 13.3931 24.4777 13.557 24.384C16.9988 22.3743 19.7922 17.4867 19.7922 13.4636C19.7922 10.6075 18.3812 8.95789 16.3254 8.96509Z" fill="url(#paint0_linear)"/>
<path d="M8.63657 9.30368C7.58551 8.25917 6.45605 7.36233 5.27672 6.67439L1.67458 4.57096C0.751781 4.03069 0 4.47011 0 5.55064V25.1587C0 26.2392 0.751781 27.5538 1.67458 28.0941L5.27672 30.1939C6.45605 30.8819 7.58551 31.3069 8.63657 31.4834C12.5487 32.1533 15.3527 29.4375 15.3527 24.3158C15.3527 19.1941 12.5487 13.2008 8.63657 9.30368Z" fill="url(#paint1_linear)"/>
<defs>
<linearGradient id="paint0_linear" x1="-0.594304" y1="20.8839" x2="21.1857" y2="8.44488" gradientUnits="userSpaceOnUse">
<stop stop-color="white" stop-opacity="0.1"/>
<stop offset="1" stop-color="white"/>
</linearGradient>
<linearGradient id="paint1_linear" x1="16.7747" y1="22.3597" x2="-3.538" y2="15.0459" gradientUnits="userSpaceOnUse">
<stop stop-color="white" stop-opacity="0.3"/>
<stop offset="1" stop-color="white"/>
</linearGradient>
</defs>
</svg>
