<svg xmlns="http://www.w3.org/2000/svg" xmlns:xlink="http://www.w3.org/1999/xlink" viewBox="0 0 598 68.5"><defs><style>.cls-1{isolation:isolate;}.cls-2{fill:url(#Naamloos_verloop_75);}.cls-3{fill:url(#Naamloos_verloop_75-2);}.cls-4{fill:url(#Naamloos_verloop_75-3);}.cls-5{fill:url(#Naamloos_verloop_74);}.cls-6,.cls-7{fill:#fff;mix-blend-mode:soft-light;}.cls-6{opacity:0.34;}.cls-7{opacity:0.56;}.cls-8{fill:#3b5998;}.cls-9{fill:#1da1f2;}</style><linearGradient id="Naamloos_verloop_75" x1="14.12" y1="10.75" x2="30.71" y2="69.66" gradientUnits="userSpaceOnUse"><stop offset="0" stop-color="#1cffce"/><stop offset="0.59" stop-color="#1da4f1"/><stop offset="0.99" stop-color="#3b5998"/></linearGradient><linearGradient id="Naamloos_verloop_75-2" x1="38.72" y1="3.83" x2="55.3" y2="62.73" xlink:href="#Naamloos_verloop_75"/><linearGradient id="Naamloos_verloop_75-3" x1="63.24" y1="-3.07" x2="79.82" y2="55.82" xlink:href="#Naamloos_verloop_75"/><linearGradient id="Naamloos_verloop_74" x1="41.57" y1="38.91" x2="53.66" y2="72.11" gradientUnits="userSpaceOnUse"><stop offset="0" stop-color="#1da4f1"/><stop offset="0.26" stop-color="#1ca1ee"/><stop offset="1" stop-color="#3b5998"/></linearGradient></defs><g class="cls-1"><g id="Laag_2" data-name="Laag 2"><g id="Laag_1-2" data-name="Laag 1"><path class="cls-2" d="M31.4,25.8V56.5c-4.6-.4-9.2-1-13.7-1.7l-4.5-.9V25.8a1.1,1.1,0,0,1,1.1-1.2h16A1.1,1.1,0,0,1,31.4,25.8Z"/><path class="cls-3" d="M56.4,11.4V57c-3.1.2-6.2.2-9.2.2s-6,0-9.1-.2V11.4a1.2,1.2,0,0,1,1.2-1.2H55.2A1.3,1.3,0,0,1,56.4,11.4Z"/><path class="cls-4" d="M81.3,1.1V53.9l-4.6.8c-4.5.8-9.1,1.4-13.6,1.8V1.1A1.1,1.1,0,0,1,64.2,0H80.6A1.2,1.2,0,0,1,81.3,1.1Z"/><path class="cls-5" d="M.8,53.9c7.9,1.9,15.5,3.7,23.3,4.8a163.2,163.2,0,0,0,23.1,1.7,151.1,151.1,0,0,0,23.2-1.8,222.6,222.6,0,0,0,23.2-4.8.7.7,0,0,1,.9.5.8.8,0,0,1-.3.8A76.7,76.7,0,0,1,71.8,65.2a89,89,0,0,1-24.6,3.3,91.6,91.6,0,0,1-24.5-3.3A75.6,75.6,0,0,1,.3,55.1a.8.8,0,0,1-.2-1A.7.7,0,0,1,.8,53.9Z"/><path class="cls-6" d="M81.3,1.1V22.4A57.2,57.2,0,0,1,63.1,38.8a60.2,60.2,0,0,1-6.7,3.4,58.2,58.2,0,0,1-18.3,4.2H31.4a58,58,0,0,1-18.2-3.9V25.8a1.1,1.1,0,0,1,1.1-1.2h16a1.1,1.1,0,0,1,1.1,1.2V40.7a49.3,49.3,0,0,0,6.7-1.1V11.4a1.2,1.2,0,0,1,1.2-1.2H55.2a1.3,1.3,0,0,1,1.2,1.2V32a64.8,64.8,0,0,0,6.7-5V1.1A1.1,1.1,0,0,1,64.2,0H80.6A1.2,1.2,0,0,1,81.3,1.1Z"/><path class="cls-7" d="M31.4,25.8V40.7a40.3,40.3,0,0,1-6,.4,60.8,60.8,0,0,1-12.2-1.3v-14a1.1,1.1,0,0,1,1.1-1.2h16A1.1,1.1,0,0,1,31.4,25.8Z"/><path class="cls-7" d="M56.4,11.4V32a55.9,55.9,0,0,1-18.3,7.6V11.4a1.2,1.2,0,0,1,1.2-1.2H55.2A1.3,1.3,0,0,1,56.4,11.4Z"/><path class="cls-7" d="M80.6.1A57.7,57.7,0,0,1,63.1,27V1.1A1.1,1.1,0,0,1,64.2,0H80.6Z"/><path class="cls-8" d="M134.2,11c4.2,0,7.5,1.1,9.9,3.2s3.6,5.2,3.6,9.1-1.7,8-5,10v.2c4.4,1.6,6.7,5.4,6.7,11.4a11.6,11.6,0,0,1-4.1,9.4c-2.7,2.3-6.3,3.4-10.7,3.4H116a2.8,2.8,0,0,1-1.8-.5c-.4-.3-.5-.9-.5-1.7V13.3a2.3,2.3,0,0,1,.5-1.8A2.8,2.8,0,0,1,116,11Zm5,13.5c0-3.8-2-5.8-6-5.8H122V30.3h11.2C137.2,30.3,139.2,28.4,139.2,24.5ZM140.6,44c0-4.2-2.1-6.2-6.2-6.2H122V50h12.4C138.5,50,140.6,48,140.6,44Z"/><path class="cls-8" d="M170.3,22.7h2.1a2.2,2.2,0,0,1,1.6.4,2.2,2.2,0,0,1,.5,1.6v2.9a2.3,2.3,0,0,1-.5,1.6,2.2,2.2,0,0,1-1.6.4h-2.3a22.5,22.5,0,0,0-6.3.8.8.8,0,0,0-.6.8V55.7a1.8,1.8,0,0,1-2,2h-3.6a2.2,2.2,0,0,1-1.6-.5,2.1,2.1,0,0,1-.5-1.5V28.4a4.4,4.4,0,0,1,.5-2.3,5.4,5.4,0,0,1,2.1-1.5A40.6,40.6,0,0,1,170.3,22.7Z"/><path class="cls-8" d="M176.9,35.8q0-6.1,3.9-9.6c2.7-2.4,6.4-3.5,11.2-3.5s8.6,1.1,11.2,3.5,4,5.5,4,9.6v9.7c0,4.2-1.3,7.4-4,9.7s-6.3,3.5-11.2,3.5-8.5-1.2-11.2-3.5-3.9-5.5-3.9-9.7Zm22.7,0a5.7,5.7,0,0,0-2-4.6,8.5,8.5,0,0,0-5.6-1.6c-2.4,0-4.3.5-5.5,1.6a5.7,5.7,0,0,0-2,4.6v9.7a5.7,5.7,0,0,0,2,4.6,8,8,0,0,0,5.5,1.7,8.5,8.5,0,0,0,5.6-1.7,5.7,5.7,0,0,0,2-4.6Z"/><path class="cls-8" d="M242.7,55.3c.5.8.6,1.5.4,1.8s-.7.6-1.7.6h-3.3a6.6,6.6,0,0,1-2.4-.3,2.7,2.7,0,0,1-1.1-1.5l-4.1-8.8a5.2,5.2,0,0,0-5.2-3.2h-4V55.6a2.2,2.2,0,0,1-.4,1.6,2.5,2.5,0,0,1-1.7.5h-3.3a2.3,2.3,0,0,1-1.7-.5c-.4-.3-.5-.8-.5-1.6V11.2c0-.8.1-1.4.5-1.7s.8-.4,1.7-.4h3.3a2.5,2.5,0,0,1,1.7.4,2.5,2.5,0,0,1,.4,1.7V36.8h3.4l9-11.6c.5-.7.9-1.2,1.4-1.3a7.6,7.6,0,0,1,2.5-.2h3.2c2.1,0,2.6.7,1.4,2.3l-10,12.3c1.9.9,3.4,2.8,4.8,5.5Z"/><path class="cls-8" d="M246.3,36.9c0-4.6,1.3-8.1,3.9-10.6s6.4-3.6,11.3-3.6,8.8,1.2,11.4,3.8a13.3,13.3,0,0,1,3.8,9.8v4c0,1.9-1,2.8-2.9,2.8H253.9v2.4a6,6,0,0,0,2,4.9c1.2,1.2,3.1,1.7,5.5,1.7s6.3-1.1,7.8-3.5a2.9,2.9,0,0,1,1.4-1.2,2.4,2.4,0,0,1,1.9.4l2.3,1.3c1.5.7,1.8,1.8.8,3.3-2.6,4.2-7.3,6.3-14.2,6.3-5.1,0-8.9-1.3-11.4-3.8s-3.7-6-3.7-10.3Zm22.8-1.1a6.1,6.1,0,0,0-1.9-4.9,8.1,8.1,0,0,0-5.7-1.8,8,8,0,0,0-5.6,1.8,6.2,6.2,0,0,0-2,4.9v1.5h15.2Z"/><path class="cls-8" d="M297.4,22.7h2.1a2.2,2.2,0,0,1,1.6.4,2.2,2.2,0,0,1,.5,1.6v2.9a2.3,2.3,0,0,1-.5,1.6,2.2,2.2,0,0,1-1.6.4h-2.3a22.5,22.5,0,0,0-6.3.8.8.8,0,0,0-.6.8V55.7a1.8,1.8,0,0,1-2,2h-3.6a2.2,2.2,0,0,1-1.6-.5,2.1,2.1,0,0,1-.5-1.5V28.4a4.4,4.4,0,0,1,.5-2.3,5.4,5.4,0,0,1,2.1-1.5A40.6,40.6,0,0,1,297.4,22.7Z"/><path class="cls-9" d="M331.3,11a2.5,2.5,0,0,1,1.7.5,2.8,2.8,0,0,1,.5,1.8v3.2a2.5,2.5,0,0,1-.5,1.7c-.3.4-.9.5-1.7.5H320V55.5a2.5,2.5,0,0,1-.5,1.7,2.8,2.8,0,0,1-1.8.5h-3.8a2.5,2.5,0,0,1-1.7-.5c-.4-.3-.5-.9-.5-1.7V18.7H300.4a2.3,2.3,0,0,1-1.8-.5,2.5,2.5,0,0,1-.5-1.7V13.3a2.8,2.8,0,0,1,.5-1.8,2.8,2.8,0,0,1,1.8-.5Z"/><path class="cls-9" d="M331.7,29.5c2.3-4.5,6.9-6.8,13.6-6.8,9.3,0,14,4.5,14,13.5v17a4.1,4.1,0,0,1-.5,2.5A4.6,4.6,0,0,1,357,57c-2.7,1.1-6.6,1.7-11.9,1.7s-9.4-.9-11.5-2.6-3.1-4.4-3.1-8.1,1.1-6.6,3.4-8.2,6.1-2.3,11.5-2.3l6.3.3V35.9a6.9,6.9,0,0,0-1.5-4.8c-1-1.1-2.7-1.7-5.1-1.7s-5.5,1.1-6.9,3.2a3.2,3.2,0,0,1-1.2,1.2,3.4,3.4,0,0,1-1.6-.2l-2.6-1.1C331.3,31.8,331,30.8,331.7,29.5Zm20,14.5-7.2-.3c-2.3,0-4,.4-4.9,1.1a3.7,3.7,0,0,0-1.4,3.2,4.2,4.2,0,0,0,1.3,3.3c.9.7,2.5,1.1,4.9,1.1a36.9,36.9,0,0,0,6.6-.5,1,1,0,0,0,.7-1Z"/><path class="cls-9" d="M381,22.7h2.1a2.2,2.2,0,0,1,1.6.4,2.2,2.2,0,0,1,.4,1.6v2.9a2.4,2.4,0,0,1-.4,1.6,2.2,2.2,0,0,1-1.6.4h-2.4a22.2,22.2,0,0,0-6.2.8.8.8,0,0,0-.7.8V55.7a1.7,1.7,0,0,1-1.9,2h-3.6a2.2,2.2,0,0,1-1.6-.5,2.1,2.1,0,0,1-.5-1.5V28.4a4.4,4.4,0,0,1,.5-2.3,4.7,4.7,0,0,1,2.1-1.5A40.6,40.6,0,0,1,381,22.7Z"/><path class="cls-9" d="M393.5,10.9c1.5,0,2.6.3,3.1.9s.9,1.6.9,3.1v.5a4.4,4.4,0,0,1-.9,3.2c-.5.6-1.6.9-3.1.9H393a4.3,4.3,0,0,1-3.1-.9,4.4,4.4,0,0,1-.9-3.2v-.5c0-1.5.3-2.6.9-3.1s1.6-.9,3.1-.9Zm1.6,12.8a2.1,2.1,0,0,1,1.5.4,1.7,1.7,0,0,1,.5,1.5V55.7a1.7,1.7,0,0,1-.5,1.5,2.1,2.1,0,0,1-1.5.5h-3.6a2.2,2.2,0,0,1-1.6-.5,2.1,2.1,0,0,1-.4-1.5V25.6a2.1,2.1,0,0,1,.4-1.5,2.2,2.2,0,0,1,1.6-.4Z"/><path class="cls-9" d="M403.5,36.9c0-4.6,1.3-8.1,3.9-10.6s6.4-3.6,11.3-3.6,8.8,1.2,11.4,3.8a13.3,13.3,0,0,1,3.8,9.8v4c0,1.9-1,2.8-2.9,2.8H411.1v2.4a6.3,6.3,0,0,0,1.9,4.9c1.3,1.2,3.2,1.7,5.6,1.7s6.3-1.1,7.8-3.5a2.9,2.9,0,0,1,1.4-1.2,2.4,2.4,0,0,1,1.9.4l2.3,1.3c1.5.7,1.8,1.8.8,3.3-2.6,4.2-7.3,6.3-14.2,6.3-5.1,0-8.9-1.3-11.4-3.8s-3.7-6-3.7-10.3Zm22.8-1.1a6.1,6.1,0,0,0-1.9-4.9,8.1,8.1,0,0,0-5.7-1.8,8,8,0,0,0-5.6,1.8,6.2,6.2,0,0,0-2,4.9v1.5h15.2Z"/><path class="cls-9" d="M466.6,23.7c1,0,1.6.1,1.8.4s.2.9-.1,1.9L456.1,55.9a2.7,2.7,0,0,1-2.7,1.9h-2.2a2.7,2.7,0,0,1-2.8-1.9L436.3,26c-.3-.9-.4-1.6-.2-1.9s.9-.4,1.9-.4h2.5a5.4,5.4,0,0,1,2.6.4,3,3,0,0,1,1.1,1.6l6.1,15.8c.2.5.4,1.2.6,1.8a18,18,0,0,1,.5,1.9,12.4,12.4,0,0,1,.4,1.6A7.4,7.4,0,0,1,452,48v.5h.3c.1,0,.2-.4.3-1.1a20.5,20.5,0,0,1,.6-2.8l.9-3.1,6.1-15.8a3,3,0,0,1,1.1-1.6,5.1,5.1,0,0,1,2.5-.4Z"/><path class="cls-9" d="M471,36.9c0-4.6,1.3-8.1,3.9-10.6s6.4-3.6,11.3-3.6,8.8,1.2,11.4,3.8a13.3,13.3,0,0,1,3.8,9.8v4c0,1.9-1,2.8-3,2.8H478.6v2.4a6,6,0,0,0,1.9,4.9c1.3,1.2,3.2,1.7,5.6,1.7s6.3-1.1,7.7-3.5a3.5,3.5,0,0,1,1.5-1.2,2.4,2.4,0,0,1,1.9.4l2.3,1.3c1.5.7,1.7,1.8.8,3.3-2.6,4.2-7.3,6.3-14.2,6.3-5.1,0-8.9-1.3-11.4-3.8s-3.7-6-3.7-10.3Zm22.8-1.1a6.5,6.5,0,0,0-1.9-4.9,8.1,8.1,0,0,0-5.7-1.8,8,8,0,0,0-5.6,1.8,6.2,6.2,0,0,0-2,4.9v1.5h15.2Z"/><path class="cls-9" d="M509.9,24.9a34.2,34.2,0,0,1,12.9-2.2c4.6,0,8.1,1.1,10.3,3.4s3.4,5.5,3.4,9.8V55.7a1.8,1.8,0,0,1-2,2h-3.7a1.7,1.7,0,0,1-1.9-2V36.1c0-4.3-2.4-6.5-7.2-6.5a22.8,22.8,0,0,0-6.3.9.7.7,0,0,0-.5.7V55.7a1.7,1.7,0,0,1-1.9,2h-3.6a2.2,2.2,0,0,1-1.6-.5,2.1,2.1,0,0,1-.5-1.5v-27a4.8,4.8,0,0,1,.5-2.4A4,4,0,0,1,509.9,24.9Z"/><path class="cls-8" d="M545.3,51.8a3.3,3.3,0,0,1,2.3.6,3.3,3.3,0,0,1,.6,2.3v.4a3.3,3.3,0,0,1-.6,2.3,3.3,3.3,0,0,1-2.3.6H545a3.3,3.3,0,0,1-2.3-.6,3.3,3.3,0,0,1-.6-2.3v-.4a3.3,3.3,0,0,1,.6-2.3,3.3,3.3,0,0,1,2.3-.6Z"/><path class="cls-8" d="M556.8,24a1.6,1.6,0,0,1,1.1.3,1.6,1.6,0,0,1,.3,1.1v8.8a26,26,0,0,1,5.4-.8c6.4,0,9.5,3.1,9.5,9.2v6.1c0,6.5-3.4,9.7-10.3,9.7a20,20,0,0,1-8.2-1.5,2.8,2.8,0,0,1-1.4-.9,3.2,3.2,0,0,1-.3-1.6v-29a1.6,1.6,0,0,1,.3-1.1,1.6,1.6,0,0,1,1.1-.3Zm11,18.7a4.5,4.5,0,0,0-1.2-3.3,5.3,5.3,0,0,0-3.7-1.2,13.5,13.5,0,0,0-4.7.9V52.5a.5.5,0,0,0,.3.5,11.6,11.6,0,0,0,4,.6c3.5,0,5.3-1.7,5.3-5Z"/><path class="cls-8" d="M576.9,43.2c0-3.1.9-5.6,2.7-7.3s4.4-2.5,7.8-2.5,6.1.9,7.9,2.6a9.3,9.3,0,0,1,2.7,6.8v2.8a1.8,1.8,0,0,1-2.1,2H582.2v1.7a4.2,4.2,0,0,0,1.3,3.4,6.2,6.2,0,0,0,3.9,1.1c2.5,0,4.3-.8,5.3-2.4a2.2,2.2,0,0,1,1.1-.9c.3-.1.7.1,1.3.4l1.6.8c1,.5,1.2,1.3.5,2.3-1.8,2.9-5.1,4.4-9.8,4.4s-6.2-.9-8-2.7-2.5-4.1-2.5-7.1Zm15.8-.7a4.6,4.6,0,0,0-1.3-3.4,5.8,5.8,0,0,0-4-1.2,5.7,5.7,0,0,0-3.9,1.2,4.2,4.2,0,0,0-1.3,3.4v1h10.5Z"/></g></g></g></svg>