<svg xmlns="http://www.w3.org/2000/svg" xmlns:xlink="http://www.w3.org/1999/xlink" version="1.1" style="enable-background:new 0 0 562.79 169.1;" xml:space="preserve" width="504" height="80"><rect id="backgroundrect" width="100%" height="100%" x="0" y="0" fill="none" stroke="none"/>
<style type="text/css">
	.st0{fill:#FFFFFF;}
</style>

<g class="currentLayer" style=""><title>Layer 1</title><g id="svg_1" class="">
	<g id="svg_2">
		<path class="st0" d="M108.03999588012695,70.58000106811524 c-0.8200000000000001,0.25 -1.77,0.48000000000000004 -2.84,0.7100000000000001 c-1.07,0.23 -2.19,0.42000000000000004 -3.36,0.5900000000000001 c-1.17,0.16000000000000003 -2.37,0.30000000000000004 -3.58,0.4 c-1.21,0.1 -2.38,0.15000000000000002 -3.49,0.15000000000000002 c-2.67,0 -5.06,-0.39000000000000007 -7.16,-1.17 c-2.1,-0.78 -3.87,-1.9 -5.3100000000000005,-3.36 c-1.44,-1.46 -2.54,-3.23 -3.3,-5.3100000000000005 c-0.7600000000000001,-2.08 -1.1400000000000001,-4.41 -1.1400000000000001,-7 c0,-2.63 0.33000000000000007,-5.01 0.99,-7.12 c0.6600000000000001,-2.12 1.6,-3.92 2.84,-5.4 s2.75,-2.6100000000000003 4.53,-3.39 c1.79,-0.78 3.83,-1.17 6.14,-1.17 c1.27,0 2.42,0.12000000000000001 3.42,0.37000000000000005 c1.01,0.25 2.03,0.6000000000000001 3.05,1.05 V25.240001068115234 l9.19,-1.48 V70.58000106811524 zM87.24999588012696,55.160001068115236 c0,2.84 0.6400000000000001,5.12 1.9100000000000001,6.85 c1.27,1.73 3.17,2.59 5.68,2.59 c0.8200000000000001,0 1.58,-0.030000000000000006 2.2800000000000002,-0.09000000000000002 c0.7000000000000001,-0.06000000000000001 1.27,-0.13 1.73,-0.22000000000000003 V47.57000106811523 c-0.5800000000000001,-0.37000000000000005 -1.33,-0.6800000000000002 -2.25,-0.92 c-0.93,-0.25 -1.86,-0.37000000000000005 -2.81,-0.37000000000000005 C89.42999588012695,46.28000106811524 87.24999588012696,49.240001068115234 87.24999588012696,55.160001068115236 z" id="svg_3"/>
		<path class="st0" d="M128.32999588012694,38.32000106811523 c2.71,0 4.98,0.31000000000000005 6.79,0.93 c1.81,0.6200000000000001 3.26,1.5 4.35,2.6500000000000004 c1.09,1.15 1.86,2.55 2.31,4.2 c0.45,1.6500000000000001 0.6800000000000002,3.48 0.6800000000000002,5.49 v19.12 c-1.32,0.29000000000000004 -3.15,0.6300000000000001 -5.49,1.02 s-5.18,0.5900000000000001 -8.51,0.5900000000000001 c-2.1,0 -4,-0.19000000000000003 -5.71,-0.56 c-1.71,-0.37000000000000005 -3.18,-0.98 -4.41,-1.82 s-2.18,-1.94 -2.84,-3.3 c-0.6600000000000001,-1.36 -0.99,-3.02 -0.99,-5 c0,-1.8900000000000001 0.38000000000000006,-3.5 1.1400000000000001,-4.8100000000000005 c0.7600000000000001,-1.32 1.78,-2.36 3.05,-3.15 c1.27,-0.78 2.73,-1.35 4.38,-1.7000000000000002 c1.6400000000000001,-0.35000000000000003 3.35,-0.52 5.12,-0.52 c1.19,0 2.25,0.05000000000000001 3.18,0.15000000000000002 s1.6800000000000002,0.24000000000000002 2.25,0.4 v-0.8600000000000001 c0,-1.56 -0.47000000000000003,-2.8200000000000003 -1.42,-3.7600000000000002 c-0.9500000000000001,-0.9500000000000001 -2.59,-1.42 -4.94,-1.42 c-1.56,0 -3.11,0.11000000000000001 -4.63,0.3400000000000001 c-1.52,0.23 -2.84,0.55 -3.95,0.9600000000000001 l-1.17,-7.4 c0.53,-0.16000000000000003 1.2,-0.3400000000000001 2,-0.52 c0.8,-0.19000000000000003 1.6800000000000002,-0.35000000000000003 2.62,-0.49000000000000005 c0.9500000000000001,-0.14 1.94,-0.27 2.99,-0.37000000000000005 C126.19999588012695,38.37000106811523 127.25999588012695,38.32000106811523 128.32999588012694,38.32000106811523 zM129.06999588012695,65.22000106811524 c0.9,0 1.77,-0.020000000000000004 2.59,-0.06000000000000001 c0.8200000000000001,-0.04000000000000001 1.48,-0.1 1.97,-0.19000000000000003 v-6.97 c-0.37000000000000005,-0.08000000000000002 -0.93,-0.16000000000000003 -1.6700000000000002,-0.25 c-0.7400000000000001,-0.08000000000000002 -1.42,-0.12000000000000001 -2.04,-0.12000000000000001 c-0.8600000000000001,0 -1.6800000000000002,0.05000000000000001 -2.44,0.15000000000000002 c-0.7600000000000001,0.1 -1.4300000000000002,0.30000000000000004 -2,0.5900000000000001 c-0.5800000000000001,0.29000000000000004 -1.03,0.6800000000000002 -1.36,1.17 c-0.33000000000000007,0.49000000000000005 -0.49000000000000005,1.11 -0.49000000000000005,1.85 c0,1.44 0.48000000000000004,2.44 1.45,2.99 C126.05999588012696,64.94000106811524 127.38999588012695,65.22000106811524 129.06999588012695,65.22000106811524 z" id="svg_4"/>
		<path class="st0" d="M150.47999588012695,31.100001068115233 l9.19,-1.48 v9.56 h11.04 v7.65 H159.66999588012695 v11.41 c0,1.9300000000000002 0.3400000000000001,3.48 1.02,4.63 s2.05,1.73 4.1,1.73 c0.99,0 2,-0.09000000000000002 3.05,-0.28 c1.05,-0.18000000000000002 2,-0.44000000000000006 2.87,-0.77 l1.3,7.16 c-1.11,0.45 -2.34,0.8400000000000001 -3.7,1.17 c-1.36,0.33000000000000007 -3.02,0.49000000000000005 -5,0.49000000000000005 c-2.51,0 -4.59,-0.3400000000000001 -6.23,-1.02 c-1.6500000000000001,-0.6800000000000002 -2.96,-1.62 -3.95,-2.84 c-0.99,-1.21 -1.6800000000000002,-2.68 -2.07,-4.41 c-0.39000000000000007,-1.73 -0.5900000000000001,-3.64 -0.5900000000000001,-5.74 V31.100001068115233 z" id="svg_5"/>
		<path class="st0" d="M188.59999588012695,38.32000106811523 c2.71,0 4.98,0.31000000000000005 6.79,0.93 c1.81,0.6200000000000001 3.26,1.5 4.35,2.6500000000000004 c1.09,1.15 1.86,2.55 2.31,4.2 c0.45,1.6500000000000001 0.6800000000000002,3.48 0.6800000000000002,5.49 v19.12 c-1.32,0.29000000000000004 -3.15,0.6300000000000001 -5.49,1.02 s-5.18,0.5900000000000001 -8.51,0.5900000000000001 c-2.1,0 -4,-0.19000000000000003 -5.71,-0.56 c-1.71,-0.37000000000000005 -3.18,-0.98 -4.41,-1.82 s-2.18,-1.94 -2.84,-3.3 c-0.6600000000000001,-1.36 -0.99,-3.02 -0.99,-5 c0,-1.8900000000000001 0.38000000000000006,-3.5 1.1400000000000001,-4.8100000000000005 c0.7600000000000001,-1.32 1.78,-2.36 3.05,-3.15 c1.27,-0.78 2.73,-1.35 4.38,-1.7000000000000002 c1.6400000000000001,-0.35000000000000003 3.35,-0.52 5.12,-0.52 c1.19,0 2.25,0.05000000000000001 3.18,0.15000000000000002 c0.93,0.1 1.6800000000000002,0.24000000000000002 2.25,0.4 v-0.8600000000000001 c0,-1.56 -0.47000000000000003,-2.8200000000000003 -1.42,-3.7600000000000002 c-0.9500000000000001,-0.9500000000000001 -2.59,-1.42 -4.94,-1.42 c-1.56,0 -3.11,0.11000000000000001 -4.63,0.3400000000000001 c-1.52,0.23 -2.84,0.55 -3.95,0.9600000000000001 l-1.17,-7.4 c0.53,-0.16000000000000003 1.2,-0.3400000000000001 2,-0.52 c0.8,-0.19000000000000003 1.6800000000000002,-0.35000000000000003 2.62,-0.49000000000000005 c0.9500000000000001,-0.14 1.94,-0.27 2.99,-0.37000000000000005 C186.47999588012695,38.37000106811523 187.52999588012696,38.32000106811523 188.59999588012695,38.32000106811523 zM189.33999588012696,65.22000106811524 c0.9,0 1.77,-0.020000000000000004 2.59,-0.06000000000000001 c0.8200000000000001,-0.04000000000000001 1.48,-0.1 1.97,-0.19000000000000003 v-6.97 c-0.37000000000000005,-0.08000000000000002 -0.93,-0.16000000000000003 -1.6700000000000002,-0.25 c-0.7400000000000001,-0.08000000000000002 -1.42,-0.12000000000000001 -2.04,-0.12000000000000001 c-0.8600000000000001,0 -1.6800000000000002,0.05000000000000001 -2.44,0.15000000000000002 c-0.7600000000000001,0.1 -1.4300000000000002,0.30000000000000004 -2,0.5900000000000001 c-0.5800000000000001,0.29000000000000004 -1.03,0.6800000000000002 -1.36,1.17 c-0.33000000000000007,0.49000000000000005 -0.49000000000000005,1.11 -0.49000000000000005,1.85 c0,1.44 0.48000000000000004,2.44 1.45,2.99 C186.32999588012694,64.94000106811524 187.65999588012696,65.22000106811524 189.33999588012696,65.22000106811524 z" id="svg_6"/>
		<path class="st0" d="M223.76999588012694,23.76000106811523 c1.73,0 3.14,0.13 4.23,0.4 c1.09,0.27 1.8,0.5 2.13,0.7100000000000001 l-0.8,3.46 c-0.45,-0.21000000000000002 -1.12,-0.42000000000000004 -2,-0.6500000000000001 c-0.8800000000000001,-0.23 -2,-0.3400000000000001 -3.36,-0.3400000000000001 c-2.84,0 -4.86,0.7200000000000001 -6.08,2.16 c-1.21,1.44 -1.82,3.74 -1.82,6.91 v3.33 h12.83 v3.39 h-12.83 v28.5 h-4.01 V36.28000106811524 c0,-4.15 0.9600000000000001,-7.28 2.87,-9.38 C216.82999588012694,24.81000106811524 219.77999588012696,23.76000106811523 223.76999588012694,23.76000106811523 z" id="svg_7"/>
		<path class="st0" d="M244.92999588012697,39.00000106811524 c2.1,0 3.88,0.30000000000000004 5.34,0.8900000000000001 c1.46,0.6000000000000001 2.64,1.42 3.55,2.47 c0.9,1.05 1.56,2.29 1.97,3.73 c0.41000000000000003,1.44 0.6200000000000001,3 0.6200000000000001,4.69 v20.11 c-0.41000000000000003,0.12000000000000001 -1.01,0.26 -1.79,0.4 c-0.78,0.14 -1.6900000000000002,0.30000000000000004 -2.71,0.46 c-1.03,0.16000000000000003 -2.17,0.30000000000000004 -3.42,0.4 c-1.25,0.1 -2.54,0.15000000000000002 -3.8600000000000003,0.15000000000000002 c-1.6900000000000002,0 -3.24,-0.19000000000000003 -4.66,-0.56 s-2.6500000000000004,-0.9600000000000001 -3.7,-1.7600000000000002 s-1.87,-1.83 -2.47,-3.08 c-0.6000000000000001,-1.25 -0.8900000000000001,-2.79 -0.8900000000000001,-4.6 c0,-1.73 0.33000000000000007,-3.21 0.99,-4.44 c0.6600000000000001,-1.23 1.58,-2.25 2.7800000000000002,-3.05 c1.19,-0.8 2.6100000000000003,-1.3900000000000001 4.26,-1.7600000000000002 c1.6400000000000001,-0.37000000000000005 3.43,-0.55 5.37,-0.55 c0.5800000000000001,0 1.18,0.030000000000000006 1.82,0.09000000000000002 c0.6400000000000001,0.06000000000000001 1.25,0.14 1.85,0.25 c0.6000000000000001,0.1 1.11,0.21000000000000002 1.54,0.31000000000000005 c0.43000000000000005,0.1 0.7300000000000001,0.2 0.8900000000000001,0.28 v-1.97 c0,-1.11 -0.08000000000000002,-2.19 -0.25,-3.24 c-0.16000000000000003,-1.05 -0.52,-1.99 -1.08,-2.84 c-0.56,-0.8400000000000001 -1.34,-1.52 -2.34,-2.04 c-1.01,-0.51 -2.33,-0.77 -3.98,-0.77 c-2.34,0 -4.09,0.17 -5.24,0.49000000000000005 c-1.15,0.33000000000000007 -2,0.6000000000000001 -2.5300000000000002,0.8 l-0.56,-3.52 c0.7000000000000001,-0.33000000000000007 1.78,-0.6400000000000001 3.24,-0.92 C241.10999588012697,39.14000106811524 242.86999588012696,39.00000106811524 244.92999588012697,39.00000106811524 zM245.29999588012697,68.73000106811523 c1.56,0 2.93,-0.05000000000000001 4.1,-0.15000000000000002 c1.17,-0.1 2.17,-0.24000000000000002 2.99,-0.4 v-11.23 c-0.45,-0.21000000000000002 -1.17,-0.42000000000000004 -2.16,-0.6500000000000001 c-0.99,-0.23 -2.34,-0.3400000000000001 -4.07,-0.3400000000000001 c-0.99,0 -2.02,0.07 -3.08,0.22000000000000003 c-1.07,0.14 -2.06,0.45 -2.96,0.92 c-0.91,0.47000000000000003 -1.6500000000000001,1.12 -2.22,1.94 c-0.5800000000000001,0.8200000000000001 -0.8600000000000001,1.9100000000000001 -0.8600000000000001,3.27 c0,1.19 0.19000000000000003,2.2 0.5900000000000001,3.02 c0.39000000000000007,0.8200000000000001 0.9500000000000001,1.48 1.6700000000000002,1.97 c0.7200000000000001,0.49000000000000005 1.58,0.8500000000000001 2.59,1.08 C242.87999588012696,68.62000106811523 244.01999588012694,68.73000106811523 245.29999588012697,68.73000106811523 z" id="svg_8"/>
		<path class="st0" d="M266.63999588012695,40.85000106811523 c1.19,-0.33000000000000007 2.8,-0.7000000000000001 4.8100000000000005,-1.11 c2.01,-0.41000000000000003 4.48,-0.6200000000000001 7.4,-0.6200000000000001 c2.43,0 4.45,0.35000000000000003 6.08,1.05 c1.62,0.7000000000000001 2.92,1.7000000000000002 3.89,2.99 c0.97,1.3 1.6600000000000001,2.85 2.07,4.66 c0.41000000000000003,1.81 0.6200000000000001,3.8 0.6200000000000001,5.98 v17.83 h-4.01 V55.10000106811523 c0,-2.26 -0.15000000000000002,-4.17 -0.46,-5.74 c-0.31000000000000005,-1.56 -0.8200000000000001,-2.84 -1.54,-3.83 c-0.7200000000000001,-0.99 -1.6700000000000002,-1.7000000000000002 -2.84,-2.13 c-1.17,-0.43000000000000005 -2.64,-0.6500000000000001 -4.41,-0.6500000000000001 c-1.8900000000000001,0 -3.5300000000000002,0.1 -4.9,0.31000000000000005 c-1.3800000000000001,0.21000000000000002 -2.27,0.39000000000000007 -2.68,0.55 v28.01 h-4.01 V40.85000106811523 z" id="svg_9"/>
		<path class="st0" d="M311.42999588012697,39.00000106811524 c2.1,0 3.88,0.30000000000000004 5.34,0.8900000000000001 c1.46,0.6000000000000001 2.64,1.42 3.55,2.47 s1.56,2.29 1.97,3.73 c0.41000000000000003,1.44 0.6200000000000001,3 0.6200000000000001,4.69 v20.11 c-0.41000000000000003,0.12000000000000001 -1.01,0.26 -1.79,0.4 c-0.78,0.14 -1.6900000000000002,0.30000000000000004 -2.71,0.46 c-1.03,0.16000000000000003 -2.17,0.30000000000000004 -3.42,0.4 c-1.25,0.1 -2.54,0.15000000000000002 -3.8600000000000003,0.15000000000000002 c-1.6900000000000002,0 -3.24,-0.19000000000000003 -4.66,-0.56 s-2.6500000000000004,-0.9600000000000001 -3.7,-1.7600000000000002 s-1.87,-1.83 -2.47,-3.08 c-0.6000000000000001,-1.25 -0.8900000000000001,-2.79 -0.8900000000000001,-4.6 c0,-1.73 0.33000000000000007,-3.21 0.99,-4.44 c0.6600000000000001,-1.23 1.58,-2.25 2.7800000000000002,-3.05 c1.19,-0.8 2.6100000000000003,-1.3900000000000001 4.26,-1.7600000000000002 c1.6400000000000001,-0.37000000000000005 3.43,-0.55 5.37,-0.55 c0.5800000000000001,0 1.18,0.030000000000000006 1.82,0.09000000000000002 c0.6400000000000001,0.06000000000000001 1.25,0.14 1.85,0.25 c0.6000000000000001,0.1 1.11,0.21000000000000002 1.54,0.31000000000000005 c0.43000000000000005,0.1 0.7300000000000001,0.2 0.8900000000000001,0.28 v-1.97 c0,-1.11 -0.08000000000000002,-2.19 -0.25,-3.24 c-0.17,-1.05 -0.52,-1.99 -1.08,-2.84 c-0.55,-0.8400000000000001 -1.34,-1.52 -2.34,-2.04 c-1.01,-0.51 -2.33,-0.77 -3.98,-0.77 c-2.34,0 -4.09,0.17 -5.24,0.49000000000000005 c-1.15,0.33000000000000007 -2,0.6000000000000001 -2.5300000000000002,0.8 l-0.56,-3.52 c0.7000000000000001,-0.33000000000000007 1.78,-0.6400000000000001 3.24,-0.92 C307.609995880127,39.14000106811524 309.36999588012696,39.00000106811524 311.42999588012697,39.00000106811524 zM311.79999588012697,68.73000106811523 c1.56,0 2.93,-0.05000000000000001 4.1,-0.15000000000000002 c1.17,-0.1 2.17,-0.24000000000000002 2.99,-0.4 v-11.23 c-0.45,-0.21000000000000002 -1.17,-0.42000000000000004 -2.16,-0.6500000000000001 c-0.99,-0.23 -2.34,-0.3400000000000001 -4.07,-0.3400000000000001 c-0.99,0 -2.02,0.07 -3.08,0.22000000000000003 c-1.07,0.14 -2.06,0.45 -2.96,0.92 c-0.91,0.47000000000000003 -1.6500000000000001,1.12 -2.22,1.94 c-0.5800000000000001,0.8200000000000001 -0.8600000000000001,1.9100000000000001 -0.8600000000000001,3.27 c0,1.19 0.19000000000000003,2.2 0.5900000000000001,3.02 c0.39000000000000007,0.8200000000000001 0.9500000000000001,1.48 1.6700000000000002,1.97 s1.58,0.8500000000000001 2.59,1.08 C309.37999588012696,68.62000106811523 310.51999588012694,68.73000106811523 311.79999588012697,68.73000106811523 z" id="svg_10"/>
		<path class="st0" d="M336.9099958801269,39.740001068115234 h12.71 v3.39 h-12.71 v16.96 c0,1.81 0.15000000000000002,3.2800000000000002 0.46,4.41 s0.7500000000000001,2 1.33,2.62 c0.5800000000000001,0.6200000000000001 1.27,1.03 2.1,1.23 c0.8200000000000001,0.21000000000000002 1.73,0.31000000000000005 2.71,0.31000000000000005 c1.6900000000000002,0 3.04,-0.2 4.07,-0.5900000000000001 c1.03,-0.39000000000000007 1.83,-0.7500000000000001 2.41,-1.08 l0.99,3.33 c-0.5800000000000001,0.37000000000000005 -1.58,0.79 -3.02,1.26 c-1.44,0.47000000000000003 -3,0.7100000000000001 -4.69,0.7100000000000001 c-1.97,0 -3.63,-0.26 -4.97,-0.77 c-1.34,-0.51 -2.41,-1.29 -3.21,-2.34 c-0.8,-1.05 -1.37,-2.35 -1.7000000000000002,-3.92 c-0.33000000000000007,-1.56 -0.49000000000000005,-3.41 -0.49000000000000005,-5.55 V30.36000106811524 l4.01,-0.7400000000000001 V39.740001068115234 z" id="svg_11"/>
		<path class="st0" d="M361.94999588012695,30.11000106811524 c0,0.9500000000000001 -0.29000000000000004,1.7000000000000002 -0.8600000000000001,2.25 c-0.5800000000000001,0.56 -1.28,0.8300000000000001 -2.1,0.8300000000000001 c-0.8200000000000001,0 -1.52,-0.28 -2.1,-0.8300000000000001 c-0.5800000000000001,-0.55 -0.8600000000000001,-1.3 -0.8600000000000001,-2.25 s0.29000000000000004,-1.7000000000000002 0.8600000000000001,-2.25 c0.5800000000000001,-0.56 1.27,-0.8300000000000001 2.1,-0.8300000000000001 c0.8200000000000001,0 1.52,0.28 2.1,0.8300000000000001 C361.6599958801269,28.42000106811524 361.94999588012695,29.17000106811524 361.94999588012695,30.11000106811524 zM361.02999588012693,71.63000106811523 h-4.01 V39.740001068115234 h4.01 V71.63000106811523 z" id="svg_12"/>
		<path class="st0" d="M384.83999588012693,72.31000106811524 c-2.47,0 -4.65,-0.39000000000000007 -6.54,-1.17 c-1.8900000000000001,-0.78 -3.46,-1.9 -4.72,-3.36 c-1.25,-1.46 -2.21,-3.21 -2.87,-5.24 c-0.6600000000000001,-2.04 -0.99,-4.29 -0.99,-6.75 c0,-2.51 0.3400000000000001,-4.79 1.02,-6.85 c0.6800000000000002,-2.06 1.6600000000000001,-3.83 2.93,-5.3100000000000005 s2.8200000000000003,-2.62 4.63,-3.42 s3.85,-1.2 6.11,-1.2 c1.73,0 3.34,0.14 4.84,0.43000000000000005 c1.5,0.29000000000000004 2.66,0.6600000000000001 3.49,1.11 l-1.05,3.45 c-0.8200000000000001,-0.41000000000000003 -1.75,-0.7400000000000001 -2.7800000000000002,-0.99 c-1.03,-0.25 -2.41,-0.37000000000000005 -4.13,-0.37000000000000005 c-3.54,0 -6.22,1.1400000000000001 -8.05,3.42 c-1.83,2.2800000000000002 -2.75,5.52 -2.75,9.72 c0,1.8900000000000001 0.21000000000000002,3.63 0.6200000000000001,5.21 c0.41000000000000003,1.58 1.08,2.94 2,4.07 c0.93,1.13 2.12,2.02 3.58,2.6500000000000004 c1.46,0.6400000000000001 3.24,0.9600000000000001 5.34,0.9600000000000001 c1.73,0 3.18,-0.2 4.35,-0.5900000000000001 s2.03,-0.7300000000000001 2.56,-1.02 l0.8600000000000001,3.46 c-0.7400000000000001,0.41000000000000003 -1.9,0.81 -3.49,1.2 C388.21999588012693,72.12000106811523 386.56999588012695,72.31000106811524 384.83999588012693,72.31000106811524 z" id="svg_13"/>
		<path class="st0" d="M406.54999588012697,68.79000106811523 c2.3,0 4.2,-0.38000000000000006 5.71,-1.1400000000000001 c1.5,-0.7600000000000001 2.25,-2.04 2.25,-3.8600000000000003 c0,-0.8600000000000001 -0.13,-1.6 -0.4,-2.22 s-0.7100000000000001,-1.17 -1.33,-1.6700000000000002 c-0.6200000000000001,-0.49000000000000005 -1.4300000000000002,-0.97 -2.44,-1.42 c-1.01,-0.45 -2.25,-0.99 -3.73,-1.6 c-1.19,-0.49000000000000005 -2.3200000000000003,-1 -3.39,-1.51 c-1.07,-0.51 -2.02,-1.11 -2.84,-1.79 c-0.8200000000000001,-0.6800000000000002 -1.48,-1.49 -1.97,-2.44 c-0.49000000000000005,-0.9500000000000001 -0.7400000000000001,-2.1 -0.7400000000000001,-3.46 c0,-2.59 0.98,-4.69 2.93,-6.29 c1.9500000000000002,-1.6 4.640000000000001,-2.41 8.05,-2.41 c2.18,0 3.98,0.19000000000000003 5.4,0.56 s2.42,0.7000000000000001 2.99,0.99 l-0.93,3.58 c-0.49000000000000005,-0.25 -1.33,-0.5800000000000001 -2.5,-0.99 s-2.89,-0.6200000000000001 -5.15,-0.6200000000000001 c-0.91,0 -1.7600000000000002,0.09000000000000002 -2.56,0.28 c-0.8,0.19000000000000003 -1.51,0.47000000000000003 -2.13,0.8700000000000001 c-0.6200000000000001,0.39000000000000007 -1.11,0.8900000000000001 -1.48,1.48 s-0.55,1.33 -0.55,2.19 c0,0.8700000000000001 0.16000000000000003,1.61 0.49000000000000005,2.23 c0.33000000000000007,0.6200000000000001 0.81,1.17 1.45,1.6400000000000001 c0.6400000000000001,0.47000000000000003 1.42,0.92 2.34,1.33 s1.98,0.8600000000000001 3.18,1.35 c1.23,0.49000000000000005 2.42,0.99 3.55,1.5 c1.13,0.51 2.13,1.13 2.99,1.85 c0.8600000000000001,0.7200000000000001 1.56,1.58 2.1,2.59 c0.53,1.01 0.8,2.27 0.8,3.79 c0,2.88 -1.08,5.06 -3.24,6.54 s-5.11,2.22 -8.85,2.22 c-2.8,0 -4.94,-0.24000000000000002 -6.42,-0.7100000000000001 c-1.48,-0.47000000000000003 -2.47,-0.8300000000000001 -2.96,-1.08 l1.05,-3.64 c0.12000000000000001,0.08000000000000002 0.39000000000000007,0.22000000000000003 0.8,0.4 c0.41000000000000003,0.18000000000000002 0.97,0.39000000000000007 1.6700000000000002,0.6200000000000001 c0.7000000000000001,0.23 1.53,0.42000000000000004 2.5,0.5900000000000001 C404.1599958801269,68.71000106811523 405.27999588012693,68.79000106811523 406.54999588012697,68.79000106811523 z" id="svg_14"/>
		<path class="st0" d="M432.08999588012693,68.98000106811523 c0,0.9500000000000001 -0.30000000000000004,1.75 -0.8900000000000001,2.41 c-0.6000000000000001,0.6600000000000001 -1.4300000000000002,0.99 -2.5,0.99 c-1.07,0 -1.9,-0.33000000000000007 -2.5,-0.99 c-0.6000000000000001,-0.6600000000000001 -0.8900000000000001,-1.46 -0.8900000000000001,-2.41 s0.30000000000000004,-1.75 0.8900000000000001,-2.41 c0.6000000000000001,-0.6600000000000001 1.4300000000000002,-0.99 2.5,-0.99 c1.07,0 1.9,0.33000000000000007 2.5,0.99 C431.789995880127,67.23000106811523 432.08999588012693,68.03000106811524 432.08999588012693,68.98000106811523 z" id="svg_15"/>
		<path class="st0" d="M441.58999588012693,40.85000106811523 c1.19,-0.33000000000000007 2.8,-0.7000000000000001 4.8100000000000005,-1.11 c2.01,-0.41000000000000003 4.48,-0.6200000000000001 7.4,-0.6200000000000001 c2.43,0 4.45,0.35000000000000003 6.08,1.05 c1.62,0.7000000000000001 2.92,1.7000000000000002 3.89,2.99 c0.97,1.3 1.6600000000000001,2.85 2.07,4.66 c0.41000000000000003,1.81 0.6200000000000001,3.8 0.6200000000000001,5.98 v17.83 h-4.01 V55.10000106811523 c0,-2.26 -0.15000000000000002,-4.17 -0.46,-5.74 c-0.31000000000000005,-1.56 -0.8200000000000001,-2.84 -1.54,-3.83 c-0.7200000000000001,-0.99 -1.6700000000000002,-1.7000000000000002 -2.84,-2.13 c-1.17,-0.43000000000000005 -2.64,-0.6500000000000001 -4.41,-0.6500000000000001 c-1.8900000000000001,0 -3.5300000000000002,0.1 -4.9,0.31000000000000005 c-1.3800000000000001,0.21000000000000002 -2.27,0.39000000000000007 -2.68,0.55 v28.01 h-4.01 V40.85000106811523 z" id="svg_16"/>
		<path class="st0" d="M484.769995880127,72.19000106811524 c-1.36,-0.04000000000000001 -2.54,-0.22000000000000003 -3.55,-0.52 c-1.01,-0.31000000000000005 -1.85,-0.78 -2.5300000000000002,-1.42 s-1.19,-1.46 -1.54,-2.47 c-0.35000000000000003,-1.01 -0.52,-2.27 -0.52,-3.79 V24.50000106811524 l4.01,-0.7400000000000001 v40.1 c0,0.99 0.09000000000000002,1.78 0.28,2.38 c0.19000000000000003,0.6000000000000001 0.46,1.07 0.8300000000000001,1.42 c0.37000000000000005,0.35000000000000003 0.8500000000000001,0.6100000000000001 1.45,0.77 c0.6000000000000001,0.17 1.31,0.31000000000000005 2.13,0.43000000000000005 L484.769995880127,72.19000106811524 z" id="svg_17"/>
		<path class="st0" d="M503.57999588012694,64.69000106811524 c0,1.15 -0.19000000000000003,2.17 -0.56,3.06 c-0.37000000000000005,0.8900000000000001 -0.8700000000000001,1.6500000000000001 -1.49,2.27 s-1.34,1.09 -2.16,1.42 c-0.8200000000000001,0.33000000000000007 -1.6800000000000002,0.49000000000000005 -2.5700000000000003,0.49000000000000005 s-1.75,-0.16000000000000003 -2.5700000000000003,-0.49000000000000005 c-0.8200000000000001,-0.33000000000000007 -1.54,-0.8 -2.16,-1.42 s-1.12,-1.3800000000000001 -1.49,-2.27 s-0.56,-1.9100000000000001 -0.56,-3.06 c0,-1.13 0.19000000000000003,-2.15 0.56,-3.05 c0.37000000000000005,-0.9 0.8700000000000001,-1.6600000000000001 1.49,-2.27 s1.34,-1.08 2.16,-1.4100000000000001 c0.8200000000000001,-0.33000000000000007 1.6800000000000002,-0.49000000000000005 2.5700000000000003,-0.49000000000000005 s1.75,0.16000000000000003 2.5700000000000003,0.49000000000000005 c0.8200000000000001,0.33000000000000007 1.54,0.8 2.16,1.4100000000000001 s1.12,1.37 1.49,2.27 C503.389995880127,62.54000106811523 503.57999588012694,63.56000106811524 503.57999588012694,64.69000106811524 zM502.399995880127,64.69000106811524 c0,-0.92 -0.14,-1.7600000000000002 -0.42000000000000004,-2.52 c-0.28,-0.7600000000000001 -0.6700000000000002,-1.4100000000000001 -1.1600000000000001,-1.9500000000000002 c-0.49000000000000005,-0.54 -1.08,-0.9600000000000001 -1.77,-1.25 c-0.6900000000000002,-0.29000000000000004 -1.44,-0.44000000000000006 -2.25,-0.44000000000000006 s-1.56,0.15000000000000002 -2.25,0.44000000000000006 c-0.6900000000000002,0.29000000000000004 -1.28,0.7100000000000001 -1.77,1.25 c-0.49000000000000005,0.54 -0.8800000000000001,1.19 -1.1600000000000001,1.9500000000000002 s-0.42000000000000004,1.6 -0.42000000000000004,2.52 c0,0.92 0.14,1.7600000000000002 0.42000000000000004,2.52 s0.6700000000000002,1.4100000000000001 1.1600000000000001,1.9500000000000002 c0.49000000000000005,0.54 1.08,0.9600000000000001 1.77,1.26 s1.44,0.45 2.25,0.45 s1.56,-0.15000000000000002 2.25,-0.45 s1.28,-0.7200000000000001 1.77,-1.26 c0.49000000000000005,-0.54 0.8800000000000001,-1.19 1.1600000000000001,-1.9500000000000002 C502.259995880127,66.45000106811523 502.399995880127,65.61000106811524 502.399995880127,64.69000106811524 zM498.95999588012694,68.65000106811523 c-0.35000000000000003,-0.6300000000000001 -0.7100000000000001,-1.22 -1.08,-1.79 c-0.37000000000000005,-0.5700000000000001 -0.7000000000000001,-1.02 -0.98,-1.35 c-0.09000000000000002,0.010000000000000002 -0.18000000000000002,0.020000000000000004 -0.26,0.020000000000000004 s-0.15000000000000002,0 -0.22000000000000003,0 h-1.26 v3.12 h-1.1 v-7.74 c0.31000000000000005,-0.07 0.6500000000000001,-0.12000000000000001 1.03,-0.16000000000000003 s0.7400000000000001,-0.06000000000000001 1.07,-0.06000000000000001 c1.13,0 2,0.21000000000000002 2.59,0.6200000000000001 c0.5900000000000001,0.41000000000000003 0.8900000000000001,1.04 0.8900000000000001,1.8800000000000001 c0,0.48000000000000004 -0.13,0.91 -0.4,1.29 c-0.27,0.38000000000000006 -0.6600000000000001,0.6600000000000001 -1.18,0.8500000000000001 c0.11000000000000001,0.12000000000000001 0.25,0.30000000000000004 0.43000000000000005,0.55 c0.18000000000000002,0.25 0.37000000000000005,0.52 0.5700000000000001,0.8300000000000001 c0.2,0.31000000000000005 0.4,0.6300000000000001 0.6000000000000001,0.98 c0.2,0.35000000000000003 0.37000000000000005,0.6700000000000002 0.52,0.9600000000000001 H498.95999588012694 zM495.159995880127,64.63000106811523 h1 c0.33000000000000007,0 0.6400000000000001,-0.020000000000000004 0.92,-0.06000000000000001 s0.52,-0.12000000000000001 0.7300000000000001,-0.23 c0.21000000000000002,-0.11000000000000001 0.37000000000000005,-0.26 0.48000000000000004,-0.45 c0.11000000000000001,-0.19000000000000003 0.17,-0.43000000000000005 0.17,-0.7200000000000001 c0,-0.28 -0.06000000000000001,-0.52 -0.19000000000000003,-0.7100000000000001 c-0.13,-0.19000000000000003 -0.29000000000000004,-0.35000000000000003 -0.5,-0.47000000000000003 c-0.21000000000000002,-0.12000000000000001 -0.44000000000000006,-0.21000000000000002 -0.7100000000000001,-0.26 c-0.27,-0.05000000000000001 -0.55,-0.08000000000000002 -0.8400000000000001,-0.08000000000000002 c-0.2,0 -0.39000000000000007,0 -0.5700000000000001,0.010000000000000002 c-0.18000000000000002,0.010000000000000002 -0.3400000000000001,0.020000000000000004 -0.49000000000000005,0.030000000000000006 V64.63000106811523 z" id="svg_18"/>
	</g>
	<path class="st0" d="M71.20999588012695,15.520001068115235 V0.0000010681152318170462 c-4.6,0.010000000000000002 -8.8,0.8400000000000001 -12.51,2.37 c-0.020000000000000004,0.010000000000000002 -0.04000000000000001,0.020000000000000004 -0.07,0.030000000000000006 v0 c-0.28,0.11000000000000001 -0.54,0.24000000000000002 -0.81,0.36000000000000004 c-0.24000000000000002,0.11000000000000001 -0.49000000000000005,0.21000000000000002 -0.7300000000000001,0.33000000000000007 c-0.28,0.14 -0.55,0.29000000000000004 -0.8200000000000001,0.43000000000000005 c-0.23,0.12000000000000001 -0.47000000000000003,0.24000000000000002 -0.6900000000000002,0.37000000000000005 c-0.27,0.15000000000000002 -0.52,0.32000000000000006 -0.78,0.48000000000000004 c-0.22000000000000003,0.14 -0.45,0.26 -0.6600000000000001,0.4 c-0.25,0.17 -0.5,0.35000000000000003 -0.7400000000000001,0.52 c-0.21000000000000002,0.15000000000000002 -0.43000000000000005,0.29000000000000004 -0.6300000000000001,0.44000000000000006 c-0.24000000000000002,0.18000000000000002 -0.47000000000000003,0.38000000000000006 -0.7100000000000001,0.5700000000000001 c-0.2,0.16000000000000003 -0.4,0.31000000000000005 -0.5900000000000001,0.48000000000000004 c-0.24000000000000002,0.21000000000000002 -0.47000000000000003,0.43000000000000005 -0.7100000000000001,0.6500000000000001 c-0.17,0.16000000000000003 -0.35000000000000003,0.31000000000000005 -0.52,0.48000000000000004 c-0.27,0.26 -0.52,0.54 -0.78,0.8200000000000001 c-0.12000000000000001,0.13 -0.25,0.26 -0.37000000000000005,0.39000000000000007 c-0.37000000000000005,0.42000000000000004 -0.7300000000000001,0.8500000000000001 -1.07,1.29 c-3.5,4.49 -5.69,10.3 -6.02,17.13 l0,2.1 l-0.09000000000000002,-0.15000000000000002 c-3.1,-4.32 -8.65,-7.1 -15.63,-7.1 c-11.64,0 -26.28,8.54 -26.28,28.83 c0,16.63 12.2,28.82 29.49,28.82 c1.98,0 3.88,-0.16000000000000003 5.71,-0.46 v-16.29 c-1.6700000000000002,0.79 -3.59,1.23 -5.71,1.23 c-7.54,0 -12.64,-5.43 -12.64,-13.3 c0,-7.87 5.1,-13.3 12.64,-13.3 c6.5,0 11.32,4.35 12.51,10.55 l0,29.32 c2.4,-0.99 4.59,-2.27 6.53,-3.83 c5.97,-4.78 10.11,-13.31 10.11,-21.34 l0,-4.67 c1.48,-5.18 5.74,-8.51 11.5,-8.53 v-14.9 c-4.14,0.010000000000000002 -7.94,0.7400000000000001 -11.34,2.04 C59.67999588012695,19.950001068115228 64.44999588012695,15.540001068115231 71.20999588012695,15.520001068115235 z" id="svg_19"/>
</g></g></svg>