<?xml version="1.0" encoding="UTF-8"?>
<svg width="94px" height="33px" viewBox="0 0 94 33" version="1.1" xmlns="http://www.w3.org/2000/svg" xmlns:xlink="http://www.w3.org/1999/xlink">
    <!-- Generator: Sketch 51.2 (57519) - http://www.bohemiancoding.com/sketch -->
    <title>LYNX</title>
    <desc>Created with Sketch.</desc>
    <defs></defs>
    <g id="Landingpage" stroke="none" stroke-width="1" fill="none" fill-rule="evenodd">
        <g id="LP_Mobiel" transform="translate(-22.000000, -2811.000000)" fill="#00A651">
            <g id="Tarievenvergelijker" transform="translate(0.000000, 2520.000000)">
                <path d="M22,291 L28.624,291 L28.624,318.416 L40.354,318.416 L40.354,323.844 L22,323.844 L22,291 Z M38.284,291 L45.736,291 L50.06,303.696 L50.152,303.696 L54.752,291 L61.928,291 L53.418,310.918 L53.418,323.844 L46.794,323.844 L46.794,310.918 L38.284,291 Z M65.746,291 L73.382,291 L81.386,313.494 L81.478,313.494 L81.478,291 L87.55,291 L87.55,323.844 L80.006,323.844 L71.91,300.844 L71.818,300.844 L71.818,323.844 L65.746,323.844 L65.746,291 Z M92.15,291 L99.464,291 L103.696,301.626 L107.882,291 L115.104,291 L107.468,307.238 L115.656,323.844 L108.204,323.844 L103.466,312.712 L98.774,323.844 L91.506,323.844 L99.694,307.238 L92.15,291 Z" id="LYNX"></path>
            </g>
        </g>
    </g>
</svg>