<svg width="23" height="16" viewBox="0 0 23 16" fill="none" xmlns="http://www.w3.org/2000/svg">
<rect x="0.25" y="0.25" width="21.9" height="15.5" rx="1.75" fill="white" stroke="#F5F5F5" stroke-width="0.5"/>
<mask id="mask0_1403_10742" style="mask-type:alpha" maskUnits="userSpaceOnUse" x="0" y="0" width="23" height="16">
<rect x="0.25" y="0.25" width="21.9" height="15.5" rx="1.75" fill="white" stroke="white" stroke-width="0.5"/>
</mask>
<g mask="url(#mask0_1403_10742)">
<rect x="14.9331" width="7.46667" height="16" fill="#E3283E"/>
<path fill-rule="evenodd" clip-rule="evenodd" d="M0 16H7.46667V0H0V16Z" fill="#128A60"/>
<path d="M9.73356 7.4668C9.73356 7.09861 9.43508 6.80013 9.06689 6.80013C8.6987 6.80013 8.40023 7.09861 8.40023 7.4668H9.73356ZM9.79653 9.88994C10.115 10.0747 10.523 9.96636 10.7077 9.64789C10.8925 9.32943 10.7842 8.92147 10.4657 8.73668L9.79653 9.88994ZM11.9889 8.70368C11.6787 8.90206 11.5881 9.31432 11.7865 9.6245C11.9849 9.93467 12.3971 10.0253 12.7073 9.82692L11.9889 8.70368ZM14.0002 7.4668C14.0002 7.09861 13.7017 6.80013 13.3336 6.80013C12.9654 6.80013 12.6669 7.09861 12.6669 7.4668H14.0002ZM8.40023 7.4668C8.40023 8.5027 8.96312 9.40636 9.79653 9.88994L10.4657 8.73668C10.0265 8.48184 9.73356 8.00814 9.73356 7.4668H8.40023ZM12.7073 9.82692C13.4834 9.33057 14.0002 8.45926 14.0002 7.4668H12.6669C12.6669 7.98558 12.398 8.44201 11.9889 8.70368L12.7073 9.82692Z" fill="#8C9157"/>
<path fill-rule="evenodd" clip-rule="evenodd" d="M11.2 8.5335C11.7891 8.5335 12.2666 7.81715 12.2666 6.9335C12.2666 6.04984 11.7891 5.3335 11.2 5.3335C10.6109 5.3335 10.1333 6.04984 10.1333 6.9335C10.1333 7.81715 10.6109 8.5335 11.2 8.5335Z" fill="#C59262"/>
</g>
</svg>
