<svg width="21" height="18" viewBox="0 0 21 18" fill="none" xmlns="http://www.w3.org/2000/svg">
<path fill-rule="evenodd" clip-rule="evenodd" d="M11.2 14.6002L10.4921 13.1845C10.4357 13.0715 10.3202 13.0002 10.194 13.0002H9.73807C9.64967 13.0002 9.56488 12.9651 9.50237 12.9026L6.49763 9.89783C6.43512 9.83531 6.4 9.75053 6.4 9.66212V8.33827C6.4 8.24986 6.36488 8.16508 6.30237 8.10256L4.86529 6.66548C4.82257 6.62276 4.79226 6.56923 4.77761 6.51062L4.04438 3.57771C4.01674 3.46715 3.93453 3.37837 3.82641 3.34233L1.62247 2.60769C1.60751 2.6027 1.59292 2.59665 1.57881 2.5896L0.184262 1.89233C0.0713344 1.83586 0 1.72044 0 1.59418V0.533529C0 0.349434 0.149238 0.200195 0.333333 0.200195H1.46193C1.55033 0.200195 1.63512 0.235314 1.69763 0.297826L2.30237 0.902564C2.36488 0.965076 2.44967 1.0002 2.53807 1.0002H3.86193C3.95033 1.0002 4.03512 0.965076 4.09763 0.902564L4.70237 0.297826C4.76488 0.235314 4.84967 0.200195 4.93807 0.200195H7.92131C7.97306 0.200195 8.0241 0.212244 8.07038 0.235386L9.52962 0.965004C9.5759 0.988147 9.62694 1.0002 9.67869 1.0002H11.1213C11.1731 1.0002 11.2241 0.988147 11.2704 0.965004L12.7296 0.235386C12.7759 0.212244 12.8269 0.200195 12.8787 0.200195H15.6667C15.8508 0.200195 16 0.349434 16 0.533529V1.46686C16 1.65096 15.8508 1.8002 15.6667 1.8002H14.7333C14.5492 1.8002 14.4 1.94943 14.4 2.13353V3.99418C14.4 4.12044 14.4713 4.23586 14.5843 4.29233L15.5176 4.75899C15.7392 4.86981 16 4.70864 16 4.46085V2.93353C16 2.74943 16.1492 2.6002 16.3333 2.6002H18.0667C18.2508 2.6002 18.4 2.74943 18.4 2.93353V3.06686C18.4 3.25096 18.5492 3.4002 18.7333 3.4002H20.4667C20.6508 3.4002 20.8 3.54943 20.8 3.73353V4.9461C20.8 4.98193 20.7942 5.01752 20.7829 5.05151L20.0249 7.32554C20.0085 7.37464 19.981 7.41924 19.9444 7.45584L17.6383 9.76195C17.6129 9.78728 17.5918 9.81653 17.5758 9.84858L16.8352 11.3298C16.812 11.3761 16.8 11.4271 16.8 11.4789V12.6669C16.8 12.851 16.6508 13.0002 16.4667 13.0002H16.206C16.0798 13.0002 15.9643 12.9289 15.9079 12.8159L15.2921 11.5845C15.2357 11.4715 15.1202 11.4002 14.994 11.4002H13.006C12.8798 11.4002 12.7643 11.4715 12.7079 11.5845L12.0745 12.8511C12.0276 12.945 12.0276 13.0554 12.0745 13.1493L12.7079 14.4159C12.7643 14.5289 12.8798 14.6002 13.006 14.6002H14.2619C14.3503 14.6002 14.4351 14.6353 14.4976 14.6978L15.9024 16.1026C15.9649 16.1651 16 16.2499 16 16.3383V17.4669C16 17.651 15.8508 17.8002 15.6667 17.8002H14.606C14.4798 17.8002 14.3643 17.7289 14.3079 17.6159L13.6921 16.3845C13.6357 16.2715 13.5202 16.2002 13.394 16.2002H12.206C12.0798 16.2002 11.9643 16.1289 11.9079 16.0159L11.2 14.6002Z" fill="white"/>
</svg>
