<svg width="87" height="80" viewBox="0 0 87 80" fill="none" xmlns="http://www.w3.org/2000/svg">
<path d="M71.1072 40.0175C71.1072 35.4661 74.6083 31.7199 79.0547 31.3348C75.0985 13.4092 59.0985 0 40.0175 0C17.9256 0 0 17.9256 0 40.0175C0 62.1094 17.9256 80.035 40.0175 80.035C59.1335 80.035 75.0985 66.6258 79.0897 48.7002C74.6083 48.3151 71.1072 44.5689 71.1072 40.0175Z" fill="#26255D"/>
<path d="M72.9628 40.0175C72.9628 36.2363 76.0438 33.1553 79.8249 33.1553C83.6061 33.1553 86.6871 36.2363 86.6871 40.0175C86.6871 43.7987 83.6061 46.8796 79.8249 46.8796C76.0088 46.8446 72.9628 43.7987 72.9628 40.0175Z" fill="#DC2927"/>
<path d="M37.7418 22.512H24.2276H13.4092H13.1991C12.9891 22.512 12.814 22.6871 12.814 22.8971V56.4726C12.814 56.6827 12.9891 56.8577 13.1991 56.8577H13.4092H17.4705H19.8862H23.8074H24.1575V56.6127C24.1926 56.5777 24.1926 56.5076 24.1926 56.4726V53.9168V45.4092V31.8249C24.1926 31.6849 24.2276 31.5448 24.2626 31.4048V31.2998C24.4726 30.7746 24.9978 30.3895 25.593 30.3895C26.3632 30.3895 27.0284 31.0197 27.0284 31.8249V45.3392V53.8468V56.4026C27.0284 56.6127 27.2035 56.7877 27.4136 56.7877H31.3348H33.7505H37.8118C38.0219 56.7877 38.1969 56.6127 38.1969 56.4026V22.8621C38.1269 22.6521 37.9519 22.512 37.7418 22.512Z" fill="url(#paint0_linear_699_47441)"/>
<path d="M65.8206 56.8228H52.3064H41.488H41.2779C41.0678 56.8228 40.8928 56.6477 40.8928 56.4377V22.8622C40.8928 22.6521 41.0678 22.4771 41.2779 22.4771H41.488H45.5142H47.93H51.8512H52.2013V22.7221C52.2363 22.7571 52.2363 22.8272 52.2363 22.8622V25.418V33.9606V47.4749C52.2363 47.6149 52.2713 47.755 52.3064 47.895V48C52.5164 48.5252 53.0416 48.9103 53.6368 48.9103C54.407 48.9103 55.0722 48.2801 55.0722 47.4749V33.9606V25.453V22.8972C55.0722 22.6871 55.2473 22.5121 55.4573 22.5121H59.3786H61.7943H65.8206C66.0306 22.5121 66.2057 22.6871 66.2057 22.8972V56.4727C66.2057 56.6477 66.0306 56.8228 65.8206 56.8228Z" fill="url(#paint1_linear_699_47441)"/>
<path d="M79.3698 43.1334V40.5426C79.3698 40.0525 79.2998 39.7374 79.1597 39.5273C79.0197 39.3523 78.7746 39.2472 78.4245 39.2472C78.2495 39.2472 78.0394 39.3172 77.8643 39.4223C77.6543 39.5273 77.5142 39.6673 77.4092 39.8074V43.1334H76.6039V38.652H77.1291L77.3742 39.2122C77.6193 38.7571 78.0744 38.547 78.6696 38.547C79.6499 38.547 80.14 39.1422 80.14 40.3326V43.0984H79.3698V43.1334Z" fill="white"/>
<path d="M81.0853 41.8731V36.8315H81.8906V41.733C81.8906 41.9781 81.9606 42.1532 82.1006 42.2932C82.2407 42.4332 82.4157 42.5033 82.6258 42.5033V43.2035C81.6105 43.2385 81.0853 42.7833 81.0853 41.8731Z" fill="white"/>
<defs>
<linearGradient id="paint0_linear_699_47441" x1="25.467" y1="22.4981" x2="25.467" y2="56.8309" gradientUnits="userSpaceOnUse">
<stop stop-color="white"/>
<stop offset="0.5256" stop-color="#FDFDFD"/>
<stop offset="0.715" stop-color="#F6F7F7"/>
<stop offset="0.8499" stop-color="#EBEBEB"/>
<stop offset="0.9583" stop-color="#DADBDB"/>
<stop offset="1" stop-color="#D1D2D3"/>
</linearGradient>
<linearGradient id="paint1_linear_699_47441" x1="53.5286" y1="56.8306" x2="53.5286" y2="22.4982" gradientUnits="userSpaceOnUse">
<stop stop-color="white"/>
<stop offset="0.5256" stop-color="#FDFDFD"/>
<stop offset="0.715" stop-color="#F6F7F7"/>
<stop offset="0.8499" stop-color="#EBEBEB"/>
<stop offset="0.9583" stop-color="#DADBDB"/>
<stop offset="1" stop-color="#D1D2D3"/>
</linearGradient>
</defs>
</svg>
