<svg width="23" height="19" viewBox="0 0 23 19" fill="none" xmlns="http://www.w3.org/2000/svg">
<path fill-rule="evenodd" clip-rule="evenodd" d="M11.2598 1.0002C11.1877 1.0002 11.1175 1.02359 11.0598 1.06686L8.00253 3.35981C7.96699 3.38646 7.92648 3.40575 7.88338 3.41652L4.78418 4.19132C4.76059 4.19722 4.73771 4.20568 4.71595 4.21656L1.64806 5.7505C1.58355 5.78276 1.53125 5.83507 1.49899 5.89958L0.0351917 8.82718C-0.0183036 8.93417 -0.0103686 9.06162 0.0559841 9.16115L1.4927 11.3162C1.5292 11.371 1.54868 11.4353 1.54868 11.5011V13.6621C1.54868 13.7505 1.5838 13.8353 1.64631 13.8978L2.9788 15.2303C3.08025 15.3318 3.23524 15.3569 3.36357 15.2928L7.8783 13.0354C7.92459 13.0122 7.97562 13.0002 8.02737 13.0002H11.028C11.106 13.0002 11.1815 13.0275 11.2414 13.0775L15.856 16.9229C15.9159 16.9729 15.9914 17.0002 16.0694 17.0002H18.9703C19.0817 17.0002 19.1858 16.9445 19.2476 16.8518L22.2927 12.2842C22.3292 12.2294 22.3487 12.1651 22.3487 12.0993V9.10112C22.3487 9.03531 22.3292 8.97098 22.2927 8.91622L19.1487 4.2002L16.8458 0.36203C16.7855 0.261628 16.677 0.200195 16.56 0.200195H15.9534C15.6565 0.200195 15.5077 0.559242 15.7177 0.769231L15.7788 0.830311C15.8803 0.931764 15.9054 1.08675 15.8412 1.21508L15.2408 2.41593C15.1843 2.52886 15.0689 2.6002 14.9427 2.6002H12.9547C12.8284 2.6002 12.713 2.52886 12.6566 2.41593L12.0408 1.18446C11.9844 1.07153 11.8689 1.0002 11.7427 1.0002H11.2598ZM18.3486 17.8002H16.7486L17.3129 18.3645C17.4431 18.4947 17.6541 18.4947 17.7843 18.3645L18.3486 17.8002Z" fill="white"/>
</svg>
