<svg width="120" height="20" viewBox="0 0 120 20" fill="none" xmlns="http://www.w3.org/2000/svg">
<g opacity="0.89">
<path d="M19.3893 11.9743C18.5706 11.9743 17.1059 11.9294 15.3828 11.9294V0.207323C16.5244 0.207323 18.3553 0.139648 19.8415 0.139648C22.8573 0.139648 24.085 1.22174 24.085 3.07035C24.085 4.19756 23.4819 5.18918 22.3619 5.64011V5.66267C23.6113 6.02337 24.2359 7.01523 24.2359 8.27756C24.2359 10.0359 23.0726 11.9743 19.3893 11.9743ZM19.303 2.16849C18.9586 2.16849 18.5061 2.19104 18.1399 2.19104V4.98639C18.463 5.00895 18.7861 5.00895 18.9368 5.00895C20.2508 5.00895 21.1339 4.51314 21.1339 3.49849C21.1341 2.70965 20.7033 2.16849 19.303 2.16849ZM19.0877 6.81244C18.8508 6.81244 18.4201 6.81244 18.1399 6.835V9.83314C18.463 9.87825 18.8939 9.90081 19.3246 9.90081C20.6817 9.90081 21.3064 9.24709 21.3064 8.27779C21.3064 7.24058 20.4879 6.81244 19.0877 6.81244Z" fill="#002F65"/>
<path d="M28.1475 11.9301V0.208008H31.0195V11.9301H28.1475Z" fill="#002F65"/>
<path d="M42.4637 11.9291L39.1035 6.20354C38.7157 5.54959 38.3279 4.71587 38.0479 4.06191H38.0264C38.0695 4.6254 38.091 5.21168 38.091 6.13587V11.9291H35.4199V0.207031H39.1464L42.399 5.79749C42.8299 6.49633 43.2175 7.24028 43.5621 8.02935H43.5837C43.5406 7.33052 43.519 6.36122 43.519 5.14377L43.4975 0.207031H46.1899V11.9291H42.4637Z" fill="#002F65"/>
<path d="M54.534 12.1099C50.8076 12.1099 48.9336 9.85595 48.9336 6.3392C48.9338 3.02548 50.8292 0.0273438 55.0943 0.0273438C55.762 0.0273438 56.6667 0.117576 57.3776 0.320367L57.1407 2.86758C56.4298 2.61967 55.676 2.48432 54.9436 2.48432C53.0265 2.48432 51.928 3.92711 51.928 6.06851C51.928 8.34548 53.1343 9.51758 55.0729 9.51758C55.8483 9.51758 56.6238 9.3599 57.2269 9.04432L57.4638 11.6141C56.5376 11.9297 55.568 12.1099 54.534 12.1099Z" fill="#002F65"/>
<path d="M67.3451 11.9301L63.6617 6.6101V11.9301H60.8828V0.208008H63.6617V5.23498L67.3451 0.208008H70.7484L66.4402 5.84359L71.0068 11.9299H67.3451V11.9301Z" fill="#002F65"/>
<path d="M76.955 11.9742C76.2659 11.9742 75.2534 11.9516 74.3057 11.9293V0.207226C75.0597 0.207226 76.0072 0.162109 77.4937 0.162109C80.0354 0.162109 81.0476 1.35676 81.0476 2.93467C81.0476 4.24211 80.2508 5.2342 78.8937 5.73002V5.75258C80.5525 6.06816 81.3279 7.17257 81.3279 8.48025C81.3276 9.67513 80.703 11.9742 76.955 11.9742ZM77.2137 1.13164C76.6103 1.13164 75.9859 1.1542 75.4688 1.1542V5.36955C75.9425 5.39211 76.4165 5.39211 76.5888 5.39211C78.6565 5.39211 79.8628 4.6256 79.8628 3.07025C79.8628 1.98816 79.2814 1.13164 77.2137 1.13164ZM76.5888 6.33885C76.3732 6.33885 75.7701 6.33885 75.4688 6.36141V10.8923C75.7919 10.96 76.3088 11.0049 77.0843 11.0049C79.2168 11.0049 80.1432 9.96816 80.1432 8.54792C80.143 6.78978 78.5705 6.33885 76.5888 6.33885Z" fill="#002F65"/>
<path d="M93 11.9299L91.9445 9.08963H86.344L85.2669 11.9299H84.082L88.6056 0.208008H89.8334L94.2922 11.9299H93ZM89.8767 3.56661C89.5965 2.82266 89.3382 2.03382 89.1658 1.44754H89.1443C88.972 2.07871 88.7136 2.84522 88.4336 3.61173L86.7103 8.14266H91.5782L89.8767 3.56661Z" fill="#002F65"/>
<path d="M105.197 11.9294L100.114 3.94936C99.5968 3.1154 99.1015 2.25866 98.7139 1.49238H98.6919C98.7352 2.37145 98.7997 3.38587 98.7997 4.96378L98.8212 11.9294H97.6797V0.207264H99.1659L104.185 8.11959C104.68 8.90843 105.219 9.76517 105.65 10.5766H105.671C105.607 9.71982 105.564 8.18703 105.564 5.9554L105.542 0.207031H106.705V11.9294H105.197Z" fill="#002F65"/>
<path d="M118.132 11.9291L112.812 5.93284V11.9291H111.648V0.207031H112.812V5.93284L118.067 0.207031H119.575L114.211 5.86517L119.769 11.9289H118.132V11.9291Z" fill="#002F65"/>
<path d="M17.2926 19.7519H16.8833L15.3828 15.8447H15.8279L16.7613 18.3768C16.8906 18.7224 16.9981 19.0382 17.0844 19.3387H17.0915C17.1919 19.0382 17.2997 18.7301 17.4217 18.4222L18.4268 15.845H18.8359L17.2926 19.7519Z" fill="#002F65"/>
<path d="M25.2984 19.8043C24.0993 19.8043 23.6113 18.9552 23.6113 17.8283C23.6113 16.5208 24.4227 15.792 25.4062 15.792C26.5262 15.792 27.1222 16.5283 27.1222 17.7755C27.1222 19.0908 26.3324 19.8043 25.2984 19.8043ZM25.3631 16.1227C24.6522 16.1227 24.0204 16.7013 24.0204 17.7755C24.0204 18.6697 24.3364 19.4662 25.3344 19.4662C26.1171 19.4662 26.7058 18.8952 26.7058 17.8357C26.7058 16.7239 26.2033 16.1227 25.3631 16.1227Z" fill="#002F65"/>
<path d="M33.9068 19.8043C32.7077 19.8043 32.2197 18.9552 32.2197 17.8283C32.2197 16.5208 33.0311 15.792 34.0148 15.792C35.1348 15.792 35.7308 16.5283 35.7308 17.7755C35.7306 19.0908 34.9408 19.8043 33.9068 19.8043ZM33.9715 16.1227C33.2608 16.1227 32.6288 16.7013 32.6288 17.7755C32.6288 18.6697 32.9448 19.4662 33.9428 19.4662C34.7253 19.4662 35.3142 18.8952 35.3142 17.8357C35.3142 16.7239 34.8115 16.1227 33.9715 16.1227Z" fill="#002F65"/>
<path d="M43.1174 19.7519L41.6383 17.9261H41.6241V19.7519H41.2363V15.845C41.423 15.8375 41.7032 15.8301 42.1268 15.8301C42.9526 15.8301 43.3977 16.1833 43.3977 16.7917C43.3977 17.5205 42.8232 17.9266 42.0766 17.9266C42.1843 18.0315 42.3063 18.1745 42.4283 18.3245L43.6274 19.7524H43.1174V19.7519ZM42.0763 16.1457C41.8681 16.1457 41.7461 16.1529 41.6241 16.168V17.6108C41.7534 17.6257 41.9257 17.6333 42.0979 17.6333C42.6508 17.6333 42.9954 17.3254 42.9954 16.8443C42.9954 16.3633 42.6437 16.1457 42.0763 16.1457Z" fill="#002F65"/>
<path d="M55.8694 19.7671C55.6397 19.7671 55.3021 19.7594 54.9863 19.7522V15.845C55.2377 15.845 55.5534 15.8301 56.0488 15.8301C56.8961 15.8301 57.2337 16.2282 57.2337 16.7543C57.2337 17.1898 56.9681 17.5205 56.5157 17.6859V17.6936C57.0685 17.7985 57.3268 18.1668 57.3268 18.6024C57.3268 19.0005 57.1188 19.7671 55.8694 19.7671ZM55.9557 16.1529C55.7546 16.1529 55.5463 16.1605 55.3741 16.1605V17.5654C55.5319 17.5731 55.6899 17.5731 55.7472 17.5731C56.4366 17.5731 56.8386 17.3173 56.8386 16.7991C56.8388 16.4385 56.645 16.1529 55.9557 16.1529ZM55.7472 17.8887C55.6757 17.8887 55.4743 17.8887 55.3741 17.8961V19.4064C55.4817 19.4289 55.6541 19.4438 55.9123 19.4438C56.6232 19.4438 56.9319 19.0982 56.9319 18.625C56.9321 18.0387 56.4081 17.8887 55.7472 17.8887Z" fill="#002F65"/>
<path d="M63.0059 19.7517V15.8447H64.9299V16.1603H63.3934V17.5729H64.8583V17.8882H63.3934V19.4284H64.9299V19.7517H63.0059Z" fill="#002F65"/>
<path d="M70.5801 19.7517V15.8447H70.9679V19.4287H72.4254V19.7519H70.5801V19.7517Z" fill="#002F65"/>
<path d="M77.71 19.7517V15.8447H79.6342V16.1603H78.0977V17.5729H79.5626V17.8882H78.0977V19.4284H79.6342V19.7517H77.71Z" fill="#002F65"/>
<path d="M86.7562 19.7963C85.6288 19.7963 84.8535 19.1051 84.8535 17.8653C84.8535 16.6932 85.6144 15.7988 86.8782 15.7988C87.2368 15.7988 87.5744 15.8516 87.9262 15.9642L87.8833 16.3398C87.5386 16.2046 87.1868 16.1219 86.8351 16.1219C86.0164 16.1219 85.2555 16.6628 85.2555 17.8049C85.2555 18.8719 85.8944 19.4579 86.8424 19.4579C87.1224 19.4579 87.4026 19.4128 87.6177 19.3374V17.797H88.0055V19.5853C87.6248 19.7214 87.2228 19.7963 86.7562 19.7963Z" fill="#002F65"/>
<path d="M95.307 19.7963C94.1799 19.7963 93.4043 19.1051 93.4043 17.8653C93.4043 16.6932 94.1654 15.7988 95.4287 15.7988C95.7878 15.7988 96.1254 15.8516 96.4772 15.9642L96.4343 16.3398C96.0894 16.2046 95.7376 16.1219 95.3858 16.1219C94.5672 16.1219 93.8063 16.6628 93.8063 17.8049C93.8063 18.8719 94.4454 19.4579 95.3932 19.4579C95.6732 19.4579 95.9532 19.4128 96.1687 19.3374V17.797H96.5561V19.5853C96.1758 19.7214 95.7736 19.7963 95.307 19.7963Z" fill="#002F65"/>
<path d="M102.387 19.7517V15.8447H104.311V16.1603H102.774V17.5729H104.239V17.8882H102.774V19.4284H104.311V19.7517H102.387Z" fill="#002F65"/>
<path d="M111.842 19.7519L110.363 17.9261H110.348V19.7519H109.961V15.845C110.148 15.8375 110.428 15.8301 110.851 15.8301C111.677 15.8301 112.122 16.1833 112.122 16.7917C112.122 17.5205 111.548 17.9266 110.801 17.9266C110.909 18.0315 111.031 18.1745 111.153 18.3245L112.352 19.7524H111.842V19.7519ZM110.801 16.1457C110.592 16.1457 110.47 16.1529 110.348 16.168V17.6108C110.477 17.6257 110.65 17.6333 110.822 17.6333C111.375 17.6333 111.72 17.3254 111.72 16.8443C111.72 16.3633 111.368 16.1457 110.801 16.1457Z" fill="#002F65"/>
<path d="M118.427 19.8036C118.118 19.8036 117.759 19.7585 117.551 19.6985L117.572 19.2775C117.809 19.3829 118.14 19.4503 118.491 19.4503C118.958 19.4503 119.49 19.2473 119.49 18.6464C119.49 17.6922 117.486 18.1203 117.486 16.888C117.486 16.2194 118.025 15.791 118.887 15.791C119.131 15.791 119.454 15.8212 119.676 15.8661L119.655 16.2492C119.439 16.1817 119.095 16.1292 118.858 16.1292C118.197 16.1292 117.881 16.4071 117.881 16.835C117.881 17.7894 119.891 17.331 119.891 18.6157C119.891 19.3752 119.181 19.8036 118.427 19.8036Z" fill="#002F65"/>
<path d="M11.2486 3.98033C11.1146 3.63568 10.9493 3.30684 10.7526 2.99196L6.77416 4.96196L7.33638 0.391496C6.87171 0.26824 6.38194 0.208008 5.86905 0.208008H5.86727C5.35438 0.208008 4.8666 0.26824 4.40327 0.389636L4.96416 4.95987L0.982382 2.98824C0.808826 3.26359 0.661271 3.5494 0.539049 3.84545C0.401715 4.17429 0.293937 4.51684 0.219715 4.87196C0.148826 5.20568 0.103937 5.55196 0.0859375 5.91033L4.41171 6.76219L1.38927 10.1173C1.50838 10.2661 1.63594 10.4115 1.77149 10.5536C1.90549 10.6936 2.04083 10.8252 2.18172 10.948C2.39816 11.1368 2.62172 11.3085 2.85327 11.4587C3.14305 11.6457 3.44394 11.8029 3.75638 11.9296L5.87394 7.87661L7.98971 11.9243C8.32883 11.7857 8.65483 11.6108 8.96594 11.3996C9.13638 11.2854 9.30171 11.1608 9.46194 11.0238C9.6326 10.8787 9.79971 10.721 9.96171 10.5534C10.099 10.4075 10.2297 10.2589 10.3519 10.1066L7.33638 6.76196L11.6473 5.91196C11.6273 5.50498 11.573 5.11219 11.4835 4.73661C11.4226 4.47708 11.3428 4.22405 11.2486 3.98033Z" fill="#A0CE67"/>
</g>
</svg>
