<svg width="135" height="21" viewBox="0 0 135 21" fill="none" xmlns="http://www.w3.org/2000/svg">
<path d="M0.0904541 20.6202V9.22659C0.0904541 7.12659 1.41575 6.36702 2.89828 6.36702H11.5464V9.07021H3.1229V20.6202H0.0904541ZM16.0164 9.09255V17.917H24.4623V20.6202H15.8142C14.3317 20.6202 13.0064 19.8606 13.0064 17.7606V3.50745H16.0164V6.36702H24.4623V9.07021H16.0164V9.09255ZM28.9324 17.917H37.3783V20.6202H28.7302C27.2477 20.6202 25.9224 19.8606 25.9224 17.7606V6.36702H28.9324V17.917Z" fill="#222222"/>
<path d="M55.505 16.666C55.505 17.5372 55.6847 17.917 56.5158 17.917H56.6506V20.6202H48.3169V17.917H48.6314C49.5299 17.917 49.8444 17.6043 49.8444 16.666V11.684C49.8444 10.1202 49.2604 9.40532 48.0699 9.40532C46.767 9.40532 45.9808 10.4106 45.9808 12.4883V16.666C45.9808 17.5819 46.183 17.917 47.1938 17.917H47.5083V20.6202H39.1522V17.917H39.4218C40.1406 17.917 40.3427 17.5372 40.3427 16.666V10.9915C40.3427 9.69575 39.7812 9.33829 39.2196 9.33829H39.1522V6.36702H45.8236V9.71808C46.5424 7.5734 48.0025 6.03191 50.8103 6.03191C53.708 6.03191 55.46 7.70744 55.46 11.2819V16.666H55.505ZM64.2429 16.666C64.2429 17.5372 64.4451 17.917 65.1639 17.917H65.5682V20.6202H57.4143V17.917H57.6838C58.4026 17.917 58.6048 17.5372 58.6048 16.666V10.7234C58.6048 9.31596 58.0432 9.07021 57.4817 9.07021H57.4143V6.36702H64.2429V16.666ZM58.3802 2.88191C58.3802 1.31808 59.683 0.0223389 61.2554 0.0223389C62.8278 0.0223389 64.1306 1.31808 64.1306 2.88191C64.1306 4.44574 62.8278 5.71915 61.2554 5.71915C59.683 5.69681 58.3802 4.44574 58.3802 2.88191ZM74.1489 20.933C69.1847 20.933 66.1971 18.3415 66.1971 13.4936V13.4713C66.1971 8.6234 69.589 6.03191 73.7446 6.03191C78.0574 6.03191 80.5058 8.2883 80.5058 12.734V14.2085H71.9251V14.3426C72.1048 16.8894 73.4301 17.5372 76.2154 17.5372C77.698 17.5372 79.0233 17.1128 80.2812 16.4649V18.833C79.2928 19.7489 77.3835 20.933 74.1489 20.933ZM71.9251 11.9968H75.5191V11.684C75.5191 9.42765 75.0923 8.37766 73.9018 8.37766C72.6439 8.35532 72.0599 9.31596 71.9251 11.9968ZM91.8045 10.634C91.8045 9.31596 91.2429 9.07021 90.3893 9.07021H90.3219V6.36702H97.4201V16.7553C97.4201 17.5819 97.8469 17.917 98.4309 17.917H98.7903V20.6202H92.0965V17.7383C91.3328 19.7266 89.8278 20.9777 87.1547 20.9777C84.0998 20.9777 82.4376 19.3021 82.4376 15.7277V10.6564C82.4376 9.40532 82.0557 9.09255 81.4717 9.09255H81.4043V6.38936H88.0532V15.616C88.0532 17.1798 88.6148 17.8723 89.7828 17.8723C91.0857 17.8723 91.782 16.9787 91.782 15.3926V10.634H91.8045ZM110.224 12.5777L108.067 20.6202H102.789L100.295 10.5C100.071 9.51702 99.599 9.33829 99.262 9.33829H99.1273V6.36702H106.765V9.33829H106.652C105.394 9.33829 105.349 9.65106 105.574 10.9245L106.63 16.2862L109.101 6.36702H113.166L115.817 15.9734L116.94 10.9245C117.232 9.6734 116.94 9.33829 115.929 9.33829H115.817V6.36702H121.275V9.33829H121.096C120.736 9.33829 120.422 9.5617 120.175 10.5894L117.681 20.6202H112.425L110.224 12.5777ZM125.116 19.3245L124.645 20.6202H122.017V16.1968H124.937C125.319 17.6489 126.666 18.2968 128.216 18.2968C129.25 18.2968 130.081 17.917 130.081 17.1351C130.081 16.3085 129.564 16.1298 128.755 16.0181C127.722 15.884 125.768 15.9064 124.151 15.1021C122.556 14.3202 121.927 12.8234 121.927 10.9468C121.927 7.08191 125.251 6.00957 127.475 6.00957C129.384 6.00957 130.552 6.61276 131.136 7.50638L131.563 6.34468H134.079V10.433H131.271C130.755 9.18192 129.676 8.48936 128.306 8.48936C127.34 8.48936 126.487 8.82447 126.487 9.74043C126.487 10.4106 126.958 10.7681 127.655 10.9021C128.868 11.1032 131.114 11.1925 132.552 11.9074C134.371 12.8011 134.91 14.2085 134.91 15.9511C134.91 19.2798 132.641 20.9106 129.16 20.9106C126.891 20.933 125.768 20.1957 125.116 19.3245Z" fill="#35A7D7"/>
</svg>
