<svg width="12" height="18" viewBox="0 0 12 18" fill="none" xmlns="http://www.w3.org/2000/svg">
<path fill-rule="evenodd" clip-rule="evenodd" d="M0.8 16.2412C0.8 16.214 0.803343 16.1868 0.809953 16.1604L1.6 13.0002L2.37646 9.89436C2.39183 9.83286 2.38935 9.76825 2.36931 9.70811L1.64366 7.53118C1.61571 7.44731 1.55558 7.37798 1.47651 7.33845L0.184262 6.69233C0.0713344 6.63586 0 6.52044 0 6.39418V3.47888C0 3.42714 0.0120484 3.3761 0.035191 3.32981L0.8 1.8002L1.50787 0.384458C1.56433 0.27153 1.67975 0.200195 1.80601 0.200195H6.06667C6.25076 0.200195 6.4 0.349434 6.4 0.533529V1.46686C6.4 1.65096 6.54924 1.8002 6.73333 1.8002H7.66667C7.85076 1.8002 8 1.94943 8 2.13353V3.19418C8 3.32044 8.07133 3.43586 8.18426 3.49233L11.0157 4.90806C11.1287 4.96453 11.2 5.07995 11.2 5.20621V6.52151C11.2 6.57325 11.188 6.62429 11.1648 6.67058L10.4396 8.12102C10.4136 8.1729 10.3746 8.21712 10.3263 8.2493L8.07366 9.75109C8.02539 9.78327 7.98636 9.82749 7.96041 9.87937L6.43959 12.921C6.41365 12.9729 6.37461 13.0171 6.32635 13.0493L4.07366 14.5511C4.02539 14.5833 3.98635 14.6275 3.96041 14.6794L2.49213 17.6159C2.43567 17.7289 2.32025 17.8002 2.19399 17.8002H1.13333C0.949239 17.8002 0.8 17.651 0.8 17.4669V16.2412Z" fill="white"/>
</svg>
