<svg width="23" height="16" viewBox="0 0 23 16" fill="none" xmlns="http://www.w3.org/2000/svg">
<rect x="0.25" y="0.25" width="21.9" height="15.5" rx="1.75" fill="white" stroke="#F5F5F5" stroke-width="0.5"/>
<mask id="mask0_1403_11835" style="mask-type:alpha" maskUnits="userSpaceOnUse" x="0" y="0" width="23" height="16">
<rect x="0.25" y="0.25" width="21.9" height="15.5" rx="1.75" fill="white" stroke="white" stroke-width="0.5"/>
</mask>
<g mask="url(#mask0_1403_11835)">
<path fill-rule="evenodd" clip-rule="evenodd" d="M0 8.53333H22.4V0H0V8.53333Z" fill="#E12237"/>
<path fill-rule="evenodd" clip-rule="evenodd" d="M5.3333 7.46665C6.08946 7.46665 6.78436 7.20438 7.332 6.76584C7.04187 6.87408 6.72783 6.93325 6.39997 6.93325C4.92721 6.93325 3.7333 5.73934 3.7333 4.26659C3.7333 2.79383 4.92721 1.59992 6.39997 1.59992C6.72771 1.59992 7.04165 1.65905 7.3317 1.76722C6.7841 1.32882 6.08932 1.06665 5.3333 1.06665C3.56599 1.06665 2.1333 2.49934 2.1333 4.26665C2.1333 6.03396 3.56599 7.46665 5.3333 7.46665ZM6.39997 3.73325C6.39997 4.0278 6.16119 4.26659 5.86663 4.26659C5.57208 4.26659 5.3333 4.0278 5.3333 3.73325C5.3333 3.4387 5.57208 3.19992 5.86663 3.19992C6.16119 3.19992 6.39997 3.4387 6.39997 3.73325ZM6.93337 6.40005C7.22792 6.40005 7.4667 6.16127 7.4667 5.86672C7.4667 5.57216 7.22792 5.33338 6.93337 5.33338C6.63881 5.33338 6.40003 5.57216 6.40003 5.86672C6.40003 6.16127 6.63881 6.40005 6.93337 6.40005ZM9.59997 5.86672C9.59997 6.16127 9.36119 6.40005 9.06663 6.40005C8.77208 6.40005 8.5333 6.16127 8.5333 5.86672C8.5333 5.57216 8.77208 5.33338 9.06663 5.33338C9.36119 5.33338 9.59997 5.57216 9.59997 5.86672ZM10.1334 4.26659C10.4279 4.26659 10.6667 4.0278 10.6667 3.73325C10.6667 3.4387 10.4279 3.19992 10.1334 3.19992C9.83881 3.19992 9.60003 3.4387 9.60003 3.73325C9.60003 4.0278 9.83881 4.26659 10.1334 4.26659ZM8.53324 2.13325C8.53324 2.4278 8.29446 2.66659 7.9999 2.66659C7.70535 2.66659 7.46657 2.4278 7.46657 2.13325C7.46657 1.8387 7.70535 1.59992 7.9999 1.59992C8.29446 1.59992 8.53324 1.8387 8.53324 2.13325Z" fill="white"/>
</g>
</svg>
