<svg width="20" height="20" viewBox="0 0 20 20" fill="none" xmlns="http://www.w3.org/2000/svg">
<path d="M9.20835 18.2857C7.39357 18.297 5.6164 17.769 4.10274 16.7687C2.58908 15.7684 1.40728 14.3411 0.707559 12.6681C0.00783829 10.9951 -0.178206 9.15208 0.173074 7.37322C0.524355 5.59435 1.3971 3.96001 2.68037 2.67791C3.96364 1.39582 5.59948 0.523875 7.37998 0.172916C9.16048 -0.178043 11.0052 0.00783069 12.6797 0.70691C14.3542 1.40599 15.7829 2.58671 16.7841 4.09898C17.7853 5.61126 18.3138 7.38679 18.3025 9.19991C18.3025 11.6096 17.3444 13.9206 15.6389 15.6245C13.9334 17.3285 11.6203 18.2857 9.20835 18.2857ZM9.20835 1.19984C7.62225 1.18852 6.06851 1.64808 4.7442 2.52023C3.41988 3.39238 2.38466 4.63783 1.76981 6.09862C1.15497 7.5594 0.988214 9.16972 1.29069 10.7253C1.59317 12.2809 2.35126 13.7118 3.4688 14.8363C4.58635 15.9609 6.01301 16.7285 7.56783 17.0418C9.12266 17.3552 10.7356 17.2001 12.2021 16.5963C13.6686 15.9925 14.9226 14.9672 15.805 13.6504C16.6874 12.3336 17.1585 10.7846 17.1586 9.19991C17.1586 7.08803 16.3228 5.06179 14.8335 3.56311C13.3442 2.06444 11.3221 1.21492 9.20835 1.19984Z" fill="#3B5998"/>
<path d="M10.9243 20.0001C9.51244 19.9957 8.12105 19.6629 6.86026 19.0281C5.59948 18.3933 4.50394 17.474 3.6604 16.3429L4.57553 15.6572C5.57989 16.9885 6.97806 17.9703 8.57196 18.4636C10.1659 18.9568 11.8747 18.9365 13.4564 18.4056C15.0382 17.8746 16.4126 16.8598 17.385 15.5051C18.3574 14.1503 18.8785 12.5242 18.8745 10.8571C18.8817 9.68411 18.623 8.52468 18.1178 7.46576C17.6126 6.40684 16.8741 5.47592 15.9575 4.74279L16.701 3.82849C18.1424 5.02642 19.1808 6.63778 19.6756 8.44458C20.1704 10.2514 20.0978 12.1664 19.4676 13.9306C18.8374 15.6949 17.68 17.2231 16.152 18.3086C14.624 19.3942 12.7991 19.9846 10.9243 20.0001Z" fill="#3B5998"/>
<path d="M11.439 12.1141C10.916 12.4118 10.3249 12.5693 9.72309 12.5713C8.81293 12.5713 7.94005 12.21 7.29648 11.5671C6.6529 10.9241 6.29134 10.052 6.29134 9.14265C6.29128 8.69505 6.38042 8.25192 6.55357 7.83911C6.72673 7.42629 6.98042 7.05205 7.29986 6.73822C7.6193 6.42439 7.99809 6.17725 8.41413 6.01122C8.83018 5.84519 9.27515 5.76358 9.72309 5.77117C10.3283 5.74542 10.9269 5.90491 11.439 6.22832C11.5774 6.29427 11.7351 6.30743 11.8826 6.26534C12.0301 6.22325 12.157 6.1288 12.2397 5.99975C12.3024 5.86992 12.3136 5.72123 12.2712 5.58347C12.2288 5.4457 12.1358 5.32905 12.0109 5.25688C11.3169 4.85001 10.5278 4.63319 9.72309 4.6283C8.60502 4.75377 7.00046 5.28641 6.25061 6.12444C5.50077 6.96248 5.08624 8.04715 5.08624 9.17122C5.08624 10.2953 5.50077 11.38 6.25061 12.218C7.00046 13.056 8.60502 13.5887 9.72309 13.7142C10.5278 13.7093 11.3169 13.4924 12.0109 13.0856C12.0886 13.0559 12.1588 13.0097 12.2168 12.9501C12.2747 12.8906 12.319 12.8191 12.3465 12.7407C12.374 12.6623 12.384 12.5789 12.3759 12.4962C12.3679 12.4136 12.3418 12.3337 12.2997 12.2621C12.2575 12.1905 12.2003 12.1289 12.1319 12.0817C12.0635 12.0345 11.9856 12.0027 11.9037 11.9886C11.8217 11.9746 11.7377 11.9785 11.6575 12.0002C11.5772 12.0218 11.5026 12.0607 11.439 12.1141Z" fill="#3B5998"/>
<path d="M9.20836 7.42836H4.68988C4.61764 7.42029 4.5445 7.42759 4.47529 7.4498C4.40607 7.472 4.34235 7.5086 4.28832 7.55719C4.23428 7.60577 4.19116 7.66524 4.16179 7.73168C4.13243 7.79811 4.11747 7.87001 4.11792 7.94264C4.10872 8.01989 4.11719 8.09822 4.14268 8.17173C4.16818 8.24524 4.21003 8.31202 4.26509 8.36703C4.32015 8.42204 4.38699 8.46385 4.46057 8.48932C4.53415 8.51479 4.61256 8.52325 4.68988 8.51406H9.20836C9.36006 8.51406 9.50554 8.45386 9.6128 8.34669C9.72007 8.23953 9.78032 8.09419 9.78032 7.94264C9.7661 7.8012 9.69961 7.67013 9.59385 7.57504C9.48809 7.47994 9.35065 7.42764 9.20836 7.42836Z" fill="#3B5998"/>
<path d="M9.20836 9.65704H4.68988C4.53819 9.65704 4.39271 9.71725 4.28545 9.82442C4.17818 9.93158 4.11792 10.0769 4.11792 10.2285C4.10872 10.3057 4.11719 10.3841 4.14268 10.4576C4.16818 10.5311 4.21003 10.5979 4.26509 10.6529C4.32015 10.7079 4.38699 10.7497 4.46057 10.7752C4.53415 10.8007 4.61256 10.8091 4.68988 10.7999H9.20836C9.36006 10.7999 9.50554 10.7397 9.6128 10.6326C9.72007 10.5254 9.78032 10.38 9.78032 10.2285C9.76744 10.0813 9.70304 9.94327 9.59844 9.83876C9.49384 9.73426 9.35573 9.66992 9.20836 9.65704Z" fill="#3B5998"/>
</svg>
