<svg width="19" height="20" viewBox="0 0 19 20" fill="none" xmlns="http://www.w3.org/2000/svg">
<path d="M9.09103 20C4.07012 20 0.00012207 15.523 0.00012207 10C0.00012207 4.477 4.07012 0 9.09103 0C14.1119 0 18.1819 4.477 18.1819 10C18.1819 15.523 14.1119 20 9.09103 20ZM9.09103 18C11.0199 18 12.8697 17.1571 14.2336 15.6569C15.5975 14.1566 16.3638 12.1217 16.3638 10C16.3638 7.87827 15.5975 5.84344 14.2336 4.34315C12.8697 2.84285 11.0199 2 9.09103 2C7.16218 2 5.31234 2.84285 3.94844 4.34315C2.58454 5.84344 1.8183 7.87827 1.8183 10C1.8183 12.1217 2.58454 14.1566 3.94844 15.6569C5.31234 17.1571 7.16218 18 9.09103 18ZM8.18194 13H10.0001V15H8.18194V13ZM10.0001 11.355V12H8.18194V10.5C8.18194 10.2348 8.27772 9.98043 8.44821 9.79289C8.6187 9.60536 8.84993 9.5 9.09103 9.5C9.34929 9.49998 9.60222 9.4193 9.82042 9.26733C10.0386 9.11536 10.2131 8.89837 10.3236 8.64158C10.434 8.3848 10.4759 8.0988 10.4444 7.81684C10.4128 7.53489 10.3092 7.26858 10.1454 7.04891C9.98168 6.82924 9.76459 6.66523 9.51941 6.57597C9.27424 6.48671 9.01107 6.47587 8.76051 6.54471C8.50995 6.61354 8.28232 6.75923 8.10409 6.96482C7.92587 7.1704 7.80438 7.42743 7.75376 7.706L5.97012 7.313C6.0807 6.70508 6.33604 6.14037 6.71005 5.67659C7.08406 5.2128 7.56332 4.86658 8.09884 4.67332C8.63436 4.48006 9.20693 4.44669 9.75802 4.57661C10.3091 4.70654 10.8189 4.99511 11.2354 5.41282C11.6519 5.83054 11.96 6.36241 12.1284 6.95406C12.2968 7.54572 12.3193 8.17594 12.1936 8.78031C12.068 9.38467 11.7987 9.9415 11.4133 10.3939C11.0279 10.8462 10.5402 11.1779 10.0001 11.355Z" fill="white"/>
</svg>
