<svg xmlns="http://www.w3.org/2000/svg" xmlns:xlink="http://www.w3.org/1999/xlink" width="84" height="84" viewBox="0 0 84 84">
  <defs>
    <filter id="Ellipse_39" x="0" y="0" width="84" height="84" filterUnits="userSpaceOnUse">
      <feOffset dy="3" input="SourceAlpha"/>
      <feGaussianBlur stdDeviation="3" result="blur"/>
      <feFlood flood-opacity="0.161"/>
      <feComposite operator="in" in2="blur"/>
      <feComposite in="SourceGraphic"/>
    </filter>
  </defs>
  <g id="Group_397" data-name="Group 397" transform="translate(-118 -101)">
    <g transform="matrix(1, 0, 0, 1, 118, 101)" filter="url(#Ellipse_39)">
      <circle id="Ellipse_39-2" data-name="Ellipse 39" cx="33" cy="33" r="33" transform="translate(9 6)" fill="#fff"/>
    </g>
    <g id="bx-mail-send" transform="translate(140.5 123.167)">
      <path id="Path_188" data-name="Path 188" d="M29.167,5.833H8.75A2.92,2.92,0,0,0,5.833,8.75v7.292H8.75V11.667l9.333,7a1.46,1.46,0,0,0,1.75,0l9.334-7V24.792H17.5v2.917H29.167a2.92,2.92,0,0,0,2.917-2.917V8.75A2.92,2.92,0,0,0,29.167,5.833ZM18.959,15.677,9.721,8.75H28.195l-9.237,6.927Z" fill="#3786f7"/>
      <path id="Path_189" data-name="Path 189" d="M2.917,17.5H13.125v2.917H2.917Zm2.917,4.375h8.75v2.917H5.833Zm4.375,4.375h5.833v2.917H10.208Z" fill="#3786f7"/>
    </g>
  </g>
</svg>
