<svg xmlns="http://www.w3.org/2000/svg" viewBox="0 0 32 32"><defs><style>.cls-1{fill:#3b5998;}</style></defs><g id="Laag_2" data-name="Laag 2"><g id="Laag_1-2" data-name="Laag 1"><g id="Icon_feather-info" data-name="Icon feather-info"><path class="cls-1" d="M16,32A16,16,0,1,1,32,16,16,16,0,0,1,16,32ZM16,2A14,14,0,1,0,30,16,14,14,0,0,0,16,2Z"/><path class="cls-1" d="M16,23a.9.9,0,0,1-1-1V16a1,1,0,0,1,2,0v6A.9.9,0,0,1,16,23Z"/><path class="cls-1" d="M16,11h-.6a.1.1,0,0,1-.1-.1l-.2-.3A.6.6,0,0,1,15,10a.6.6,0,0,1,.1-.4l.2-.3a.1.1,0,0,1,.1-.1h1l.3.2.2.3a.6.6,0,0,1,.1.4.9.9,0,0,1-.3.7l-.3.2Z"/></g></g></g></svg>