<svg width="16" height="17" viewBox="0 0 16 17" fill="none" xmlns="http://www.w3.org/2000/svg">
<ellipse cx="7.75747" cy="8.5" rx="7.12625" ry="7.5" fill="#3B5998"/>
<path d="M8.02637 10.9007C7.9852 10.9448 7.90697 10.9668 7.79168 10.9668H7.40877C7.29348 10.9668 7.21113 10.9448 7.16172 10.9007C7.12055 10.8567 7.09996 10.7686 7.09996 10.6364C7.09996 10.0548 7.21113 9.60104 7.43347 9.27501C7.65581 8.94899 7.97285 8.64059 8.38459 8.34981C8.88691 7.99735 9.20806 7.733 9.34805 7.55677C9.65274 7.18669 9.80508 6.7373 9.80508 6.20861C9.80508 5.72398 9.64451 5.32747 9.32335 5.01906C9.00219 4.71066 8.54928 4.55646 7.96461 4.55646C7.41288 4.55646 6.97644 4.67982 6.65528 4.92654C6.33413 5.17326 6.07885 5.53454 5.88945 6.01036C5.84004 6.13372 5.78652 6.21302 5.72887 6.24827C5.67946 6.2747 5.59712 6.26589 5.48183 6.22183M8.02637 10.9007L8.10957 10.994C8.11098 10.9928 8.11238 10.9915 8.11376 10.9902M8.02637 10.9007L8.1177 10.9861C8.1164 10.9875 8.11508 10.9889 8.11376 10.9902M8.02637 10.9007C8.07578 10.8567 8.10049 10.7686 8.10049 10.6364C8.10049 10.3016 8.18283 10.0284 8.34753 9.81692C8.51222 9.59663 8.74692 9.38075 9.0516 9.16928C9.05984 9.16046 9.15866 9.09438 9.34805 8.97102C9.54569 8.84766 9.66098 8.77276 9.69392 8.74632L4.71022 5.56962M8.11376 10.9902C8.03464 11.0712 7.91129 11.0918 7.79168 11.0918H7.40877C7.28355 11.0918 7.16265 11.069 7.07853 10.994L7.07002 10.9864L7.0704 10.9861C7.02921 10.942 7.00665 10.8855 6.99368 10.83C6.98046 10.7735 6.97496 10.7081 6.97496 10.6364C6.97496 10.041 7.08846 9.55906 7.3302 9.20459C7.56292 8.86334 7.89177 8.54482 8.31248 8.2477L8.31279 8.24748C8.81665 7.89395 9.12304 7.63907 9.25018 7.47902L9.25154 7.47731L9.25155 7.47732C9.53589 7.13196 9.68008 6.7115 9.68008 6.20861C9.68008 5.75468 9.53107 5.39184 9.23677 5.10922C8.94547 4.82949 8.52744 4.68146 7.96461 4.68146C7.43056 4.68146 7.02404 4.80088 6.73144 5.02567C6.43227 5.25549 6.18884 5.59621 6.00559 6.05658L6.00549 6.05683C5.95423 6.18482 5.8882 6.29736 5.79408 6.35491L5.78794 6.35867L5.78784 6.35848C5.73276 6.38795 5.67161 6.39164 5.61676 6.38577C5.56112 6.37982 5.50075 6.36286 5.43758 6.33874L5.43784 6.33884L5.48183 6.22183M8.11376 10.9902C8.20304 10.9071 8.22549 10.7707 8.22549 10.6364C8.22549 10.3223 8.30244 10.0783 8.44615 9.89373L8.44617 9.89374L8.44764 9.89177C8.60203 9.68527 8.82565 9.47826 9.12288 9.27197L9.13383 9.26436L9.13665 9.26135L9.14642 9.25435C9.15873 9.24574 9.17692 9.23337 9.20138 9.21701C9.24997 9.18451 9.32118 9.1377 9.41526 9.07642C9.60867 8.95569 9.73195 8.87608 9.77215 8.84381L9.77219 8.84386L9.7752 8.84128C9.81454 8.80761 9.91571 8.7253 10.081 8.59269L10.081 8.59273L10.084 8.59016C10.2482 8.44958 10.3667 8.33469 10.4262 8.24973L10.4264 8.24983L10.43 8.24408C10.4769 8.16878 10.557 8.05282 10.672 7.89461L10.6721 7.89464L10.6739 7.89201C10.7941 7.71742 10.8765 7.54962 10.9144 7.38937C10.9565 7.23607 10.9981 7.05294 11.0395 6.8405C11.0823 6.62067 11.1035 6.39236 11.1035 6.15575C11.1035 5.33982 10.8236 4.65887 10.2623 4.12274C9.69854 3.5754 8.9358 3.308 7.98932 3.308C7.17548 3.308 6.48828 3.4943 5.93583 3.87531C5.38363 4.25614 4.9766 4.82425 4.71022 5.56962M5.48183 6.22183L5.43721 6.3386M5.48183 6.22183L5.0248 6.05001C4.90128 6.00595 4.82305 5.95308 4.79011 5.8914C4.7654 5.82972 4.77776 5.7372 4.82717 5.61384L5.43721 6.3386M5.43721 6.3386L4.98176 6.16737C4.85203 6.12097 4.73563 6.05474 4.67985 5.95028L4.67337 5.93816L4.67407 5.93788C4.63031 5.82862 4.65972 5.69641 4.71022 5.56962M5.43721 6.3386L4.71022 5.56962M8.2247 13.2373L8.2248 13.2374L8.22887 13.233C8.35386 13.0993 8.39842 12.8805 8.39842 12.619V12.5132C8.39842 12.2517 8.35386 12.0329 8.22887 11.8992C8.10155 11.763 7.89133 11.7142 7.64346 11.7142H7.56934C7.32147 11.7142 7.11125 11.763 6.98393 11.8992C6.85894 12.0329 6.81438 12.2517 6.81438 12.5132V12.619C6.81438 12.8805 6.85894 13.0993 6.98393 13.233L6.98383 13.2331L6.9881 13.2373C7.11556 13.3613 7.32373 13.4048 7.56934 13.4048H7.64346C7.88907 13.4048 8.09724 13.3613 8.2247 13.2373ZM3.72644 14.8383C4.91903 15.6769 6.32185 16.125 7.75747 16.125C9.68274 16.125 11.5278 15.32 12.8871 13.8894C14.2462 12.459 15.0087 10.5203 15.0087 8.5C15.0087 6.9933 14.5842 5.51995 13.7883 4.26623C12.9923 3.01245 11.8602 2.03424 10.5345 1.45632C9.20875 0.878365 7.7495 0.72703 6.3416 1.02177C4.93376 1.31649 3.64149 2.04378 2.62784 3.1106C1.61425 4.17735 0.924654 5.53571 0.645332 7.01361C0.366013 8.49149 0.50932 10.0234 1.05737 11.4159C1.60543 12.8084 2.53394 13.9997 3.72644 14.8383ZM4.36514 3.14573C5.36987 2.43918 6.5504 2.0625 7.75747 2.0625C9.37595 2.0625 10.9295 2.7391 12.076 3.94572C13.2227 5.15255 13.8679 6.79067 13.8679 8.5C13.8679 9.7746 13.5088 11.0201 12.8365 12.0789C12.1643 13.1377 11.2096 13.9619 10.0937 14.4484C8.97797 14.9348 7.75063 15.0619 6.56661 14.8141C5.38253 14.5662 4.29397 13.9541 3.43895 13.0543C2.58387 12.1544 2.00089 11.007 1.76465 9.75707C1.5284 8.50709 1.6497 7.21151 2.11297 6.03442C2.57623 4.85737 3.36032 3.85235 4.36514 3.14573Z" fill="white" stroke="#3B5998" stroke-width="0.25"/>
</svg>
