<svg xmlns="http://www.w3.org/2000/svg" viewBox="0 0 32 32"><defs><style>.cls-1{fill:#3b5998;}.cls-2{fill:#fff;}</style></defs><g id="Laag_2" data-name="Laag 2"><g id="Laag_1-2" data-name="Laag 1"><g id="Icon_feather-info" data-name="Icon feather-info"><path class="cls-1" d="M16,0A16,16,0,1,0,32,16,16,16,0,0,0,16,0Zm1,22a1,1,0,0,1-2,0V16a1,1,0,0,1,2,0Zm-.3-11.3-.3.2h-.8l-.3-.2a1,1,0,0,1,0-1.4,1.4,1.4,0,0,1,.9-.3h.4a.1.1,0,0,1,.1.1,1,1,0,0,1,0,1.4Z"/><path class="cls-2" d="M17,16v6a1,1,0,0,1-2,0V16a1,1,0,0,1,2,0Z"/><path class="cls-2" d="M17,10a.9.9,0,0,1-.3.7l-.3.2h-.8l-.3-.2a1,1,0,0,1,0-1.4,1.4,1.4,0,0,1,.9-.3h.4a.1.1,0,0,1,.1.1A.9.9,0,0,1,17,10Z"/></g></g></g></svg>