<svg width="15" height="15" viewBox="0 0 15 15" fill="none" xmlns="http://www.w3.org/2000/svg">
<path d="M7.5 15C6.01664 15 4.5666 14.5601 3.33323 13.736C2.09986 12.9119 1.13856 11.7406 0.570907 10.3701C0.00324961 8.99968 -0.145275 7.49168 0.144114 6.03682C0.433503 4.58197 1.14781 3.2456 2.1967 2.1967C3.2456 1.14781 4.58197 0.433503 6.03683 0.144114C7.49168 -0.145275 8.99968 0.00324961 10.3701 0.570907C11.7406 1.13856 12.9119 2.09986 13.736 3.33323C14.5601 4.56659 15 6.01664 15 7.5C15 9.48913 14.2098 11.3968 12.8033 12.8033C11.3968 14.2098 9.48913 15 7.5 15ZM7.5 0.937503C6.20206 0.937503 4.93327 1.32239 3.85407 2.04348C2.77488 2.76458 1.93374 3.7895 1.43704 4.98864C0.940344 6.18778 0.810384 7.50728 1.0636 8.78028C1.31682 10.0533 1.94183 11.2226 2.85961 12.1404C3.7774 13.0582 4.94672 13.6832 6.21972 13.9364C7.49272 14.1896 8.81222 14.0597 10.0114 13.563C11.2105 13.0663 12.2354 12.2251 12.9565 11.1459C13.6776 10.0667 14.0625 8.79794 14.0625 7.5C14.0625 5.75952 13.3711 4.09032 12.1404 2.85961C10.9097 1.62891 9.24049 0.937503 7.5 0.937503Z" fill="white"/>
<path d="M7.50002 10.7812C7.43665 10.7888 7.37239 10.7818 7.31209 10.761C7.25179 10.7401 7.19701 10.7058 7.15188 10.6606C7.10676 10.6155 7.07246 10.5607 7.05157 10.5004C7.03067 10.4401 7.02374 10.3759 7.03127 10.3125V7.5C7.03127 7.37568 7.08066 7.25645 7.16857 7.16854C7.25647 7.08064 7.3757 7.03125 7.50002 7.03125C7.62434 7.03125 7.74357 7.08064 7.83148 7.16854C7.91939 7.25645 7.96877 7.37568 7.96877 7.5V10.3125C7.97631 10.3759 7.96937 10.4401 7.94848 10.5004C7.92759 10.5607 7.89329 10.6155 7.84816 10.6606C7.80303 10.7058 7.74826 10.7401 7.68795 10.761C7.62765 10.7818 7.5634 10.7888 7.50002 10.7812Z" fill="white"/>
<path d="M7.5 5.15625H7.21875C7.20631 5.15625 7.19439 5.15131 7.1856 5.14252C7.17681 5.13373 7.17187 5.12181 7.17187 5.10937L7.07812 4.96875C7.04595 4.9303 7.02464 4.88395 7.0164 4.83451C7.00816 4.78506 7.01328 4.7343 7.03125 4.6875C7.02423 4.62143 7.04084 4.555 7.07812 4.5L7.17187 4.35938C7.17187 4.34694 7.17681 4.33502 7.1856 4.32623C7.19439 4.31744 7.20631 4.3125 7.21875 4.3125H7.6875L7.82812 4.40625L7.92187 4.54687C7.95915 4.60188 7.97576 4.6683 7.96875 4.73438C7.97072 4.79602 7.95915 4.85735 7.93485 4.91404C7.91055 4.97074 7.87412 5.02141 7.82812 5.0625L7.6875 5.15625H7.5Z" fill="white"/>
</svg>
