<svg xmlns="http://www.w3.org/2000/svg" width="19.218" height="19.217" viewBox="0 0 19.218 19.217">
  <g id="top-icon-certified" transform="translate(-819.1 -22.101)">
    <path id="Icon_awesome-certificate" data-name="Icon awesome-certificate" d="M16.123,9,17.74,7.415A.838.838,0,0,0,17.365,6l-2.2-.562.621-2.18a.852.852,0,0,0-1.043-1.043l-2.179.621L12,.629A.844.844,0,0,0,10.582.254L9,1.883,7.418.254A.844.844,0,0,0,6,.629l-.562,2.2-2.18-.621A.852.852,0,0,0,2.216,3.254l.621,2.18L.635,6A.838.838,0,0,0,.26,7.415L1.877,9,.26,10.579A.838.838,0,0,0,.635,12l2.2.562-.621,2.18a.852.852,0,0,0,1.043,1.043l2.179-.621L6,17.365a.836.836,0,0,0,1.418.375L9,16.123l1.582,1.617A.839.839,0,0,0,12,17.365l.562-2.2,2.179.621a.852.852,0,0,0,1.043-1.043l-.621-2.18,2.2-.562a.838.838,0,0,0,.375-1.418L16.123,9Z" transform="translate(819.71 22.71)" fill="none" stroke="#3b5998" stroke-width="1.2"/>
    <path id="Path_589" data-name="Path 589" d="M1526.118,34.163l1.921,1.921,3.778-3.778" transform="translate(-700.069 -2.451)" fill="none" stroke="#3b5998" stroke-linecap="round" stroke-width="1.2"/>
  </g>
</svg>
