<svg width="23" height="16" viewBox="0 0 23 16" fill="none" xmlns="http://www.w3.org/2000/svg">
<rect width="22.4" height="16" rx="2" fill="white"/>
<mask id="mask0_1403_10754" style="mask-type:alpha" maskUnits="userSpaceOnUse" x="0" y="0" width="23" height="16">
<rect width="22.4" height="16" rx="2" fill="white"/>
</mask>
<g mask="url(#mask0_1403_10754)">
<path fill-rule="evenodd" clip-rule="evenodd" d="M22.4 0H0V1.06667H22.4V0ZM22.4 2.13337H0V3.20003H22.4V2.13337ZM0 4.26663H22.4V5.3333H0V4.26663ZM22.4 6.4H0V7.46667H22.4V6.4ZM0 8.53337H22.4V9.60003H0V8.53337ZM22.4 10.6666H0V11.7333H22.4V10.6666ZM0 12.8H22.4V13.8667H0V12.8ZM22.4 14.9334H0V16H22.4V14.9334Z" fill="#D02F44"/>
<rect width="9.6" height="7.46667" fill="#46467F"/>
<g filter="url(#filter0_d_1403_10754)">
<path fill-rule="evenodd" clip-rule="evenodd" d="M2.13356 1.59974C2.13356 1.89429 1.89478 2.13307 1.60023 2.13307C1.30568 2.13307 1.06689 1.89429 1.06689 1.59974C1.06689 1.30519 1.30568 1.06641 1.60023 1.06641C1.89478 1.06641 2.13356 1.30519 2.13356 1.59974ZM4.26683 1.59974C4.26683 1.89429 4.02805 2.13307 3.7335 2.13307C3.43894 2.13307 3.20016 1.89429 3.20016 1.59974C3.20016 1.30519 3.43894 1.06641 3.7335 1.06641C4.02805 1.06641 4.26683 1.30519 4.26683 1.59974ZM5.86696 2.13307C6.16151 2.13307 6.40029 1.89429 6.40029 1.59974C6.40029 1.30519 6.16151 1.06641 5.86696 1.06641C5.57241 1.06641 5.33363 1.30519 5.33363 1.59974C5.33363 1.89429 5.57241 2.13307 5.86696 2.13307ZM8.53356 1.59974C8.53356 1.89429 8.29478 2.13307 8.00023 2.13307C7.70568 2.13307 7.46689 1.89429 7.46689 1.59974C7.46689 1.30519 7.70568 1.06641 8.00023 1.06641C8.29478 1.06641 8.53356 1.30519 8.53356 1.59974ZM2.66696 3.19971C2.96151 3.19971 3.20029 2.96093 3.20029 2.66637C3.20029 2.37182 2.96151 2.13304 2.66696 2.13304C2.37241 2.13304 2.13363 2.37182 2.13363 2.66637C2.13363 2.96093 2.37241 3.19971 2.66696 3.19971ZM5.33356 2.66637C5.33356 2.96093 5.09478 3.19971 4.80023 3.19971C4.50568 3.19971 4.26689 2.96093 4.26689 2.66637C4.26689 2.37182 4.50568 2.13304 4.80023 2.13304C5.09478 2.13304 5.33356 2.37182 5.33356 2.66637ZM6.9335 3.19971C7.22805 3.19971 7.46683 2.96093 7.46683 2.66637C7.46683 2.37182 7.22805 2.13304 6.9335 2.13304C6.63894 2.13304 6.40016 2.37182 6.40016 2.66637C6.40016 2.96093 6.63894 3.19971 6.9335 3.19971ZM8.53356 3.73311C8.53356 4.02766 8.29478 4.26644 8.00023 4.26644C7.70568 4.26644 7.46689 4.02766 7.46689 3.73311C7.46689 3.43855 7.70568 3.19977 8.00023 3.19977C8.29478 3.19977 8.53356 3.43855 8.53356 3.73311ZM5.86696 4.26644C6.16151 4.26644 6.40029 4.02766 6.40029 3.73311C6.40029 3.43855 6.16151 3.19977 5.86696 3.19977C5.57241 3.19977 5.33363 3.43855 5.33363 3.73311C5.33363 4.02766 5.57241 4.26644 5.86696 4.26644ZM4.26683 3.73311C4.26683 4.02766 4.02805 4.26644 3.7335 4.26644C3.43894 4.26644 3.20016 4.02766 3.20016 3.73311C3.20016 3.43855 3.43894 3.19977 3.7335 3.19977C4.02805 3.19977 4.26683 3.43855 4.26683 3.73311ZM1.60023 4.26644C1.89478 4.26644 2.13356 4.02766 2.13356 3.73311C2.13356 3.43855 1.89478 3.19977 1.60023 3.19977C1.30568 3.19977 1.06689 3.43855 1.06689 3.73311C1.06689 4.02766 1.30568 4.26644 1.60023 4.26644ZM3.20029 4.79974C3.20029 5.09429 2.96151 5.33307 2.66696 5.33307C2.37241 5.33307 2.13363 5.09429 2.13363 4.79974C2.13363 4.50519 2.37241 4.26641 2.66696 4.26641C2.96151 4.26641 3.20029 4.50519 3.20029 4.79974ZM4.80023 5.33307C5.09478 5.33307 5.33356 5.09429 5.33356 4.79974C5.33356 4.50519 5.09478 4.26641 4.80023 4.26641C4.50568 4.26641 4.26689 4.50519 4.26689 4.79974C4.26689 5.09429 4.50568 5.33307 4.80023 5.33307ZM7.46683 4.79974C7.46683 5.09429 7.22805 5.33307 6.9335 5.33307C6.63894 5.33307 6.40016 5.09429 6.40016 4.79974C6.40016 4.50519 6.63894 4.26641 6.9335 4.26641C7.22805 4.26641 7.46683 4.50519 7.46683 4.79974ZM8.00023 6.39971C8.29478 6.39971 8.53356 6.16093 8.53356 5.86637C8.53356 5.57182 8.29478 5.33304 8.00023 5.33304C7.70568 5.33304 7.46689 5.57182 7.46689 5.86637C7.46689 6.16093 7.70568 6.39971 8.00023 6.39971ZM6.40029 5.86637C6.40029 6.16093 6.16151 6.39971 5.86696 6.39971C5.57241 6.39971 5.33363 6.16093 5.33363 5.86637C5.33363 5.57182 5.57241 5.33304 5.86696 5.33304C6.16151 5.33304 6.40029 5.57182 6.40029 5.86637ZM3.7335 6.39971C4.02805 6.39971 4.26683 6.16093 4.26683 5.86637C4.26683 5.57182 4.02805 5.33304 3.7335 5.33304C3.43894 5.33304 3.20016 5.57182 3.20016 5.86637C3.20016 6.16093 3.43894 6.39971 3.7335 6.39971ZM2.13356 5.86637C2.13356 6.16093 1.89478 6.39971 1.60023 6.39971C1.30568 6.39971 1.06689 6.16093 1.06689 5.86637C1.06689 5.57182 1.30568 5.33304 1.60023 5.33304C1.89478 5.33304 2.13356 5.57182 2.13356 5.86637Z" fill="url(#paint0_linear_1403_10754)"/>
</g>
</g>
<defs>
<filter id="filter0_d_1403_10754" x="1.06689" y="1.06641" width="7.4668" height="6.3335" filterUnits="userSpaceOnUse" color-interpolation-filters="sRGB">
<feFlood flood-opacity="0" result="BackgroundImageFix"/>
<feColorMatrix in="SourceAlpha" type="matrix" values="0 0 0 0 0 0 0 0 0 0 0 0 0 0 0 0 0 0 127 0" result="hardAlpha"/>
<feOffset dy="1"/>
<feColorMatrix type="matrix" values="0 0 0 0 0 0 0 0 0 0 0 0 0 0 0 0 0 0 0.06 0"/>
<feBlend mode="normal" in2="BackgroundImageFix" result="effect1_dropShadow_1403_10754"/>
<feBlend mode="normal" in="SourceGraphic" in2="effect1_dropShadow_1403_10754" result="shape"/>
</filter>
<linearGradient id="paint0_linear_1403_10754" x1="1.06689" y1="1.06641" x2="1.06689" y2="6.39974" gradientUnits="userSpaceOnUse">
<stop stop-color="white"/>
<stop offset="1" stop-color="#F0F0F0"/>
</linearGradient>
</defs>
</svg>
