<svg width="16" height="15" viewBox="0 0 16 15" fill="none" xmlns="http://www.w3.org/2000/svg">
<path d="M4.74853 4.61384C5.3189 3.15994 6.47776 2.433 8.2251 2.433C9.2391 2.433 10.0403 2.69293 10.6288 3.21281C11.2173 3.72388 11.5115 4.37152 11.5115 5.15575C11.5115 5.38484 11.4889 5.60513 11.4436 5.81661C11.3984 6.02808 11.3531 6.20872 11.3078 6.35851C11.2716 6.4995 11.1901 6.6537 11.0634 6.82112C10.9366 6.97972 10.8461 7.09868 10.7918 7.17798C10.7375 7.24848 10.6198 7.35421 10.4387 7.4952C10.2576 7.62737 10.1445 7.71108 10.0992 7.74632C10.063 7.77276 9.93622 7.84766 9.71894 7.97102C9.5107 8.09438 9.40206 8.16047 9.39301 8.16928C9.05802 8.38075 8.8 8.59663 8.61893 8.81692C8.43786 9.0284 8.34732 9.30155 8.34732 9.63639C8.34732 9.76856 8.32016 9.85668 8.26584 9.90073C8.22057 9.94479 8.13456 9.96682 8.00781 9.96682H7.58682C7.46007 9.96682 7.36953 9.94479 7.31521 9.90073C7.26994 9.85668 7.24731 9.76856 7.24731 9.63639C7.24731 9.05483 7.36953 8.60104 7.61398 8.27501C7.85843 7.94899 8.20699 7.64059 8.65967 7.34981C9.21194 6.99735 9.56503 6.733 9.71894 6.55677C10.0539 6.18669 10.2214 5.7373 10.2214 5.20861C10.2214 4.72398 10.0449 4.32747 9.69178 4.01906C9.33869 3.71066 8.84074 3.55646 8.19794 3.55646C7.59135 3.55646 7.11151 3.67982 6.75842 3.92654C6.40533 4.17326 6.12467 4.53454 5.91644 5.01036C5.86211 5.13372 5.80327 5.21302 5.73989 5.24827C5.68557 5.2747 5.59503 5.26589 5.46828 5.22183L4.96581 5.05001C4.83001 5.00595 4.744 4.95308 4.70778 4.8914C4.68062 4.82972 4.6942 4.7372 4.74853 4.61384ZM7.84485 10.8392C8.1074 10.8392 8.28847 10.8876 8.38806 10.9845C8.48765 11.0815 8.53745 11.2577 8.53745 11.5132V11.619C8.53745 11.8745 8.48765 12.0507 8.38806 12.1477C8.28847 12.2358 8.1074 12.2798 7.84485 12.2798H7.76336C7.50081 12.2798 7.31974 12.2358 7.22015 12.1477C7.12056 12.0507 7.07077 11.8745 7.07077 11.619V11.5132C7.07077 11.2577 7.12056 11.0815 7.22015 10.9845C7.31974 10.8876 7.50081 10.8392 7.76336 10.8392H7.84485Z" fill="#3B5998"/>
<path d="M7.9702 15C6.42062 15 4.90584 14.5601 3.61741 13.736C2.32898 12.9119 1.32477 11.7406 0.73177 10.3701C0.138771 8.99968 -0.0163849 7.49168 0.285923 6.03683C0.588232 4.58197 1.33443 3.2456 2.43015 2.1967C3.52586 1.14781 4.9219 0.433503 6.4417 0.144114C7.96151 -0.145275 9.53683 0.00324959 10.9685 0.570907C12.4001 1.13856 13.6237 2.09986 14.4846 3.33323C15.3455 4.56659 15.805 6.01664 15.805 7.5C15.805 9.48913 14.9796 11.3968 13.5103 12.8033C12.0409 14.2098 10.0481 15 7.9702 15ZM7.9702 0.937503C6.61432 0.937503 5.28888 1.32239 4.16151 2.04348C3.03413 2.76458 2.15545 3.7895 1.63657 4.98864C1.1177 6.18778 0.981938 7.50728 1.24646 8.78028C1.51098 10.0533 2.1639 11.2226 3.12265 12.1404C4.08141 13.0582 5.30293 13.6832 6.63276 13.9364C7.96259 14.1896 9.341 14.0597 10.5937 13.563C11.8463 13.0663 12.917 12.2251 13.6703 11.1459C14.4236 10.0667 14.8257 8.79794 14.8257 7.5C14.8257 5.75952 14.1034 4.09032 12.8177 2.85961C11.5321 1.62891 9.78838 0.937503 7.9702 0.937503Z" fill="#3B5998"/>
</svg>
